<svg width="1921" height="1081" viewBox="0 0 1921 1081" fill="none" xmlns="http://www.w3.org/2000/svg">
<g id="phylogenetic tree">
<rect width="1920" height="1080" transform="translate(0.600098 0.640137)" fill="white"/>
<g id="Phylogenetic_tree" opacity="0.1">
<g id="toucan-svgrepo-com" clip-path="url(#clip0_33_2489)">
<g id="Group">
<g id="Group_2">
<path id="Vector" d="M963.092 438.606C962.958 437.948 962.376 437.453 961.678 437.453H959.659C958.863 437.453 958.217 438.099 958.217 438.896C958.217 439.694 958.863 440.34 959.659 440.34H960.235V442.905C960.235 443.702 960.881 444.348 961.678 444.348C962.476 444.348 963.121 443.702 963.121 442.905V438.896C963.121 438.797 963.111 438.7 963.092 438.606Z" fill="#B36F0F"/>
<g id="Group_3">
<path id="Vector_2" d="M960.206 438.606C960.072 437.948 959.49 437.453 958.792 437.453H956.774C955.977 437.453 955.331 438.099 955.331 438.896C955.331 439.694 955.977 440.34 956.774 440.34H957.349V442.905C957.349 443.702 957.995 444.348 958.792 444.348C959.59 444.348 960.235 443.702 960.235 442.905V438.896C960.235 438.797 960.226 438.7 960.206 438.606Z" fill="#B36F0F"/>
</g>
<path id="Vector_3" d="M957.32 438.606C957.185 437.948 956.604 437.453 955.906 437.453H953.888C953.09 437.453 952.444 438.099 952.444 438.896C952.444 439.694 953.09 440.34 953.888 440.34H954.463V442.905C954.463 443.702 955.109 444.348 955.906 444.348C956.703 444.348 957.349 443.702 957.349 442.905V438.896C957.349 438.797 957.339 438.7 957.32 438.606Z" fill="#B36F0F"/>
</g>
<path id="Vector_4" d="M954.9 415.748C947.629 415.748 941.736 409.855 941.736 402.584C941.736 395.314 947.63 389.421 954.9 389.421H992.696C992.696 403.96 980.909 415.747 966.369 415.748H954.9Z" fill="#2D3740"/>
<path id="Vector_5" d="M915.741 460.801C942.1 460.801 963.468 439.433 963.468 413.074V345.479C937.109 345.479 915.742 366.847 915.742 393.206" fill="#333E48"/>
<path id="Vector_6" d="M915.741 460.801C942.1 460.801 963.468 439.433 963.468 413.074V345.479C937.109 345.479 915.742 366.847 915.742 393.206" fill="#333E48"/>
<path id="Vector_7" d="M915.741 460.802H887.344L915.741 432.405L915.742 393.208C915.742 366.849 937.11 345.481 963.468 345.481V413.076C963.468 439.434 942.1 460.802 915.741 460.802Z" fill="#333E48"/>
<path id="Vector_8" d="M939.09 374.918C939.09 383.947 944.002 391.823 951.295 396.036V413.774C951.295 420.815 954.736 427.05 960.024 430.9C962.344 425.332 963.468 419.577 963.468 413.074V350.54C950.004 350.54 939.09 361.454 939.09 374.918Z" fill="white"/>
<path id="Vector_9" d="M926.76 416.304C934.031 416.304 939.924 410.411 939.924 403.14C939.924 395.87 934.031 389.976 926.76 389.977H888.965C888.965 404.516 900.752 416.303 915.292 416.304L926.76 416.304Z" fill="#2D3740"/>
<path id="Vector_10" d="M952.444 368.719C954.122 368.719 955.483 367.359 955.483 365.68C955.483 364.002 954.122 362.642 952.444 362.642C950.766 362.642 949.405 364.002 949.405 365.68C949.405 367.359 950.766 368.719 952.444 368.719Z" fill="#2D3740"/>
<g id="Group_4">
<path id="Vector_11" d="M1022.34 374.918C1022.34 358.659 1009.16 345.479 992.906 345.479H963.468V374.918H1022.34Z" fill="#ED9900"/>
<path id="Vector_12" d="M1013.82 354.206C1007.58 357.721 1003.36 364.407 1003.36 372.083C1003.36 373.045 1003.43 373.99 1003.56 374.917H1022.34C1022.34 366.84 1019.09 359.525 1013.82 354.206Z" fill="#333E48"/>
<path id="Vector_13" d="M1022.34 374.917H963.468V379.867H1022.34V374.917Z" fill="#B36F0F"/>
</g>
<g id="Group_5">
<path id="Vector_14" d="M957.32 438.606C957.185 437.948 956.603 437.453 955.906 437.453H953.887C953.09 437.453 952.444 438.099 952.444 438.896C952.444 439.694 953.09 440.34 953.887 440.34H954.463V442.905C954.463 443.702 955.109 444.348 955.906 444.348C956.703 444.348 957.349 443.702 957.349 442.905V438.896C957.349 438.797 957.339 438.7 957.32 438.606Z" fill="#FFB648"/>
<g id="Group_6">
<path id="Vector_15" d="M954.434 438.606C954.299 437.948 953.717 437.453 953.02 437.453H951.001C950.204 437.453 949.558 438.099 949.558 438.896C949.558 439.694 950.204 440.34 951.001 440.34H951.577V442.905C951.577 443.702 952.223 444.348 953.02 444.348C953.817 444.348 954.463 443.702 954.463 442.905V438.896C954.463 438.797 954.453 438.7 954.434 438.606Z" fill="#FFB648"/>
</g>
<path id="Vector_16" d="M951.547 438.606C951.413 437.948 950.831 437.453 950.133 437.453H948.115C947.318 437.453 946.672 438.099 946.672 438.896C946.672 439.694 947.318 440.34 948.115 440.34H948.69V442.905C948.69 443.702 949.336 444.348 950.133 444.348C950.931 444.348 951.577 443.702 951.577 442.905V438.896C951.577 438.797 951.566 438.7 951.547 438.606Z" fill="#FFB648"/>
</g>
</g>
</g>
<g id="pig-svgrepo-com" clip-path="url(#clip1_33_2489)">
<g id="Group_7">
<g id="Group_8">
<path id="Vector_17" d="M509.233 196.471H487.389V226.342H509.233V196.471Z" fill="#DB8689"/>
<path id="Vector_18" d="M487.389 226.342V232.765H503.141L505.424 230.436L507.707 232.765H509.233V226.342H487.389Z" fill="#283038"/>
</g>
<g id="Group_9">
<path id="Vector_19" d="M558.797 196.471H536.953V226.342H558.797V196.471Z" fill="#DB8689"/>
<path id="Vector_20" d="M536.953 226.342V232.765H552.704L554.987 230.436L557.271 232.765H558.797V226.342H536.953Z" fill="#283038"/>
</g>
<g id="Group_10">
<path id="Vector_21" d="M464.115 166.705H457.635C453.063 166.705 449.344 162.911 449.344 158.248C449.344 153.585 453.063 149.792 457.635 149.792C458.912 149.792 459.947 150.847 459.947 152.15C459.947 153.452 458.911 154.508 457.635 154.508C455.613 154.508 453.969 156.186 453.969 158.248C453.969 160.31 455.613 161.988 457.635 161.988H464.115C465.392 161.988 466.428 163.044 466.428 164.347C466.428 165.649 465.392 166.705 464.115 166.705Z" fill="#FF9C9F"/>
<path id="Vector_22" d="M464.115 166.705C459.544 166.705 455.825 162.912 455.825 158.249C455.825 153.586 459.544 149.792 464.115 149.792C468.687 149.792 472.407 153.586 472.407 158.249C472.407 162.912 468.687 166.705 464.115 166.705ZM464.115 154.508C462.093 154.508 460.449 156.186 460.449 158.248C460.449 160.311 462.093 161.988 464.115 161.988C466.137 161.988 467.782 160.311 467.782 158.248C467.782 156.187 466.137 154.508 464.115 154.508Z" fill="#DB8689"/>
</g>
<g id="Group_11">
<path id="Vector_23" d="M561.822 134.859C566.56 127.099 578.832 120.734 586.544 125.46L575.917 143.498L561.822 134.859Z" fill="#FF9C9F"/>
<path id="Vector_24" d="M587.908 147.621C590.857 140.596 591.198 130.263 586.544 125.461C580.202 123.523 571.417 128.682 566.72 134.635C566.718 134.641 566.647 134.751 566.616 134.802C565.9 136.018 566.286 137.595 567.477 138.325L584.359 148.672C585.551 149.402 587.096 149.009 587.813 147.794C587.843 147.741 587.905 147.626 587.908 147.621Z" fill="#FFB6B6"/>
</g>
<path id="Vector_25" d="M472.199 226.342V232.765H487.951L490.233 230.436L492.517 232.765H494.043V226.342H472.199Z" fill="#333E48"/>
<path id="Vector_26" d="M559.836 129.837C547.782 129.837 537.153 136.057 530.865 145.523H497.404C478.227 145.523 462.681 161.38 462.681 180.94C462.681 190.377 466.3 198.952 472.199 205.3V226.342H494.043V216.192C495.149 216.301 496.27 216.358 497.404 216.358H521.762V226.342H543.606V214.379C550.562 211.897 556.507 207.223 560.645 201.166C579.585 200.727 594.805 184.931 594.805 165.507C594.805 145.807 579.149 129.837 559.836 129.837Z" fill="#FF9C9F"/>
<g id="Group_12">
<path id="Vector_27" d="M589.281 176.873H572.693C567.136 176.873 562.63 172.277 562.63 166.609C562.63 160.94 567.136 156.344 572.693 156.344H589.281V176.873Z" fill="#DB8689"/>
<path id="Vector_28" d="M589.281 156.344C594.838 156.344 599.344 160.94 599.344 166.609C599.344 172.278 594.838 176.873 589.281 176.873H579.214C573.657 176.873 569.151 172.277 569.151 166.609C569.151 160.94 573.657 156.344 579.214 156.344H589.281Z" fill="#FFB6B6"/>
<path id="Vector_29" d="M577.446 163.751C577.446 162.34 578.568 161.196 579.951 161.196C581.334 161.196 582.455 162.34 582.455 163.751V169.467C582.455 170.877 581.334 172.021 579.951 172.021C578.568 172.021 577.446 170.877 577.446 169.467V163.751Z" fill="#DB8689"/>
<path id="Vector_30" d="M593.539 163.751C593.539 162.34 592.418 161.196 591.035 161.196C589.651 161.196 588.531 162.34 588.531 163.751V169.467C588.531 170.877 589.651 172.021 591.035 172.021C592.418 172.021 593.539 170.877 593.539 169.467V163.751Z" fill="#DB8689"/>
</g>
<path id="Vector_31" d="M564.053 152.656C565.596 152.656 566.846 151.381 566.846 149.807C566.846 148.233 565.596 146.958 564.053 146.958C562.51 146.958 561.259 148.233 561.259 149.807C561.259 151.381 562.51 152.656 564.053 152.656Z" fill="#333E48"/>
<path id="Vector_32" d="M585.671 152.656C587.214 152.656 588.464 151.38 588.464 149.807C588.464 148.234 587.214 146.958 585.671 146.958C584.128 146.958 582.878 148.234 582.878 149.807C582.878 151.38 584.128 152.656 585.671 152.656Z" fill="#333E48"/>
<path id="Vector_33" d="M521.762 226.342V232.765H537.514L539.797 230.436L542.079 232.765H543.606V226.342H521.762Z" fill="#333E48"/>
<path id="Vector_34" d="M478.376 174.902C480.996 174.902 483.121 172.735 483.121 170.062C483.121 167.389 480.996 165.222 478.376 165.222C475.755 165.222 473.631 167.389 473.631 170.062C473.631 172.735 475.755 174.902 478.376 174.902Z" fill="#DB8689"/>
<path id="Vector_35" d="M494.043 166.036C496.663 166.036 498.788 163.869 498.788 161.196C498.788 158.523 496.663 156.356 494.043 156.356C491.422 156.356 489.298 158.523 489.298 161.196C489.298 163.869 491.422 166.036 494.043 166.036Z" fill="#DB8689"/>
<path id="Vector_36" d="M491.182 177.42C492.742 177.42 494.006 176.13 494.006 174.539C494.006 172.948 492.742 171.658 491.182 171.658C489.622 171.658 488.357 172.948 488.357 174.539C488.357 176.13 489.622 177.42 491.182 177.42Z" fill="#DB8689"/>
<g id="Group_13">
<path id="Vector_37" d="M532.535 150.371C528.316 142.304 529.047 128.282 536.916 123.833L546.918 142.238L532.535 150.371Z" fill="#FF9C9F"/>
<path id="Vector_38" d="M556.414 133.708C551.923 127.591 543.32 122.123 536.917 123.833C532.101 128.467 532.088 138.805 534.794 145.931C534.798 145.937 534.855 146.054 534.884 146.108C535.557 147.348 537.089 147.796 538.305 147.109L555.532 137.369C556.747 136.682 557.186 135.119 556.513 133.879C556.484 133.825 556.417 133.713 556.414 133.708Z" fill="#FFB6B6"/>
</g>
</g>
</g>
<g id="giraffe-svgrepo-com" clip-path="url(#clip2_33_2489)">
<g id="Group_14">
<g id="Group_15">
<path id="Vector_39" d="M714.943 248.644L712.228 310.747C712.228 311.24 711.829 311.64 711.335 311.64H703.28C702.787 311.64 702.387 311.24 702.387 310.747L699.671 248.644H714.943Z" fill="#ED9900"/>
<path id="Vector_40" d="M702.222 306.971L702.387 310.747C702.387 311.241 702.787 311.64 703.28 311.64H711.335C711.828 311.64 712.228 311.241 712.228 310.747L712.393 306.971H702.222Z" fill="#333E48"/>
</g>
<g id="Group_16">
<path id="Vector_41" d="M763.365 248.644L760.65 310.747C760.65 311.24 760.251 311.64 759.758 311.64H751.702C751.209 311.64 750.809 311.24 750.809 310.747L748.094 248.644H763.365Z" fill="#ED9900"/>
<path id="Vector_42" d="M750.645 306.971L750.81 310.747C750.81 311.241 751.209 311.64 751.702 311.64H759.758C760.251 311.64 760.65 311.241 760.65 310.747L760.816 306.971H750.645Z" fill="#333E48"/>
</g>
<path id="Vector_43" d="M748.377 137.64C747.175 137.64 746.201 138.614 746.201 139.817V147.582H750.554V139.817C750.554 138.614 749.579 137.64 748.377 137.64Z" fill="#65513C"/>
<path id="Vector_44" d="M755.223 137.64C754.021 137.64 753.046 138.614 753.046 139.817V147.582H757.399V139.817C757.4 138.614 756.425 137.64 755.223 137.64Z" fill="#65513C"/>
<g id="Group_17">
<path id="Vector_45" d="M676.882 250.407C676.156 250.407 675.566 249.817 675.566 249.091C675.566 239.614 683.276 231.904 692.752 231.904C693.479 231.904 694.069 232.494 694.069 233.22C694.069 233.947 693.479 234.537 692.752 234.537C684.727 234.537 678.199 241.065 678.199 249.091C678.199 249.817 677.61 250.407 676.882 250.407Z" fill="#FFB648"/>
<path id="Vector_46" d="M679.346 251.403L678.779 254.542C678.59 255.59 677.588 256.286 676.54 256.096C675.728 255.95 675.127 255.309 674.986 254.542L674.42 251.403C674.175 250.042 675.077 248.741 676.438 248.495C677.799 248.25 679.1 249.154 679.346 250.514C679.399 250.813 679.396 251.119 679.346 251.403Z" fill="#65513C"/>
</g>
<path id="Vector_47" d="M775.831 152.257C771.056 152.257 766.736 150.309 763.623 147.164H763.621C762.042 145.276 759.67 144.074 757.015 144.074C756.956 144.074 756.897 144.082 756.837 144.082V144.074H749.345C744.771 144.074 741.04 147.643 740.761 152.146L740.751 152.148L734.826 226.376H706.943C694.645 226.376 684.675 236.346 684.675 248.644C684.675 260.942 694.645 270.912 706.943 270.912H743.359C755.657 270.912 765.627 260.942 765.627 248.644V226.376L761.748 165.213H775.831C779.408 165.213 782.308 162.313 782.308 158.735C782.309 155.157 779.408 152.257 775.831 152.257Z" fill="#FFB648"/>
<g id="Group_18">
<path id="Vector_48" d="M699.947 248.644L697.232 310.747C697.232 311.24 696.832 311.64 696.339 311.64H688.283C687.79 311.64 687.391 311.24 687.391 310.747L684.675 248.644H699.947Z" fill="#FFB648"/>
<path id="Vector_49" d="M687.226 306.971L687.391 310.747C687.391 311.241 687.791 311.64 688.284 311.64H696.339C696.832 311.64 697.232 311.241 697.232 310.747L697.397 306.971H687.226Z" fill="#333E48"/>
</g>
<g id="Group_19">
<path id="Vector_50" d="M748.37 248.644L745.654 310.747C745.654 311.24 745.255 311.64 744.761 311.64H736.706C736.213 311.64 735.813 311.24 735.813 310.747L733.098 248.644H748.37Z" fill="#FFB648"/>
<path id="Vector_51" d="M735.648 306.971L735.813 310.747C735.813 311.241 736.213 311.64 736.706 311.64H744.762C745.255 311.64 745.654 311.241 745.654 310.747L745.82 306.971H735.648Z" fill="#333E48"/>
</g>
<g id="Group_20">
<path id="Vector_52" d="M718.695 226.376H706.944C706.85 226.376 706.756 226.382 706.662 226.383C705.072 227.944 704.083 230.115 704.083 232.519C704.083 237.267 707.933 241.117 712.682 241.117C717.432 241.117 721.281 237.268 721.281 232.519C721.282 230.111 720.289 227.937 718.695 226.376Z" fill="#65513C"/>
<path id="Vector_53" d="M737.767 195.566C737.604 195.566 737.446 195.583 737.284 195.59L735.592 216.779C736.295 216.924 737.021 217 737.767 217C743.686 217 748.484 212.202 748.484 206.283C748.484 200.365 743.686 195.566 737.767 195.566Z" fill="#65513C"/>
<path id="Vector_54" d="M740.734 253.954C746.653 253.954 751.452 249.155 751.452 243.236C751.452 237.317 746.653 232.519 740.734 232.519C734.815 232.519 730.017 237.317 730.017 243.236C730.017 249.155 734.815 253.954 740.734 253.954Z" fill="#65513C"/>
<path id="Vector_55" d="M762.631 179.124C757.302 179.744 753.164 184.268 753.164 189.762C753.164 195.681 757.962 200.479 763.881 200.479C763.916 200.479 763.95 200.475 763.985 200.474L762.631 179.124Z" fill="#65513C"/>
<path id="Vector_56" d="M755.677 229.063C758.905 229.063 761.522 226.446 761.522 223.218C761.522 219.99 758.905 217.373 755.677 217.373C752.449 217.373 749.833 219.99 749.833 223.218C749.833 226.446 752.449 229.063 755.677 229.063Z" fill="#65513C"/>
<path id="Vector_57" d="M758.29 241.117C758.29 245.17 761.575 248.454 765.627 248.454V233.78C761.575 233.78 758.29 237.065 758.29 241.117Z" fill="#65513C"/>
<path id="Vector_58" d="M746.24 181.68C748.932 181.68 751.113 179.498 751.113 176.807C751.113 174.116 748.932 171.935 746.24 171.935C743.549 171.935 741.368 174.116 741.368 176.807C741.368 179.498 743.549 181.68 746.24 181.68Z" fill="#65513C"/>
<path id="Vector_59" d="M720.279 259.941C722.969 259.941 725.151 257.759 725.151 255.069C725.151 252.378 722.969 250.196 720.279 250.196C717.588 250.196 715.406 252.378 715.406 255.069C715.406 257.759 717.588 259.941 720.279 259.941Z" fill="#65513C"/>
<path id="Vector_60" d="M699.211 250.196C701.902 250.196 704.083 248.015 704.083 245.323C704.083 242.632 701.902 240.451 699.211 240.451C696.519 240.451 694.338 242.632 694.338 245.323C694.338 248.015 696.519 250.196 699.211 250.196Z" fill="#65513C"/>
</g>
<path id="Vector_61" d="M755.224 154.571C756.401 154.571 757.355 153.616 757.355 152.439C757.355 151.262 756.401 150.307 755.224 150.307C754.046 150.307 753.092 151.262 753.092 152.439C753.092 153.616 754.046 154.571 755.224 154.571Z" fill="#333E48"/>
<path id="Vector_62" d="M776.713 152.324C774.424 155.535 773.073 159.461 773.073 163.705C773.073 164.213 773.098 164.715 773.136 165.214H775.831C779.408 165.214 782.309 162.313 782.309 158.735C782.309 155.458 779.872 152.756 776.713 152.324Z" fill="#ED9900"/>
<g id="Group_21">
<path id="Vector_63" d="M739.168 151.315C736.845 148.992 736.273 146.19 737.809 144.654C739.344 143.118 742.146 143.691 744.47 146.014C746.794 148.338 747.366 151.139 745.83 152.676C744.294 154.211 741.493 153.639 739.168 151.315Z" fill="#FFB648"/>
<path id="Vector_64" d="M744.539 151.383C745.29 150.632 744.681 148.806 743.179 147.304C741.677 145.802 739.85 145.193 739.099 145.944C738.348 146.695 738.957 148.521 740.459 150.023C741.961 151.525 743.788 152.134 744.539 151.383Z" fill="#ED9900"/>
</g>
</g>
</g>
<g id="monkey-svgrepo-com" clip-path="url(#clip3_33_2489)">
<g id="Group_22">
<g id="Group_23">
<path id="Vector_65" d="M262.467 206.13V197.561C262.467 194.774 264.678 192.513 267.405 192.513C270.133 192.513 272.344 194.774 272.344 197.561V206.13C272.344 208.918 270.133 211.179 267.405 211.179C264.678 211.179 262.467 208.918 262.467 206.13Z" fill="#FF9C9F"/>
<path id="Vector_66" d="M262.467 197.561C262.467 187.984 254.844 180.191 245.474 180.191C236.104 180.191 228.481 187.984 228.481 197.561V209.073C228.481 211.86 226.27 214.121 223.542 214.121C220.814 214.121 218.604 211.86 218.604 209.073V197.561C218.604 182.416 230.657 170.094 245.474 170.094C260.291 170.094 272.344 182.415 272.344 197.561H262.467Z" fill="#4D3D2D"/>
</g>
<path id="Vector_67" d="M200.178 225.105H182.966C171.624 225.105 162.395 215.673 162.395 204.078V192.647C162.395 187.704 158.461 183.682 153.625 183.682C148.789 183.682 144.855 187.704 144.855 192.647C144.855 194.768 143.173 196.486 141.099 196.486C139.026 196.486 137.344 194.768 137.344 192.647C137.344 183.471 144.648 176.004 153.625 176.004C162.603 176.004 169.907 183.471 169.907 192.647V204.078C169.907 211.439 175.765 217.428 182.966 217.428H200.179C202.252 217.428 203.934 219.147 203.934 221.267C203.934 223.387 202.252 225.105 200.178 225.105Z" fill="#4D3D2D"/>
<path id="Vector_68" d="M253.574 225.904C255.508 225.904 257.076 227.507 257.076 229.485C257.076 231.462 255.508 233.065 253.574 233.065H242.702C240.768 233.065 239.2 231.462 239.2 229.485C239.2 227.507 240.768 225.904 242.702 225.904H253.574Z" fill="#DB8689"/>
<path id="Vector_69" d="M227.65 196.623C217.805 196.623 209.825 204.781 209.825 214.844C209.825 224.907 217.806 233.065 227.65 233.065H245.474V214.844C245.474 204.781 237.494 196.623 227.65 196.623Z" fill="#4D3D2D"/>
<path id="Vector_70" d="M183.963 191.792C183.963 177.441 195.345 165.807 209.383 165.807C223.423 165.807 234.804 177.441 234.804 191.792V207.079C234.804 221.431 223.423 233.065 209.383 233.065C195.345 233.065 183.963 221.431 183.963 207.079V191.792Z" fill="#65513C"/>
<g id="Group_24">
<path id="Vector_71" d="M227.193 126.215C242.224 126.215 254.41 138.671 254.41 154.037C254.41 169.402 242.224 181.858 227.193 181.858H212.032C197.001 181.858 184.815 169.402 184.815 154.037C184.815 138.671 197.001 126.215 212.032 126.215H227.193Z" fill="#65513C"/>
<path id="Vector_72" d="M252.909 163.149C253.877 160.294 254.41 157.23 254.41 154.037C254.41 150.225 253.658 146.594 252.301 143.286C250.163 141.657 247.712 140.436 245.057 139.732C241.712 140.836 238.926 143.21 237.253 146.306C235.115 142.347 231.157 139.562 226.533 139.119C215.724 139.962 207.208 149.188 207.208 160.454C207.208 171.949 216.077 181.316 227.201 181.823C227.46 181.844 227.725 181.858 228.005 181.858H244.525C250.64 181.858 255.598 176.79 255.598 170.539C255.598 167.714 254.583 165.133 252.909 163.149Z" fill="#FF9C9F"/>
<path id="Vector_73" d="M222.686 156.227C223.961 156.227 224.994 155.171 224.994 153.869C224.994 152.566 223.961 151.51 222.686 151.51C221.412 151.51 220.379 152.566 220.379 153.869C220.379 155.171 221.412 156.227 222.686 156.227Z" fill="#333E48"/>
<path id="Vector_74" d="M249.76 156.227C251.035 156.227 252.068 155.171 252.068 153.869C252.068 152.566 251.035 151.51 249.76 151.51C248.486 151.51 247.453 152.566 247.453 153.869C247.453 155.171 248.486 156.227 249.76 156.227Z" fill="#333E48"/>
<path id="Vector_75" d="M235.702 163.594C235.484 163.594 235.266 163.509 235.101 163.339L233.7 161.907C233.368 161.567 233.368 161.017 233.7 160.678C234.032 160.338 234.57 160.338 234.903 160.678L236.303 162.11C236.635 162.449 236.635 163 236.303 163.339C236.137 163.509 235.919 163.594 235.702 163.594Z" fill="#333E48"/>
<path id="Vector_76" d="M242.324 163.594C242.106 163.594 241.888 163.509 241.723 163.339C241.391 163 241.391 162.449 241.723 162.11L243.123 160.678C243.454 160.338 243.993 160.338 244.326 160.678C244.658 161.017 244.658 161.567 244.326 161.907L242.925 163.339C242.759 163.509 242.541 163.594 242.324 163.594Z" fill="#333E48"/>
<g id="Group_25">
<path id="Vector_77" d="M191.261 143.591C185.617 143.591 181.042 148.268 181.042 154.037C181.042 159.806 185.617 164.484 191.261 164.484V143.591Z" fill="#65513C"/>
<path id="Vector_78" d="M191.261 147.627C187.797 147.627 184.99 150.497 184.99 154.037C184.99 157.577 187.797 160.448 191.261 160.448V147.627Z" fill="#FF9C9F"/>
</g>
</g>
<g id="Group_26">
<path id="Vector_79" d="M223.232 225.904C225.167 225.904 226.735 227.507 226.735 229.484C226.735 231.462 225.167 233.065 223.232 233.065H212.361C210.426 233.065 208.858 231.462 208.858 229.484C208.858 227.507 210.426 225.904 212.361 225.904H223.232Z" fill="#FF9C9F"/>
<path id="Vector_80" d="M197.308 196.623C187.464 196.623 179.483 204.781 179.483 214.844C179.483 224.907 187.464 233.065 197.308 233.065H215.133V214.844C215.133 204.781 207.152 196.623 197.308 196.623Z" fill="#65513C"/>
</g>
<g id="Group_27">
<path id="Vector_81" d="M192.361 145.082H183.979C181.251 145.082 179.04 142.821 179.04 140.034C179.04 137.245 181.251 134.985 183.979 134.985H192.361C195.088 134.985 197.299 137.245 197.299 140.034C197.3 142.821 195.088 145.082 192.361 145.082Z" fill="#FF9C9F"/>
<path id="Vector_82" d="M183.979 145.082C174.609 145.082 166.986 152.874 166.986 162.452C166.986 172.031 174.609 179.823 183.979 179.823H195.239C197.967 179.823 200.178 182.084 200.178 184.871C200.178 187.66 197.967 189.919 195.239 189.919H183.979C169.162 189.919 157.108 177.598 157.108 162.452C157.108 147.306 169.162 134.985 183.979 134.985V145.082Z" fill="#65513C"/>
</g>
</g>
</g>
<g id="crocodile-svgrepo-com" clip-path="url(#clip4_33_2489)">
<g id="Group_28">
<path id="Vector_83" d="M1052.85 548.251H1052.98C1054.02 543.429 1058.31 539.814 1063.45 539.814C1068.58 539.814 1072.87 543.429 1073.91 548.251H1091.28C1091.28 541.192 1097.01 535.47 1104.06 535.47C1108.77 535.47 1112.88 538.019 1115.1 541.808C1116.32 541.256 1117.68 540.942 1119.11 540.942H1204.29C1225.31 540.942 1243.25 554.17 1250.23 572.755H1028.34C1028.34 559.222 1039.32 548.251 1052.85 548.251Z" fill="#00833E"/>
<path id="Vector_84" d="M1056.82 550.527C1056.82 546.868 1059.79 543.901 1063.45 543.901C1067.1 543.901 1070.07 546.868 1070.07 550.527H1056.82Z" fill="#006931"/>
<path id="Vector_85" d="M1104.07 553.513C1101.16 553.513 1098.8 551.157 1098.8 548.25C1098.8 545.344 1101.16 542.987 1104.07 542.987C1106.97 542.987 1109.33 545.344 1109.33 548.25C1109.33 551.157 1106.97 553.513 1104.07 553.513Z" fill="#333E48"/>
<path id="Vector_86" d="M1250.23 572.755C1252.24 578.118 1253.34 583.928 1253.34 589.996H1045.58C1036.06 589.996 1028.34 582.277 1028.34 572.755L1250.23 572.755Z" fill="#E1CB81"/>
<path id="Vector_87" d="M1160.21 585.678C1160.21 588.201 1158.16 590.248 1155.64 590.248H1111.15C1115.63 578.302 1127.16 569.799 1140.67 569.799H1153.92C1157.4 569.799 1160.21 572.615 1160.21 576.086V585.678Z" fill="#006931"/>
<g id="Group_29">
<path id="Vector_88" d="M1123.45 540.942C1123.45 537.126 1126.55 534.033 1130.36 534.033C1134.18 534.033 1137.27 537.126 1137.27 540.942H1123.45Z" fill="#006931"/>
<path id="Vector_89" d="M1139.98 540.942C1139.98 537.126 1143.07 534.033 1146.88 534.033C1150.7 534.033 1153.79 537.126 1153.79 540.942H1139.98Z" fill="#006931"/>
<path id="Vector_90" d="M1156.5 540.942C1156.5 537.126 1159.59 534.033 1163.41 534.033C1167.22 534.033 1170.31 537.126 1170.31 540.942H1156.5Z" fill="#006931"/>
<path id="Vector_91" d="M1173.02 540.942C1173.02 537.126 1176.11 534.033 1179.93 534.033C1183.74 534.033 1186.84 537.126 1186.84 540.942H1173.02Z" fill="#006931"/>
<path id="Vector_92" d="M1189.54 540.942C1189.54 537.126 1192.63 534.033 1196.45 534.033C1200.27 534.033 1203.36 537.126 1203.36 540.942H1189.54Z" fill="#006931"/>
</g>
<g id="Group_30">
<path id="Vector_93" d="M1166.38 589.996C1166.38 580.474 1174.09 572.754 1183.62 572.754H1250.23C1252.24 578.118 1253.34 583.927 1253.34 589.996H1166.38Z" fill="#00833E"/>
<g id="Group_31">
<path id="Vector_94" d="M1183.71 572.755C1183.71 568.94 1186.81 565.847 1190.62 565.847C1194.44 565.847 1197.53 568.94 1197.53 572.755H1183.71Z" fill="#006931"/>
<path id="Vector_95" d="M1200.24 572.755C1200.24 568.94 1203.33 565.847 1207.15 565.847C1210.96 565.847 1214.05 568.94 1214.05 572.755H1200.24Z" fill="#006931"/>
<path id="Vector_96" d="M1216.76 572.755C1216.76 568.94 1219.85 565.847 1223.67 565.847C1227.48 565.847 1230.58 568.94 1230.58 572.755H1216.76Z" fill="#006931"/>
<path id="Vector_97" d="M1233.28 572.755C1233.28 568.94 1236.37 565.847 1240.19 565.847C1244.01 565.847 1247.1 568.94 1247.1 572.755H1233.28Z" fill="#006931"/>
</g>
</g>
<g id="Group_32">
<path id="Vector_98" d="M1090.65 572.755L1095.58 581.289L1100.51 572.755H1090.65Z" fill="white"/>
<path id="Vector_99" d="M1078.85 572.755L1083.78 581.289L1088.7 572.755H1078.85Z" fill="white"/>
<path id="Vector_100" d="M1067.05 572.755L1071.97 581.289L1076.9 572.755H1067.05Z" fill="white"/>
<path id="Vector_101" d="M1055.25 572.755L1060.17 581.289L1065.1 572.755H1055.25Z" fill="white"/>
<path id="Vector_102" d="M1043.44 572.755L1048.37 581.289L1053.3 572.755H1043.44Z" fill="white"/>
<path id="Vector_103" d="M1031.64 572.755L1036.57 581.289L1041.5 572.755H1031.64Z" fill="white"/>
</g>
</g>
</g>
<line id="Line 6" x1="208.344" y1="284.64" x2="208.344" y2="494.64" stroke="#38332D" stroke-width="4"/>
<line id="Line 7" x1="523.344" y1="284.64" x2="523.344" y2="494.64" stroke="#38332D" stroke-width="4"/>
<line id="Line 10" x1="730.344" y1="362.64" x2="730.344" y2="632.64" stroke="#38332D" stroke-width="4"/>
<line id="Line 11" x1="367.344" y1="494.64" x2="367.344" y2="629.64" stroke="#38332D" stroke-width="4"/>
<line id="Line 16" x1="523.344" y1="632.64" x2="523.344" y2="767.64" stroke="#38332D" stroke-width="4"/>
<line id="Line 17" x1="730.344" y1="767.64" x2="730.344" y2="902.64" stroke="#38332D" stroke-width="4"/>
<line id="Line 18" x1="937.344" y1="902.64" x2="937.344" y2="1037.64" stroke="#38332D" stroke-width="4"/>
<line id="Line 8" x1="206.344" y1="492.64" x2="524.344" y2="492.64" stroke="#38332D" stroke-width="4"/>
<line id="Line 9" x1="365.344" y1="630.64" x2="728.344" y2="630.64" stroke="#38332D" stroke-width="4"/>
<line id="Line 12" x1="937.344" y1="497.64" x2="937.344" y2="767.64" stroke="#38332D" stroke-width="4"/>
<line id="Line 13" x1="521.344" y1="765.64" x2="935.344" y2="765.64" stroke="#38332D" stroke-width="4"/>
<line id="Line 14" x1="1144.34" y1="632.64" x2="1144.34" y2="902.64" stroke="#38332D" stroke-width="4"/>
<line id="Line 15" x1="728.344" y1="900.64" x2="1142.34" y2="900.64" stroke="#38332D" stroke-width="4"/>
</g>
<g id="Phylogenetic_tree_bis">
<g id="toucan-svgrepo-com_2" clip-path="url(#clip5_33_2489)">
<g id="Group_33">
<g id="Group_34">
<path id="Vector_104" d="M963.092 438.606C962.958 437.948 962.376 437.453 961.678 437.453H959.659C958.863 437.453 958.217 438.099 958.217 438.896C958.217 439.694 958.863 440.34 959.659 440.34H960.235V442.905C960.235 443.702 960.881 444.348 961.678 444.348C962.476 444.348 963.121 443.702 963.121 442.905V438.896C963.121 438.797 963.111 438.7 963.092 438.606Z" fill="#B36F0F"/>
<g id="Group_35">
<path id="Vector_105" d="M960.206 438.606C960.072 437.948 959.49 437.453 958.792 437.453H956.774C955.977 437.453 955.331 438.099 955.331 438.896C955.331 439.694 955.977 440.34 956.774 440.34H957.349V442.905C957.349 443.702 957.995 444.348 958.792 444.348C959.59 444.348 960.235 443.702 960.235 442.905V438.896C960.235 438.797 960.226 438.7 960.206 438.606Z" fill="#B36F0F"/>
</g>
<path id="Vector_106" d="M957.32 438.606C957.185 437.948 956.604 437.453 955.906 437.453H953.888C953.09 437.453 952.444 438.099 952.444 438.896C952.444 439.694 953.09 440.34 953.888 440.34H954.463V442.905C954.463 443.702 955.109 444.348 955.906 444.348C956.703 444.348 957.349 443.702 957.349 442.905V438.896C957.349 438.797 957.339 438.7 957.32 438.606Z" fill="#B36F0F"/>
</g>
<path id="Vector_107" d="M954.9 415.748C947.629 415.748 941.736 409.855 941.736 402.584C941.736 395.314 947.63 389.421 954.9 389.421H992.696C992.696 403.96 980.909 415.747 966.369 415.748H954.9Z" fill="#2D3740"/>
<path id="Vector_108" d="M915.741 460.801C942.1 460.801 963.468 439.433 963.468 413.074V345.479C937.109 345.479 915.742 366.847 915.742 393.206" fill="#333E48"/>
<path id="Vector_109" d="M915.741 460.801C942.1 460.801 963.468 439.433 963.468 413.074V345.479C937.109 345.479 915.742 366.847 915.742 393.206" fill="#333E48"/>
<path id="Vector_110" d="M915.741 460.802H887.344L915.741 432.405L915.742 393.208C915.742 366.849 937.11 345.481 963.468 345.481V413.076C963.468 439.434 942.1 460.802 915.741 460.802Z" fill="#333E48"/>
<path id="Vector_111" d="M939.09 374.918C939.09 383.947 944.002 391.823 951.295 396.036V413.774C951.295 420.815 954.736 427.05 960.024 430.9C962.344 425.332 963.468 419.577 963.468 413.074V350.54C950.004 350.54 939.09 361.454 939.09 374.918Z" fill="white"/>
<path id="Vector_112" d="M926.76 416.304C934.031 416.304 939.924 410.411 939.924 403.14C939.924 395.87 934.031 389.976 926.76 389.977H888.965C888.965 404.516 900.752 416.303 915.292 416.304L926.76 416.304Z" fill="#2D3740"/>
<path id="Vector_113" d="M952.444 368.719C954.122 368.719 955.483 367.359 955.483 365.68C955.483 364.002 954.122 362.642 952.444 362.642C950.766 362.642 949.405 364.002 949.405 365.68C949.405 367.359 950.766 368.719 952.444 368.719Z" fill="#2D3740"/>
<g id="Group_36">
<path id="Vector_114" d="M1022.34 374.918C1022.34 358.659 1009.16 345.479 992.906 345.479H963.468V374.918H1022.34Z" fill="#ED9900"/>
<path id="Vector_115" d="M1013.82 354.206C1007.58 357.721 1003.36 364.407 1003.36 372.083C1003.36 373.045 1003.43 373.99 1003.56 374.917H1022.34C1022.34 366.84 1019.09 359.525 1013.82 354.206Z" fill="#333E48"/>
<path id="Vector_116" d="M1022.34 374.917H963.468V379.867H1022.34V374.917Z" fill="#B36F0F"/>
</g>
<g id="Group_37">
<path id="Vector_117" d="M957.32 438.606C957.185 437.948 956.603 437.453 955.906 437.453H953.887C953.09 437.453 952.444 438.099 952.444 438.896C952.444 439.694 953.09 440.34 953.887 440.34H954.463V442.905C954.463 443.702 955.109 444.348 955.906 444.348C956.703 444.348 957.349 443.702 957.349 442.905V438.896C957.349 438.797 957.339 438.7 957.32 438.606Z" fill="#FFB648"/>
<g id="Group_38">
<path id="Vector_118" d="M954.434 438.606C954.299 437.948 953.717 437.453 953.02 437.453H951.001C950.204 437.453 949.558 438.099 949.558 438.896C949.558 439.694 950.204 440.34 951.001 440.34H951.577V442.905C951.577 443.702 952.223 444.348 953.02 444.348C953.817 444.348 954.463 443.702 954.463 442.905V438.896C954.463 438.797 954.453 438.7 954.434 438.606Z" fill="#FFB648"/>
</g>
<path id="Vector_119" d="M951.547 438.606C951.413 437.948 950.831 437.453 950.133 437.453H948.115C947.318 437.453 946.672 438.099 946.672 438.896C946.672 439.694 947.318 440.34 948.115 440.34H948.69V442.905C948.69 443.702 949.336 444.348 950.133 444.348C950.931 444.348 951.577 443.702 951.577 442.905V438.896C951.577 438.797 951.566 438.7 951.547 438.606Z" fill="#FFB648"/>
</g>
</g>
</g>
<g id="pig-svgrepo-com_2" clip-path="url(#clip6_33_2489)">
<g id="Group_39">
<g id="Group_40">
<path id="Vector_120" d="M509.233 196.471H487.389V226.342H509.233V196.471Z" fill="#DB8689"/>
<path id="Vector_121" d="M487.389 226.342V232.765H503.141L505.424 230.436L507.707 232.765H509.233V226.342H487.389Z" fill="#283038"/>
</g>
<g id="Group_41">
<path id="Vector_122" d="M558.797 196.471H536.953V226.342H558.797V196.471Z" fill="#DB8689"/>
<path id="Vector_123" d="M536.953 226.342V232.765H552.704L554.987 230.436L557.271 232.765H558.797V226.342H536.953Z" fill="#283038"/>
</g>
<g id="Group_42">
<path id="Vector_124" d="M464.115 166.705H457.635C453.063 166.705 449.344 162.911 449.344 158.248C449.344 153.585 453.063 149.792 457.635 149.792C458.912 149.792 459.947 150.847 459.947 152.15C459.947 153.452 458.911 154.508 457.635 154.508C455.613 154.508 453.969 156.186 453.969 158.248C453.969 160.31 455.613 161.988 457.635 161.988H464.115C465.392 161.988 466.428 163.044 466.428 164.347C466.428 165.649 465.392 166.705 464.115 166.705Z" fill="#FF9C9F"/>
<path id="Vector_125" d="M464.115 166.705C459.544 166.705 455.825 162.912 455.825 158.249C455.825 153.586 459.544 149.792 464.115 149.792C468.687 149.792 472.407 153.586 472.407 158.249C472.407 162.912 468.687 166.705 464.115 166.705ZM464.115 154.508C462.093 154.508 460.449 156.186 460.449 158.248C460.449 160.311 462.093 161.988 464.115 161.988C466.137 161.988 467.782 160.311 467.782 158.248C467.782 156.187 466.137 154.508 464.115 154.508Z" fill="#DB8689"/>
</g>
<g id="Group_43">
<path id="Vector_126" d="M561.822 134.859C566.56 127.099 578.832 120.734 586.544 125.46L575.917 143.498L561.822 134.859Z" fill="#FF9C9F"/>
<path id="Vector_127" d="M587.908 147.621C590.857 140.596 591.198 130.263 586.544 125.461C580.202 123.523 571.417 128.682 566.72 134.635C566.718 134.641 566.647 134.751 566.616 134.802C565.9 136.018 566.286 137.595 567.477 138.325L584.359 148.672C585.551 149.402 587.096 149.009 587.813 147.794C587.843 147.741 587.905 147.626 587.908 147.621Z" fill="#FFB6B6"/>
</g>
<path id="Vector_128" d="M472.199 226.342V232.765H487.951L490.233 230.436L492.517 232.765H494.043V226.342H472.199Z" fill="#333E48"/>
<path id="Vector_129" d="M559.836 129.837C547.782 129.837 537.153 136.057 530.865 145.523H497.404C478.227 145.523 462.681 161.38 462.681 180.94C462.681 190.377 466.3 198.952 472.199 205.3V226.342H494.043V216.192C495.149 216.301 496.27 216.358 497.404 216.358H521.762V226.342H543.606V214.379C550.562 211.897 556.507 207.223 560.645 201.166C579.585 200.727 594.805 184.931 594.805 165.507C594.805 145.807 579.149 129.837 559.836 129.837Z" fill="#FF9C9F"/>
<g id="Group_44">
<path id="Vector_130" d="M589.281 176.873H572.693C567.136 176.873 562.63 172.277 562.63 166.609C562.63 160.94 567.136 156.344 572.693 156.344H589.281V176.873Z" fill="#DB8689"/>
<path id="Vector_131" d="M589.281 156.344C594.838 156.344 599.344 160.94 599.344 166.609C599.344 172.278 594.838 176.873 589.281 176.873H579.214C573.657 176.873 569.151 172.277 569.151 166.609C569.151 160.94 573.657 156.344 579.214 156.344H589.281Z" fill="#FFB6B6"/>
<path id="Vector_132" d="M577.446 163.751C577.446 162.34 578.568 161.196 579.951 161.196C581.334 161.196 582.455 162.34 582.455 163.751V169.467C582.455 170.877 581.334 172.021 579.951 172.021C578.568 172.021 577.446 170.877 577.446 169.467V163.751Z" fill="#DB8689"/>
<path id="Vector_133" d="M593.539 163.751C593.539 162.34 592.418 161.196 591.035 161.196C589.651 161.196 588.531 162.34 588.531 163.751V169.467C588.531 170.877 589.651 172.021 591.035 172.021C592.418 172.021 593.539 170.877 593.539 169.467V163.751Z" fill="#DB8689"/>
</g>
<path id="Vector_134" d="M564.053 152.656C565.596 152.656 566.846 151.381 566.846 149.807C566.846 148.233 565.596 146.958 564.053 146.958C562.51 146.958 561.259 148.233 561.259 149.807C561.259 151.381 562.51 152.656 564.053 152.656Z" fill="#333E48"/>
<path id="Vector_135" d="M585.671 152.656C587.214 152.656 588.464 151.38 588.464 149.807C588.464 148.234 587.214 146.958 585.671 146.958C584.128 146.958 582.878 148.234 582.878 149.807C582.878 151.38 584.128 152.656 585.671 152.656Z" fill="#333E48"/>
<path id="Vector_136" d="M521.762 226.342V232.765H537.514L539.797 230.436L542.079 232.765H543.606V226.342H521.762Z" fill="#333E48"/>
<path id="Vector_137" d="M478.376 174.902C480.996 174.902 483.121 172.735 483.121 170.062C483.121 167.389 480.996 165.222 478.376 165.222C475.755 165.222 473.631 167.389 473.631 170.062C473.631 172.735 475.755 174.902 478.376 174.902Z" fill="#DB8689"/>
<path id="Vector_138" d="M494.043 166.036C496.663 166.036 498.788 163.869 498.788 161.196C498.788 158.523 496.663 156.356 494.043 156.356C491.422 156.356 489.298 158.523 489.298 161.196C489.298 163.869 491.422 166.036 494.043 166.036Z" fill="#DB8689"/>
<path id="Vector_139" d="M491.182 177.42C492.742 177.42 494.006 176.13 494.006 174.539C494.006 172.948 492.742 171.658 491.182 171.658C489.622 171.658 488.357 172.948 488.357 174.539C488.357 176.13 489.622 177.42 491.182 177.42Z" fill="#DB8689"/>
<g id="Group_45">
<path id="Vector_140" d="M532.535 150.371C528.316 142.304 529.047 128.282 536.916 123.833L546.918 142.238L532.535 150.371Z" fill="#FF9C9F"/>
<path id="Vector_141" d="M556.414 133.708C551.923 127.591 543.32 122.123 536.917 123.833C532.101 128.467 532.088 138.805 534.794 145.931C534.798 145.937 534.855 146.054 534.884 146.108C535.557 147.348 537.089 147.796 538.305 147.109L555.532 137.369C556.747 136.682 557.186 135.119 556.513 133.879C556.484 133.825 556.417 133.713 556.414 133.708Z" fill="#FFB6B6"/>
</g>
</g>
</g>
<g id="giraffe-svgrepo-com_2" clip-path="url(#clip7_33_2489)">
<g id="Group_46">
<g id="Group_47">
<path id="Vector_142" d="M714.943 248.644L712.228 310.747C712.228 311.24 711.829 311.64 711.335 311.64H703.28C702.787 311.64 702.387 311.24 702.387 310.747L699.671 248.644H714.943Z" fill="#ED9900"/>
<path id="Vector_143" d="M702.222 306.971L702.387 310.747C702.387 311.241 702.787 311.64 703.28 311.64H711.335C711.828 311.64 712.228 311.241 712.228 310.747L712.393 306.971H702.222Z" fill="#333E48"/>
</g>
<g id="Group_48">
<path id="Vector_144" d="M763.365 248.644L760.65 310.747C760.65 311.24 760.251 311.64 759.758 311.64H751.702C751.209 311.64 750.809 311.24 750.809 310.747L748.094 248.644H763.365Z" fill="#ED9900"/>
<path id="Vector_145" d="M750.645 306.971L750.81 310.747C750.81 311.241 751.209 311.64 751.702 311.64H759.758C760.251 311.64 760.65 311.241 760.65 310.747L760.816 306.971H750.645Z" fill="#333E48"/>
</g>
<path id="Vector_146" d="M748.377 137.64C747.175 137.64 746.201 138.614 746.201 139.817V147.582H750.554V139.817C750.554 138.614 749.579 137.64 748.377 137.64Z" fill="#65513C"/>
<path id="Vector_147" d="M755.223 137.64C754.021 137.64 753.046 138.614 753.046 139.817V147.582H757.399V139.817C757.4 138.614 756.425 137.64 755.223 137.64Z" fill="#65513C"/>
<g id="Group_49">
<path id="Vector_148" d="M676.882 250.407C676.156 250.407 675.566 249.817 675.566 249.091C675.566 239.614 683.276 231.904 692.752 231.904C693.479 231.904 694.069 232.494 694.069 233.22C694.069 233.947 693.479 234.537 692.752 234.537C684.727 234.537 678.199 241.065 678.199 249.091C678.199 249.817 677.61 250.407 676.882 250.407Z" fill="#FFB648"/>
<path id="Vector_149" d="M679.346 251.403L678.779 254.542C678.59 255.59 677.588 256.286 676.54 256.096C675.728 255.95 675.127 255.309 674.986 254.542L674.42 251.403C674.175 250.042 675.077 248.741 676.438 248.495C677.799 248.25 679.1 249.154 679.346 250.514C679.399 250.813 679.396 251.119 679.346 251.403Z" fill="#65513C"/>
</g>
<path id="Vector_150" d="M775.831 152.257C771.056 152.257 766.736 150.309 763.623 147.164H763.621C762.042 145.276 759.67 144.074 757.015 144.074C756.956 144.074 756.897 144.082 756.837 144.082V144.074H749.345C744.771 144.074 741.04 147.643 740.761 152.146L740.751 152.148L734.826 226.376H706.943C694.645 226.376 684.675 236.346 684.675 248.644C684.675 260.942 694.645 270.912 706.943 270.912H743.359C755.657 270.912 765.627 260.942 765.627 248.644V226.376L761.748 165.213H775.831C779.408 165.213 782.308 162.313 782.308 158.735C782.309 155.157 779.408 152.257 775.831 152.257Z" fill="#FFB648"/>
<g id="Group_50">
<path id="Vector_151" d="M699.947 248.644L697.232 310.747C697.232 311.24 696.832 311.64 696.339 311.64H688.283C687.79 311.64 687.391 311.24 687.391 310.747L684.675 248.644H699.947Z" fill="#FFB648"/>
<path id="Vector_152" d="M687.226 306.971L687.391 310.747C687.391 311.241 687.791 311.64 688.284 311.64H696.339C696.832 311.64 697.232 311.241 697.232 310.747L697.397 306.971H687.226Z" fill="#333E48"/>
</g>
<g id="Group_51">
<path id="Vector_153" d="M748.37 248.644L745.654 310.747C745.654 311.24 745.255 311.64 744.761 311.64H736.706C736.213 311.64 735.813 311.24 735.813 310.747L733.098 248.644H748.37Z" fill="#FFB648"/>
<path id="Vector_154" d="M735.648 306.971L735.813 310.747C735.813 311.241 736.213 311.64 736.706 311.64H744.762C745.255 311.64 745.654 311.241 745.654 310.747L745.82 306.971H735.648Z" fill="#333E48"/>
</g>
<g id="Group_52">
<path id="Vector_155" d="M718.695 226.376H706.944C706.85 226.376 706.756 226.382 706.662 226.383C705.072 227.944 704.083 230.115 704.083 232.519C704.083 237.267 707.933 241.117 712.682 241.117C717.432 241.117 721.281 237.268 721.281 232.519C721.282 230.111 720.289 227.937 718.695 226.376Z" fill="#65513C"/>
<path id="Vector_156" d="M737.767 195.566C737.604 195.566 737.446 195.583 737.284 195.59L735.592 216.779C736.295 216.924 737.021 217 737.767 217C743.686 217 748.484 212.202 748.484 206.283C748.484 200.365 743.686 195.566 737.767 195.566Z" fill="#65513C"/>
<path id="Vector_157" d="M740.734 253.954C746.653 253.954 751.452 249.155 751.452 243.236C751.452 237.317 746.653 232.519 740.734 232.519C734.815 232.519 730.017 237.317 730.017 243.236C730.017 249.155 734.815 253.954 740.734 253.954Z" fill="#65513C"/>
<path id="Vector_158" d="M762.631 179.124C757.302 179.744 753.164 184.268 753.164 189.762C753.164 195.681 757.962 200.479 763.881 200.479C763.916 200.479 763.95 200.475 763.985 200.474L762.631 179.124Z" fill="#65513C"/>
<path id="Vector_159" d="M755.677 229.063C758.905 229.063 761.522 226.446 761.522 223.218C761.522 219.99 758.905 217.373 755.677 217.373C752.449 217.373 749.833 219.99 749.833 223.218C749.833 226.446 752.449 229.063 755.677 229.063Z" fill="#65513C"/>
<path id="Vector_160" d="M758.29 241.117C758.29 245.17 761.575 248.454 765.627 248.454V233.78C761.575 233.78 758.29 237.065 758.29 241.117Z" fill="#65513C"/>
<path id="Vector_161" d="M746.24 181.68C748.932 181.68 751.113 179.498 751.113 176.807C751.113 174.116 748.932 171.935 746.24 171.935C743.549 171.935 741.368 174.116 741.368 176.807C741.368 179.498 743.549 181.68 746.24 181.68Z" fill="#65513C"/>
<path id="Vector_162" d="M720.279 259.941C722.969 259.941 725.151 257.759 725.151 255.069C725.151 252.378 722.969 250.196 720.279 250.196C717.588 250.196 715.406 252.378 715.406 255.069C715.406 257.759 717.588 259.941 720.279 259.941Z" fill="#65513C"/>
<path id="Vector_163" d="M699.211 250.196C701.902 250.196 704.083 248.015 704.083 245.323C704.083 242.632 701.902 240.451 699.211 240.451C696.519 240.451 694.338 242.632 694.338 245.323C694.338 248.015 696.519 250.196 699.211 250.196Z" fill="#65513C"/>
</g>
<path id="Vector_164" d="M755.224 154.571C756.401 154.571 757.355 153.616 757.355 152.439C757.355 151.262 756.401 150.307 755.224 150.307C754.046 150.307 753.092 151.262 753.092 152.439C753.092 153.616 754.046 154.571 755.224 154.571Z" fill="#333E48"/>
<path id="Vector_165" d="M776.713 152.324C774.424 155.535 773.073 159.461 773.073 163.705C773.073 164.213 773.098 164.715 773.136 165.214H775.831C779.408 165.214 782.309 162.313 782.309 158.735C782.309 155.458 779.872 152.756 776.713 152.324Z" fill="#ED9900"/>
<g id="Group_53">
<path id="Vector_166" d="M739.168 151.315C736.845 148.992 736.273 146.19 737.809 144.654C739.344 143.118 742.146 143.691 744.47 146.014C746.794 148.338 747.366 151.139 745.83 152.676C744.294 154.211 741.493 153.639 739.168 151.315Z" fill="#FFB648"/>
<path id="Vector_167" d="M744.539 151.383C745.29 150.632 744.681 148.806 743.179 147.304C741.677 145.802 739.85 145.193 739.099 145.944C738.348 146.695 738.957 148.521 740.459 150.023C741.961 151.525 743.788 152.134 744.539 151.383Z" fill="#ED9900"/>
</g>
</g>
</g>
<g id="monkey-svgrepo-com_2" clip-path="url(#clip8_33_2489)">
<g id="Group_54">
<g id="Group_55">
<path id="Vector_168" d="M262.467 206.13V197.561C262.467 194.774 264.678 192.513 267.405 192.513C270.133 192.513 272.344 194.774 272.344 197.561V206.13C272.344 208.918 270.133 211.179 267.405 211.179C264.678 211.179 262.467 208.918 262.467 206.13Z" fill="#FF9C9F"/>
<path id="Vector_169" d="M262.467 197.561C262.467 187.984 254.844 180.191 245.474 180.191C236.104 180.191 228.481 187.984 228.481 197.561V209.073C228.481 211.86 226.27 214.121 223.542 214.121C220.814 214.121 218.604 211.86 218.604 209.073V197.561C218.604 182.416 230.657 170.094 245.474 170.094C260.291 170.094 272.344 182.415 272.344 197.561H262.467Z" fill="#4D3D2D"/>
</g>
<path id="Vector_170" d="M200.178 225.105H182.966C171.624 225.105 162.395 215.673 162.395 204.078V192.647C162.395 187.704 158.461 183.682 153.625 183.682C148.789 183.682 144.855 187.704 144.855 192.647C144.855 194.768 143.173 196.486 141.099 196.486C139.026 196.486 137.344 194.768 137.344 192.647C137.344 183.471 144.648 176.004 153.625 176.004C162.603 176.004 169.907 183.471 169.907 192.647V204.078C169.907 211.439 175.765 217.428 182.966 217.428H200.179C202.252 217.428 203.934 219.147 203.934 221.267C203.934 223.387 202.252 225.105 200.178 225.105Z" fill="#4D3D2D"/>
<path id="Vector_171" d="M253.574 225.904C255.508 225.904 257.076 227.507 257.076 229.485C257.076 231.462 255.508 233.065 253.574 233.065H242.702C240.768 233.065 239.2 231.462 239.2 229.485C239.2 227.507 240.768 225.904 242.702 225.904H253.574Z" fill="#DB8689"/>
<path id="Vector_172" d="M227.65 196.623C217.805 196.623 209.825 204.781 209.825 214.844C209.825 224.907 217.806 233.065 227.65 233.065H245.474V214.844C245.474 204.781 237.494 196.623 227.65 196.623Z" fill="#4D3D2D"/>
<path id="Vector_173" d="M183.963 191.792C183.963 177.441 195.345 165.807 209.383 165.807C223.423 165.807 234.804 177.441 234.804 191.792V207.079C234.804 221.431 223.423 233.065 209.383 233.065C195.345 233.065 183.963 221.431 183.963 207.079V191.792Z" fill="#65513C"/>
<g id="Group_56">
<path id="Vector_174" d="M227.193 126.215C242.224 126.215 254.41 138.671 254.41 154.037C254.41 169.402 242.224 181.858 227.193 181.858H212.032C197.001 181.858 184.815 169.402 184.815 154.037C184.815 138.671 197.001 126.215 212.032 126.215H227.193Z" fill="#65513C"/>
<path id="Vector_175" d="M252.909 163.149C253.877 160.294 254.41 157.23 254.41 154.037C254.41 150.225 253.658 146.594 252.301 143.286C250.163 141.657 247.712 140.436 245.057 139.732C241.712 140.836 238.926 143.21 237.253 146.306C235.115 142.347 231.157 139.562 226.533 139.119C215.724 139.962 207.208 149.188 207.208 160.454C207.208 171.949 216.077 181.316 227.201 181.823C227.46 181.844 227.725 181.858 228.005 181.858H244.525C250.64 181.858 255.598 176.79 255.598 170.539C255.598 167.714 254.583 165.133 252.909 163.149Z" fill="#FF9C9F"/>
<path id="Vector_176" d="M222.686 156.227C223.961 156.227 224.994 155.171 224.994 153.869C224.994 152.566 223.961 151.51 222.686 151.51C221.412 151.51 220.379 152.566 220.379 153.869C220.379 155.171 221.412 156.227 222.686 156.227Z" fill="#333E48"/>
<path id="Vector_177" d="M249.76 156.227C251.035 156.227 252.068 155.171 252.068 153.869C252.068 152.566 251.035 151.51 249.76 151.51C248.486 151.51 247.453 152.566 247.453 153.869C247.453 155.171 248.486 156.227 249.76 156.227Z" fill="#333E48"/>
<path id="Vector_178" d="M235.702 163.594C235.484 163.594 235.266 163.509 235.101 163.339L233.7 161.907C233.368 161.567 233.368 161.017 233.7 160.678C234.032 160.338 234.57 160.338 234.903 160.678L236.303 162.11C236.635 162.449 236.635 163 236.303 163.339C236.137 163.509 235.919 163.594 235.702 163.594Z" fill="#333E48"/>
<path id="Vector_179" d="M242.324 163.594C242.106 163.594 241.888 163.509 241.723 163.339C241.391 163 241.391 162.449 241.723 162.11L243.123 160.678C243.454 160.338 243.993 160.338 244.326 160.678C244.658 161.017 244.658 161.567 244.326 161.907L242.925 163.339C242.759 163.509 242.541 163.594 242.324 163.594Z" fill="#333E48"/>
<g id="Group_57">
<path id="Vector_180" d="M191.261 143.591C185.617 143.591 181.042 148.268 181.042 154.037C181.042 159.806 185.617 164.484 191.261 164.484V143.591Z" fill="#65513C"/>
<path id="Vector_181" d="M191.261 147.627C187.797 147.627 184.99 150.497 184.99 154.037C184.99 157.577 187.797 160.448 191.261 160.448V147.627Z" fill="#FF9C9F"/>
</g>
</g>
<g id="Group_58">
<path id="Vector_182" d="M223.232 225.904C225.167 225.904 226.735 227.507 226.735 229.484C226.735 231.462 225.167 233.065 223.232 233.065H212.361C210.426 233.065 208.858 231.462 208.858 229.484C208.858 227.507 210.426 225.904 212.361 225.904H223.232Z" fill="#FF9C9F"/>
<path id="Vector_183" d="M197.308 196.623C187.464 196.623 179.483 204.781 179.483 214.844C179.483 224.907 187.464 233.065 197.308 233.065H215.133V214.844C215.133 204.781 207.152 196.623 197.308 196.623Z" fill="#65513C"/>
</g>
<g id="Group_59">
<path id="Vector_184" d="M192.361 145.082H183.979C181.251 145.082 179.04 142.821 179.04 140.034C179.04 137.245 181.251 134.985 183.979 134.985H192.361C195.088 134.985 197.299 137.245 197.299 140.034C197.3 142.821 195.088 145.082 192.361 145.082Z" fill="#FF9C9F"/>
<path id="Vector_185" d="M183.979 145.082C174.609 145.082 166.986 152.874 166.986 162.452C166.986 172.031 174.609 179.823 183.979 179.823H195.239C197.967 179.823 200.178 182.084 200.178 184.871C200.178 187.66 197.967 189.919 195.239 189.919H183.979C169.162 189.919 157.108 177.598 157.108 162.452C157.108 147.306 169.162 134.985 183.979 134.985V145.082Z" fill="#65513C"/>
</g>
</g>
</g>
<g id="crocodile-svgrepo-com_2" clip-path="url(#clip9_33_2489)">
<g id="Group_60">
<path id="Vector_186" d="M1052.85 548.251H1052.98C1054.02 543.429 1058.31 539.814 1063.45 539.814C1068.58 539.814 1072.87 543.429 1073.91 548.251H1091.28C1091.28 541.192 1097.01 535.47 1104.06 535.47C1108.77 535.47 1112.88 538.019 1115.1 541.808C1116.32 541.256 1117.68 540.942 1119.11 540.942H1204.29C1225.31 540.942 1243.25 554.17 1250.23 572.755H1028.34C1028.34 559.222 1039.32 548.251 1052.85 548.251Z" fill="#00833E"/>
<path id="Vector_187" d="M1056.82 550.527C1056.82 546.868 1059.79 543.901 1063.45 543.901C1067.1 543.901 1070.07 546.868 1070.07 550.527H1056.82Z" fill="#006931"/>
<path id="Vector_188" d="M1104.07 553.513C1101.16 553.513 1098.8 551.157 1098.8 548.25C1098.8 545.344 1101.16 542.987 1104.07 542.987C1106.97 542.987 1109.33 545.344 1109.33 548.25C1109.33 551.157 1106.97 553.513 1104.07 553.513Z" fill="#333E48"/>
<path id="Vector_189" d="M1250.23 572.755C1252.24 578.118 1253.34 583.928 1253.34 589.996H1045.58C1036.06 589.996 1028.34 582.277 1028.34 572.755L1250.23 572.755Z" fill="#E1CB81"/>
<path id="Vector_190" d="M1160.21 585.678C1160.21 588.201 1158.16 590.248 1155.64 590.248H1111.15C1115.63 578.302 1127.16 569.799 1140.67 569.799H1153.92C1157.4 569.799 1160.21 572.615 1160.21 576.086V585.678Z" fill="#006931"/>
<g id="Group_61">
<path id="Vector_191" d="M1123.45 540.942C1123.45 537.126 1126.55 534.033 1130.36 534.033C1134.18 534.033 1137.27 537.126 1137.27 540.942H1123.45Z" fill="#006931"/>
<path id="Vector_192" d="M1139.98 540.942C1139.98 537.126 1143.07 534.033 1146.88 534.033C1150.7 534.033 1153.79 537.126 1153.79 540.942H1139.98Z" fill="#006931"/>
<path id="Vector_193" d="M1156.5 540.942C1156.5 537.126 1159.59 534.033 1163.41 534.033C1167.22 534.033 1170.31 537.126 1170.31 540.942H1156.5Z" fill="#006931"/>
<path id="Vector_194" d="M1173.02 540.942C1173.02 537.126 1176.11 534.033 1179.93 534.033C1183.74 534.033 1186.84 537.126 1186.84 540.942H1173.02Z" fill="#006931"/>
<path id="Vector_195" d="M1189.54 540.942C1189.54 537.126 1192.63 534.033 1196.45 534.033C1200.27 534.033 1203.36 537.126 1203.36 540.942H1189.54Z" fill="#006931"/>
</g>
<g id="Group_62">
<path id="Vector_196" d="M1166.38 589.996C1166.38 580.474 1174.09 572.754 1183.62 572.754H1250.23C1252.24 578.118 1253.34 583.927 1253.34 589.996H1166.38Z" fill="#00833E"/>
<g id="Group_63">
<path id="Vector_197" d="M1183.71 572.755C1183.71 568.94 1186.81 565.847 1190.62 565.847C1194.44 565.847 1197.53 568.94 1197.53 572.755H1183.71Z" fill="#006931"/>
<path id="Vector_198" d="M1200.24 572.755C1200.24 568.94 1203.33 565.847 1207.15 565.847C1210.96 565.847 1214.05 568.94 1214.05 572.755H1200.24Z" fill="#006931"/>
<path id="Vector_199" d="M1216.76 572.755C1216.76 568.94 1219.85 565.847 1223.67 565.847C1227.48 565.847 1230.58 568.94 1230.58 572.755H1216.76Z" fill="#006931"/>
<path id="Vector_200" d="M1233.28 572.755C1233.28 568.94 1236.37 565.847 1240.19 565.847C1244.01 565.847 1247.1 568.94 1247.1 572.755H1233.28Z" fill="#006931"/>
</g>
</g>
<g id="Group_64">
<path id="Vector_201" d="M1090.65 572.755L1095.58 581.289L1100.51 572.755H1090.65Z" fill="white"/>
<path id="Vector_202" d="M1078.85 572.755L1083.78 581.289L1088.7 572.755H1078.85Z" fill="white"/>
<path id="Vector_203" d="M1067.05 572.755L1071.97 581.289L1076.9 572.755H1067.05Z" fill="white"/>
<path id="Vector_204" d="M1055.25 572.755L1060.17 581.289L1065.1 572.755H1055.25Z" fill="white"/>
<path id="Vector_205" d="M1043.44 572.755L1048.37 581.289L1053.3 572.755H1043.44Z" fill="white"/>
<path id="Vector_206" d="M1031.64 572.755L1036.57 581.289L1041.5 572.755H1031.64Z" fill="white"/>
</g>
</g>
</g>
<path id="Line 6_2" d="M209.397 282.96C208.301 282.827 207.304 283.608 207.171 284.704L205 302.573C204.867 303.669 205.648 304.666 206.744 304.799C207.841 304.933 208.838 304.152 208.971 303.055L210.9 287.172L226.784 289.101C227.88 289.235 228.877 288.454 229.01 287.357C229.143 286.261 228.363 285.264 227.266 285.131L209.397 282.96ZM209.156 284.945L207.582 286.179L340.514 455.873L342.088 454.64L343.663 453.407L210.731 283.712L209.156 284.945Z" fill="#38332D"/>
<path id="Line 7_2" d="M523.738 287.145C523.576 286.052 522.559 285.298 521.466 285.46L503.661 288.1C502.568 288.262 501.814 289.279 501.976 290.372C502.138 291.465 503.155 292.219 504.247 292.057L520.074 289.71L522.421 305.537C522.583 306.629 523.601 307.384 524.693 307.222C525.786 307.06 526.54 306.042 526.378 304.95L523.738 287.145ZM521.759 287.438L520.153 286.247L411.28 433.034L412.886 434.225L414.493 435.417L523.366 288.629L521.759 287.438Z" fill="#38332D"/>
<path id="Line 10_2" d="M730.314 362.291C730.121 361.203 729.083 360.478 727.995 360.671L710.271 363.812C709.184 364.005 708.458 365.043 708.651 366.131C708.844 367.218 709.882 367.944 710.97 367.751L726.724 364.959L729.517 380.713C729.709 381.801 730.747 382.526 731.835 382.333C732.923 382.14 733.648 381.102 733.455 380.015L730.314 362.291ZM728.344 362.64L726.705 361.494L576.449 576.494L578.088 577.64L579.728 578.786L729.984 363.786L728.344 362.64Z" fill="#38332D"/>
<path id="Line 11_2" d="M406.605 538.26C405.512 538.417 404.752 539.43 404.908 540.523L407.454 558.342C407.61 559.436 408.623 560.195 409.717 560.039C410.81 559.883 411.57 558.87 411.414 557.776L409.151 541.937L424.99 539.675C426.084 539.518 426.843 538.505 426.687 537.412C426.531 536.318 425.518 535.559 424.424 535.715L406.605 538.26ZM406.888 540.24L405.688 541.84L486.488 602.44L487.688 600.84L488.888 599.24L408.088 538.64L406.888 540.24Z" fill="#38332D"/>
<path id="Line 16_2" d="M566.321 659.992C565.252 660.27 564.611 661.362 564.89 662.431L569.426 679.85C569.704 680.919 570.797 681.56 571.865 681.282C572.934 681.003 573.575 679.911 573.297 678.842L569.265 663.359L584.748 659.326C585.817 659.048 586.458 657.956 586.18 656.887C585.901 655.818 584.809 655.177 583.74 655.456L566.321 659.992ZM566.825 661.927L565.813 663.652L683.363 732.628L684.375 730.903L685.387 729.178L567.837 660.202L566.825 661.927Z" fill="#38332D"/>
<path id="Line 17_2" d="M766.435 783.092C765.355 783.323 764.667 784.386 764.898 785.466L768.67 803.067C768.901 804.147 769.965 804.835 771.045 804.603C772.125 804.372 772.813 803.309 772.581 802.229L769.229 786.584L784.874 783.231C785.954 783 786.641 781.937 786.41 780.857C786.179 779.777 785.115 779.089 784.035 779.32L766.435 783.092ZM766.854 785.047L765.768 786.727L898.409 872.553L899.496 870.874L900.582 869.195L767.941 783.368L766.854 785.047Z" fill="#38332D"/>
<path id="Line 12_2" d="M937.702 500.178C937.555 499.083 936.549 498.314 935.454 498.461L917.614 500.852C916.519 500.999 915.75 502.005 915.897 503.1C916.044 504.195 917.05 504.963 918.145 504.817L934.003 502.691L936.128 518.55C936.275 519.644 937.282 520.413 938.376 520.266C939.471 520.119 940.24 519.113 940.093 518.018L937.702 500.178ZM935.72 500.443L934.13 499.23L782.302 698.05L783.892 699.264L785.481 700.478L937.309 501.657L935.72 500.443Z" fill="#38332D"/>
<path id="Line 14_2" d="M1144.32 632.341C1144.16 631.249 1143.14 630.497 1142.05 630.663L1124.25 633.354C1123.16 633.519 1122.4 634.538 1122.57 635.63C1122.73 636.723 1123.75 637.474 1124.85 637.309L1140.67 634.917L1143.06 650.737C1143.22 651.829 1144.24 652.58 1145.33 652.415C1146.43 652.25 1147.18 651.231 1147.01 650.139L1144.32 632.341ZM1142.34 632.64L1140.73 631.453L981.479 847.453L983.088 848.64L984.698 849.827L1143.95 633.827L1142.34 632.64Z" fill="#38332D"/>
<circle id="Ellipse 14" cx="368.344" cy="491.64" r="21" fill="white" stroke="#38332D" stroke-width="4"/>
<circle id="Ellipse 15" cx="524.344" cy="629.64" r="21" fill="white" stroke="#38332D" stroke-width="4"/>
<circle id="Ellipse 16" cx="731.344" cy="764.64" r="21" fill="white" stroke="#38332D" stroke-width="4"/>
<circle id="Ellipse 17" cx="938.344" cy="902.64" r="21" fill="white" stroke="#38332D" stroke-width="4"/>
</g>
<g id="ancestors">
<g id="mpg">
<g id="Clip path group">
<mask id="mask0_33_2489" style="mask-type:luminance" maskUnits="userSpaceOnUse" x="518" y="554" width="76" height="154">
<g id="clip0_33_2861">
<path id="Vector_207" d="M593.344 554.64H518.344V707.64H593.344V554.64Z" fill="white"/>
</g>
</mask>
<g mask="url(#mask0_33_2489)">
<g id="Group_65">
<path id="Vector_208" d="M552.796 649.471H530.953V679.342H552.796V649.471Z" fill="#DB8689"/>
<path id="Vector_209" d="M530.953 679.342V685.765H546.704L548.987 683.436L551.27 685.765H552.796V679.342H530.953Z" fill="#283038"/>
<path id="Vector_210" d="M553.835 582.837C541.782 582.837 531.153 589.057 524.865 598.523H491.404C472.227 598.523 456.681 614.38 456.681 633.94C456.681 643.377 460.3 651.952 466.199 658.3V679.342H488.043V669.192C489.149 669.3 490.27 669.358 491.404 669.358H515.762V679.342H537.606V667.379C544.561 664.897 550.507 660.222 554.645 654.166C573.584 653.727 588.805 637.93 588.805 618.507C588.805 598.807 573.149 582.837 553.835 582.837Z" fill="#FF9C9F"/>
<path id="Vector_211" d="M583.281 629.873H566.693C561.135 629.873 556.63 625.277 556.63 619.609C556.63 613.94 561.135 609.344 566.693 609.344H583.281V629.873Z" fill="#DB8689"/>
<path id="Vector_212" d="M583.281 609.344C588.838 609.344 593.344 613.94 593.344 619.609C593.344 625.278 588.838 629.873 583.281 629.873H573.215C567.657 629.873 563.151 625.277 563.151 619.609C563.151 613.94 567.657 609.344 573.215 609.344H583.281Z" fill="#FFB6B6"/>
<path id="Vector_213" d="M571.446 616.751C571.446 615.34 572.568 614.196 573.951 614.196C575.334 614.196 576.455 615.34 576.455 616.751V622.467C576.455 623.877 575.334 625.021 573.951 625.021C572.568 625.021 571.446 623.877 571.446 622.467V616.751Z" fill="#DB8689"/>
<path id="Vector_214" d="M587.539 616.751C587.539 615.34 586.418 614.196 585.035 614.196C583.651 614.196 582.531 615.34 582.531 616.751V622.467C582.531 623.877 583.651 625.021 585.035 625.021C586.418 625.021 587.539 623.877 587.539 622.467V616.751Z" fill="#DB8689"/>
<path id="Vector_215" d="M515.762 679.342V685.765H531.514L533.797 683.436L536.079 685.765H537.606V679.342H515.762Z" fill="#333E48"/>
</g>
</g>
</g>
<g id="Clip path group_2">
<mask id="mask1_33_2489" style="mask-type:luminance" maskUnits="userSpaceOnUse" x="449" y="584" width="70" height="115">
<g id="clip1_33_2861">
<path id="Vector_216" d="M518.344 584.64H449.344V698.64H518.344V584.64Z" fill="white"/>
</g>
</mask>
<g mask="url(#mask1_33_2489)">
<g id="Group_66">
<path id="Vector_217" d="M512.178 679.198H494.966C483.624 679.198 474.395 671.406 474.395 661.828V652.385C474.395 648.302 470.461 644.979 465.625 644.979C460.789 644.979 456.855 648.301 456.855 652.385C456.855 654.137 455.173 655.556 453.099 655.556C451.026 655.556 449.344 654.137 449.344 652.385C449.344 644.804 456.648 638.636 465.625 638.636C474.603 638.636 481.907 644.804 481.907 652.385V661.828C481.907 667.909 487.765 672.856 494.966 672.856H512.179C514.252 672.856 515.934 674.276 515.934 676.027C515.934 677.779 514.252 679.198 512.178 679.198Z" fill="#4D3D2D"/>
<path id="Vector_218" d="M495.963 651.678C495.963 639.823 507.345 630.212 521.383 630.212C535.423 630.212 546.804 639.823 546.804 651.678V664.307C546.804 676.162 535.423 685.774 521.383 685.774C507.345 685.774 495.963 676.162 495.963 664.307V651.678Z" fill="#65513C"/>
<path id="Vector_219" d="M539.193 597.506C554.224 597.506 566.409 607.796 566.409 620.489C566.409 633.182 554.224 643.472 539.193 643.472H524.032C509.001 643.472 496.815 633.182 496.815 620.489C496.815 607.796 509.001 597.506 524.032 597.506H539.193Z" fill="#65513C"/>
<path id="Vector_220" d="M503.261 611.86C497.617 611.86 493.042 615.724 493.042 620.489C493.042 625.255 497.617 629.119 503.261 629.119V611.86Z" fill="#65513C"/>
<path id="Vector_221" d="M503.261 615.194C499.797 615.194 496.99 617.565 496.99 620.489C496.99 623.414 499.797 625.785 503.261 625.785V615.194Z" fill="#FF9C9F"/>
<path id="Vector_222" d="M509.309 655.669C499.464 655.669 491.484 662.408 491.484 670.721C491.484 679.034 499.464 685.773 509.309 685.773H527.133V670.721C527.133 662.408 519.153 655.669 509.309 655.669Z" fill="#65513C"/>
<path id="Vector_223" d="M504.361 613.092H495.979C493.251 613.092 491.04 611.224 491.04 608.922C491.04 606.618 493.251 604.751 495.979 604.751H504.361C507.088 604.751 509.299 606.618 509.299 608.922C509.3 611.224 507.088 613.092 504.361 613.092Z" fill="#FF9C9F"/>
<path id="Vector_224" d="M495.979 613.092C486.609 613.092 478.986 619.529 478.986 627.441C478.986 635.354 486.609 641.791 495.979 641.791H507.239C509.967 641.791 512.178 643.658 512.178 645.961C512.178 648.265 509.967 650.131 507.239 650.131H495.979C481.162 650.131 469.108 639.953 469.108 627.441C469.108 614.929 481.162 604.751 495.979 604.751V613.092Z" fill="#65513C"/>
</g>
</g>
</g>
<g id="Clip path group_3">
<mask id="mask2_33_2489" style="mask-type:luminance" maskUnits="userSpaceOnUse" x="445" y="499" width="175" height="88">
<g id="clip2_33_2861">
<path id="Vector_225" d="M619.084 499.44H445.084V586.44H619.084V499.44Z" fill="white"/>
</g>
</mask>
<g mask="url(#mask2_33_2489)">
<g id="Group_67">
<path id="Vector_226" d="M552.116 499.44C550.914 499.44 549.94 500.415 549.94 501.617V509.382H554.293V501.617C554.293 500.415 553.319 499.44 552.116 499.44Z" fill="#65513C"/>
<path id="Vector_227" d="M558.962 499.44C557.761 499.44 556.786 500.415 556.786 501.617V509.382H561.139V501.617C561.14 500.415 560.165 499.44 558.962 499.44Z" fill="#65513C"/>
<path id="Vector_228" d="M567.363 508.964C570.476 512.109 574.795 514.057 579.57 514.057C583.148 514.057 586.049 516.958 586.048 520.535C586.048 524.113 583.147 527.013 579.57 527.013H565.488L569.367 588.176C557.032 583.93 550.263 583.676 538.566 588.176L544.491 513.948L544.501 513.947C544.78 509.443 548.511 505.874 553.085 505.874H560.577V505.883C560.637 505.882 560.695 505.874 560.755 505.874C563.409 505.874 565.783 507.076 567.363 508.964Z" fill="#FFB648"/>
<path id="Vector_229" d="M541.506 557.366C541.343 557.366 541.185 557.383 541.024 557.39L539.332 578.579C540.034 578.724 540.761 578.8 541.506 578.8C547.425 578.8 552.224 574.002 552.224 568.083C552.224 562.165 547.425 557.366 541.506 557.366Z" fill="#65513C"/>
<path id="Vector_230" d="M566.371 540.924C561.041 541.544 556.903 546.068 556.903 551.562C556.903 557.481 561.702 562.28 567.621 562.28C567.656 562.28 567.689 562.275 567.725 562.275L566.371 540.924Z" fill="#65513C"/>
<path id="Vector_231" d="M549.98 543.48C552.671 543.48 554.852 541.299 554.852 538.608C554.852 535.916 552.671 533.735 549.98 533.735C547.289 533.735 545.107 535.916 545.107 538.608C545.107 541.299 547.289 543.48 549.98 543.48Z" fill="#65513C"/>
<path id="Vector_232" d="M558.963 516.371C560.14 516.371 561.095 515.416 561.095 514.239C561.095 513.062 560.14 512.107 558.963 512.107C557.786 512.107 556.831 513.062 556.831 514.239C556.831 515.416 557.786 516.371 558.963 516.371Z" fill="#333E48"/>
<path id="Vector_233" d="M580.453 514.125C578.163 517.335 576.812 521.262 576.812 525.505C576.812 526.014 576.837 526.516 576.875 527.014H579.57C583.147 527.014 586.048 524.114 586.048 520.536C586.048 517.258 583.611 514.556 580.453 514.125Z" fill="#ED9900"/>
<path id="Vector_234" d="M542.908 513.115C540.584 510.792 540.012 507.99 541.548 506.454C543.084 504.919 545.885 505.491 548.209 507.815C550.533 510.138 551.105 512.94 549.569 514.476C548.033 516.011 545.232 515.439 542.908 513.115Z" fill="#FFB648"/>
<path id="Vector_235" d="M548.278 513.183C549.029 512.432 548.42 510.606 546.918 509.104C545.416 507.602 543.59 506.993 542.839 507.744C542.088 508.495 542.697 510.321 544.199 511.823C545.701 513.325 547.527 513.934 548.278 513.183Z" fill="#ED9900"/>
</g>
</g>
</g>
</g>
<g id="mpgtc" clip-path="url(#clip10_33_2489)">
<g id="Clip path group_4">
<mask id="mask3_33_2489" style="mask-type:luminance" maskUnits="userSpaceOnUse" x="923" y="821" width="85" height="154">
<g id="clip0_33_3032">
<path id="Vector_236" d="M1007.34 821.64H923.344V974.64H1007.34V821.64Z" fill="white"/>
</g>
</mask>
<g mask="url(#mask3_33_2489)">
<g id="Group_68">
<path id="Vector_237" d="M969.508 919.967C962.237 919.967 956.344 914.074 956.344 906.803C956.344 899.533 962.237 893.64 969.508 893.64H1007.3C1007.3 908.179 995.517 919.966 980.976 919.967H969.508Z" fill="#2D3740"/>
<path id="Vector_238" d="M959.057 917.671H937.213V947.542H959.057V917.671Z" fill="#DB8689"/>
<path id="Vector_239" d="M960.095 851.037C948.043 851.037 937.413 857.257 931.125 866.722H897.665C878.487 866.722 862.941 882.58 862.941 902.14C862.941 911.577 866.56 920.152 872.46 926.5V947.542H894.304V937.392C895.41 937.5 896.53 937.558 897.665 937.558H922.022V947.542H943.866V935.579C950.822 933.097 956.767 928.422 960.905 922.366C979.844 921.927 995.065 906.13 995.065 886.707C995.065 867.007 979.409 851.037 960.095 851.037Z" fill="#FF9C9F"/>
<path id="Vector_240" d="M989.542 898.073H972.954C967.397 898.073 962.891 893.477 962.891 887.809C962.891 882.14 967.397 877.544 972.954 877.544H989.542V898.073Z" fill="#DB8689"/>
<path id="Vector_241" d="M989.542 877.544C995.099 877.544 999.605 882.14 999.605 887.809C999.605 893.478 995.099 898.073 989.542 898.073H979.476C973.918 898.073 969.412 893.477 969.412 887.809C969.412 882.14 973.918 877.544 979.476 877.544H989.542Z" fill="#FFB6B6"/>
<path id="Vector_242" d="M977.708 884.951C977.708 883.54 978.829 882.396 980.212 882.396C981.595 882.396 982.716 883.54 982.716 884.951V890.667C982.716 892.077 981.595 893.221 980.212 893.221C978.829 893.221 977.708 892.077 977.708 890.667V884.951Z" fill="#DB8689"/>
<path id="Vector_243" d="M993.799 884.951C993.799 883.54 992.679 882.396 991.296 882.396C989.913 882.396 988.792 883.54 988.792 884.951V890.667C988.792 892.077 989.913 893.221 991.296 893.221C992.679 893.221 993.799 892.077 993.799 890.667V884.951Z" fill="#DB8689"/>
<path id="Vector_244" d="M953.088 955.288C953.746 955.153 954.24 954.572 954.24 953.874V951.855C954.24 951.058 953.594 950.412 952.798 950.412C952 950.412 951.354 951.058 951.354 951.855V952.431H948.788C947.991 952.431 947.345 953.077 947.345 953.874C947.345 954.671 947.991 955.317 948.788 955.317H952.798C952.897 955.317 952.994 955.307 953.088 955.288Z" fill="#B36F0F"/>
<path id="Vector_245" d="M953.088 952.402C953.746 952.267 954.24 951.686 954.24 950.988V948.969C954.24 948.172 953.594 947.526 952.798 947.526C952 947.526 951.354 948.172 951.354 948.969V949.545H948.788C947.991 949.545 947.345 950.191 947.345 950.988C947.345 951.785 947.991 952.431 948.788 952.431H952.798C952.897 952.431 952.994 952.421 953.088 952.402Z" fill="#B36F0F"/>
<path id="Vector_246" d="M953.088 949.516C953.746 949.381 954.24 948.799 954.24 948.101V946.083C954.24 945.286 953.594 944.64 952.798 944.64C952 944.64 951.354 945.286 951.354 946.083V946.659H948.788C947.991 946.659 947.345 947.305 947.345 948.101C947.345 948.899 947.991 949.545 948.788 949.545H952.798C952.897 949.545 952.994 949.534 953.088 949.516Z" fill="#B36F0F"/>
<path id="Vector_247" d="M935.088 955.288C935.745 955.153 936.24 954.571 936.24 953.874V951.855C936.24 951.058 935.594 950.412 934.797 950.412C934 950.412 933.354 951.058 933.354 951.855V952.431H930.788C929.991 952.431 929.345 953.077 929.345 953.874C929.345 954.671 929.991 955.317 930.788 955.317H934.797C934.896 955.317 934.993 955.307 935.088 955.288Z" fill="#FFB648"/>
<path id="Vector_248" d="M935.088 952.402C935.745 952.267 936.24 951.686 936.24 950.988V948.969C936.24 948.172 935.594 947.526 934.797 947.526C934 947.526 933.354 948.172 933.354 948.969V949.545H930.788C929.991 949.545 929.345 950.191 929.345 950.988C929.345 951.785 929.991 952.431 930.788 952.431H934.797C934.896 952.431 934.993 952.421 935.088 952.402Z" fill="#FFB648"/>
<path id="Vector_249" d="M935.088 949.516C935.745 949.381 936.24 948.799 936.24 948.101V946.083C936.24 945.286 935.594 944.64 934.797 944.64C934 944.64 933.354 945.286 933.354 946.083V946.659H930.788C929.991 946.659 929.345 947.305 929.345 948.101C929.345 948.899 929.991 949.545 930.788 949.545H934.797C934.896 949.545 934.993 949.534 935.088 949.516Z" fill="#FFB648"/>
</g>
</g>
</g>
<g id="Clip path group_5">
<mask id="mask4_33_2489" style="mask-type:luminance" maskUnits="userSpaceOnUse" x="857" y="854" width="67" height="106">
<g id="clip1_33_3032">
<path id="Vector_250" d="M923.344 854.64H857.344V959.64H923.344V854.64Z" fill="white"/>
</g>
</mask>
<g mask="url(#mask4_33_2489)">
<g id="Group_69">
<path id="Vector_251" d="M917.446 941.733H900.982C890.133 941.733 881.306 934.556 881.306 925.734V917.037C881.306 913.276 877.543 910.216 872.917 910.216C868.292 910.216 864.528 913.276 864.528 917.037C864.528 918.65 862.92 919.958 860.936 919.958C858.953 919.958 857.344 918.65 857.344 917.037C857.344 910.055 864.331 904.374 872.918 904.374C881.505 904.374 888.491 910.055 888.491 917.037V925.734C888.491 931.335 894.095 935.892 900.983 935.892H917.447C919.43 935.892 921.039 937.2 921.039 938.813C921.039 940.426 919.43 941.733 917.446 941.733Z" fill="#4D3D2D"/>
<path id="Vector_252" d="M901.937 916.386C901.937 905.467 912.823 896.615 926.251 896.615C939.68 896.615 950.567 905.467 950.567 916.386V928.018C950.567 938.937 939.68 947.79 926.251 947.79C912.823 947.79 901.937 938.937 901.937 928.018V916.386Z" fill="#65513C"/>
<path id="Vector_253" d="M943.286 866.491C957.664 866.491 969.32 875.968 969.32 887.659C969.32 899.35 957.664 908.828 943.286 908.828H928.784C914.407 908.828 902.751 899.35 902.751 887.659C902.751 875.968 914.407 866.491 928.784 866.491H943.286Z" fill="#65513C"/>
<path id="Vector_254" d="M908.917 879.711C903.518 879.711 899.142 883.27 899.142 887.659C899.142 892.049 903.518 895.608 908.917 895.608V879.711Z" fill="#65513C"/>
<path id="Vector_255" d="M908.917 882.782C905.604 882.782 902.918 884.966 902.918 887.659C902.918 890.353 905.604 892.537 908.917 892.537V882.782Z" fill="#FF9C9F"/>
<path id="Vector_256" d="M914.701 920.062C905.285 920.062 897.651 926.269 897.651 933.925C897.651 941.582 905.285 947.789 914.701 947.789H931.751V933.926C931.751 926.269 924.117 920.062 914.701 920.062Z" fill="#65513C"/>
<path id="Vector_257" d="M902.373 916.778C909.328 916.778 914.965 911.35 914.965 904.653C914.965 897.957 909.328 892.529 902.373 892.529H866.221C866.221 905.921 877.495 916.777 891.404 916.778H902.373Z" fill="#2D3740"/>
</g>
</g>
</g>
<g id="Clip path group_6">
<mask id="mask5_33_2489" style="mask-type:luminance" maskUnits="userSpaceOnUse" x="851" y="767" width="175" height="88">
<g id="clip2_33_3032">
<path id="Vector_258" d="M1025.34 767.64H851.344V854.64H1025.34V767.64Z" fill="white"/>
</g>
</mask>
<g mask="url(#mask5_33_2489)">
<g id="Group_70">
<path id="Vector_259" d="M958.377 767.64C957.174 767.64 956.2 768.614 956.2 769.817V777.582H960.553V769.817C960.553 768.614 959.579 767.64 958.377 767.64Z" fill="#65513C"/>
<path id="Vector_260" d="M965.222 767.64C964.021 767.64 963.046 768.614 963.046 769.817V777.582H967.399V769.817C967.4 768.614 966.425 767.64 965.222 767.64Z" fill="#65513C"/>
<path id="Vector_261" d="M973.623 777.164C976.736 780.309 981.056 782.257 985.83 782.257C989.408 782.257 992.309 785.157 992.308 788.735C992.308 792.313 989.408 795.213 985.83 795.213H971.748L975.627 856.376C963.292 852.129 956.524 851.876 944.826 856.376L950.751 782.148L950.761 782.146C951.04 777.643 954.771 774.074 959.345 774.074H966.837V774.082C966.897 774.082 966.955 774.074 967.015 774.074C969.669 774.074 972.044 775.276 973.623 777.164Z" fill="#FFB648"/>
<path id="Vector_262" d="M947.767 825.566C947.604 825.566 947.445 825.583 947.284 825.59L945.592 846.779C946.294 846.923 947.021 847 947.767 847C953.686 847 958.484 842.202 958.484 836.282C958.484 830.364 953.686 825.566 947.767 825.566Z" fill="#65513C"/>
<path id="Vector_263" d="M972.631 809.124C967.301 809.744 963.164 814.268 963.164 819.762C963.164 825.681 967.962 830.479 973.881 830.479C973.916 830.479 973.949 830.475 973.985 830.474L972.631 809.124Z" fill="#65513C"/>
<path id="Vector_264" d="M956.24 811.68C958.931 811.68 961.113 809.498 961.113 806.807C961.113 804.116 958.931 801.935 956.24 801.935C953.549 801.935 951.367 804.116 951.367 806.807C951.367 809.498 953.549 811.68 956.24 811.68Z" fill="#65513C"/>
<path id="Vector_265" d="M965.223 784.571C966.401 784.571 967.355 783.616 967.355 782.439C967.355 781.262 966.401 780.307 965.223 780.307C964.046 780.307 963.092 781.262 963.092 782.439C963.092 783.616 964.046 784.571 965.223 784.571Z" fill="#333E48"/>
<path id="Vector_266" d="M986.713 782.324C984.423 785.535 983.072 789.461 983.072 793.705C983.072 794.213 983.097 794.715 983.135 795.214H985.83C989.407 795.214 992.308 792.313 992.308 788.735C992.309 785.458 989.871 782.756 986.713 782.324Z" fill="#ED9900"/>
<path id="Vector_267" d="M949.168 777.858C946.845 775.535 946.273 772.733 947.809 771.197C949.344 769.661 952.146 770.234 954.469 772.557C956.793 774.881 957.365 777.682 955.829 779.219C954.293 780.754 951.492 780.182 949.168 777.858Z" fill="#FFB648"/>
<path id="Vector_268" d="M954.538 777.926C955.289 777.175 954.68 775.349 953.178 773.847C951.676 772.345 949.85 771.736 949.099 772.487C948.349 773.238 948.957 775.064 950.459 776.566C951.961 778.068 953.787 778.677 954.538 777.926Z" fill="#ED9900"/>
</g>
</g>
</g>
<g id="Clip path group_7">
<mask id="mask6_33_2489" style="mask-type:luminance" maskUnits="userSpaceOnUse" x="875" y="716" width="130" height="130">
<g id="clip3_33_3032">
<path id="Vector_269" d="M1004.73 716.64H875.735V845.64H1004.73V716.64Z" fill="white"/>
</g>
</mask>
<g mask="url(#mask6_33_2489)">
<g id="Group_71">
<g id="Mask group">
<mask id="mask7_33_2489" style="mask-type:alpha" maskUnits="userSpaceOnUse" x="947" y="761" width="64" height="64">
<g id="Group_72">
<path id="Vector_270" d="M951.844 769.14L947.345 824.64L1010.34 818.64V761.64H951.844V769.14Z" fill="black"/>
</g>
</mask>
<g mask="url(#mask7_33_2489)">
<g id="Group_73">
<path id="Vector_271" d="M990.685 773.177H990.611C990.012 770.412 987.554 768.34 984.61 768.34C981.666 768.34 979.209 770.412 978.61 773.177H968.648C968.648 769.13 965.368 765.849 961.321 765.849C958.622 765.849 956.266 767.31 954.994 769.483C954.292 769.166 952.664 770.64 951.844 770.64C947.345 773.64 948.845 782.64 948.845 782.64C948.845 788.64 881.524 776.57 877.523 787.226H1004.73C1004.73 779.467 998.444 773.177 990.685 773.177Z" fill="#00833E"/>
<path id="Vector_272" d="M988.41 774.482C988.41 772.384 986.709 770.683 984.611 770.683C982.514 770.683 980.812 772.384 980.812 774.482H988.41Z" fill="#006931"/>
<path id="Vector_273" d="M961.322 776.194C962.989 776.194 964.34 774.843 964.34 773.176C964.34 771.51 962.989 770.159 961.322 770.159C959.656 770.159 958.305 771.51 958.305 773.176C958.305 774.843 959.656 776.194 961.322 776.194Z" fill="#333E48"/>
<path id="Vector_274" d="M877.523 787.226C876.368 790.301 875.735 793.631 875.735 797.11H994.85C1000.31 797.11 1004.73 792.685 1004.73 787.226L877.523 787.226Z" fill="#E1CB81"/>
<path id="Vector_275" d="M929.132 794.635C929.132 796.081 930.305 797.254 931.752 797.254H957.261C954.689 790.406 948.082 785.531 940.334 785.531H932.736C930.745 785.531 929.132 787.145 929.132 789.135V794.635Z" fill="#006931"/>
<path id="Vector_276" d="M950.206 768.986C950.206 766.798 948.433 765.025 946.245 765.025C944.057 765.025 942.284 766.798 942.284 768.986H950.206Z" fill="#006931"/>
<path id="Vector_277" d="M969.012 787.226L966.187 792.118L963.362 787.226H969.012Z" fill="white"/>
<path id="Vector_278" d="M975.779 787.226L972.953 792.118L970.128 787.226H975.779Z" fill="white"/>
<path id="Vector_279" d="M982.546 787.226L979.72 792.118L976.895 787.226H982.546Z" fill="white"/>
<path id="Vector_280" d="M989.312 787.226L986.487 792.118L983.662 787.226H989.312Z" fill="white"/>
<path id="Vector_281" d="M996.077 787.226L993.252 792.118L990.427 787.226H996.077Z" fill="white"/>
<path id="Vector_282" d="M1002.84 787.226L1000.02 792.118L997.193 787.226H1002.84Z" fill="white"/>
</g>
</g>
</g>
</g>
</g>
</g>
</g>
<g id="mpgt" clip-path="url(#clip11_33_2489)">
<g id="Clip path group_8">
<mask id="mask8_33_2489" style="mask-type:luminance" maskUnits="userSpaceOnUse" x="722" y="672" width="85" height="154">
<g id="clip0_33_2943">
<path id="Vector_283" d="M806.344 672.64H722.344V825.64H806.344V672.64Z" fill="white"/>
</g>
</mask>
<g mask="url(#mask8_33_2489)">
<g id="Group_74">
<path id="Vector_284" d="M768.508 770.967C761.237 770.967 755.344 765.074 755.344 757.803C755.344 750.533 761.237 744.64 768.508 744.64H806.304C806.304 759.179 794.517 770.966 779.976 770.967H768.508Z" fill="#2D3740"/>
<path id="Vector_285" d="M758.057 768.671H736.213V798.542H758.057V768.671Z" fill="#DB8689"/>
<path id="Vector_286" d="M759.095 702.037C747.043 702.037 736.413 708.257 730.125 717.722H696.665C677.487 717.722 661.941 733.58 661.941 753.14C661.941 762.577 665.56 771.152 671.46 777.5V798.542H693.304V788.392C694.41 788.5 695.53 788.558 696.665 788.558H721.022V798.542H742.866V786.579C749.822 784.097 755.767 779.422 759.905 773.366C778.844 772.927 794.065 757.13 794.065 737.707C794.065 718.007 778.409 702.037 759.095 702.037Z" fill="#FF9C9F"/>
<path id="Vector_287" d="M788.542 749.073H771.954C766.397 749.073 761.891 744.477 761.891 738.809C761.891 733.139 766.397 728.544 771.954 728.544H788.542V749.073Z" fill="#DB8689"/>
<path id="Vector_288" d="M788.542 728.544C794.099 728.544 798.605 733.139 798.605 738.809C798.605 744.478 794.099 749.073 788.542 749.073H778.476C772.918 749.073 768.412 744.477 768.412 738.809C768.412 733.139 772.918 728.544 778.476 728.544H788.542Z" fill="#FFB6B6"/>
<path id="Vector_289" d="M776.708 735.951C776.708 734.54 777.829 733.396 779.212 733.396C780.595 733.396 781.716 734.54 781.716 735.951V741.667C781.716 743.077 780.595 744.221 779.212 744.221C777.829 744.221 776.708 743.077 776.708 741.667V735.951Z" fill="#DB8689"/>
<path id="Vector_290" d="M792.799 735.951C792.799 734.54 791.679 733.396 790.296 733.396C788.913 733.396 787.792 734.54 787.792 735.951V741.667C787.792 743.077 788.913 744.221 790.296 744.221C791.679 744.221 792.799 743.077 792.799 741.667V735.951Z" fill="#DB8689"/>
<path id="Vector_291" d="M752.088 806.288C752.746 806.154 753.24 805.572 753.24 804.874V802.855C753.24 802.059 752.594 801.413 751.798 801.413C751 801.413 750.354 802.059 750.354 802.855V803.431H747.788C746.991 803.431 746.345 804.077 746.345 804.874C746.345 805.671 746.991 806.317 747.788 806.317H751.798C751.897 806.317 751.994 806.307 752.088 806.288Z" fill="#B36F0F"/>
<path id="Vector_292" d="M752.088 803.402C752.746 803.267 753.24 802.686 753.24 801.988V799.969C753.24 799.172 752.594 798.526 751.798 798.526C751 798.526 750.354 799.172 750.354 799.969V800.545H747.788C746.991 800.545 746.345 801.191 746.345 801.988C746.345 802.785 746.991 803.431 747.788 803.431H751.798C751.897 803.431 751.994 803.421 752.088 803.402Z" fill="#B36F0F"/>
<path id="Vector_293" d="M752.088 800.516C752.746 800.381 753.24 799.799 753.24 799.101V797.083C753.24 796.286 752.594 795.64 751.798 795.64C751 795.64 750.354 796.286 750.354 797.083V797.659H747.788C746.991 797.659 746.345 798.305 746.345 799.101C746.345 799.899 746.991 800.545 747.788 800.545H751.798C751.897 800.545 751.994 800.534 752.088 800.516Z" fill="#B36F0F"/>
<path id="Vector_294" d="M734.088 806.288C734.745 806.154 735.24 805.572 735.24 804.874V802.855C735.24 802.059 734.594 801.413 733.797 801.413C733 801.413 732.354 802.059 732.354 802.855V803.431H729.788C728.991 803.431 728.345 804.077 728.345 804.874C728.345 805.671 728.991 806.317 729.788 806.317H733.797C733.896 806.317 733.993 806.307 734.088 806.288Z" fill="#FFB648"/>
<path id="Vector_295" d="M734.088 803.402C734.745 803.267 735.24 802.686 735.24 801.988V799.969C735.24 799.172 734.594 798.526 733.797 798.526C733 798.526 732.354 799.172 732.354 799.969V800.545H729.788C728.991 800.545 728.345 801.191 728.345 801.988C728.345 802.785 728.991 803.431 729.788 803.431H733.797C733.896 803.431 733.993 803.421 734.088 803.402Z" fill="#FFB648"/>
<path id="Vector_296" d="M734.088 800.516C734.745 800.381 735.24 799.799 735.24 799.101V797.083C735.24 796.286 734.594 795.64 733.797 795.64C733 795.64 732.354 796.286 732.354 797.083V797.659H729.788C728.991 797.659 728.345 798.305 728.345 799.101C728.345 799.899 728.991 800.545 729.788 800.545H733.797C733.896 800.545 733.993 800.534 734.088 800.516Z" fill="#FFB648"/>
</g>
</g>
</g>
<g id="Clip path group_9">
<mask id="mask9_33_2489" style="mask-type:luminance" maskUnits="userSpaceOnUse" x="656" y="705" width="67" height="106">
<g id="clip1_33_2943">
<path id="Vector_297" d="M722.344 705.64H656.344V810.64H722.344V705.64Z" fill="white"/>
</g>
</mask>
<g mask="url(#mask9_33_2489)">
<g id="Group_75">
<path id="Vector_298" d="M716.446 792.733H699.982C689.133 792.733 680.306 785.556 680.306 776.734V768.037C680.306 764.276 676.543 761.216 671.917 761.216C667.292 761.216 663.528 764.276 663.528 768.037C663.528 769.65 661.92 770.958 659.936 770.958C657.953 770.958 656.344 769.65 656.344 768.037C656.344 761.055 663.331 755.374 671.918 755.374C680.505 755.374 687.491 761.055 687.491 768.037V776.734C687.491 782.335 693.095 786.892 699.983 786.892H716.447C718.43 786.892 720.039 788.2 720.039 789.812C720.039 791.426 718.43 792.733 716.446 792.733Z" fill="#4D3D2D"/>
<path id="Vector_299" d="M700.937 767.386C700.937 756.467 711.823 747.615 725.251 747.615C738.68 747.615 749.567 756.467 749.567 767.386V779.018C749.567 789.937 738.68 798.79 725.251 798.79C711.823 798.79 700.937 789.937 700.937 779.018V767.386Z" fill="#65513C"/>
<path id="Vector_300" d="M742.286 717.491C756.664 717.491 768.32 726.968 768.32 738.659C768.32 750.35 756.664 759.828 742.286 759.828H727.784C713.407 759.828 701.751 750.35 701.751 738.659C701.751 726.968 713.407 717.491 727.784 717.491H742.286Z" fill="#65513C"/>
<path id="Vector_301" d="M707.917 730.711C702.518 730.711 698.142 734.27 698.142 738.659C698.142 743.049 702.518 746.608 707.917 746.608V730.711Z" fill="#65513C"/>
<path id="Vector_302" d="M707.917 733.782C704.604 733.782 701.918 735.965 701.918 738.659C701.918 741.353 704.604 743.537 707.917 743.537V733.782Z" fill="#FF9C9F"/>
<path id="Vector_303" d="M713.701 771.062C704.285 771.062 696.651 777.269 696.651 784.925C696.651 792.582 704.285 798.789 713.701 798.789H730.751V784.926C730.751 777.269 723.117 771.062 713.701 771.062Z" fill="#65513C"/>
<path id="Vector_304" d="M701.373 767.778C708.328 767.778 713.965 762.35 713.965 755.653C713.965 748.957 708.328 743.529 701.373 743.529H665.221C665.221 756.921 676.495 767.777 690.404 767.778H701.373Z" fill="#2D3740"/>
</g>
</g>
</g>
<g id="Clip path group_10">
<mask id="mask10_33_2489" style="mask-type:luminance" maskUnits="userSpaceOnUse" x="650" y="618" width="175" height="88">
<g id="clip2_33_2943">
<path id="Vector_305" d="M824.344 618.64H650.344V705.64H824.344V618.64Z" fill="white"/>
</g>
</mask>
<g mask="url(#mask10_33_2489)">
<g id="Group_76">
<path id="Vector_306" d="M757.377 618.64C756.174 618.64 755.2 619.614 755.2 620.817V628.582H759.553V620.817C759.553 619.614 758.579 618.64 757.377 618.64Z" fill="#65513C"/>
<path id="Vector_307" d="M764.222 618.64C763.021 618.64 762.046 619.614 762.046 620.817V628.582H766.399V620.817C766.4 619.614 765.425 618.64 764.222 618.64Z" fill="#65513C"/>
<path id="Vector_308" d="M772.623 628.164C775.736 631.309 780.056 633.257 784.83 633.257C788.408 633.257 791.309 636.157 791.308 639.735C791.308 643.313 788.408 646.213 784.83 646.213H770.748L774.627 707.376C762.292 703.13 755.524 702.876 743.826 707.376L749.751 633.148L749.761 633.146C750.04 628.643 753.771 625.074 758.345 625.074H765.837V625.082C765.897 625.082 765.955 625.074 766.015 625.074C768.669 625.074 771.044 626.276 772.623 628.164Z" fill="#FFB648"/>
<path id="Vector_309" d="M746.767 676.566C746.604 676.566 746.445 676.583 746.284 676.59L744.592 697.779C745.294 697.924 746.021 698 746.767 698C752.686 698 757.484 693.202 757.484 687.283C757.484 681.365 752.686 676.566 746.767 676.566Z" fill="#65513C"/>
<path id="Vector_310" d="M771.631 660.124C766.301 660.744 762.164 665.268 762.164 670.762C762.164 676.681 766.962 681.479 772.881 681.479C772.916 681.479 772.949 681.475 772.985 681.474L771.631 660.124Z" fill="#65513C"/>
<path id="Vector_311" d="M755.24 662.68C757.931 662.68 760.113 660.498 760.113 657.807C760.113 655.116 757.931 652.935 755.24 652.935C752.549 652.935 750.367 655.116 750.367 657.807C750.367 660.498 752.549 662.68 755.24 662.68Z" fill="#65513C"/>
<path id="Vector_312" d="M764.223 635.571C765.401 635.571 766.355 634.616 766.355 633.439C766.355 632.262 765.401 631.307 764.223 631.307C763.046 631.307 762.092 632.262 762.092 633.439C762.092 634.616 763.046 635.571 764.223 635.571Z" fill="#333E48"/>
<path id="Vector_313" d="M785.713 633.324C783.423 636.535 782.072 640.461 782.072 644.705C782.072 645.213 782.097 645.715 782.135 646.214H784.83C788.407 646.214 791.308 643.313 791.308 639.735C791.309 636.458 788.871 633.756 785.713 633.324Z" fill="#ED9900"/>
<path id="Vector_314" d="M748.168 632.315C745.845 629.992 745.273 627.19 746.809 625.654C748.344 624.118 751.146 624.691 753.469 627.014C755.793 629.338 756.365 632.139 754.829 633.676C753.293 635.211 750.492 634.639 748.168 632.315Z" fill="#FFB648"/>
<path id="Vector_315" d="M753.538 632.383C754.289 631.632 753.68 629.806 752.178 628.304C750.676 626.802 748.85 626.193 748.099 626.944C747.349 627.695 747.957 629.521 749.459 631.023C750.961 632.525 752.787 633.134 753.538 632.383Z" fill="#ED9900"/>
</g>
</g>
</g>
</g>
<g id="mp" clip-path="url(#clip12_33_2489)">
<g id="Clip path group_11">
<mask id="mask11_33_2489" style="mask-type:luminance" maskUnits="userSpaceOnUse" x="362" y="415" width="76" height="154">
<g id="clip0_33_2805">
<path id="Vector_316" d="M437.344 415.64H362.344V568.64H437.344V415.64Z" fill="white"/>
</g>
</mask>
<g mask="url(#mask11_33_2489)">
<g id="Group_77">
<path id="Vector_317" d="M396.796 510.471H374.953V540.342H396.796V510.471Z" fill="#DB8689"/>
<path id="Vector_318" d="M374.953 540.342V546.765H390.704L392.987 544.436L395.27 546.765H396.796V540.342H374.953Z" fill="#283038"/>
<path id="Vector_319" d="M399.821 448.859C404.56 441.099 416.832 434.734 424.543 439.46L413.917 457.498L399.821 448.859Z" fill="#FF9C9F"/>
<path id="Vector_320" d="M425.907 461.62C428.857 454.595 429.197 444.262 424.543 439.46C418.202 437.523 409.416 442.682 404.72 448.635C404.717 448.64 404.647 448.75 404.615 448.802C403.899 450.017 404.285 451.595 405.476 452.324L422.359 462.672C423.55 463.401 425.096 463.009 425.812 461.793C425.843 461.741 425.905 461.626 425.907 461.62Z" fill="#FFB6B6"/>
<path id="Vector_321" d="M397.835 443.836C385.782 443.836 375.153 450.057 368.865 459.522H335.404C316.227 459.522 300.681 475.379 300.681 494.94C300.681 504.377 304.3 512.951 310.199 519.299V540.342H332.043V530.192C333.149 530.3 334.27 530.358 335.404 530.358H359.762V540.342H381.606V528.379C388.562 525.897 394.507 521.222 398.645 515.166C417.584 514.727 432.805 498.93 432.805 479.506C432.805 459.806 417.149 443.836 397.835 443.836Z" fill="#FF9C9F"/>
<path id="Vector_322" d="M427.281 490.873H410.693C405.136 490.873 400.63 486.277 400.63 480.609C400.63 474.94 405.136 470.344 410.693 470.344H427.281V490.873Z" fill="#DB8689"/>
<path id="Vector_323" d="M427.281 470.344C432.838 470.344 437.344 474.94 437.344 480.609C437.344 486.278 432.838 490.873 427.281 490.873H417.215C411.657 490.873 407.151 486.277 407.151 480.609C407.151 474.94 411.657 470.344 417.215 470.344H427.281Z" fill="#FFB6B6"/>
<path id="Vector_324" d="M415.446 477.75C415.446 476.34 416.568 475.196 417.951 475.196C419.334 475.196 420.455 476.34 420.455 477.75V483.466C420.455 484.877 419.334 486.021 417.951 486.021C416.568 486.021 415.446 484.877 415.446 483.466V477.75Z" fill="#DB8689"/>
<path id="Vector_325" d="M431.539 477.75C431.539 476.34 430.418 475.196 429.035 475.196C427.652 475.196 426.531 476.34 426.531 477.75V483.466C426.531 484.877 427.652 486.021 429.035 486.021C430.418 486.021 431.539 484.877 431.539 483.466V477.75Z" fill="#DB8689"/>
<path id="Vector_326" d="M402.052 466.656C403.595 466.656 404.846 465.381 404.846 463.807C404.846 462.233 403.595 460.958 402.052 460.958C400.51 460.958 399.259 462.233 399.259 463.807C399.259 465.381 400.51 466.656 402.052 466.656Z" fill="#333E48"/>
<path id="Vector_327" d="M423.671 466.656C425.213 466.656 426.464 465.38 426.464 463.807C426.464 462.234 425.213 460.958 423.671 460.958C422.128 460.958 420.878 462.234 420.878 463.807C420.878 465.38 422.128 466.656 423.671 466.656Z" fill="#333E48"/>
<path id="Vector_328" d="M359.762 540.342V546.765H375.514L377.797 544.436L380.079 546.765H381.606V540.342H359.762Z" fill="#333E48"/>
<path id="Vector_329" d="M370.535 464.371C366.316 456.304 367.047 442.282 374.916 437.833L384.918 456.238L370.535 464.371Z" fill="#FF9C9F"/>
<path id="Vector_330" d="M394.413 447.708C389.923 441.591 381.32 436.123 374.916 437.833C370.1 442.467 370.088 452.805 372.794 459.931C372.797 459.937 372.855 460.054 372.883 460.108C373.557 461.348 375.089 461.796 376.304 461.109L393.532 451.369C394.747 450.682 395.186 449.119 394.512 447.879C394.483 447.825 394.416 447.713 394.413 447.708Z" fill="#FFB6B6"/>
</g>
</g>
</g>
<g id="Clip path group_12">
<mask id="mask12_33_2489" style="mask-type:luminance" maskUnits="userSpaceOnUse" x="293" y="445" width="70" height="115">
<g id="clip1_33_2805">
<path id="Vector_331" d="M362.344 445.64H293.344V559.64H362.344V445.64Z" fill="white"/>
</g>
</mask>
<g mask="url(#mask12_33_2489)">
<g id="Group_78">
<path id="Vector_332" d="M356.178 540.198H338.966C327.624 540.198 318.395 532.406 318.395 522.828V513.385C318.395 509.302 314.461 505.979 309.625 505.979C304.789 505.979 300.855 509.301 300.855 513.385C300.855 515.137 299.173 516.556 297.099 516.556C295.026 516.556 293.344 515.137 293.344 513.385C293.344 505.804 300.648 499.636 309.625 499.636C318.603 499.636 325.907 505.804 325.907 513.385V522.828C325.907 528.909 331.765 533.856 338.966 533.856H356.179C358.252 533.856 359.934 535.276 359.934 537.027C359.934 538.779 358.252 540.198 356.178 540.198Z" fill="#4D3D2D"/>
<path id="Vector_333" d="M339.963 512.678C339.963 500.823 351.345 491.212 365.383 491.212C379.423 491.212 390.804 500.823 390.804 512.678V525.307C390.804 537.162 379.423 546.774 365.383 546.774C351.345 546.774 339.963 537.162 339.963 525.307V512.678Z" fill="#65513C"/>
<path id="Vector_334" d="M383.193 458.506C398.224 458.506 410.409 468.796 410.409 481.489C410.409 494.182 398.224 504.472 383.193 504.472H368.032C353.001 504.472 340.815 494.182 340.815 481.489C340.815 468.796 353.001 458.506 368.032 458.506H383.193Z" fill="#65513C"/>
<path id="Vector_335" d="M347.261 472.86C341.617 472.86 337.042 476.724 337.042 481.49C337.042 486.256 341.617 490.12 347.261 490.12V472.86Z" fill="#65513C"/>
<path id="Vector_336" d="M347.261 476.194C343.797 476.194 340.99 478.565 340.99 481.49C340.99 484.414 343.797 486.785 347.261 486.785V476.194Z" fill="#FF9C9F"/>
<path id="Vector_337" d="M353.308 516.669C343.464 516.669 335.483 523.408 335.483 531.721C335.483 540.035 343.464 546.773 353.308 546.773H371.133V531.721C371.133 523.408 363.152 516.669 353.308 516.669Z" fill="#65513C"/>
<path id="Vector_338" d="M348.361 474.092H339.979C337.251 474.092 335.04 472.225 335.04 469.922C335.04 467.618 337.251 465.751 339.979 465.751H348.361C351.088 465.751 353.299 467.618 353.299 469.922C353.3 472.225 351.088 474.092 348.361 474.092Z" fill="#FF9C9F"/>
<path id="Vector_339" d="M339.979 474.092C330.609 474.092 322.986 480.529 322.986 488.441C322.986 496.354 330.609 502.791 339.979 502.791H351.239C353.967 502.791 356.178 504.659 356.178 506.962C356.178 509.265 353.967 511.132 351.239 511.132H339.979C325.162 511.132 313.108 500.953 313.108 488.441C313.108 475.929 325.162 465.751 339.979 465.751V474.092Z" fill="#65513C"/>
</g>
</g>
</g>
</g>
</g>
</g>
<defs>
<clipPath id="clip0_33_2489">
<rect width="135" height="135" fill="white" transform="translate(887.344 335.64)"/>
</clipPath>
<clipPath id="clip1_33_2489">
<rect width="150" height="153" fill="white" transform="translate(449.344 101.64)"/>
</clipPath>
<clipPath id="clip2_33_2489">
<rect width="174" height="174" fill="white" transform="translate(641.344 137.64)"/>
</clipPath>
<clipPath id="clip3_33_2489">
<rect width="135" height="138" fill="white" transform="translate(137.344 110.64)"/>
</clipPath>
<clipPath id="clip4_33_2489">
<rect width="225" height="225" fill="white" transform="matrix(-1 0 0 1 1253.34 449.64)"/>
</clipPath>
<clipPath id="clip5_33_2489">
<rect width="135" height="135" fill="white" transform="translate(887.344 335.64)"/>
</clipPath>
<clipPath id="clip6_33_2489">
<rect width="150" height="153" fill="white" transform="translate(449.344 101.64)"/>
</clipPath>
<clipPath id="clip7_33_2489">
<rect width="174" height="174" fill="white" transform="translate(641.344 137.64)"/>
</clipPath>
<clipPath id="clip8_33_2489">
<rect width="135" height="138" fill="white" transform="translate(137.344 110.64)"/>
</clipPath>
<clipPath id="clip9_33_2489">
<rect width="225" height="225" fill="white" transform="matrix(-1 0 0 1 1253.34 449.64)"/>
</clipPath>
<clipPath id="clip10_33_2489">
<rect width="174" height="258" fill="white" transform="translate(851.344 716.64)"/>
</clipPath>
<clipPath id="clip11_33_2489">
<rect width="174" height="207" fill="white" transform="translate(650.344 618.64)"/>
</clipPath>
<clipPath id="clip12_33_2489">
<rect width="144" height="153" fill="white" transform="translate(293.344 415.64)"/>
</clipPath>
</defs>
</svg>
