<svg width="1024" height="769" viewBox="0 0 1024 769" fill="none" xmlns="http://www.w3.org/2000/svg">
<g id="main slide" clip-path="url(#clip0_1_2)">
<rect width="1024" height="768" transform="translate(0 0.599976)" fill="white"/>
<g id="Ellipse_1" filter="url(#filter0_d_1_2)">
<circle cx="512" cy="769" r="31" fill="#F7B731"/>
</g>
<g id="Linked Path Group">
<path id="[Copy] Problems on Automatic Graphs" d="M149.897 743.099C150.356 742.261 150.77 741.311 151.14 740.246C151.514 739.127 151.748 738.05 151.84 737.015C152.171 733.313 151.276 730.434 149.154 728.378C146.983 726.263 144.128 725.047 140.589 724.731C138.847 724.575 137.223 724.622 135.719 724.872C134.16 725.117 132.8 725.599 131.638 726.318C130.422 727.033 129.453 728.044 128.733 729.352C127.962 730.6 127.492 732.177 127.322 734.083C127.21 735.335 127.212 736.543 127.327 737.706C127.443 738.869 127.67 740.014 128.008 741.142L149.897 743.099ZM134.544 752.758C132.692 752.593 131.185 752.568 130.022 752.683C128.86 752.799 127.922 753.154 127.21 753.749C126.449 754.285 125.854 755.11 125.425 756.224C124.996 757.338 124.617 758.814 124.288 760.65L122.328 760.475C122.578 758.906 122.85 757.092 123.144 755.032C123.438 752.973 123.699 750.664 123.928 748.104C124.157 745.545 124.249 742.974 124.206 740.391C124.167 737.753 124.27 735.072 124.513 732.35C124.742 729.791 125.29 727.343 126.157 725.005C127.025 722.668 128.195 720.632 129.667 718.897C131.139 717.163 132.959 715.844 135.125 714.94C137.242 713.976 139.689 713.619 142.466 713.867C144.916 714.086 146.993 714.793 148.698 715.988C150.352 717.124 151.703 718.589 152.75 720.384C153.802 722.125 154.533 724.084 154.942 726.261C155.301 728.379 155.381 730.554 155.182 732.786C155.021 734.583 154.722 736.395 154.284 738.222C153.851 739.994 153.233 741.695 152.429 743.325L166.722 744.602C168.573 744.768 170.105 744.823 171.317 744.766C172.475 744.705 173.435 744.407 174.196 743.871C174.958 743.335 175.555 742.483 175.989 741.315C176.423 740.146 176.816 738.507 177.17 736.398L178.803 736.544C178.485 738.876 178.194 741.21 177.93 743.546C177.671 745.828 177.437 748.14 177.228 750.481C177.004 752.986 176.81 755.466 176.645 757.921C176.481 760.376 176.343 762.834 176.233 765.293L174.6 765.147C174.617 763.118 174.513 761.517 174.288 760.345C174.069 759.118 173.629 758.2 172.97 757.592C172.316 756.93 171.424 756.466 170.295 756.201C169.112 755.93 167.595 755.712 165.743 755.547L134.544 752.758Z" fill="black"/>
<path id="[Copy] Problems on Automatic Graphs_2" d="M177.243 701.338C179.161 701.779 180.681 701.512 181.803 700.536C182.925 699.56 183.87 697.646 184.638 694.793L186.236 695.161C185.701 697.001 185.192 698.847 184.71 700.7C184.228 702.552 183.772 704.411 183.343 706.275C182.915 708.14 182.512 710.011 182.137 711.888C181.761 713.764 181.412 715.647 181.09 717.537L179.492 717.169C179.789 715.386 179.622 713.918 178.991 712.763C178.371 711.554 177.102 710.73 175.184 710.288L159.361 706.649C157.443 706.208 155.942 706.396 154.857 707.212C153.784 707.975 152.992 709.223 152.481 710.957L150.883 710.589C151.054 709.843 151.24 708.792 151.44 707.436C151.598 706.014 151.763 704.565 151.934 703.09C152.118 701.561 152.276 700.14 152.411 698.824C152.504 697.443 152.577 696.394 152.629 695.677L158.223 696.964C157.686 695.887 157.148 694.809 156.611 693.732C156.073 692.655 155.622 691.569 155.256 690.476C154.837 689.37 154.564 688.241 154.436 687.09C154.255 685.926 154.306 684.732 154.587 683.506C155.041 681.535 155.966 680.317 157.363 679.853C158.772 679.336 160.675 679.353 163.073 679.905C163.245 680.617 163.44 681.476 163.658 682.479C163.835 683.418 164.033 684.389 164.25 685.392C164.427 686.33 164.637 687.248 164.879 688.145C165.081 688.977 165.26 689.663 165.416 690.204L164.556 691.016C164.375 690.582 164.1 690.07 163.731 689.48C163.321 688.825 162.849 688.436 162.317 688.313C161.358 688.093 160.598 688.226 160.037 688.714C159.435 689.137 159.029 689.801 158.821 690.707C158.735 691.079 158.758 691.59 158.89 692.237C158.98 692.819 159.145 693.445 159.383 694.117C159.568 694.777 159.839 695.428 160.196 696.071C160.499 696.702 160.828 697.226 161.18 697.644L177.243 701.338Z" fill="black"/>
<path id="[Copy] Problems on Automatic Graphs_3" d="M175.182 670.24C177.62 671.052 179.824 671.526 181.795 671.664C183.765 671.802 185.477 671.68 186.929 671.3C188.346 670.85 189.513 670.201 190.429 669.354C191.345 668.507 191.984 667.538 192.347 666.449C193.072 664.271 192.683 662.24 191.178 660.356C189.674 658.472 187.054 656.908 183.32 655.665C180.882 654.853 178.678 654.378 176.707 654.24C174.737 654.103 173.042 654.259 171.625 654.708C170.173 655.089 168.989 655.703 168.073 656.551C167.157 657.398 166.518 658.366 166.155 659.455C165.43 661.634 165.819 663.665 167.324 665.549C168.828 667.433 171.448 668.996 175.182 670.24ZM163.458 657.693C164.235 655.359 165.349 653.224 166.801 651.287C168.201 649.333 169.851 647.751 171.752 646.54C173.671 645.278 175.788 644.456 178.105 644.075C180.421 643.694 182.824 643.918 185.314 644.747C187.803 645.576 189.861 646.838 191.486 648.531C193.112 650.225 194.314 652.152 195.092 654.313C195.888 656.422 196.26 658.678 196.209 661.08C196.21 663.501 195.821 665.878 195.044 668.212C194.267 670.546 193.153 672.681 191.701 674.618C190.301 676.571 188.642 678.18 186.724 679.442C184.822 680.653 182.714 681.448 180.397 681.829C178.081 682.21 175.678 681.986 173.188 681.157C170.699 680.328 168.641 679.067 167.016 677.373C165.39 675.679 164.18 673.778 163.384 671.669C162.605 669.509 162.242 667.227 162.293 664.824C162.292 662.404 162.68 660.027 163.458 657.693Z" fill="black"/>
<path id="[Copy] Problems on Automatic Graphs_4" d="M198.798 615.332C194.565 613.416 191.218 612.591 188.757 612.857C186.246 613.101 184.371 614.592 183.131 617.331C181.891 620.07 182.008 622.463 183.482 624.51C184.905 626.535 187.734 628.506 191.967 630.422C196.2 632.338 199.572 633.174 202.083 632.931C204.543 632.664 206.394 631.162 207.634 628.423C208.874 625.684 208.782 623.302 207.358 621.277C205.884 619.23 203.031 617.248 198.798 615.332ZM179.471 624.225C179.255 622.447 179.257 620.588 179.475 618.646C179.667 616.633 180.135 614.804 180.879 613.161C181.87 610.97 183.182 609.133 184.813 607.651C186.394 606.147 188.161 605.026 190.115 604.29C192.068 603.554 194.135 603.23 196.316 603.317C198.497 603.404 200.683 603.944 202.874 604.936C205.265 606.018 207.181 607.485 208.622 609.338C210.064 611.191 211.06 613.232 211.611 615.461C212.184 617.641 212.321 619.923 212.022 622.308C211.772 624.716 211.14 627.04 210.126 629.281C208.931 631.92 207.173 634.545 204.851 637.154C202.53 639.764 200.083 641.987 197.512 643.823C196.683 643.268 195.644 642.647 194.394 641.962C193.144 641.276 191.784 640.57 190.312 639.844C188.841 639.118 187.333 638.405 185.789 637.706C184.196 636.985 182.726 636.32 181.382 635.711L155.311 623.909C154.016 623.323 152.867 623.343 151.863 623.969C150.86 624.595 149.84 626.053 148.803 628.344L147.308 627.668C148.584 624.585 149.672 621.717 150.573 619.064C151.474 616.412 152.092 614.052 152.428 611.983L179.471 624.225Z" fill="black"/>
<path id="[Copy] Problems on Automatic Graphs_5" d="M220.378 592.527C222.097 593.484 223.536 593.598 224.694 592.866C225.805 592.108 226.746 591.036 227.517 589.651L228.95 590.449C228.556 591.044 228.163 591.638 227.769 592.232C227.423 592.853 227.027 593.508 226.58 594.198C226.181 594.915 225.705 595.713 225.152 596.594C224.647 597.501 224.048 598.576 223.356 599.818C222.053 602.158 221.039 604.034 220.316 605.445C219.592 606.857 218.972 608.139 218.456 609.29L217.023 608.492C217.768 607.155 218.17 605.815 218.23 604.471C218.242 603.101 217.389 601.938 215.669 600.98L177.486 579.713C175.815 578.782 174.443 578.55 173.369 579.016C172.275 579.408 171.236 580.487 170.252 582.254L168.819 581.456C170.107 578.919 171.283 576.415 172.348 573.941C173.439 571.42 174.238 569.143 174.744 567.11L220.378 592.527Z" fill="black"/>
<path id="[Copy] Problems on Automatic Graphs_6" d="M224.674 562.005C225.277 561.093 225.57 560.403 225.553 559.933C225.537 559.463 225.118 558.956 224.297 558.413C222.291 557.087 220.4 556.427 218.627 556.433C216.853 556.44 215.302 557.446 213.976 559.453C213.282 560.501 212.99 561.587 213.101 562.708C213.196 563.754 213.525 564.791 214.09 565.82C214.685 566.804 215.424 567.718 216.307 568.564C217.189 569.41 218.064 570.119 218.93 570.692L224.674 562.005ZM221.529 572.411C224.402 574.31 227.301 575.08 230.225 574.721C233.135 574.285 235.57 572.586 237.53 569.622C238.585 568.026 239.268 566.249 239.579 564.292C239.921 562.29 239.8 560.342 239.216 558.449L242.08 557.983C242.911 561.088 243.089 564.188 242.615 567.283C242.142 570.378 241.045 573.225 239.327 575.824C237.849 578.058 236.18 579.838 234.321 581.164C232.506 582.521 230.584 583.445 228.554 583.938C226.479 584.4 224.371 584.416 222.232 583.984C220.047 583.522 217.906 582.598 215.808 581.211C213.71 579.824 212.044 578.23 210.809 576.431C209.529 574.601 208.718 572.656 208.377 570.595C207.99 568.504 208.065 566.358 208.603 564.158C209.095 561.927 210.08 559.695 211.557 557.46C213.005 555.272 214.636 553.598 216.451 552.439C218.251 551.204 220.166 550.439 222.196 550.143C224.212 549.772 226.274 549.824 228.383 550.302C230.492 550.779 232.565 551.56 234.601 552.644L221.529 572.411Z" fill="black"/>
<path id="[Copy] Problems on Automatic Graphs_7" d="M235.699 531.944C235.682 529.815 235.956 527.687 236.521 525.561C237.081 523.357 238.066 521.456 239.477 519.857C240.996 518.136 242.565 516.895 244.183 516.136C245.76 515.341 247.714 515.316 250.046 516.061C250.118 514.74 250.198 513.534 250.285 512.444C250.367 511.277 250.57 510.18 250.893 509.153C251.175 508.09 251.596 507.076 252.156 506.111C252.674 505.111 253.386 504.098 254.29 503.073C255.592 501.598 256.924 500.585 258.284 500.036C259.644 499.486 260.987 499.286 262.313 499.436C263.634 499.508 264.895 499.856 266.096 500.478C267.333 501.059 268.443 501.784 269.427 502.652L280.493 512.419C281.231 513.07 281.954 513.49 282.663 513.678C283.331 513.83 283.971 513.848 284.583 513.733C285.191 513.54 285.755 513.272 286.276 512.93C286.792 512.511 287.249 512.075 287.647 511.625L288.877 512.71C288.474 513.084 288.053 513.478 287.614 513.892C287.216 514.343 286.726 514.858 286.142 515.437C285.636 516.01 285.018 516.669 284.29 517.411C283.603 518.19 282.789 519.112 281.848 520.178C280.076 522.186 278.722 523.762 277.786 524.904C276.85 526.047 276.17 526.942 275.746 527.588L274.516 526.503C274.842 526.134 275.144 525.708 275.424 525.226C275.699 524.667 275.858 524.114 275.902 523.57C275.94 522.947 275.843 522.314 275.609 521.671C275.334 520.991 274.828 520.325 274.09 519.674L263.7 510.504C261.979 508.984 260.349 508.311 258.81 508.485C257.308 508.617 255.906 509.421 254.604 510.897C253.88 511.716 253.339 512.66 252.979 513.728C252.62 514.797 252.399 515.914 252.317 517.081L265.842 529.019C266.58 529.67 267.303 530.09 268.012 530.278C268.68 530.43 269.302 530.468 269.879 530.394C270.45 530.242 270.978 530.015 271.463 529.714C271.907 529.376 272.291 529.023 272.617 528.654L273.846 529.74C273.222 530.282 272.419 531.068 271.437 532.097C270.492 533.086 269.079 534.646 267.198 536.777C265.425 538.785 264.053 540.381 263.081 541.565C262.145 542.708 261.447 543.623 260.986 544.31L259.757 543.225C260.119 542.815 260.439 542.369 260.719 541.887C260.994 541.327 261.171 540.755 261.251 540.169C261.29 539.547 261.192 538.914 260.958 538.27C260.684 537.59 260.177 536.924 259.44 536.273L248.496 526.615C247.431 525.674 246.121 525.175 244.569 525.117C242.975 525.023 241.563 525.672 240.333 527.066C239.537 527.967 238.987 529.086 238.683 530.422C238.338 531.722 238.184 532.971 238.22 534.169L251.192 545.618C251.93 546.269 252.653 546.689 253.362 546.877C254.03 547.029 254.652 547.068 255.228 546.993C255.8 546.841 256.328 546.615 256.812 546.313C257.256 545.976 257.623 545.643 257.912 545.315L259.142 546.4C258.553 546.902 257.768 547.667 256.787 548.697C255.841 549.685 254.428 551.245 252.547 553.376C250.775 555.385 249.402 556.981 248.43 558.165C247.459 559.348 246.652 560.386 246.01 561.278L244.781 560.193C245.215 559.701 245.608 559.173 245.96 558.609C246.271 558.009 246.467 557.416 246.546 556.83C246.621 556.167 246.542 555.513 246.308 554.869C246.033 554.189 245.527 553.524 244.789 552.873L230.71 540.447C228.661 538.638 226.443 539.086 224.055 541.791L222.825 540.706C224.516 538.625 226.207 536.545 227.897 534.464C229.547 532.347 230.856 530.368 231.826 528.526L235.699 531.944Z" fill="black"/>
<path id="[Copy] Problems on Automatic Graphs_8" d="M285.005 501.704C287.965 502.929 290.998 503.52 294.106 503.477C297.255 503.399 300.106 502.286 302.657 500.139C303.577 499.365 304.217 498.469 304.576 497.453C304.935 496.436 304.71 495.447 303.901 494.485C303.162 493.606 302.148 493.209 300.861 493.292C299.615 493.34 298.213 493.626 296.655 494.152C295.103 494.6 293.443 495.175 291.676 495.876C289.915 496.501 288.167 496.971 286.433 497.287C284.705 497.526 283.022 497.478 281.382 497.143C279.785 496.773 278.352 495.835 277.085 494.329C275.888 492.907 275.154 491.524 274.882 490.182C274.574 488.797 274.571 487.478 274.873 486.224C275.217 484.934 275.806 483.724 276.641 482.593C277.475 481.462 278.415 480.457 279.461 479.577C280.8 478.451 282.443 477.389 284.391 476.393C286.381 475.362 288.15 474.195 289.698 472.893C289.948 472.682 290.206 472.393 290.47 472.028L297.519 479.386L296.013 480.653C295.003 480.217 293.85 479.865 292.554 479.599C291.299 479.297 290.011 479.166 288.688 479.207C287.372 479.172 286.099 479.314 284.869 479.635C283.603 479.914 282.531 480.423 281.653 481.162C280.774 481.901 280.117 482.776 279.681 483.786C279.251 484.719 279.494 485.729 280.409 486.817C281.148 487.695 282.141 488.11 283.386 488.063C284.632 488.015 286.031 487.766 287.582 487.318C289.099 486.828 290.717 486.288 292.436 485.699C294.161 485.033 295.888 484.58 297.616 484.341C299.308 484.06 300.953 484.105 302.551 484.475C304.114 484.804 305.511 485.7 306.743 487.164C307.939 488.586 308.67 490.007 308.936 491.427C309.202 492.846 309.139 494.257 308.746 495.659C308.361 496.983 307.688 498.264 306.728 499.5C305.81 500.702 304.744 501.813 303.531 502.833C301.607 504.452 299.545 505.866 297.346 507.073C295.182 508.322 292.923 509.33 290.568 510.098L283.562 502.918L285.005 501.704Z" fill="black"/>
<path id="[Copy] Problems on Automatic Graphs_9" d="M328.584 461.956C329.865 464.184 331.196 466.004 332.577 467.417C333.957 468.83 335.316 469.877 336.654 470.558C338.012 471.165 339.315 471.456 340.562 471.432C341.81 471.408 342.931 471.11 343.926 470.537C345.916 469.392 346.976 467.616 347.105 465.209C347.233 462.801 346.316 459.892 344.354 456.48C343.073 454.253 341.742 452.433 340.361 451.019C338.981 449.606 337.611 448.597 336.254 447.99C334.916 447.309 333.623 446.981 332.376 447.005C331.128 447.028 330.007 447.327 329.012 447.899C327.021 449.044 325.962 450.82 325.833 453.228C325.705 455.635 326.622 458.545 328.584 461.956ZM328.169 444.789C330.301 443.563 332.553 442.709 334.925 442.227C337.27 441.698 339.554 441.614 341.78 441.973C344.052 442.306 346.18 443.1 348.163 444.355C350.147 445.611 351.793 447.376 353.101 449.651C354.41 451.925 355.108 454.235 355.196 456.581C355.284 458.927 354.901 461.166 354.046 463.297C353.238 465.401 352.016 467.334 350.381 469.095C348.772 470.903 346.901 472.421 344.769 473.647C342.637 474.874 340.385 475.728 338.013 476.209C335.668 476.738 333.36 476.836 331.087 476.504C328.862 476.144 326.758 475.336 324.774 474.081C322.791 472.825 321.145 471.06 319.836 468.786C318.528 466.511 317.83 464.201 317.742 461.855C317.654 459.51 318.013 457.284 318.821 455.18C319.676 453.049 320.921 451.102 322.557 449.342C324.166 447.533 326.036 446.016 328.169 444.789Z" fill="black"/>
<path id="[Copy] Problems on Automatic Graphs_10" d="M366.383 431.235C367.546 429 368.843 427.095 370.271 425.519C371.7 423.943 373.531 422.707 375.762 421.81C378.857 420.566 381.648 420.475 384.137 421.537C386.656 422.528 388.507 424.495 389.689 427.437L395.437 441.741C395.804 442.654 396.262 443.353 396.811 443.84C397.34 444.275 397.904 444.579 398.503 444.751C399.133 444.851 399.757 444.865 400.376 444.793C401.025 444.65 401.654 444.456 402.263 444.212L402.875 445.733C401.789 446.111 400.541 446.524 399.131 446.973C397.792 447.452 395.803 448.222 393.166 449.282C390.68 450.281 388.737 451.091 387.338 451.712C385.938 452.334 384.827 452.868 384.005 453.316L383.394 451.795C383.952 451.57 384.489 451.296 385.007 450.97C385.554 450.573 385.995 450.131 386.329 449.643C386.643 449.104 386.84 448.495 386.92 447.815C386.98 447.084 386.826 446.262 386.459 445.349L380.772 431.197C380.181 429.726 379.144 428.758 377.661 428.293C376.178 427.829 374.549 427.953 372.774 428.667C371.556 429.156 370.502 429.904 369.61 430.91C368.769 431.896 368.091 432.994 367.575 434.203L374.057 450.333C374.424 451.246 374.882 451.945 375.431 452.432C375.96 452.867 376.524 453.171 377.123 453.343C377.752 453.443 378.377 453.457 378.996 453.385C379.645 453.242 380.249 453.059 380.807 452.834L381.418 454.356C380.891 454.509 380.338 454.672 379.76 454.846C379.202 455.07 378.532 455.31 377.751 455.565C377.041 455.85 376.193 456.161 375.209 456.498C374.246 456.885 373.104 457.344 371.785 457.874C369.3 458.873 367.332 459.693 365.881 460.335C364.481 460.956 363.269 461.532 362.245 462.061L361.633 460.54C362.293 460.275 362.906 459.969 363.474 459.623C364.073 459.206 364.539 458.753 364.873 458.266C365.238 457.707 365.46 457.087 365.54 456.407C365.6 455.676 365.446 454.854 365.079 453.941L358.077 436.517C357.058 433.981 354.874 433.385 351.527 434.731L350.915 433.209C353.36 432.109 355.805 431.009 358.249 429.908C360.674 428.757 362.732 427.576 364.426 426.366L366.383 431.235Z" fill="black"/>
<path id="[Copy] Problems on Automatic Graphs_11" d="M446.049 408.784L436.135 391.032L435.973 391.06L432.234 411.187L446.049 408.784ZM416.873 438.663C418.353 438.239 419.54 437.728 420.435 437.128C421.374 436.465 422.101 435.701 422.616 434.834C423.185 433.958 423.627 432.994 423.943 431.94C424.304 430.823 424.641 429.571 424.954 428.185L434.364 388.511L432.236 384.886C433.903 384.263 435.534 383.591 437.128 382.869C438.714 382.094 440.226 381.22 441.666 380.249L467.476 424.781C468.423 426.392 469.774 427.461 471.53 427.988C473.277 428.461 474.985 428.552 476.655 428.261L476.992 430.2C475.959 430.324 474.792 430.472 473.49 430.643C472.188 430.814 470.886 430.985 469.584 431.156C468.292 431.381 466.999 431.606 465.707 431.831C464.468 432.046 463.337 432.243 462.314 432.421C460.052 432.815 457.794 433.235 455.542 433.683C453.343 434.121 451.122 434.591 448.879 435.092L448.541 433.153C451.304 432.45 453.298 431.632 454.523 430.697C455.747 429.763 456.238 428.596 455.994 427.195C455.91 426.711 455.694 426.11 455.348 425.393C455.055 424.668 454.681 423.956 454.227 423.258C453.817 422.497 453.385 421.768 452.931 421.07C452.521 420.309 452.161 419.678 451.852 419.177L447.714 411.657L431.637 414.454L429.499 426.562C429.361 427.363 429.192 428.141 428.99 428.898C428.843 429.645 428.863 430.557 429.05 431.634C429.163 432.28 429.481 432.835 430.006 433.299C430.584 433.753 431.261 434.135 432.036 434.444C432.856 434.689 433.693 434.877 434.548 435.005C435.456 435.125 436.27 435.177 436.989 435.163L437.326 437.102C435.584 437.294 433.82 437.518 432.033 437.773C430.3 438.019 428.572 438.292 426.849 438.592C425.233 438.873 423.622 439.182 422.015 439.517C420.409 439.852 418.807 440.213 417.21 440.602L416.873 438.663Z" fill="black"/>
<path id="[Copy] Problems on Automatic Graphs_12" d="M509.66 423.549C509.718 424.969 510.224 425.988 511.179 426.606C512.135 427.223 513.65 427.49 515.726 427.405L515.792 429.044C512.847 429.273 510.011 429.498 507.285 429.718C504.615 429.991 502.279 430.415 500.278 430.988L500.082 426.154C498.385 427.482 496.546 428.678 494.565 429.744C492.584 430.809 490.392 431.391 487.989 431.489C485.039 431.609 482.626 430.804 480.751 429.075C478.875 427.346 477.863 424.679 477.717 421.074L477.09 405.67C476.979 402.939 475.121 401.647 471.516 401.794L471.449 400.155C474.121 399.937 476.793 399.719 479.465 399.501C482.135 399.228 484.47 398.805 486.471 398.231L487.361 420.107C487.439 422.018 487.991 423.473 489.016 424.471C490.042 425.469 491.401 425.933 493.094 425.864C494.624 425.802 495.924 425.503 496.997 424.967C498.069 424.431 499.052 423.707 499.945 422.795L499.211 404.77C499.154 403.35 498.647 402.331 497.692 401.713C496.737 401.096 495.221 400.829 493.146 400.914L493.079 399.275C496.024 399.046 498.833 398.822 501.505 398.604C504.229 398.329 506.592 397.904 508.593 397.33L509.66 423.549Z" fill="black"/>
<path id="[Copy] Problems on Automatic Graphs_13" d="M518.459 401.382L518.556 399.499C520.308 399.48 521.885 399.151 523.287 398.511C524.743 397.875 526.018 397.038 527.111 395.999C528.26 394.964 529.278 393.785 530.168 392.462C531.06 391.085 531.844 389.675 532.521 388.232L534.159 388.316L533.588 399.371L544.889 399.954L544.746 402.739L533.445 402.156L532.549 419.517C532.425 421.919 532.694 423.602 533.356 424.567C534.072 425.534 535.359 426.066 537.215 426.162C538.198 426.212 539.252 425.938 540.377 425.34C541.558 424.744 542.636 424.006 543.612 423.125L545.234 425.098C544.379 425.765 543.411 426.481 542.332 427.247C541.252 428.012 540.094 428.719 538.856 429.367C537.676 429.963 536.474 430.448 535.25 430.823C534.081 431.2 532.951 431.361 531.859 431.305C529.02 431.158 526.817 430.36 525.249 428.911C523.739 427.41 523.056 425.267 523.2 422.483L524.273 401.682L518.459 401.382Z" fill="black"/>
<path id="[Copy] Problems on Automatic Graphs_14" d="M557.626 415.023C557.259 417.566 557.183 419.819 557.398 421.783C557.612 423.747 558.035 425.41 558.667 426.771C559.362 428.086 560.207 429.119 561.203 429.871C562.2 430.622 563.266 431.079 564.402 431.243C566.675 431.57 568.605 430.826 570.192 429.011C571.779 427.196 572.853 424.341 573.414 420.445C573.78 417.902 573.856 415.649 573.642 413.685C573.428 411.721 572.974 410.081 572.28 408.766C571.647 407.405 570.833 406.349 569.836 405.597C568.84 404.846 567.774 404.389 566.637 404.225C564.365 403.898 562.435 404.642 560.848 406.457C559.261 408.272 558.187 411.127 557.626 415.023ZM567.893 401.258C570.328 401.609 572.627 402.327 574.791 403.412C576.962 404.442 578.812 405.786 580.341 407.442C581.924 409.106 583.108 411.044 583.894 413.256C584.68 415.468 584.886 417.873 584.512 420.47C584.138 423.067 583.261 425.316 581.883 427.216C580.505 429.116 578.821 430.641 576.833 431.791C574.899 432.948 572.745 433.715 570.371 434.091C567.99 434.521 565.581 434.561 563.146 434.21C560.712 433.859 558.412 433.141 556.249 432.057C554.078 431.026 552.201 429.678 550.618 428.014C549.089 426.358 547.932 424.424 547.146 422.212C546.36 420 546.154 417.595 546.528 414.998C546.902 412.401 547.778 410.152 549.157 408.252C550.535 406.352 552.191 404.823 554.125 403.666C556.114 402.516 558.295 401.753 560.669 401.377C563.05 400.947 565.458 400.907 567.893 401.258Z" fill="black"/>
<path id="[Copy] Problems on Automatic Graphs_15" d="M603.101 412.614C605.032 411.717 607.082 411.086 609.252 410.719C611.49 410.316 613.628 410.426 615.667 411.048C617.863 411.718 619.642 412.632 621.003 413.791C622.38 414.897 623.212 416.665 623.499 419.096C624.732 418.615 625.862 418.189 626.89 417.817C627.987 417.408 629.069 417.138 630.138 417.007C631.223 416.824 632.32 416.787 633.429 416.897C634.555 416.955 635.771 417.183 637.078 417.582C638.961 418.157 640.433 418.949 641.497 419.96C642.56 420.97 643.298 422.11 643.711 423.379C644.192 424.612 644.398 425.903 644.329 427.254C644.312 428.621 644.112 429.931 643.729 431.186L639.421 445.303C639.133 446.244 639.051 447.077 639.173 447.8C639.311 448.471 639.56 449.061 639.919 449.571C640.346 450.044 640.823 450.447 641.35 450.779C641.946 451.075 642.531 451.311 643.106 451.486L642.628 453.055C642.121 452.843 641.588 452.623 641.028 452.395C640.453 452.22 639.782 451.986 639.013 451.695C638.281 451.471 637.426 451.182 636.449 450.826C635.456 450.523 634.279 450.164 632.92 449.749C630.358 448.967 628.363 448.387 626.935 448.009C625.508 447.63 624.412 447.381 623.648 447.263L624.127 445.694C624.597 445.838 625.11 445.937 625.665 445.992C626.288 446.011 626.856 445.927 627.37 445.741C627.952 445.518 628.488 445.168 628.977 444.688C629.483 444.156 629.879 443.42 630.166 442.479L634.211 429.224C634.881 427.028 634.819 425.266 634.024 423.938C633.282 422.625 631.969 421.681 630.087 421.107C629.041 420.788 627.958 420.686 626.837 420.801C625.716 420.916 624.607 421.178 623.511 421.586L618.245 438.841C617.958 439.782 617.875 440.614 617.997 441.337C618.136 442.008 618.358 442.59 618.664 443.084C619.039 443.541 619.464 443.928 619.939 444.245C620.43 444.509 620.911 444.713 621.381 444.856L620.903 446.425C620.15 446.081 619.102 445.675 617.759 445.208C616.468 444.757 614.463 444.116 611.744 443.287C609.182 442.505 607.161 441.917 605.681 441.522C604.253 441.143 603.131 440.887 602.315 440.752L602.794 439.183C603.317 439.343 603.856 439.45 604.41 439.505C605.033 439.524 605.628 439.448 606.194 439.278C606.777 439.056 607.312 438.705 607.802 438.225C608.307 437.694 608.703 436.957 608.99 436.016L613.251 422.056C613.666 420.696 613.578 419.298 612.988 417.86C612.414 416.371 611.238 415.354 609.46 414.812C608.31 414.461 607.064 414.424 605.722 414.7C604.396 414.924 603.195 415.301 602.119 415.829L597.069 432.378C596.782 433.319 596.699 434.151 596.822 434.874C596.96 435.545 597.182 436.128 597.489 436.621C597.864 437.079 598.288 437.465 598.763 437.782C599.254 438.046 599.709 438.242 600.127 438.37L599.649 439.938C598.948 439.61 597.927 439.213 596.583 438.745C595.292 438.294 593.287 437.654 590.568 436.824C588.006 436.042 585.985 435.454 584.505 435.059C583.025 434.665 581.746 434.36 580.669 434.146L581.148 432.577C581.775 432.769 582.418 432.908 583.078 432.995C583.753 433.029 584.374 432.962 584.94 432.792C585.575 432.585 586.137 432.242 586.626 431.763C587.131 431.231 587.527 430.495 587.814 429.554L593.296 411.593C594.094 408.979 592.767 407.145 589.316 406.092L589.795 404.524C592.389 405.201 594.983 405.878 597.577 406.556C600.187 407.181 602.531 407.553 604.609 407.673L603.101 412.614Z" fill="black"/>
<path id="[Copy] Problems on Automatic Graphs_16" d="M655.332 449.771C654.582 451.291 654.431 452.71 654.878 454.027C655.349 455.296 656.369 456.318 657.938 457.092C658.82 457.527 659.751 457.804 660.729 457.921C661.757 458.062 662.771 457.983 663.772 457.685C664.061 456.974 664.327 456.313 664.568 455.7C664.858 455.112 665.161 454.499 665.475 453.862C665.814 453.176 666.141 452.514 666.455 451.876C666.819 451.263 667.194 450.626 667.582 449.964C666.944 449.527 666.318 449.127 665.705 448.763C665.141 448.424 664.516 448.085 663.83 447.746C662.359 447.021 660.781 446.76 659.095 446.964C657.409 447.169 656.155 448.104 655.332 449.771ZM671.573 441.875C673.218 438.541 672.864 436.294 670.511 435.133C669.678 434.721 668.919 434.53 668.234 434.558C667.599 434.61 667.013 434.809 666.477 435.154C666.014 435.474 665.589 435.904 665.201 436.444C664.812 436.984 664.485 437.524 664.219 438.063C663.977 438.553 663.771 438.97 663.602 439.313C663.506 439.631 663.422 439.925 663.35 440.194C661.73 438.907 660.22 437.705 658.82 436.588C657.421 435.47 655.973 434.39 654.476 433.347C655.446 431.875 656.565 430.842 657.834 430.248C659.126 429.606 660.469 429.293 661.863 429.311C663.33 429.303 664.798 429.54 666.267 430.021C667.761 430.453 669.169 430.996 670.493 431.649C672.062 432.423 673.582 433.356 675.055 434.449C676.552 435.492 677.768 436.672 678.704 437.987C679.713 439.277 680.356 440.692 680.633 442.231C680.934 443.72 680.674 445.299 679.851 446.965C679.416 447.848 678.907 448.816 678.326 449.871C677.745 450.925 677.164 451.979 676.583 453.033C676.075 454.063 675.554 455.056 675.021 456.012C674.513 456.919 674.101 457.692 673.787 458.329C673.254 459.407 672.967 460.485 672.923 461.561C672.88 462.637 673.496 463.489 674.77 464.118C675.604 464.529 676.448 464.671 677.303 464.545C678.207 464.442 679.086 464.266 679.941 464.017L680.464 465.922C679.634 466.122 678.67 466.408 677.571 466.78C676.522 467.177 675.448 467.5 674.349 467.751C673.3 468.025 672.249 468.177 671.198 468.207C670.123 468.286 669.144 468.108 668.261 467.673C667.036 467.068 666.053 466.034 665.311 464.571C664.57 463.108 663.989 461.754 663.567 460.509C661.196 460.742 658.825 460.73 656.452 460.473C654.079 460.217 651.814 459.557 649.657 458.492C648.628 457.984 647.683 457.305 646.823 456.453C646.012 455.626 645.359 454.725 644.865 453.75C644.395 452.726 644.121 451.676 644.042 450.6C644.012 449.549 644.227 448.558 644.686 447.627C645.847 445.274 647.38 443.774 649.283 443.129C651.211 442.434 653.288 442.24 655.514 442.546C657.814 442.827 660.128 443.451 662.455 444.416C664.783 445.382 666.927 446.349 668.888 447.316L671.573 441.875Z" fill="black"/>
<path id="[Copy] Problems on Automatic Graphs_17" d="M688.958 445.457L689.964 443.862C691.502 444.703 693.039 445.187 694.574 445.315C696.155 445.472 697.677 445.365 699.138 444.995C700.646 444.653 702.112 444.123 703.534 443.405C704.986 442.64 706.36 441.794 707.656 440.866L709.043 441.741L703.138 451.104L712.709 457.141L711.221 459.499L701.65 453.463L692.376 468.166C691.093 470.201 690.504 471.8 690.609 472.966C690.761 474.16 691.623 475.253 693.195 476.244C694.027 476.769 695.081 477.046 696.355 477.074C697.676 477.132 698.978 477.016 700.259 476.725L700.71 479.239C699.637 479.403 698.443 479.554 697.127 479.694C695.811 479.833 694.455 479.883 693.058 479.842C691.737 479.785 690.452 479.62 689.201 479.348C687.997 479.106 686.932 478.693 686.007 478.11C683.603 476.593 682.072 474.82 681.414 472.789C680.831 470.741 681.284 468.538 682.771 466.18L693.882 448.563L688.958 445.457Z" fill="black"/>
<path id="[Copy] Problems on Automatic Graphs_18" d="M714.804 489.01C713.622 490.583 713.314 491.994 713.881 493.241C714.481 494.444 715.415 495.522 716.683 496.474L715.697 497.785C715.162 497.314 714.627 496.844 714.091 496.373C713.523 495.946 712.928 495.465 712.305 494.928C711.65 494.436 710.923 493.855 710.126 493.188C709.295 492.564 708.312 491.825 707.176 490.971C705.035 489.361 703.314 488.102 702.014 487.194C700.713 486.285 699.528 485.497 698.457 484.829L699.442 483.517C700.666 484.437 701.939 485.018 703.262 485.26C704.618 485.458 705.886 484.77 707.069 483.197L718.35 468.186C719.204 467.049 719.457 465.94 719.108 464.857C718.759 463.775 717.755 462.609 716.094 461.361L717.079 460.05C719.505 461.736 721.892 463.291 724.241 464.715C726.591 466.138 728.782 467.272 730.814 468.116C729.95 469.176 729.101 470.214 728.269 471.23C727.437 472.245 726.644 473.256 725.888 474.261L714.804 489.01ZM739.855 446.805C741.254 447.856 742.073 449.223 742.311 450.907C742.594 452.624 742.193 454.204 741.11 455.646C740.026 457.088 738.62 457.912 736.892 458.118C735.208 458.357 733.667 457.951 732.269 456.9C730.87 455.849 730.03 454.465 729.747 452.748C729.508 451.064 729.931 449.501 731.015 448.059C732.098 446.617 733.482 445.776 735.166 445.537C736.894 445.331 738.457 445.754 739.855 446.805Z" fill="black"/>
<path id="[Copy] Problems on Automatic Graphs_19" d="M746.392 517.399C743.174 517.29 740.227 516.8 737.551 515.928C734.916 515.093 732.564 513.741 730.496 511.871C728.671 510.222 727.164 508.343 725.974 506.235C724.747 504.169 723.942 502.003 723.557 499.739C723.212 497.511 723.331 495.261 723.913 492.986C724.495 490.712 725.666 488.602 727.426 486.655C729.186 484.709 731.168 483.332 733.372 482.524C735.576 481.716 737.803 481.372 740.054 481.491C742.346 481.646 744.581 482.23 746.761 483.243C748.977 484.215 750.998 485.526 752.823 487.176C753.553 487.836 754.185 488.481 754.72 489.112C755.296 489.78 755.851 490.429 756.386 491.06C756.921 491.691 757.435 492.304 757.93 492.898C758.465 493.529 759.016 494.101 759.584 494.615L761.104 495.989C760.554 496.598 759.876 497.348 759.07 498.24C758.304 499.169 757.483 500.158 756.607 501.209C755.808 502.255 755.009 503.302 754.21 504.349C753.412 505.395 752.706 506.379 752.095 507.3L750.939 506.255C751.385 505.11 751.841 503.791 752.307 502.296C752.811 500.762 753.1 499.218 753.177 497.666C753.331 496.11 753.216 494.606 752.834 493.155C752.488 491.663 751.706 490.367 750.49 489.267C748.503 487.471 746.32 486.787 743.942 487.217C741.605 487.683 739.483 488.97 737.576 491.079C736.11 492.701 734.958 494.423 734.121 496.246C733.321 498.028 732.868 499.792 732.762 501.539C732.734 503.282 733.051 504.969 733.714 506.6C734.377 508.231 735.418 509.688 736.837 510.971C738.135 512.145 739.494 513.005 740.915 513.553C742.413 514.096 744.194 514.491 746.257 514.735L746.392 517.399Z" fill="black"/>
<path id="[Copy] Problems on Automatic Graphs_20" d="M816.511 554.492C817.781 552.723 818.832 550.843 819.665 548.854C820.575 546.876 821.118 544.865 821.296 542.821C821.549 540.788 821.382 538.694 820.794 536.539C820.239 534.428 819.142 532.279 817.505 530.09C815.441 527.333 813.087 525.373 810.442 524.212C807.874 523.061 805.18 522.517 802.359 522.579C799.571 522.685 796.766 523.317 793.944 524.472C791.122 525.628 788.441 527.156 785.903 529.056C783.364 530.955 781.142 533.096 779.238 535.477C777.333 537.859 775.936 540.372 775.047 543.017C774.192 545.706 773.932 548.46 774.268 551.282C774.68 554.114 775.918 556.909 777.981 559.666C779.259 561.373 780.903 562.84 782.913 564.067C785 565.304 787.06 566.05 789.093 566.304L795.659 561.391C796.578 560.703 797.262 560.02 797.711 559.343C798.16 558.666 798.385 557.917 798.386 557.097C798.387 556.277 798.153 555.325 797.684 554.243C797.291 553.171 796.658 551.869 795.785 550.337L797.361 549.158C798.387 550.712 799.512 552.397 800.734 554.213C802.033 556.04 803.485 558.026 805.09 560.171C806.662 562.272 808.142 564.203 809.528 565.965C810.959 567.694 812.258 569.248 813.426 570.627L811.851 571.806C810.289 569.902 808.749 568.801 807.229 568.504C805.787 568.219 804.452 568.534 803.227 569.451L793.248 576.919C791.445 575.605 789.708 574.379 788.036 573.24C786.398 572.145 784.802 571.017 783.251 569.856C781.776 568.707 780.351 567.486 778.975 566.194C777.599 564.903 776.288 563.425 775.044 561.762C772.26 558.042 770.208 554.251 768.889 550.39C767.647 546.54 767.154 542.779 767.409 539.105C767.665 535.432 768.734 531.935 770.619 528.613C772.546 525.258 775.283 522.255 778.828 519.602C782.374 516.949 786.005 515.187 789.724 514.316C793.486 513.413 797.165 513.357 800.761 514.148C804.357 514.939 807.805 516.49 811.104 518.8C814.48 521.122 817.56 524.143 820.344 527.863C822.342 530.533 823.984 533.366 825.271 536.364C826.602 539.328 827.982 542.221 829.411 545.044C828.229 545.928 827.13 546.785 826.112 547.615C825.127 548.488 824.18 549.368 823.272 550.252C822.364 551.137 821.45 552.06 820.53 553.021C819.644 554.026 818.746 555.107 817.837 556.265L816.511 554.492Z" fill="black"/>
<path id="[Copy] Problems on Automatic Graphs_21" d="M806.192 593.406C804.482 594.38 803.545 595.606 803.38 597.084C803.215 598.562 803.816 600.611 805.182 603.23L803.757 604.042C802.905 602.325 802.029 600.622 801.13 598.932C800.23 597.243 799.307 595.567 798.36 593.904C797.413 592.242 796.442 590.593 795.447 588.957C794.453 587.322 793.435 585.7 792.392 584.092L793.817 583.28C794.805 584.793 795.923 585.761 797.17 586.183C798.444 586.653 799.936 586.4 801.646 585.426L815.754 577.39C817.464 576.416 818.442 575.261 818.688 573.925C818.96 572.637 818.698 571.183 817.9 569.561L819.325 568.749C819.704 569.414 820.279 570.313 821.05 571.447C821.897 572.601 822.756 573.778 823.629 574.98C824.529 576.228 825.375 577.382 826.167 578.441C827.034 579.52 827.69 580.342 828.137 580.905L823.15 583.746C824.275 584.175 825.4 584.604 826.525 585.032C827.65 585.461 828.717 585.954 829.726 586.511C830.784 587.042 831.749 587.687 832.623 588.448C833.544 589.181 834.316 590.094 834.938 591.187C835.939 592.944 836.083 594.467 835.369 595.754C834.682 597.089 833.27 598.365 831.133 599.583C830.523 599.175 829.798 598.676 828.958 598.085C828.193 597.514 827.39 596.933 826.55 596.342C825.785 595.772 825.009 595.238 824.223 594.742C823.512 594.267 822.916 593.883 822.435 593.591L822.518 592.411C822.945 592.608 823.493 592.799 824.165 592.983C824.91 593.187 825.52 593.154 825.995 592.883C826.85 592.396 827.319 591.783 827.401 591.044C827.558 590.326 827.407 589.563 826.947 588.755C826.757 588.423 826.395 588.063 825.86 587.676C825.399 587.309 824.854 586.959 824.224 586.626C823.641 586.266 823.001 585.97 822.303 585.739C821.652 585.48 821.056 585.316 820.513 585.248L806.192 593.406Z" fill="black"/>
<path id="[Copy] Problems on Automatic Graphs_22" d="M821.07 616.899C819.531 617.607 818.52 618.614 818.037 619.92C817.604 621.202 817.754 622.638 818.485 624.227C818.896 625.121 819.445 625.921 820.132 626.628C820.841 627.385 821.678 627.963 822.644 628.361C823.316 627.991 823.939 627.644 824.512 627.321C825.108 627.046 825.729 626.761 826.374 626.464C827.07 626.144 827.74 625.835 828.386 625.538C829.054 625.291 829.747 625.032 830.465 624.762C830.245 624.021 830.011 623.316 829.763 622.647C829.539 622.029 829.267 621.372 828.947 620.676C828.261 619.187 827.199 617.99 825.761 617.088C824.322 616.185 822.759 616.122 821.07 616.899ZM838.66 620.991C842.036 619.437 843.176 617.468 842.08 615.084C841.691 614.24 841.222 613.613 840.673 613.204C840.146 612.845 839.566 612.63 838.932 612.561C838.371 612.518 837.77 612.584 837.128 612.759C836.487 612.934 835.893 613.147 835.346 613.399C834.85 613.627 834.428 613.821 834.08 613.981C833.805 614.168 833.555 614.344 833.329 614.507C832.881 612.487 832.465 610.602 832.081 608.853C831.698 607.104 831.253 605.353 830.747 603.6C832.428 603.067 833.947 602.97 835.306 603.307C836.715 603.622 837.955 604.225 839.027 605.116C840.171 606.033 841.163 607.142 842.001 608.441C842.889 609.717 843.642 611.025 844.259 612.366C844.99 613.955 845.584 615.638 846.04 617.414C846.546 619.167 846.748 620.849 846.647 622.46C846.619 624.098 846.228 625.602 845.474 626.972C844.77 628.319 843.574 629.381 841.885 630.158C840.991 630.569 839.986 631.001 838.871 631.455C837.756 631.908 836.64 632.361 835.525 632.814C834.482 633.294 833.453 633.737 832.437 634.145C831.47 634.529 830.664 634.87 830.019 635.167C828.926 635.67 828.024 636.326 827.313 637.134C826.602 637.943 826.544 638.993 827.138 640.284C827.526 641.128 828.093 641.77 828.837 642.21C829.603 642.7 830.397 643.117 831.218 643.461L830.425 645.27C829.654 644.903 828.725 644.518 827.637 644.116C826.573 643.764 825.535 643.339 824.523 642.841C823.535 642.393 822.623 641.85 821.788 641.212C820.902 640.596 820.254 639.841 819.843 638.947C819.272 637.706 819.159 636.283 819.504 634.68C819.849 633.077 820.25 631.659 820.706 630.426C818.718 629.114 816.883 627.612 815.201 625.918C813.519 624.225 812.176 622.286 811.17 620.101C810.69 619.058 810.384 617.935 810.252 616.732C810.143 615.579 810.203 614.468 810.433 613.399C810.713 612.308 811.161 611.319 811.777 610.434C812.415 609.599 813.206 608.964 814.15 608.53C816.534 607.433 818.668 607.233 820.554 607.93C822.489 608.604 824.224 609.761 825.761 611.401C827.371 613.067 828.775 615.008 829.976 617.224C831.176 619.44 832.233 621.541 833.147 623.527L838.66 620.991Z" fill="black"/>
<path id="[Copy] Problems on Automatic Graphs_23" d="M813.788 673.751C813.116 671.439 812.426 669.162 811.72 666.919C811.014 664.676 810.273 662.417 809.497 660.14C808.933 658.484 808.335 656.811 807.701 655.121C807.085 653.483 806.444 651.853 805.776 650.232L807.329 649.704C807.716 650.842 808.206 651.686 808.797 652.235C809.389 652.785 810.022 653.118 810.697 653.234C811.389 653.402 812.081 653.398 812.771 653.221C813.479 653.095 814.17 652.917 814.842 652.688L849.383 640.922C851.971 640.041 852.683 637.893 851.519 634.477L853.072 633.949C854.039 636.449 855.084 638.923 856.206 641.37C857.329 643.818 858.475 645.911 859.644 647.649L855.22 649.156C857.408 650.663 859.078 652.173 860.229 653.687C861.379 655.201 862.255 656.837 862.854 658.597C863.629 660.874 863.929 663.11 863.754 665.307C863.63 667.486 863.107 669.512 862.186 671.385C861.265 673.258 859.979 674.909 858.329 676.338C856.678 677.766 854.715 678.868 852.438 679.644C850.006 680.472 847.717 680.79 845.572 680.596C843.427 680.403 841.461 679.802 839.674 678.794C837.939 677.768 836.4 676.386 835.057 674.649C833.784 672.946 832.768 670.982 832.01 668.757C831.253 666.532 830.721 664.547 830.416 662.803C830.058 661.077 829.995 659.366 830.226 657.67L821.378 660.684C819.411 661.354 817.903 662.012 816.853 662.659C815.802 663.305 815.081 664.071 814.689 664.955C814.315 665.891 814.201 666.998 814.348 668.276C814.512 669.606 814.843 671.255 815.34 673.223L813.788 673.751ZM839.153 654.629C836.824 655.422 835.138 656.661 834.094 658.345C833.103 660.011 833.118 662.345 834.14 665.346C835.11 668.192 836.781 669.875 839.152 670.395C841.576 670.898 844.754 670.48 848.687 669.14C852.723 667.765 855.522 666.148 857.083 664.288C858.695 662.41 859.017 660.048 858.047 657.202C857.765 656.374 857.319 655.573 856.709 654.799C856.117 654.077 855.438 653.442 854.674 652.894C853.962 652.328 853.224 651.857 852.461 651.482C851.697 651.107 850.987 650.887 850.33 650.822L839.153 654.629Z" fill="black"/>
<path id="[Copy] Problems on Automatic Graphs_24" d="M867.842 695.037C869.834 696.581 871.478 698.196 872.773 699.883C874.069 701.57 874.959 703.591 875.444 705.947C876.115 709.214 875.707 711.977 874.218 714.236C872.794 716.538 870.529 718.009 867.423 718.647L852.323 721.752C851.36 721.951 850.589 722.276 850.013 722.73C849.49 723.172 849.091 723.673 848.815 724.232C848.604 724.834 848.478 725.445 848.439 726.067C848.464 726.732 848.537 727.359 848.658 727.948L847.052 728.278C846.995 727.732 846.933 727.158 846.866 726.558C846.744 725.969 846.628 725.268 846.516 724.453C846.362 723.704 846.207 722.815 846.052 721.786C845.842 720.769 845.595 719.564 845.308 718.172C844.769 715.548 844.318 713.492 843.956 712.004C843.594 710.516 843.266 709.327 842.972 708.439L844.578 708.109C844.7 708.698 844.874 709.276 845.102 709.843C845.395 710.452 845.752 710.965 846.172 711.381C846.646 711.786 847.211 712.088 847.866 712.288C848.574 712.478 849.411 712.473 850.374 712.275L865.314 709.203C867.134 708.828 868.314 707.916 868.853 706.466C869.457 705.058 869.582 703.497 869.23 701.784C868.965 700.499 868.418 699.328 867.586 698.271C866.766 697.267 865.807 696.404 864.71 695.681L847.682 699.183C846.718 699.381 845.948 699.707 845.372 700.16C844.849 700.603 844.449 701.103 844.174 701.662C843.962 702.264 843.837 702.876 843.798 703.498C843.823 704.162 843.896 704.789 844.017 705.378L842.411 705.708C842.354 705.162 842.292 704.589 842.224 703.989C842.103 703.4 841.987 702.698 841.875 701.884C841.721 701.134 841.566 700.245 841.41 699.217C841.201 698.199 840.953 696.995 840.667 695.602C840.128 692.979 839.671 690.896 839.299 689.354C838.926 687.812 838.559 686.436 838.199 685.227L839.805 684.897C840.113 686.396 840.683 687.674 841.514 688.731C842.399 689.777 843.805 690.101 845.733 689.705L889.507 680.703C892.184 680.153 893.16 678.11 892.433 674.576L894.039 674.246C894.686 676.848 895.413 679.433 896.22 682.002C897.028 684.57 897.903 686.79 898.846 688.661L867.842 695.037Z" fill="black"/>
<path id="[Copy] Problems on Automatic Graphs_25" d="M858.872 729.981C856.107 731.597 853.801 733.655 851.955 736.155C850.113 738.711 849.274 741.653 849.44 744.984C849.5 746.185 849.827 747.236 850.419 748.137C851.011 749.038 851.935 749.457 853.191 749.394C854.338 749.337 855.267 748.771 855.98 747.695C856.695 746.674 857.315 745.384 857.839 743.826C858.421 742.319 858.967 740.649 859.478 738.818C860.045 737.038 860.728 735.362 861.525 733.789C862.38 732.269 863.436 730.957 864.695 729.854C865.956 728.806 867.57 728.233 869.535 728.135C871.392 728.042 872.937 728.293 874.171 728.889C875.459 729.481 876.511 730.277 877.328 731.276C878.147 732.33 878.754 733.531 879.15 734.88C879.545 736.228 879.777 737.585 879.845 738.95C879.933 740.697 879.784 742.648 879.399 744.802C879.016 747.01 878.876 749.125 878.976 751.145C878.993 751.472 879.066 751.852 879.197 752.283L869.075 753.445L868.977 751.48C869.935 750.939 870.912 750.234 871.909 749.363C872.908 748.547 873.791 747.6 874.558 746.521C875.383 745.495 876.04 744.395 876.528 743.221C877.072 742.044 877.315 740.883 877.257 739.736C877.2 738.59 876.901 737.537 876.361 736.579C875.878 735.673 874.926 735.255 873.507 735.326C872.36 735.383 871.429 735.922 870.714 736.943C869.999 737.964 869.35 739.228 868.769 740.735C868.242 742.239 867.693 743.854 867.122 745.579C866.609 747.356 865.925 749.005 865.07 750.525C864.27 752.043 863.24 753.326 861.978 754.374C860.772 755.42 859.213 755.99 857.302 756.086C855.446 756.178 853.872 755.901 852.581 755.254C851.289 754.607 850.204 753.703 849.325 752.543C848.504 751.435 847.891 750.124 847.487 748.612C847.086 747.154 846.846 745.633 846.767 744.05C846.641 741.538 846.763 739.042 847.132 736.56C847.446 734.082 848.01 731.673 848.823 729.333L858.778 728.097L858.872 729.981Z" fill="black"/>
</g>
</g>
<defs>
<filter id="filter0_d_1_2" x="-29" y="232" width="1082" height="1082" filterUnits="userSpaceOnUse" color-interpolation-filters="sRGB">
<feFlood flood-opacity="0" result="BackgroundImageFix"/>
<feColorMatrix in="SourceAlpha" type="matrix" values="0 0 0 0 0 0 0 0 0 0 0 0 0 0 0 0 0 0 127 0" result="hardAlpha"/>
<feMorphology radius="260" operator="dilate" in="SourceAlpha" result="effect1_dropShadow_1_2"/>
<feOffset dy="4"/>
<feGaussianBlur stdDeviation="125"/>
<feComposite in2="hardAlpha" operator="out"/>
<feColorMatrix type="matrix" values="0 0 0 0 0.968627 0 0 0 0 0.717647 0 0 0 0 0.192157 0 0 0 1 0"/>
<feBlend mode="normal" in2="BackgroundImageFix" result="effect1_dropShadow_1_2"/>
<feBlend mode="normal" in="SourceGraphic" in2="effect1_dropShadow_1_2" result="shape"/>
</filter>
<clipPath id="clip0_1_2">
<rect width="1024" height="768" fill="white" transform="translate(0 0.599976)"/>
</clipPath>
</defs>
</svg>
