<svg width="1024" height="768" viewBox="0 0 1024 768" fill="none" xmlns="http://www.w3.org/2000/svg">
<g id="main slide">
<rect width="1024" height="768" fill="white"/>
<rect id="definition_automatic" opacity="0.5" y="209" width="297" height="222" fill="#FF0000"/>
<g id="title">
<path id="R&#195;&#169;mi Morvan" d="M422.6 698.38C423.34 698.42 424.06 698.45 424.76 698.47C425.48 698.49 426.29 698.5 427.19 698.5C428.27 698.5 429.35 698.47 430.43 698.41C431.51 698.35 432.64 698.32 433.82 698.32C434.86 698.32 435.79 698.47 436.61 698.77C437.45 699.07 438.16 699.49 438.74 700.03C439.34 700.55 439.79 701.16 440.09 701.86C440.41 702.56 440.57 703.32 440.57 704.14C440.57 704.84 440.45 705.46 440.21 706C439.99 706.52 439.68 706.98 439.28 707.38C438.88 707.76 438.41 708.08 437.87 708.34C437.33 708.6 436.74 708.8 436.1 708.94C436.52 709.62 437.04 710.43 437.66 711.37C438.28 712.29 438.96 713.19 439.7 714.07C440.46 714.93 441.27 715.69 442.13 716.35C442.99 717.01 443.87 717.42 444.77 717.58V718.12C444.19 718.08 443.62 718.05 443.06 718.03C442.52 718.01 441.96 718 441.38 718C440.88 718 440.38 718.01 439.88 718.03C439.38 718.05 438.88 718.08 438.38 718.12C437.12 716.78 435.95 715.38 434.87 713.92C433.81 712.46 432.84 710.93 431.96 709.33C431.62 709.29 431.23 709.23 430.79 709.15C430.37 709.07 430.05 708.95 429.83 708.79V713.98C429.83 714.66 429.85 715.21 429.89 715.63C429.95 716.05 430.08 716.38 430.28 716.62C430.5 716.86 430.81 717.04 431.21 717.16C431.61 717.26 432.16 717.34 432.86 717.4V718.12C432.16 718.08 431.39 718.05 430.55 718.03C429.73 718.01 428.89 718 428.03 718C427.11 718 426.2 718.01 425.3 718.03C424.4 718.05 423.5 718.08 422.6 718.12V717.4C423.34 717.34 423.92 717.26 424.34 717.16C424.78 717.04 425.1 716.86 425.3 716.62C425.52 716.38 425.66 716.05 425.72 715.63C425.78 715.21 425.81 714.66 425.81 713.98V702.58C425.81 701.98 425.78 701.47 425.72 701.05C425.66 700.63 425.52 700.28 425.3 700C425.1 699.72 424.78 699.51 424.34 699.37C423.92 699.21 423.34 699.1 422.6 699.04V698.38ZM429.83 707.62C430.47 707.92 431.14 708.07 431.84 708.07C433.16 708.07 434.22 707.7 435.02 706.96C435.84 706.22 436.25 705.14 436.25 703.72C436.25 703.12 436.15 702.56 435.95 702.04C435.77 701.5 435.5 701.04 435.14 700.66C434.78 700.26 434.35 699.95 433.85 699.73C433.35 699.51 432.79 699.4 432.17 699.4C431.77 699.4 431.38 699.42 431 699.46C430.62 699.5 430.23 699.59 429.83 699.73V707.62ZM451.57 711.22C451.97 711.22 452.24 711.17 452.38 711.07C452.52 710.97 452.59 710.74 452.59 710.38C452.59 709.5 452.41 708.79 452.05 708.25C451.69 707.71 451.07 707.44 450.19 707.44C449.73 707.44 449.34 707.57 449.02 707.83C448.72 708.07 448.47 708.38 448.27 708.76C448.09 709.14 447.96 709.55 447.88 709.99C447.8 710.43 447.76 710.84 447.76 711.22H451.57ZM447.76 712.36C447.76 713.62 448.11 714.66 448.81 715.48C449.53 716.28 450.54 716.68 451.84 716.68C452.54 716.68 453.22 716.53 453.88 716.23C454.56 715.93 455.13 715.5 455.59 714.94L456.31 715.72C455.53 716.6 454.62 717.28 453.58 717.76C452.54 718.24 451.45 718.48 450.31 718.48C449.33 718.48 448.45 718.33 447.67 718.03C446.89 717.75 446.22 717.35 445.66 716.83C445.1 716.29 444.67 715.65 444.37 714.91C444.07 714.15 443.92 713.31 443.92 712.39C443.92 711.47 444.07 710.64 444.37 709.9C444.67 709.14 445.1 708.5 445.66 707.98C446.22 707.44 446.89 707.03 447.67 706.75C448.45 706.45 449.33 706.3 450.31 706.3C451.27 706.3 452.11 706.46 452.83 706.78C453.57 707.08 454.19 707.51 454.69 708.07C455.21 708.61 455.61 709.25 455.89 709.99C456.17 710.73 456.35 711.52 456.43 712.36H447.76ZM448.39 704.68L451.84 700.51C452.24 700.05 452.6 699.7 452.92 699.46C453.26 699.22 453.6 699.1 453.94 699.1C454.34 699.1 454.67 699.23 454.93 699.49C455.21 699.75 455.35 700.03 455.35 700.33C455.35 700.61 455.3 700.86 455.2 701.08C455.1 701.3 454.91 701.5 454.63 701.68L450.13 704.68H448.39ZM462.967 708.19C463.547 707.67 464.197 707.23 464.917 706.87C465.657 706.49 466.417 706.3 467.197 706.3C468.037 706.3 468.757 706.43 469.357 706.69C469.957 706.93 470.437 707.46 470.797 708.28C471.177 707.98 471.527 707.71 471.847 707.47C472.187 707.21 472.537 707 472.897 706.84C473.257 706.66 473.637 706.53 474.037 706.45C474.437 706.35 474.887 706.3 475.387 706.3C476.107 706.3 476.707 706.42 477.187 706.66C477.667 706.9 478.047 707.22 478.327 707.62C478.627 708 478.837 708.43 478.957 708.91C479.097 709.39 479.167 709.87 479.167 710.35V715.75C479.167 716.11 479.227 716.41 479.347 716.65C479.467 716.87 479.617 717.05 479.797 717.19C479.997 717.31 480.207 717.4 480.427 717.46C480.667 717.5 480.897 717.52 481.117 717.52V718.12C480.917 718.1 480.707 718.08 480.487 718.06C480.267 718.06 480.007 718.05 479.707 718.03C479.427 718.03 479.097 718.02 478.717 718C478.337 718 477.887 718 477.367 718C476.387 718 475.627 718.01 475.087 718.03C474.547 718.05 474.137 718.08 473.857 718.12V717.52C474.037 717.52 474.227 717.5 474.427 717.46C474.647 717.4 474.837 717.31 474.997 717.19C475.177 717.05 475.327 716.87 475.447 716.65C475.567 716.41 475.627 716.11 475.627 715.75V710.68C475.627 709.84 475.417 709.23 474.997 708.85C474.597 708.47 474.037 708.28 473.317 708.28C472.917 708.28 472.527 708.36 472.147 708.52C471.767 708.68 471.407 708.89 471.067 709.15V715.75C471.067 716.11 471.127 716.41 471.247 716.65C471.367 716.87 471.507 717.05 471.667 717.19C471.847 717.31 472.037 717.4 472.237 717.46C472.437 717.5 472.627 717.52 472.807 717.52V718.12C472.507 718.08 472.097 718.05 471.577 718.03C471.077 718.01 470.307 718 469.267 718C468.287 718 467.517 718.01 466.957 718.03C466.417 718.05 465.997 718.08 465.697 718.12V717.52C465.897 717.52 466.097 717.5 466.297 717.46C466.517 717.4 466.717 717.31 466.897 717.19C467.077 717.05 467.227 716.87 467.347 716.65C467.467 716.41 467.527 716.11 467.527 715.75V710.41C467.527 709.89 467.347 709.41 466.987 708.97C466.627 708.51 466.107 708.28 465.427 708.28C464.987 708.28 464.547 708.4 464.107 708.64C463.667 708.86 463.287 709.12 462.967 709.42V715.75C462.967 716.11 463.027 716.41 463.147 716.65C463.267 716.87 463.407 717.05 463.567 717.19C463.747 717.31 463.937 717.4 464.137 717.46C464.337 717.5 464.517 717.52 464.677 717.52V718.12C464.397 718.08 463.997 718.05 463.477 718.03C462.977 718.01 462.207 718 461.167 718C460.187 718 459.417 718.01 458.857 718.03C458.297 718.05 457.817 718.08 457.417 718.12V717.52C457.657 717.52 457.897 717.5 458.137 717.46C458.377 717.4 458.587 717.31 458.767 717.19C458.967 717.05 459.127 716.87 459.247 716.65C459.367 716.41 459.427 716.11 459.427 715.75V708.88C459.427 707.88 458.767 707.38 457.447 707.38V706.78C458.427 706.74 459.407 706.7 460.387 706.66C461.367 706.6 462.227 706.48 462.967 706.3V708.19ZM487.85 715.75C487.85 716.47 488.07 716.95 488.51 717.19C488.95 717.41 489.46 717.52 490.04 717.52V718.12C489.78 718.1 489.52 718.08 489.26 718.06C489 718.06 488.72 718.05 488.42 718.03C488.12 718.03 487.78 718.02 487.4 718C487.02 718 486.57 718 486.05 718C485.07 718 484.29 718.01 483.71 718.03C483.13 718.05 482.61 718.08 482.15 718.12V717.52C482.71 717.52 483.21 717.41 483.65 717.19C484.09 716.95 484.31 716.47 484.31 715.75V708.88C484.31 708.36 484.14 707.98 483.8 707.74C483.46 707.5 482.91 707.38 482.15 707.38V706.78C483.23 706.74 484.27 706.67 485.27 706.57C486.27 706.47 487.16 706.32 487.94 706.12C487.92 706.62 487.9 707.11 487.88 707.59C487.86 708.07 487.85 708.54 487.85 709V715.75ZM485.9 697.9C486.54 697.9 487.08 698.12 487.52 698.56C487.98 699 488.21 699.55 488.21 700.21C488.21 700.87 487.98 701.42 487.52 701.86C487.08 702.3 486.54 702.52 485.9 702.52C485.26 702.52 484.71 702.3 484.25 701.86C483.81 701.42 483.59 700.87 483.59 700.21C483.59 699.55 483.81 699 484.25 698.56C484.71 698.12 485.26 697.9 485.9 697.9ZM511.06 717.94C510.76 716.82 510.37 715.59 509.89 714.25C509.43 712.91 508.9 711.53 508.3 710.11C507.72 708.69 507.1 707.27 506.44 705.85C505.8 704.41 505.16 703.04 504.52 701.74H504.46C504.36 702.6 504.24 703.42 504.1 704.2C503.96 704.96 503.82 705.77 503.68 706.63C503.56 707.47 503.45 708.4 503.35 709.42C503.27 710.42 503.23 711.59 503.23 712.93C503.23 713.61 503.25 714.22 503.29 714.76C503.35 715.28 503.49 715.73 503.71 716.11C503.93 716.47 504.26 716.77 504.7 717.01C505.14 717.23 505.75 717.4 506.53 717.52V718.12C505.87 718.08 505.21 718.05 504.55 718.03C503.91 718.01 503.26 718 502.6 718C501.9 718 501.2 718.01 500.5 718.03C499.82 718.05 499.13 718.08 498.43 718.12V717.52C499.03 717.46 499.52 717.32 499.9 717.1C500.3 716.88 500.61 716.6 500.83 716.26C501.07 715.9 501.25 715.49 501.37 715.03C501.49 714.57 501.59 714.07 501.67 713.53C502.01 711.41 502.3 709.3 502.54 707.2C502.8 705.08 503.13 702.96 503.53 700.84C503.19 700.32 502.74 699.92 502.18 699.64C501.62 699.34 501.05 699.14 500.47 699.04V698.32C501.31 698.36 502.15 698.4 502.99 698.44C503.85 698.48 504.7 698.5 505.54 698.5C506.26 698.5 506.99 698.49 507.73 698.47C508.47 698.45 509.2 698.4 509.92 698.32V699.04C509.46 699.1 509.05 699.23 508.69 699.43C508.33 699.61 508.15 699.97 508.15 700.51C508.15 700.73 508.29 701.18 508.57 701.86C508.85 702.54 509.21 703.38 509.65 704.38C510.09 705.36 510.57 706.46 511.09 707.68C511.63 708.9 512.14 710.16 512.62 711.46C512.76 711.24 512.97 710.83 513.25 710.23C513.53 709.63 513.84 708.94 514.18 708.16C514.52 707.36 514.87 706.53 515.23 705.67C515.59 704.79 515.91 703.97 516.19 703.21C516.49 702.45 516.73 701.8 516.91 701.26C517.11 700.7 517.21 700.35 517.21 700.21C517.21 700.03 517.12 699.87 516.94 699.73C516.76 699.59 516.54 699.48 516.28 699.4C516.04 699.3 515.79 699.22 515.53 699.16C515.29 699.1 515.09 699.06 514.93 699.04V698.32C515.71 698.36 516.49 698.4 517.27 698.44C518.05 698.48 518.83 698.5 519.61 698.5C521.39 698.5 523.16 698.44 524.92 698.32V699.04C523.98 699.12 523.24 699.36 522.7 699.76C522.16 700.16 521.89 700.87 521.89 701.89C521.89 702.11 521.94 702.58 522.04 703.3C522.14 704.02 522.26 704.87 522.4 705.85C522.56 706.81 522.73 707.84 522.91 708.94C523.09 710.02 523.26 711.03 523.42 711.97C523.6 712.89 523.75 713.68 523.87 714.34C523.99 714.98 524.07 715.35 524.11 715.45C524.25 715.83 524.4 716.14 524.56 716.38C524.72 716.62 524.91 716.82 525.13 716.98C525.35 717.12 525.61 717.23 525.91 717.31C526.21 717.39 526.55 717.46 526.93 717.52V718.12C526.17 718.08 525.4 718.05 524.62 718.03C523.86 718.01 523.1 718 522.34 718C521.32 718 520.3 718.01 519.28 718.03C518.28 718.05 517.27 718.08 516.25 718.12V717.58C516.73 717.48 517.19 717.39 517.63 717.31C518.09 717.23 518.5 717.1 518.86 716.92C519.22 716.72 519.5 716.45 519.7 716.11C519.92 715.77 520.03 715.3 520.03 714.7C520.03 714.6 519.98 714.25 519.88 713.65C519.8 713.05 519.69 712.32 519.55 711.46C519.43 710.58 519.28 709.63 519.1 708.61C518.94 707.57 518.78 706.58 518.62 705.64C518.46 704.7 518.31 703.86 518.17 703.12C518.05 702.38 517.95 701.86 517.87 701.56H517.81C517.39 702.96 516.89 704.33 516.31 705.67C515.75 707.01 515.18 708.36 514.6 709.72C514.04 711.06 513.51 712.41 513.01 713.77C512.53 715.13 512.15 716.52 511.87 717.94H511.06ZM531.29 711.82C531.29 712.76 531.38 713.58 531.56 714.28C531.74 714.98 531.98 715.56 532.28 716.02C532.6 716.46 532.96 716.79 533.36 717.01C533.76 717.23 534.17 717.34 534.59 717.34C535.43 717.34 536.09 716.97 536.57 716.23C537.05 715.49 537.29 714.4 537.29 712.96C537.29 712.02 537.2 711.2 537.02 710.5C536.84 709.8 536.59 709.23 536.27 708.79C535.97 708.33 535.62 707.99 535.22 707.77C534.82 707.55 534.41 707.44 533.99 707.44C533.15 707.44 532.49 707.81 532.01 708.55C531.53 709.29 531.29 710.38 531.29 711.82ZM534.29 706.3C535.19 706.3 536.06 706.44 536.9 706.72C537.74 706.98 538.48 707.37 539.12 707.89C539.78 708.41 540.31 709.05 540.71 709.81C541.11 710.57 541.31 711.43 541.31 712.39C541.31 713.35 541.11 714.21 540.71 714.97C540.31 715.73 539.78 716.37 539.12 716.89C538.48 717.41 537.74 717.8 536.9 718.06C536.06 718.34 535.19 718.48 534.29 718.48C533.39 718.48 532.52 718.34 531.68 718.06C530.84 717.8 530.09 717.41 529.43 716.89C528.79 716.37 528.27 715.73 527.87 714.97C527.47 714.21 527.27 713.35 527.27 712.39C527.27 711.43 527.47 710.57 527.87 709.81C528.27 709.05 528.79 708.41 529.43 707.89C530.09 707.37 530.84 706.98 531.68 706.72C532.52 706.44 533.39 706.3 534.29 706.3ZM548.077 715.42C548.077 716.14 548.297 716.66 548.737 716.98C549.177 717.3 549.937 717.48 551.017 717.52V718.12C550.317 718.08 549.617 718.05 548.917 718.03C548.217 718.01 547.517 718 546.817 718C546.117 718 545.417 718.01 544.717 718.03C544.017 718.05 543.317 718.08 542.617 718.12V717.52C543.277 717.48 543.787 717.3 544.147 716.98C544.527 716.66 544.717 716.14 544.717 715.42V709.48C544.717 708.76 544.527 708.24 544.147 707.92C543.787 707.6 543.277 707.42 542.617 707.38V706.78C542.897 706.78 543.287 706.76 543.787 706.72C544.307 706.66 544.837 706.6 545.377 706.54C545.937 706.48 546.457 706.42 546.937 706.36C547.437 706.28 547.817 706.22 548.077 706.18V708.28C548.417 708 548.757 707.72 549.097 707.44C549.437 707.16 549.787 706.91 550.147 706.69C550.507 706.45 550.887 706.26 551.287 706.12C551.687 705.96 552.117 705.88 552.577 705.88C553.317 705.88 553.827 706.11 554.107 706.57C554.407 707.03 554.557 707.71 554.557 708.61C554.317 708.73 554.027 708.87 553.687 709.03C553.367 709.17 553.037 709.32 552.697 709.48C552.377 709.62 552.067 709.77 551.767 709.93C551.487 710.07 551.257 710.19 551.077 710.29L550.717 710.05C550.857 709.95 551.017 709.81 551.197 709.63C551.397 709.43 551.497 709.23 551.497 709.03C551.497 708.67 551.387 708.41 551.167 708.25C550.967 708.07 550.697 707.98 550.357 707.98C550.217 707.98 550.037 708.03 549.817 708.13C549.617 708.21 549.407 708.32 549.187 708.46C548.967 708.58 548.757 708.73 548.557 708.91C548.357 709.07 548.197 709.23 548.077 709.39V715.42ZM570.18 707.26C569.92 707.3 569.68 707.36 569.46 707.44C569.24 707.52 569.01 707.68 568.77 707.92C568.53 708.16 568.26 708.52 567.96 709C567.66 709.46 567.29 710.1 566.85 710.92C566.41 711.72 565.88 712.73 565.26 713.95C564.64 715.17 563.89 716.66 563.01 718.42H561.24C560.28 716.08 559.48 714.2 558.84 712.78C558.2 711.34 557.64 710.22 557.16 709.42C556.68 708.62 556.24 708.08 555.84 707.8C555.44 707.5 555 707.32 554.52 707.26V706.66C555.16 706.7 555.8 706.73 556.44 706.75C557.1 706.77 557.75 706.78 558.39 706.78C559.09 706.78 559.79 706.77 560.49 706.75C561.21 706.73 561.92 706.7 562.62 706.66V707.26C562.16 707.3 561.75 707.42 561.39 707.62C561.05 707.8 560.88 708.1 560.88 708.52C560.88 708.8 561 709.26 561.24 709.9C561.48 710.52 561.75 711.19 562.05 711.91C562.35 712.61 562.64 713.29 562.92 713.95C563.22 714.61 563.42 715.1 563.52 715.42C563.68 715.04 563.92 714.55 564.24 713.95C564.56 713.33 564.88 712.69 565.2 712.03C565.52 711.37 565.79 710.74 566.01 710.14C566.25 709.54 566.37 709.06 566.37 708.7C566.37 708.14 566.21 707.78 565.89 707.62C565.57 707.46 565.18 707.34 564.72 707.26V706.66C565.2 706.7 565.68 706.73 566.16 706.75C566.66 706.77 567.15 706.78 567.63 706.78C568.05 706.78 568.47 706.77 568.89 706.75C569.33 706.73 569.76 706.7 570.18 706.66V707.26ZM574.23 714.7C574.23 715.32 574.41 715.81 574.77 716.17C575.13 716.51 575.63 716.68 576.27 716.68C576.63 716.68 576.98 716.62 577.32 716.5C577.68 716.38 578 716.19 578.28 715.93C578.26 715.65 578.24 715.39 578.22 715.15C578.22 714.91 578.22 714.66 578.22 714.4C578.22 714.12 578.22 713.85 578.22 713.59C578.24 713.33 578.26 713.06 578.28 712.78C578 712.74 577.73 712.71 577.47 712.69C577.23 712.67 576.97 712.66 576.69 712.66C576.09 712.66 575.53 712.83 575.01 713.17C574.49 713.51 574.23 714.02 574.23 714.7ZM578.28 709.48C578.28 708.12 577.8 707.44 576.84 707.44C576.5 707.44 576.22 707.5 576 707.62C575.8 707.74 575.64 707.9 575.52 708.1C575.42 708.28 575.35 708.49 575.31 708.73C575.27 708.97 575.25 709.2 575.25 709.42C575.25 709.62 575.25 709.79 575.25 709.93C575.27 710.05 575.29 710.16 575.31 710.26C574.57 710.1 573.88 709.95 573.24 709.81C572.6 709.67 571.95 709.55 571.29 709.45C571.37 708.81 571.57 708.29 571.89 707.89C572.21 707.47 572.6 707.15 573.06 706.93C573.54 706.69 574.06 706.53 574.62 706.45C575.18 706.35 575.73 706.3 576.27 706.3C576.91 706.3 577.56 706.36 578.22 706.48C578.88 706.58 579.47 706.77 579.99 707.05C580.53 707.31 580.97 707.67 581.31 708.13C581.65 708.57 581.82 709.13 581.82 709.81C581.82 710.17 581.81 710.57 581.79 711.01C581.77 711.45 581.75 711.89 581.73 712.33C581.73 712.75 581.72 713.16 581.7 713.56C581.68 713.94 581.67 714.26 581.67 714.52C581.67 714.96 581.75 715.36 581.91 715.72C582.07 716.08 582.41 716.26 582.93 716.26C583.27 716.26 583.57 716.17 583.83 715.99C584.11 715.81 584.37 715.61 584.61 715.39L585.09 715.93C584.85 716.13 584.58 716.38 584.28 716.68C584 716.98 583.7 717.26 583.38 717.52C583.08 717.78 582.76 718 582.42 718.18C582.08 718.38 581.73 718.48 581.37 718.48C580.87 718.48 580.38 718.3 579.9 717.94C579.42 717.58 579.01 717.23 578.67 716.89C577.93 717.35 577.15 717.73 576.33 718.03C575.51 718.33 574.66 718.48 573.78 718.48C573.36 718.48 572.94 718.41 572.52 718.27C572.12 718.13 571.76 717.94 571.44 717.7C571.12 717.44 570.86 717.14 570.66 716.8C570.48 716.46 570.39 716.1 570.39 715.72C570.39 714.76 570.65 714.02 571.17 713.5C571.69 712.96 572.34 712.56 573.12 712.3C573.92 712.02 574.78 711.85 575.7 711.79C576.62 711.73 577.48 711.7 578.28 711.7V709.48ZM590.263 708.22C590.963 707.62 591.663 707.15 592.363 706.81C593.063 706.47 593.853 706.3 594.733 706.3C595.953 706.3 596.913 706.65 597.613 707.35C598.333 708.03 598.693 708.95 598.693 710.11V715.75C598.693 716.11 598.753 716.41 598.873 716.65C598.993 716.87 599.143 717.05 599.323 717.19C599.523 717.31 599.733 717.4 599.953 717.46C600.193 717.5 600.433 717.52 600.673 717.52V718.12C600.253 718.1 599.773 718.07 599.233 718.03C598.713 718.01 597.933 718 596.893 718C595.913 718 595.143 718.01 594.583 718.03C594.023 718.05 593.573 718.08 593.233 718.12V717.52C593.453 717.52 593.673 717.5 593.893 717.46C594.133 717.4 594.343 717.31 594.523 717.19C594.703 717.05 594.853 716.87 594.973 716.65C595.093 716.41 595.153 716.11 595.153 715.75V710.17C595.153 709.59 594.933 709.12 594.493 708.76C594.053 708.4 593.483 708.22 592.783 708.22C592.303 708.22 591.843 708.33 591.403 708.55C590.983 708.77 590.603 709.05 590.263 709.39V715.75C590.263 716.11 590.323 716.41 590.443 716.65C590.563 716.87 590.713 717.05 590.893 717.19C591.093 717.31 591.303 717.4 591.523 717.46C591.763 717.5 591.993 717.52 592.213 717.52V718.12C592.013 718.1 591.803 718.08 591.583 718.06C591.363 718.06 591.103 718.05 590.803 718.03C590.523 718.03 590.193 718.02 589.813 718C589.433 718 588.983 718 588.463 718C587.483 718 586.703 718.01 586.123 718.03C585.563 718.05 585.073 718.08 584.653 718.12V717.52C584.913 717.52 585.163 717.5 585.403 717.46C585.663 717.4 585.883 717.31 586.063 717.19C586.263 717.05 586.423 716.87 586.543 716.65C586.663 716.41 586.723 716.11 586.723 715.75V708.88C586.723 707.88 586.063 707.38 584.743 707.38V706.78C585.723 706.74 586.703 706.7 587.683 706.66C588.663 706.6 589.523 706.48 590.263 706.3V708.22Z" fill="black"/>
<g id="Journ&#195;&#169;e M2F &#194;&#183; 6 Oct. 2023">
<path d="M384.625 734.373C384.625 733.652 384.341 733.146 383.774 732.855C383.222 732.564 382.478 732.433 381.543 732.464V731.912C382.325 731.943 383.092 731.973 383.843 732.004C384.61 732.035 385.384 732.05 386.166 732.05C386.764 732.05 387.354 732.035 387.937 732.004C388.535 731.973 389.133 731.943 389.731 731.912V732.464C388.995 732.495 388.474 732.625 388.167 732.855C387.86 733.085 387.707 733.514 387.707 734.143V743.366C387.707 743.78 387.592 744.217 387.362 744.677C387.147 745.122 386.795 745.528 386.304 745.896C385.829 746.264 385.215 746.571 384.464 746.816C383.713 747.061 382.808 747.184 381.75 747.184C381.229 747.184 380.661 747.123 380.048 747C379.45 746.877 378.89 746.678 378.369 746.402C377.848 746.126 377.411 745.773 377.058 745.344C376.721 744.899 376.552 744.363 376.552 743.734C376.552 743.519 376.583 743.305 376.644 743.09C376.721 742.875 376.828 742.684 376.966 742.515C377.104 742.346 377.273 742.208 377.472 742.101C377.687 741.994 377.924 741.94 378.185 741.94C378.706 741.94 379.128 742.086 379.45 742.377C379.787 742.668 379.956 743.082 379.956 743.619C379.956 744.018 379.841 744.355 379.611 744.631C379.841 745.168 380.171 745.605 380.6 745.942C381.029 746.279 381.543 746.448 382.141 746.448C382.601 746.448 382.992 746.333 383.314 746.103C383.636 745.873 383.889 745.589 384.073 745.252C384.272 744.899 384.41 744.516 384.487 744.102C384.579 743.673 384.625 743.266 384.625 742.883V734.373ZM393.776 742.262C393.776 742.983 393.845 743.611 393.983 744.148C394.121 744.685 394.305 745.129 394.535 745.482C394.781 745.819 395.057 746.072 395.363 746.241C395.67 746.41 395.984 746.494 396.306 746.494C396.95 746.494 397.456 746.21 397.824 745.643C398.192 745.076 398.376 744.24 398.376 743.136C398.376 742.415 398.307 741.787 398.169 741.25C398.031 740.713 397.84 740.276 397.594 739.939C397.364 739.586 397.096 739.326 396.789 739.157C396.483 738.988 396.168 738.904 395.846 738.904C395.202 738.904 394.696 739.188 394.328 739.755C393.96 740.322 393.776 741.158 393.776 742.262ZM396.076 738.03C396.766 738.03 397.433 738.137 398.077 738.352C398.721 738.551 399.289 738.85 399.779 739.249C400.285 739.648 400.692 740.138 400.998 740.721C401.305 741.304 401.458 741.963 401.458 742.699C401.458 743.435 401.305 744.094 400.998 744.677C400.692 745.26 400.285 745.75 399.779 746.149C399.289 746.548 398.721 746.847 398.077 747.046C397.433 747.261 396.766 747.368 396.076 747.368C395.386 747.368 394.719 747.261 394.075 747.046C393.431 746.847 392.856 746.548 392.35 746.149C391.86 745.75 391.461 745.26 391.154 744.677C390.848 744.094 390.694 743.435 390.694 742.699C390.694 741.963 390.848 741.304 391.154 740.721C391.461 740.138 391.86 739.648 392.35 739.249C392.856 738.85 393.431 738.551 394.075 738.352C394.719 738.137 395.386 738.03 396.076 738.03ZM412.649 745.39C412.649 745.789 412.779 746.08 413.04 746.264C413.301 746.448 413.722 746.54 414.305 746.54V747C413.477 747.031 412.68 747.061 411.913 747.092C411.162 747.138 410.502 747.23 409.935 747.368V746.011C409.444 746.364 408.915 746.678 408.348 746.954C407.781 747.23 407.16 747.368 406.485 747.368C405.657 747.368 404.99 747.115 404.484 746.609C403.978 746.103 403.725 745.344 403.725 744.332V740.008C403.725 739.241 403.219 738.858 402.207 738.858V738.398C402.958 738.367 403.71 738.337 404.461 738.306C405.212 738.26 405.872 738.168 406.439 738.03V744.171C406.439 744.708 406.577 745.122 406.853 745.413C407.129 745.704 407.505 745.85 407.98 745.85C408.409 745.85 408.777 745.781 409.084 745.643C409.391 745.505 409.674 745.313 409.935 745.068V740.008C409.935 739.609 409.805 739.318 409.544 739.134C409.283 738.95 408.862 738.858 408.279 738.858V738.398C409.107 738.367 409.897 738.337 410.648 738.306C411.415 738.26 412.082 738.168 412.649 738.03V745.39ZM419 745.022C419 745.574 419.168 745.973 419.506 746.218C419.843 746.463 420.426 746.601 421.254 746.632V747.092C420.717 747.061 420.18 747.038 419.644 747.023C419.107 747.008 418.57 747 418.034 747C417.497 747 416.96 747.008 416.424 747.023C415.887 747.038 415.35 747.061 414.814 747.092V746.632C415.32 746.601 415.711 746.463 415.987 746.218C416.278 745.973 416.424 745.574 416.424 745.022V740.468C416.424 739.916 416.278 739.517 415.987 739.272C415.711 739.027 415.32 738.889 414.814 738.858V738.398C415.028 738.398 415.327 738.383 415.711 738.352C416.109 738.306 416.516 738.26 416.93 738.214C417.359 738.168 417.758 738.122 418.126 738.076C418.509 738.015 418.8 737.969 419 737.938V739.548C419.26 739.333 419.521 739.119 419.782 738.904C420.042 738.689 420.311 738.498 420.587 738.329C420.863 738.145 421.154 737.999 421.461 737.892C421.767 737.769 422.097 737.708 422.45 737.708C423.017 737.708 423.408 737.884 423.623 738.237C423.853 738.59 423.968 739.111 423.968 739.801C423.784 739.893 423.561 740 423.301 740.123C423.055 740.23 422.802 740.345 422.542 740.468C422.296 740.575 422.059 740.69 421.829 740.813C421.614 740.92 421.438 741.012 421.3 741.089L421.024 740.905C421.131 740.828 421.254 740.721 421.392 740.583C421.545 740.43 421.622 740.276 421.622 740.123C421.622 739.847 421.537 739.648 421.369 739.525C421.215 739.387 421.008 739.318 420.748 739.318C420.64 739.318 420.502 739.356 420.334 739.433C420.18 739.494 420.019 739.579 419.851 739.686C419.682 739.778 419.521 739.893 419.368 740.031C419.214 740.154 419.092 740.276 419 740.399V745.022ZM428.77 739.502C429.306 739.042 429.843 738.682 430.38 738.421C430.916 738.16 431.522 738.03 432.197 738.03C433.132 738.03 433.868 738.298 434.405 738.835C434.957 739.356 435.233 740.062 435.233 740.951V745.275C435.233 745.551 435.279 745.781 435.371 745.965C435.463 746.134 435.578 746.272 435.716 746.379C435.869 746.471 436.03 746.54 436.199 746.586C436.383 746.617 436.567 746.632 436.751 746.632V747.092C436.429 747.077 436.061 747.054 435.647 747.023C435.248 747.008 434.65 747 433.853 747C433.101 747 432.511 747.008 432.082 747.023C431.652 747.038 431.307 747.061 431.047 747.092V746.632C431.215 746.632 431.384 746.617 431.553 746.586C431.737 746.54 431.898 746.471 432.036 746.379C432.174 746.272 432.289 746.134 432.381 745.965C432.473 745.781 432.519 745.551 432.519 745.275V740.997C432.519 740.552 432.35 740.192 432.013 739.916C431.675 739.64 431.238 739.502 430.702 739.502C430.334 739.502 429.981 739.586 429.644 739.755C429.322 739.924 429.03 740.138 428.77 740.399V745.275C428.77 745.551 428.816 745.781 428.908 745.965C429 746.134 429.115 746.272 429.253 746.379C429.406 746.471 429.567 746.54 429.736 746.586C429.92 746.617 430.096 746.632 430.265 746.632V747.092C430.111 747.077 429.95 747.061 429.782 747.046C429.613 747.046 429.414 747.038 429.184 747.023C428.969 747.023 428.716 747.015 428.425 747C428.133 747 427.788 747 427.39 747C426.638 747 426.04 747.008 425.596 747.023C425.166 747.038 424.791 747.061 424.469 747.092V746.632C424.668 746.632 424.86 746.617 425.044 746.586C425.243 746.54 425.412 746.471 425.55 746.379C425.703 746.272 425.826 746.134 425.918 745.965C426.01 745.781 426.056 745.551 426.056 745.275V740.008C426.056 739.241 425.55 738.858 424.538 738.858V738.398C425.289 738.367 426.04 738.337 426.792 738.306C427.543 738.26 428.202 738.168 428.77 738.03V739.502ZM443.413 741.802C443.719 741.802 443.926 741.764 444.034 741.687C444.141 741.61 444.195 741.434 444.195 741.158C444.195 740.483 444.057 739.939 443.781 739.525C443.505 739.111 443.029 738.904 442.355 738.904C442.002 738.904 441.703 739.004 441.458 739.203C441.228 739.387 441.036 739.625 440.883 739.916C440.745 740.207 440.645 740.522 440.584 740.859C440.522 741.196 440.492 741.511 440.492 741.802H443.413ZM440.492 742.676C440.492 743.642 440.76 744.439 441.297 745.068C441.849 745.681 442.623 745.988 443.62 745.988C444.156 745.988 444.678 745.873 445.184 745.643C445.705 745.413 446.142 745.083 446.495 744.654L447.047 745.252C446.449 745.927 445.751 746.448 444.954 746.816C444.156 747.184 443.321 747.368 442.447 747.368C441.695 747.368 441.021 747.253 440.423 747.023C439.825 746.808 439.311 746.502 438.882 746.103C438.452 745.689 438.123 745.198 437.893 744.631C437.663 744.048 437.548 743.404 437.548 742.699C437.548 741.994 437.663 741.357 437.893 740.79C438.123 740.207 438.452 739.717 438.882 739.318C439.311 738.904 439.825 738.59 440.423 738.375C441.021 738.145 441.695 738.03 442.447 738.03C443.183 738.03 443.827 738.153 444.379 738.398C444.946 738.628 445.421 738.958 445.805 739.387C446.203 739.801 446.51 740.292 446.725 740.859C446.939 741.426 447.077 742.032 447.139 742.676H440.492ZM440.975 736.788L443.62 733.591C443.926 733.238 444.202 732.97 444.448 732.786C444.708 732.602 444.969 732.51 445.23 732.51C445.536 732.51 445.789 732.61 445.989 732.809C446.203 733.008 446.311 733.223 446.311 733.453C446.311 733.668 446.272 733.859 446.196 734.028C446.119 734.197 445.973 734.35 445.759 734.488L442.309 736.788H440.975ZM454.059 741.802C454.366 741.802 454.573 741.764 454.68 741.687C454.788 741.61 454.841 741.434 454.841 741.158C454.841 740.483 454.703 739.939 454.427 739.525C454.151 739.111 453.676 738.904 453.001 738.904C452.649 738.904 452.35 739.004 452.104 739.203C451.874 739.387 451.683 739.625 451.529 739.916C451.391 740.207 451.292 740.522 451.23 740.859C451.169 741.196 451.138 741.511 451.138 741.802H454.059ZM451.138 742.676C451.138 743.642 451.407 744.439 451.943 745.068C452.495 745.681 453.27 745.988 454.266 745.988C454.803 745.988 455.324 745.873 455.83 745.643C456.352 745.413 456.789 745.083 457.141 744.654L457.693 745.252C457.095 745.927 456.398 746.448 455.6 746.816C454.803 747.184 453.967 747.368 453.093 747.368C452.342 747.368 451.667 747.253 451.069 747.023C450.471 746.808 449.958 746.502 449.528 746.103C449.099 745.689 448.769 745.198 448.539 744.631C448.309 744.048 448.194 743.404 448.194 742.699C448.194 741.994 448.309 741.357 448.539 740.79C448.769 740.207 449.099 739.717 449.528 739.318C449.958 738.904 450.471 738.59 451.069 738.375C451.667 738.145 452.342 738.03 453.093 738.03C453.829 738.03 454.473 738.153 455.025 738.398C455.593 738.628 456.068 738.958 456.451 739.387C456.85 739.801 457.157 740.292 457.371 740.859C457.586 741.426 457.724 742.032 457.785 742.676H451.138ZM474.107 746.954C473.877 746.095 473.578 745.152 473.21 744.125C472.858 743.098 472.451 742.04 471.991 740.951C471.547 739.862 471.071 738.774 470.565 737.685C470.075 736.581 469.584 735.531 469.093 734.534H469.047C468.971 735.193 468.879 735.822 468.771 736.42C468.664 737.003 468.557 737.624 468.449 738.283C468.357 738.927 468.273 739.64 468.196 740.422C468.135 741.189 468.104 742.086 468.104 743.113C468.104 743.634 468.12 744.102 468.15 744.516C468.196 744.915 468.304 745.26 468.472 745.551C468.641 745.827 468.894 746.057 469.231 746.241C469.569 746.41 470.036 746.54 470.634 746.632V747.092C470.128 747.061 469.622 747.038 469.116 747.023C468.626 747.008 468.127 747 467.621 747C467.085 747 466.548 747.008 466.011 747.023C465.49 747.038 464.961 747.061 464.424 747.092V746.632C464.884 746.586 465.26 746.479 465.551 746.31C465.858 746.141 466.096 745.927 466.264 745.666C466.448 745.39 466.586 745.076 466.678 744.723C466.77 744.37 466.847 743.987 466.908 743.573C467.169 741.948 467.391 740.33 467.575 738.72C467.775 737.095 468.028 735.469 468.334 733.844C468.074 733.445 467.729 733.139 467.299 732.924C466.87 732.694 466.433 732.541 465.988 732.464V731.912C466.632 731.943 467.276 731.973 467.92 732.004C468.58 732.035 469.231 732.05 469.875 732.05C470.427 732.05 470.987 732.042 471.554 732.027C472.122 732.012 472.681 731.973 473.233 731.912V732.464C472.881 732.51 472.566 732.61 472.29 732.763C472.014 732.901 471.876 733.177 471.876 733.591C471.876 733.76 471.984 734.105 472.198 734.626C472.413 735.147 472.689 735.791 473.026 736.558C473.364 737.309 473.732 738.153 474.13 739.088C474.544 740.023 474.935 740.989 475.303 741.986C475.411 741.817 475.572 741.503 475.786 741.043C476.001 740.583 476.239 740.054 476.499 739.456C476.76 738.843 477.028 738.206 477.304 737.547C477.58 736.872 477.826 736.244 478.04 735.661C478.27 735.078 478.454 734.58 478.592 734.166C478.746 733.737 478.822 733.468 478.822 733.361C478.822 733.223 478.753 733.1 478.615 732.993C478.477 732.886 478.309 732.801 478.109 732.74C477.925 732.663 477.734 732.602 477.534 732.556C477.35 732.51 477.197 732.479 477.074 732.464V731.912C477.672 731.943 478.27 731.973 478.868 732.004C479.466 732.035 480.064 732.05 480.662 732.05C482.027 732.05 483.384 732.004 484.733 731.912V732.464C484.013 732.525 483.445 732.709 483.031 733.016C482.617 733.323 482.41 733.867 482.41 734.649C482.41 734.818 482.449 735.178 482.525 735.73C482.602 736.282 482.694 736.934 482.801 737.685C482.924 738.421 483.054 739.211 483.192 740.054C483.33 740.882 483.461 741.656 483.583 742.377C483.721 743.082 483.836 743.688 483.928 744.194C484.02 744.685 484.082 744.968 484.112 745.045C484.22 745.336 484.335 745.574 484.457 745.758C484.58 745.942 484.726 746.095 484.894 746.218C485.063 746.325 485.262 746.41 485.492 746.471C485.722 746.532 485.983 746.586 486.274 746.632V747.092C485.692 747.061 485.101 747.038 484.503 747.023C483.921 747.008 483.338 747 482.755 747C481.973 747 481.191 747.008 480.409 747.023C479.643 747.038 478.868 747.061 478.086 747.092V746.678C478.454 746.601 478.807 746.532 479.144 746.471C479.497 746.41 479.811 746.31 480.087 746.172C480.363 746.019 480.578 745.812 480.731 745.551C480.9 745.29 480.984 744.93 480.984 744.47C480.984 744.393 480.946 744.125 480.869 743.665C480.808 743.205 480.724 742.645 480.616 741.986C480.524 741.311 480.409 740.583 480.271 739.801C480.149 739.004 480.026 738.245 479.903 737.524C479.781 736.803 479.666 736.159 479.558 735.592C479.466 735.025 479.39 734.626 479.328 734.396H479.282C478.96 735.469 478.577 736.52 478.132 737.547C477.703 738.574 477.266 739.609 476.821 740.652C476.392 741.679 475.986 742.714 475.602 743.757C475.234 744.8 474.943 745.865 474.728 746.954H474.107ZM486.466 747L486.328 746.471C487.064 745.766 487.846 745.022 488.674 744.24C489.502 743.458 490.261 742.63 490.951 741.756C491.641 740.882 492.216 739.954 492.676 738.973C493.136 737.992 493.366 736.941 493.366 735.822C493.366 734.733 493.144 733.898 492.699 733.315C492.254 732.717 491.687 732.418 490.997 732.418C490.675 732.418 490.391 732.479 490.146 732.602C489.916 732.709 489.724 732.855 489.571 733.039C489.418 733.223 489.295 733.422 489.203 733.637C489.126 733.852 489.08 734.066 489.065 734.281C489.31 734.48 489.525 734.764 489.709 735.132C489.908 735.5 490.008 735.83 490.008 736.121C490.008 736.535 489.878 736.888 489.617 737.179C489.356 737.455 488.958 737.593 488.421 737.593C487.961 737.593 487.57 737.44 487.248 737.133C486.941 736.811 486.788 736.328 486.788 735.684C486.788 735.025 486.911 734.442 487.156 733.936C487.401 733.43 487.731 733.008 488.145 732.671C488.559 732.334 489.042 732.081 489.594 731.912C490.161 731.728 490.759 731.636 491.388 731.636C492.063 731.636 492.699 731.72 493.297 731.889C493.895 732.042 494.416 732.295 494.861 732.648C495.306 732.985 495.658 733.422 495.919 733.959C496.18 734.496 496.31 735.147 496.31 735.914C496.31 736.895 496.08 737.777 495.62 738.559C495.175 739.326 494.616 740.046 493.941 740.721C493.266 741.396 492.538 742.04 491.756 742.653C490.989 743.266 490.292 743.903 489.663 744.562H493.113C493.68 744.562 494.148 744.539 494.516 744.493C494.884 744.432 495.206 744.34 495.482 744.217C495.773 744.079 496.042 743.895 496.287 743.665C496.548 743.435 496.839 743.144 497.161 742.791L497.483 743.113C497.13 743.757 496.793 744.401 496.471 745.045C496.149 745.689 495.85 746.341 495.574 747H486.466ZM504.373 738.375H505.569C505.968 738.375 506.359 738.329 506.742 738.237C507.125 738.13 507.478 737.969 507.8 737.754C508.137 737.524 508.429 737.225 508.674 736.857C508.919 736.489 509.103 736.037 509.226 735.5H509.686C509.671 736.037 509.648 736.581 509.617 737.133C509.602 737.685 509.594 738.229 509.594 738.766C509.594 739.318 509.602 739.87 509.617 740.422C509.648 740.959 509.671 741.503 509.686 742.055H509.226C509.103 741.488 508.95 741.012 508.766 740.629C508.582 740.246 508.344 739.939 508.053 739.709C507.762 739.479 507.417 739.318 507.018 739.226C506.619 739.119 506.136 739.065 505.569 739.065H504.373V744.378C504.373 744.746 504.404 745.06 504.465 745.321C504.526 745.582 504.649 745.796 504.833 745.965C505.032 746.134 505.308 746.256 505.661 746.333C506.029 746.41 506.504 746.448 507.087 746.448V747.092C506.351 747.061 505.623 747.038 504.902 747.023C504.181 747.008 503.453 747 502.717 747C502.073 747 501.437 747.008 500.808 747.023C500.179 747.038 499.543 747.061 498.899 747.092V746.448C499.405 746.448 499.811 746.41 500.118 746.333C500.44 746.256 500.685 746.134 500.854 745.965C501.023 745.796 501.138 745.582 501.199 745.321C501.26 745.06 501.291 744.746 501.291 744.378V735.178C501.291 734.749 501.26 734.373 501.199 734.051C501.153 733.729 501.046 733.461 500.877 733.246C500.708 733.031 500.463 732.87 500.141 732.763C499.834 732.64 499.42 732.571 498.899 732.556V731.912C499.681 731.943 500.463 731.973 501.245 732.004C502.042 732.035 502.832 732.05 503.614 732.05C505.101 732.05 506.573 732.035 508.03 732.004C509.502 731.973 510.982 731.943 512.469 731.912C512.454 732.188 512.446 732.464 512.446 732.74C512.446 733.016 512.446 733.284 512.446 733.545C512.446 734.02 512.446 734.496 512.446 734.971C512.461 735.446 512.507 735.922 512.584 736.397H512.124C511.787 735.094 511.212 734.166 510.399 733.614C509.602 733.062 508.452 732.786 506.949 732.786H504.373V738.375Z" fill="#2D98DA"/>
<path d="M521.835 740.928C522.325 740.928 522.739 741.097 523.077 741.434C523.429 741.771 523.606 742.193 523.606 742.699C523.606 743.205 523.429 743.627 523.077 743.964C522.739 744.301 522.325 744.47 521.835 744.47C521.344 744.47 520.922 744.301 520.57 743.964C520.232 743.627 520.064 743.205 520.064 742.699C520.064 742.193 520.232 741.771 520.57 741.434C520.922 741.097 521.344 740.928 521.835 740.928Z" fill="black"/>
<path d="M537.395 738.214C538.085 738.214 538.713 738.314 539.281 738.513C539.863 738.697 540.354 738.981 540.753 739.364C541.167 739.732 541.489 740.192 541.719 740.744C541.949 741.296 542.064 741.932 542.064 742.653C542.064 743.358 541.933 744.01 541.673 744.608C541.427 745.191 541.082 745.689 540.638 746.103C540.193 746.517 539.664 746.839 539.051 747.069C538.453 747.299 537.801 747.414 537.096 747.414C535.271 747.414 533.876 746.877 532.91 745.804C531.944 744.731 531.461 743.251 531.461 741.365C531.461 740.322 531.614 739.356 531.921 738.467C532.227 737.578 532.634 736.773 533.14 736.052C533.646 735.331 534.228 734.703 534.888 734.166C535.562 733.614 536.26 733.154 536.981 732.786C537.717 732.403 538.453 732.119 539.189 731.935C539.94 731.736 540.645 731.636 541.305 731.636C541.627 731.636 541.887 731.72 542.087 731.889C542.301 732.042 542.409 732.249 542.409 732.51C542.409 732.755 542.317 732.939 542.133 733.062C541.949 733.185 541.627 733.246 541.167 733.246C540.952 733.246 540.73 733.208 540.5 733.131C540.27 733.039 540.078 732.939 539.925 732.832C539.143 732.847 538.445 733.047 537.832 733.43C537.218 733.798 536.697 734.281 536.268 734.879C535.838 735.462 535.501 736.106 535.256 736.811C535.01 737.516 534.865 738.206 534.819 738.881C535.217 738.682 535.631 738.521 536.061 738.398C536.505 738.275 536.95 738.214 537.395 738.214ZM534.543 742.63C534.543 743.151 534.589 743.65 534.681 744.125C534.788 744.585 534.934 744.991 535.118 745.344C535.317 745.697 535.562 745.98 535.854 746.195C536.16 746.394 536.513 746.494 536.912 746.494C537.786 746.494 538.391 746.218 538.729 745.666C539.081 745.099 539.258 744.286 539.258 743.228C539.258 742.676 539.204 742.162 539.097 741.687C539.005 741.212 538.859 740.798 538.66 740.445C538.476 740.077 538.238 739.793 537.947 739.594C537.655 739.379 537.31 739.272 536.912 739.272C536.022 739.272 535.401 739.556 535.049 740.123C534.711 740.69 534.543 741.526 534.543 742.63ZM558.7 731.59C560.003 731.59 561.192 731.774 562.265 732.142C563.354 732.495 564.289 733.008 565.071 733.683C565.853 734.358 566.459 735.193 566.888 736.19C567.317 737.171 567.532 738.283 567.532 739.525C567.532 740.767 567.317 741.886 566.888 742.883C566.459 743.864 565.853 744.692 565.071 745.367C564.289 746.042 563.354 746.563 562.265 746.931C561.192 747.284 560.003 747.46 558.7 747.46C557.397 747.46 556.201 747.284 555.112 746.931C554.039 746.563 553.111 746.042 552.329 745.367C551.547 744.692 550.941 743.864 550.512 742.883C550.083 741.886 549.868 740.767 549.868 739.525C549.868 738.283 550.083 737.171 550.512 736.19C550.941 735.193 551.547 734.358 552.329 733.683C553.111 733.008 554.039 732.495 555.112 732.142C556.201 731.774 557.397 731.59 558.7 731.59ZM558.7 732.418C557.749 732.418 556.921 732.61 556.216 732.993C555.526 733.376 554.951 733.898 554.491 734.557C554.046 735.216 553.717 735.975 553.502 736.834C553.287 737.677 553.18 738.574 553.18 739.525C553.18 740.46 553.287 741.357 553.502 742.216C553.717 743.075 554.046 743.834 554.491 744.493C554.951 745.152 555.526 745.674 556.216 746.057C556.921 746.44 557.749 746.632 558.7 746.632C559.651 746.632 560.471 746.44 561.161 746.057C561.866 745.674 562.441 745.152 562.886 744.493C563.346 743.834 563.683 743.075 563.898 742.216C564.113 741.357 564.22 740.46 564.22 739.525C564.22 738.574 564.113 737.677 563.898 736.834C563.683 735.975 563.346 735.216 562.886 734.557C562.441 733.898 561.866 733.376 561.161 732.993C560.471 732.61 559.651 732.418 558.7 732.418ZM578.355 745.528C577.665 746.111 576.96 746.563 576.239 746.885C575.534 747.207 574.79 747.368 574.008 747.368C573.318 747.368 572.651 747.261 572.007 747.046C571.363 746.847 570.788 746.548 570.282 746.149C569.791 745.75 569.393 745.26 569.086 744.677C568.779 744.094 568.626 743.435 568.626 742.699C568.626 741.963 568.779 741.304 569.086 740.721C569.393 740.138 569.791 739.648 570.282 739.249C570.788 738.85 571.363 738.551 572.007 738.352C572.651 738.137 573.318 738.03 574.008 738.03C574.284 738.03 574.537 738.045 574.767 738.076C575.012 738.107 575.25 738.137 575.48 738.168C575.71 738.199 575.932 738.229 576.147 738.26C576.377 738.291 576.599 738.306 576.814 738.306H577.389C577.389 738.536 577.389 738.82 577.389 739.157C577.404 739.494 577.42 739.855 577.435 740.238C577.466 740.606 577.496 740.974 577.527 741.342C577.558 741.71 577.596 742.047 577.642 742.354H577.205C577.082 742.032 576.929 741.672 576.745 741.273C576.561 740.859 576.331 740.483 576.055 740.146C575.794 739.793 575.488 739.502 575.135 739.272C574.782 739.027 574.376 738.904 573.916 738.904C573.165 738.904 572.582 739.172 572.168 739.709C571.769 740.246 571.57 740.913 571.57 741.71C571.57 742.323 571.654 742.898 571.823 743.435C571.992 743.956 572.229 744.409 572.536 744.792C572.858 745.16 573.241 745.451 573.686 745.666C574.131 745.881 574.621 745.988 575.158 745.988C575.649 745.988 576.093 745.911 576.492 745.758C576.906 745.589 577.351 745.336 577.826 744.999L578.355 745.528ZM578.501 739.18V738.651C578.991 738.62 579.428 738.505 579.812 738.306C580.21 738.107 580.555 737.854 580.847 737.547C581.153 737.24 581.422 736.895 581.652 736.512C581.882 736.113 582.081 735.707 582.25 735.293H582.71V738.398H585.884V739.18H582.71V744.056C582.71 744.731 582.809 745.198 583.009 745.459C583.223 745.72 583.591 745.85 584.113 745.85C584.389 745.85 584.68 745.758 584.987 745.574C585.309 745.39 585.6 745.168 585.861 744.907L586.344 745.436C586.114 745.635 585.853 745.85 585.562 746.08C585.27 746.31 584.956 746.525 584.619 746.724C584.297 746.908 583.967 747.061 583.63 747.184C583.308 747.307 582.993 747.368 582.687 747.368C581.889 747.368 581.261 747.176 580.801 746.793C580.356 746.394 580.134 745.804 580.134 745.022V739.18H578.501ZM589.669 743.458C590.159 743.458 590.573 743.627 590.911 743.964C591.263 744.301 591.44 744.723 591.44 745.229C591.44 745.735 591.263 746.157 590.911 746.494C590.573 746.831 590.159 747 589.669 747C589.178 747 588.756 746.831 588.404 746.494C588.066 746.157 587.898 745.735 587.898 745.229C587.898 744.723 588.066 744.301 588.404 743.964C588.756 743.627 589.178 743.458 589.669 743.458ZM598.973 747L598.835 746.471C599.571 745.766 600.353 745.022 601.181 744.24C602.009 743.458 602.768 742.63 603.458 741.756C604.148 740.882 604.723 739.954 605.183 738.973C605.643 737.992 605.873 736.941 605.873 735.822C605.873 734.733 605.651 733.898 605.206 733.315C604.761 732.717 604.194 732.418 603.504 732.418C603.182 732.418 602.898 732.479 602.653 732.602C602.423 732.709 602.231 732.855 602.078 733.039C601.925 733.223 601.802 733.422 601.71 733.637C601.633 733.852 601.587 734.066 601.572 734.281C601.817 734.48 602.032 734.764 602.216 735.132C602.415 735.5 602.515 735.83 602.515 736.121C602.515 736.535 602.385 736.888 602.124 737.179C601.863 737.455 601.465 737.593 600.928 737.593C600.468 737.593 600.077 737.44 599.755 737.133C599.448 736.811 599.295 736.328 599.295 735.684C599.295 735.025 599.418 734.442 599.663 733.936C599.908 733.43 600.238 733.008 600.652 732.671C601.066 732.334 601.549 732.081 602.101 731.912C602.668 731.728 603.266 731.636 603.895 731.636C604.57 731.636 605.206 731.72 605.804 731.889C606.402 732.042 606.923 732.295 607.368 732.648C607.813 732.985 608.165 733.422 608.426 733.959C608.687 734.496 608.817 735.147 608.817 735.914C608.817 736.895 608.587 737.777 608.127 738.559C607.682 739.326 607.123 740.046 606.448 740.721C605.773 741.396 605.045 742.04 604.263 742.653C603.496 743.266 602.799 743.903 602.17 744.562H605.62C606.187 744.562 606.655 744.539 607.023 744.493C607.391 744.432 607.713 744.34 607.989 744.217C608.28 744.079 608.549 743.895 608.794 743.665C609.055 743.435 609.346 743.144 609.668 742.791L609.99 743.113C609.637 743.757 609.3 744.401 608.978 745.045C608.656 745.689 608.357 746.341 608.081 747H598.973ZM616.328 732.556C615.898 732.556 615.538 732.732 615.247 733.085C614.971 733.438 614.748 733.928 614.58 734.557C614.411 735.17 614.288 735.906 614.212 736.765C614.15 737.608 614.12 738.528 614.12 739.525C614.12 740.522 614.15 741.449 614.212 742.308C614.288 743.151 614.411 743.887 614.58 744.516C614.748 745.129 614.971 745.612 615.247 745.965C615.538 746.318 615.898 746.494 616.328 746.494C616.757 746.494 617.11 746.318 617.386 745.965C617.677 745.612 617.907 745.129 618.076 744.516C618.244 743.887 618.359 743.151 618.421 742.308C618.497 741.449 618.536 740.522 618.536 739.525C618.536 738.528 618.497 737.608 618.421 736.765C618.359 735.906 618.244 735.17 618.076 734.557C617.907 733.928 617.677 733.438 617.386 733.085C617.11 732.732 616.757 732.556 616.328 732.556ZM616.328 731.636C617.217 731.636 617.984 731.858 618.628 732.303C619.272 732.732 619.801 733.315 620.215 734.051C620.644 734.787 620.958 735.63 621.158 736.581C621.372 737.532 621.48 738.513 621.48 739.525C621.48 740.537 621.372 741.518 621.158 742.469C620.958 743.42 620.644 744.263 620.215 744.999C619.801 745.735 619.272 746.325 618.628 746.77C617.984 747.199 617.217 747.414 616.328 747.414C615.438 747.414 614.672 747.199 614.028 746.77C613.384 746.325 612.847 745.735 612.418 744.999C612.004 744.263 611.689 743.42 611.475 742.469C611.275 741.518 611.176 740.537 611.176 739.525C611.176 738.513 611.275 737.532 611.475 736.581C611.689 735.63 612.004 734.787 612.418 734.051C612.847 733.315 613.384 732.732 614.028 732.303C614.672 731.858 615.438 731.636 616.328 731.636ZM622.826 747L622.688 746.471C623.424 745.766 624.206 745.022 625.034 744.24C625.862 743.458 626.621 742.63 627.311 741.756C628.001 740.882 628.576 739.954 629.036 738.973C629.496 737.992 629.726 736.941 629.726 735.822C629.726 734.733 629.504 733.898 629.059 733.315C628.615 732.717 628.047 732.418 627.357 732.418C627.035 732.418 626.752 732.479 626.506 732.602C626.276 732.709 626.085 732.855 625.931 733.039C625.778 733.223 625.655 733.422 625.563 733.637C625.487 733.852 625.441 734.066 625.425 734.281C625.671 734.48 625.885 734.764 626.069 735.132C626.269 735.5 626.368 735.83 626.368 736.121C626.368 736.535 626.238 736.888 625.977 737.179C625.717 737.455 625.318 737.593 624.781 737.593C624.321 737.593 623.93 737.44 623.608 737.133C623.302 736.811 623.148 736.328 623.148 735.684C623.148 735.025 623.271 734.442 623.516 733.936C623.762 733.43 624.091 733.008 624.505 732.671C624.919 732.334 625.402 732.081 625.954 731.912C626.522 731.728 627.12 731.636 627.748 731.636C628.423 731.636 629.059 731.72 629.657 731.889C630.255 732.042 630.777 732.295 631.221 732.648C631.666 732.985 632.019 733.422 632.279 733.959C632.54 734.496 632.67 735.147 632.67 735.914C632.67 736.895 632.44 737.777 631.98 738.559C631.536 739.326 630.976 740.046 630.301 740.721C629.627 741.396 628.898 742.04 628.116 742.653C627.35 743.266 626.652 743.903 626.023 744.562H629.473C630.041 744.562 630.508 744.539 630.876 744.493C631.244 744.432 631.566 744.34 631.842 744.217C632.134 744.079 632.402 743.895 632.647 743.665C632.908 743.435 633.199 743.144 633.521 742.791L633.843 743.113C633.491 743.757 633.153 744.401 632.831 745.045C632.509 745.689 632.21 746.341 631.934 747H622.826ZM640.02 738.122L640.066 738.168C640.204 738.137 640.342 738.114 640.48 738.099C640.618 738.084 640.749 738.076 640.871 738.076C642.359 738.076 643.44 738.459 644.114 739.226C644.804 739.993 645.149 741.043 645.149 742.377C645.149 743.22 644.988 743.964 644.666 744.608C644.344 745.237 643.907 745.758 643.355 746.172C642.803 746.586 642.167 746.893 641.446 747.092C640.741 747.307 639.997 747.414 639.215 747.414C638.617 747.414 638.058 747.337 637.536 747.184C637.015 747.031 636.555 746.816 636.156 746.54C635.758 746.249 635.443 745.904 635.213 745.505C634.983 745.091 634.868 744.631 634.868 744.125C634.868 743.665 635.029 743.297 635.351 743.021C635.673 742.745 636.034 742.607 636.432 742.607C636.877 742.607 637.245 742.722 637.536 742.952C637.828 743.182 637.973 743.473 637.973 743.826C637.973 744.133 637.943 744.37 637.881 744.539C637.82 744.708 637.751 744.853 637.674 744.976C637.72 745.145 637.782 745.329 637.858 745.528C637.935 745.712 638.05 745.888 638.203 746.057C638.372 746.226 638.579 746.364 638.824 746.471C639.085 746.578 639.399 746.632 639.767 746.632C640.58 746.632 641.209 746.287 641.653 745.597C642.113 744.892 642.343 743.949 642.343 742.768C642.343 741.71 642.152 740.844 641.768 740.169C641.385 739.479 640.825 739.134 640.089 739.134C639.767 739.134 639.461 739.226 639.169 739.41C638.878 739.579 638.61 739.793 638.364 740.054L637.72 739.617L641.952 734.258H638.778C638.38 734.258 638.058 734.289 637.812 734.35C637.567 734.411 637.352 734.519 637.168 734.672C637 734.825 636.839 735.04 636.685 735.316C636.532 735.577 636.356 735.922 636.156 736.351H635.673L636.639 731.82C637.299 731.851 637.958 731.874 638.617 731.889C639.277 731.904 639.936 731.912 640.595 731.912C641.331 731.912 642.06 731.904 642.78 731.889C643.501 731.874 644.229 731.851 644.965 731.82L645.057 732.28L640.02 738.122Z" fill="#EB3B5A"/>
</g>
<g id="Linked Path Group">
<path id="[Copy] Problems on Automatic Relations" d="M221.361 736.507C221.696 735.867 221.995 735.142 222.259 734.332C222.525 733.481 222.686 732.663 222.741 731.88C222.937 729.076 222.217 726.913 220.584 725.39C218.911 723.823 216.735 722.946 214.055 722.759C212.735 722.667 211.509 722.726 210.376 722.937C209.201 723.145 208.18 723.529 207.312 724.09C206.403 724.648 205.685 725.427 205.16 726.426C204.596 727.381 204.264 728.58 204.163 730.023C204.097 730.972 204.116 731.885 204.22 732.762C204.325 733.639 204.513 734.502 204.786 735.35L221.361 736.507ZM209.897 744.035C208.495 743.937 207.355 743.94 206.478 744.045C205.601 744.149 204.897 744.432 204.368 744.892C203.8 745.308 203.362 745.94 203.055 746.789C202.747 747.638 202.482 748.759 202.261 750.152L200.776 750.048C200.942 748.858 201.121 747.483 201.313 745.922C201.505 744.36 201.668 742.611 201.804 740.673C201.939 738.735 201.971 736.79 201.9 734.838C201.832 732.844 201.87 730.816 202.014 728.755C202.149 726.817 202.528 724.958 203.149 723.178C203.771 721.398 204.625 719.842 205.713 718.509C206.8 717.177 208.156 716.152 209.78 715.437C211.366 714.678 213.211 714.372 215.314 714.518C217.169 714.648 218.75 715.152 220.056 716.03C221.324 716.865 222.366 717.953 223.184 719.294C224.005 720.594 224.586 722.064 224.927 723.704C225.23 725.3 225.323 726.943 225.205 728.633C225.11 729.994 224.91 731.368 224.606 732.756C224.305 734.102 223.863 735.397 223.279 736.641L234.102 737.396C235.504 737.494 236.663 737.513 237.579 737.453C238.453 737.389 239.174 737.15 239.742 736.734C240.31 736.317 240.749 735.664 241.06 734.775C241.37 733.885 241.644 732.64 241.88 731.041L243.117 731.127C242.91 732.894 242.725 734.663 242.56 736.433C242.398 738.162 242.255 739.913 242.131 741.686C241.999 743.583 241.888 745.46 241.8 747.319C241.712 749.177 241.644 751.037 241.597 752.898L240.36 752.812C240.343 751.277 240.241 750.069 240.054 749.185C239.87 748.261 239.524 747.574 239.017 747.124C238.512 746.633 237.831 746.296 236.974 746.112C236.076 745.925 234.925 745.782 233.524 745.684L209.897 744.035Z" fill="black"/>
<path id="[Copy] Problems on Automatic Relations_2" d="M241.013 704.178C242.476 704.453 243.616 704.205 244.434 703.433C245.252 702.662 245.907 701.187 246.401 699.009L247.62 699.238C247.271 700.644 246.943 702.054 246.635 703.469C246.327 704.883 246.04 706.301 245.773 707.723C245.505 709.144 245.259 710.57 245.032 711.999C244.805 713.429 244.599 714.862 244.413 716.299L243.194 716.07C243.365 714.714 243.194 713.61 242.682 712.756C242.177 711.862 241.193 711.278 239.731 711.003L227.666 708.736C226.204 708.461 225.075 708.648 224.28 709.298C223.492 709.907 222.932 710.874 222.599 712.199L221.38 711.97C221.487 711.402 221.595 710.602 221.705 709.571C221.782 708.492 221.862 707.392 221.946 706.273C222.038 705.112 222.115 704.033 222.176 703.036C222.205 701.989 222.228 701.195 222.246 700.651L226.511 701.453C226.072 700.656 225.633 699.858 225.194 699.061C224.755 698.263 224.381 697.457 224.072 696.642C223.722 695.819 223.481 694.974 223.349 694.109C223.177 693.235 223.179 692.331 223.354 691.397C223.637 689.894 224.299 688.946 225.34 688.553C226.389 688.119 227.827 688.074 229.655 688.417C229.807 688.951 229.981 689.593 230.176 690.345C230.338 691.048 230.517 691.776 230.712 692.527C230.874 693.231 231.061 693.918 231.271 694.588C231.449 695.21 231.604 695.723 231.739 696.127L231.114 696.767C230.964 696.444 230.741 696.066 230.444 695.631C230.114 695.149 229.746 694.869 229.34 694.793C228.609 694.655 228.039 694.78 227.63 695.165C227.188 695.503 226.902 696.017 226.772 696.708C226.719 696.992 226.752 697.377 226.871 697.862C226.957 698.298 227.1 698.767 227.301 699.267C227.46 699.76 227.685 700.244 227.974 700.719C228.223 701.186 228.487 701.572 228.766 701.877L241.013 704.178Z" fill="black"/>
<path id="[Copy] Problems on Automatic Relations_3" d="M238.689 679.982C240.552 680.534 242.23 680.838 243.722 680.892C245.215 680.947 246.505 680.812 247.593 680.487C248.653 680.112 249.518 679.592 250.189 678.929C250.86 678.265 251.319 677.518 251.565 676.685C252.059 675.021 251.713 673.496 250.529 672.11C249.344 670.725 247.325 669.609 244.472 668.763C242.61 668.211 240.932 667.908 239.439 667.853C237.946 667.799 236.67 667.96 235.61 668.335C234.523 668.659 233.643 669.153 232.973 669.817C232.302 670.48 231.843 671.228 231.596 672.06C231.103 673.724 231.449 675.25 232.633 676.635C233.817 678.021 235.836 679.137 238.689 679.982ZM229.514 670.796C230.042 669.013 230.831 667.371 231.879 665.871C232.887 664.359 234.095 663.122 235.501 662.159C236.919 661.157 238.498 660.483 240.239 660.137C241.98 659.79 243.801 659.899 245.704 660.463C247.606 661.027 249.192 661.928 250.463 663.167C251.734 664.406 252.691 665.832 253.334 667.445C253.989 669.019 254.327 670.714 254.349 672.531C254.41 674.36 254.176 676.166 253.648 677.949C253.119 679.733 252.331 681.374 251.283 682.874C250.274 684.386 249.061 685.643 247.643 686.645C246.237 687.608 244.663 688.263 242.923 688.609C241.182 688.955 239.36 688.846 237.458 688.283C235.556 687.719 233.969 686.817 232.698 685.579C231.427 684.34 230.464 682.933 229.81 681.36C229.167 679.747 228.835 678.032 228.813 676.214C228.752 674.386 228.985 672.579 229.514 670.796Z" fill="black"/>
<path id="[Copy] Problems on Automatic Relations_4" d="M255.432 637.793C252.2 636.414 249.657 635.846 247.801 636.088C245.907 636.314 244.514 637.472 243.622 639.563C242.73 641.654 242.858 643.461 244.006 644.984C245.115 646.491 247.286 647.934 250.518 649.313C253.749 650.691 256.312 651.268 258.206 651.042C260.061 650.8 261.435 649.634 262.327 647.543C263.219 645.452 263.111 643.653 262.001 642.146C260.853 640.623 258.663 639.172 255.432 637.793ZM240.969 644.835C240.777 643.495 240.747 642.089 240.88 640.618C240.992 639.093 241.315 637.703 241.85 636.448C242.564 634.775 243.525 633.365 244.733 632.218C245.904 631.055 247.221 630.179 248.686 629.59C250.15 629.001 251.707 628.722 253.357 628.752C255.007 628.782 256.669 629.153 258.341 629.867C260.166 630.646 261.639 631.723 262.759 633.1C263.879 634.476 264.666 636.003 265.12 637.679C265.589 639.317 265.73 641.04 265.543 642.848C265.394 644.672 264.955 646.439 264.225 648.15C263.366 650.165 262.08 652.178 260.368 654.189C258.657 656.2 256.844 657.921 254.931 659.351C254.295 658.945 253.499 658.493 252.543 657.996C251.587 657.498 250.547 656.987 249.422 656.462C248.298 655.938 247.147 655.424 245.968 654.921C244.751 654.402 243.63 653.924 242.603 653.486L222.701 644.995C221.712 644.574 220.844 644.608 220.096 645.098C219.348 645.587 218.601 646.706 217.855 648.455L216.714 647.969C217.627 645.617 218.402 643.431 219.039 641.411C219.677 639.391 220.105 637.597 220.325 636.028L240.969 644.835Z" fill="black"/>
<path id="[Copy] Problems on Automatic Relations_5" d="M271.403 620.403C272.713 621.109 273.802 621.179 274.67 620.614C275.502 620.029 276.202 619.209 276.77 618.153L277.862 618.742C277.571 619.195 277.28 619.648 276.988 620.102C276.733 620.575 276.441 621.075 276.11 621.601C275.816 622.147 275.465 622.755 275.056 623.427C274.683 624.118 274.242 624.937 273.732 625.883C272.772 627.666 272.025 629.095 271.493 630.17C270.961 631.245 270.506 632.22 270.128 633.097L269.036 632.508C269.585 631.489 269.875 630.472 269.906 629.456C269.901 628.42 269.243 627.549 267.933 626.843L238.841 611.169C237.568 610.482 236.528 610.321 235.721 610.685C234.898 610.993 234.124 611.82 233.399 613.166L232.307 612.578C233.254 610.646 234.116 608.74 234.895 606.859C235.693 604.942 236.273 603.212 236.635 601.67L271.403 620.403Z" fill="black"/>
<path id="[Copy] Problems on Automatic Relations_6" d="M275.157 596.12C275.608 595.427 275.827 594.903 275.812 594.548C275.797 594.193 275.478 593.812 274.854 593.406C273.331 592.412 271.899 591.922 270.558 591.935C269.217 591.949 268.049 592.717 267.056 594.24C266.536 595.037 266.321 595.859 266.41 596.706C266.486 597.496 266.741 598.279 267.173 599.054C267.627 599.795 268.19 600.483 268.861 601.118C269.533 601.753 270.197 602.286 270.855 602.715L275.157 596.12ZM272.828 604.002C275.009 605.424 277.205 605.993 279.414 605.707C281.612 605.364 283.445 604.067 284.913 601.817C285.703 600.605 286.211 599.259 286.437 597.778C286.686 596.262 286.585 594.79 286.135 593.361L288.298 592.996C288.941 595.34 289.09 597.683 288.747 600.025C288.403 602.367 287.588 604.525 286.301 606.498C285.194 608.194 283.941 609.548 282.541 610.56C281.176 611.594 279.727 612.302 278.195 612.684C276.628 613.044 275.034 613.065 273.415 612.749C271.76 612.41 270.137 611.721 268.544 610.683C266.952 609.644 265.685 608.447 264.742 607.092C263.766 605.715 263.143 604.248 262.875 602.691C262.573 601.112 262.62 599.49 263.016 597.823C263.377 596.134 264.111 594.442 265.218 592.746C266.302 591.084 267.527 589.81 268.894 588.925C270.249 587.983 271.693 587.396 273.227 587.162C274.749 586.872 276.308 586.902 277.905 587.253C279.502 587.604 281.073 588.184 282.617 588.994L272.828 604.002Z" fill="black"/>
<path id="[Copy] Problems on Automatic Relations_7" d="M283.295 573.521C283.269 571.911 283.463 570.3 283.876 568.689C284.285 567.019 285.018 565.575 286.075 564.358C287.212 563.047 288.391 562.099 289.609 561.515C290.797 560.903 292.274 560.872 294.042 561.421C294.088 560.421 294.141 559.509 294.199 558.685C294.254 557.802 294.4 556.971 294.638 556.192C294.845 555.387 295.157 554.617 295.574 553.885C295.959 553.125 296.491 552.355 297.168 551.574C298.143 550.45 299.143 549.676 300.168 549.252C301.193 548.828 302.207 548.668 303.211 548.773C304.21 548.82 305.166 549.074 306.078 549.537C307.017 549.969 307.861 550.51 308.61 551.16L317.039 558.474C317.601 558.962 318.15 559.275 318.687 559.412C319.193 559.523 319.677 559.533 320.14 559.441C320.598 559.292 321.023 559.086 321.415 558.824C321.802 558.503 322.145 558.171 322.443 557.828L323.379 558.641C323.077 558.926 322.762 559.226 322.432 559.543C322.134 559.886 321.767 560.278 321.329 560.72C320.95 561.157 320.487 561.658 319.941 562.224C319.426 562.817 318.817 563.52 318.113 564.331C316.785 565.861 315.771 567.061 315.071 567.931C314.371 568.801 313.862 569.482 313.546 569.973L312.609 569.16C312.853 568.879 313.079 568.555 313.287 568.189C313.492 567.764 313.609 567.346 313.638 566.934C313.663 566.463 313.586 565.985 313.405 565.5C313.193 564.987 312.806 564.487 312.244 564L304.33 557.132C303.019 555.995 301.782 555.496 300.62 555.637C299.485 555.747 298.43 556.363 297.455 557.487C296.913 558.112 296.51 558.829 296.245 559.639C295.98 560.448 295.82 561.295 295.765 562.178L306.067 571.117C306.629 571.605 307.179 571.918 307.716 572.056C308.222 572.166 308.692 572.192 309.128 572.131C309.559 572.013 309.956 571.838 310.321 571.607C310.654 571.349 310.943 571.08 311.187 570.799L312.123 571.612C311.655 572.026 311.052 572.625 310.317 573.41C309.608 574.163 308.55 575.351 307.141 576.975C305.814 578.504 304.786 579.72 304.059 580.621C303.359 581.491 302.837 582.187 302.493 582.71L301.556 581.897C301.827 581.585 302.067 581.246 302.275 580.879C302.48 580.454 302.61 580.02 302.666 579.577C302.692 579.106 302.614 578.628 302.433 578.143C302.221 577.631 301.834 577.131 301.272 576.643L292.937 569.41C292.125 568.706 291.132 568.336 289.958 568.302C288.752 568.241 287.689 568.741 286.768 569.803C286.172 570.489 285.763 571.339 285.542 572.351C285.289 573.335 285.18 574.281 285.215 575.187L295.096 583.761C295.657 584.248 296.207 584.561 296.744 584.699C297.25 584.809 297.721 584.835 298.156 584.775C298.587 584.656 298.985 584.482 299.349 584.251C299.683 583.993 299.958 583.739 300.175 583.489L301.111 584.302C300.669 584.685 300.081 585.268 299.345 586.053C298.637 586.806 297.578 587.995 296.169 589.618C294.842 591.148 293.815 592.363 293.087 593.264C292.36 594.165 291.757 594.955 291.277 595.634L290.341 594.821C290.666 594.447 290.96 594.045 291.222 593.616C291.454 593.16 291.598 592.71 291.654 592.267C291.707 591.765 291.642 591.272 291.462 590.786C291.249 590.274 290.862 589.774 290.301 589.286L279.577 579.981C278.016 578.626 276.342 578.979 274.554 581.04L273.617 580.227C274.882 578.643 276.147 577.059 277.412 575.475C278.646 573.864 279.624 572.359 280.345 570.961L283.295 573.521Z" fill="black"/>
<path id="[Copy] Problems on Automatic Relations_8" d="M319.897 550.686C322.155 551.562 324.458 551.957 326.806 551.871C329.186 551.758 331.321 550.869 333.213 549.202C333.896 548.601 334.364 547.914 334.618 547.139C334.872 546.364 334.685 545.62 334.057 544.907C333.483 544.256 332.71 543.972 331.738 544.057C330.798 544.115 329.743 544.355 328.574 544.779C327.408 545.144 326.164 545.607 324.84 546.168C323.519 546.67 322.206 547.055 320.901 547.324C319.599 547.534 318.325 547.526 317.08 547.301C315.866 547.048 314.768 546.364 313.784 545.247C312.855 544.192 312.276 543.16 312.048 542.15C311.791 541.108 311.767 540.111 311.974 539.158C312.212 538.177 312.636 537.252 313.248 536.383C313.859 535.514 314.553 534.738 315.328 534.055C316.321 533.181 317.545 532.351 319 531.564C320.487 530.751 321.804 529.839 322.952 528.828C323.138 528.664 323.328 528.442 323.521 528.161L328.975 533.603L327.858 534.586C327.087 534.274 326.21 534.028 325.225 533.848C324.272 533.641 323.296 533.565 322.297 533.618C321.301 533.614 320.341 533.743 319.417 534.007C318.465 534.239 317.663 534.643 317.012 535.216C316.36 535.79 315.879 536.462 315.566 537.233C315.257 537.946 315.458 538.705 316.168 539.512C316.742 540.163 317.499 540.46 318.44 540.403C319.381 540.345 320.434 540.134 321.599 539.768C322.737 539.372 323.951 538.936 325.24 538.462C326.533 537.929 327.831 537.557 329.133 537.347C330.407 537.105 331.652 537.111 332.866 537.364C334.052 537.585 335.124 538.239 336.08 539.325C337.009 540.379 337.586 541.441 337.811 542.509C338.036 543.578 338.012 544.645 337.74 545.712C337.471 546.719 336.984 547.699 336.279 548.65C335.606 549.574 334.819 550.432 333.92 551.224C332.493 552.481 330.959 553.584 329.317 554.534C327.703 555.516 326.012 556.316 324.245 556.936L318.827 551.629L319.897 550.686Z" fill="black"/>
<path id="[Copy] Problems on Automatic Relations_9" d="M354.071 518.161C355.11 519.802 356.174 521.134 357.262 522.157C358.351 523.18 359.411 523.927 360.444 524.399C361.489 524.813 362.482 524.991 363.424 524.933C364.366 524.875 365.203 524.613 365.936 524.149C367.403 523.22 368.146 521.844 368.166 520.021C368.186 518.198 367.399 516.03 365.807 513.516C364.767 511.875 363.703 510.543 362.615 509.52C361.527 508.496 360.46 507.778 359.414 507.363C358.382 506.892 357.395 506.685 356.453 506.744C355.512 506.802 354.674 507.063 353.941 507.528C352.474 508.457 351.731 509.833 351.712 511.655C351.692 513.478 352.478 515.647 354.071 518.161ZM353.204 505.206C354.775 504.21 356.449 503.493 358.225 503.053C359.979 502.578 361.703 502.44 363.395 502.64C365.122 502.818 366.755 503.35 368.294 504.234C369.833 505.119 371.133 506.399 372.195 508.075C373.257 509.751 373.858 511.474 374.001 513.243C374.143 515.012 373.925 516.716 373.348 518.354C372.805 519.969 371.945 521.468 370.766 522.851C369.609 524.269 368.245 525.476 366.673 526.471C365.102 527.466 363.428 528.184 361.652 528.624C359.898 529.099 358.157 529.247 356.43 529.069C354.738 528.869 353.122 528.327 351.583 527.442C350.044 526.558 348.744 525.277 347.682 523.601C346.621 521.925 346.019 520.203 345.877 518.433C345.735 516.664 345.935 514.972 346.477 513.356C347.054 511.718 347.933 510.208 349.112 508.825C350.269 507.408 351.633 506.201 353.204 505.206Z" fill="black"/>
<path id="[Copy] Problems on Automatic Relations_10" d="M380.751 493.948C381.519 492.205 382.403 490.703 383.404 489.444C384.404 488.185 385.724 487.162 387.364 486.375C389.637 485.285 391.739 485.079 393.669 485.758C395.618 486.381 397.112 487.774 398.148 489.935L403.189 500.445C403.511 501.116 403.891 501.621 404.329 501.961C404.75 502.264 405.19 502.465 405.65 502.565C406.13 502.61 406.602 502.59 407.066 502.505C407.549 502.365 408.014 502.188 408.461 501.973L408.997 503.092C408.197 503.43 407.276 503.803 406.234 504.211C405.247 504.638 403.784 505.317 401.846 506.246C400.02 507.122 398.594 507.829 397.569 508.367C396.543 508.905 395.731 509.363 395.134 509.741L394.597 508.623C395.007 508.427 395.399 508.193 395.774 507.922C396.167 507.595 396.478 507.24 396.706 506.855C396.916 506.434 397.035 505.964 397.062 505.447C397.071 504.893 396.915 504.28 396.593 503.609L391.606 493.211C391.087 492.131 390.257 491.451 389.115 491.174C387.974 490.896 386.751 491.07 385.446 491.696C384.552 492.125 383.793 492.741 383.17 493.544C382.584 494.33 382.126 495.191 381.796 496.129L387.481 507.98C387.803 508.651 388.183 509.156 388.621 509.496C389.041 509.799 389.482 510 389.942 510.1C390.422 510.145 390.894 510.125 391.357 510.04C391.84 509.9 392.287 509.732 392.697 509.535L393.233 510.653C392.842 510.795 392.433 510.945 392.005 511.104C391.595 511.301 391.102 511.515 390.525 511.746C390.003 511.996 389.38 512.272 388.654 512.575C387.945 512.914 387.107 513.316 386.138 513.781C384.312 514.657 382.867 515.373 381.804 515.929C380.779 516.466 379.893 516.96 379.146 517.41L378.609 516.292C379.094 516.06 379.542 515.799 379.953 515.51C380.384 515.166 380.714 514.802 380.942 514.417C381.189 513.977 381.327 513.499 381.354 512.982C381.363 512.427 381.206 511.815 380.885 511.144L374.744 498.342C373.85 496.479 372.174 496.137 369.714 497.317L369.178 496.199C370.968 495.249 372.758 494.298 374.549 493.348C376.321 492.36 377.817 491.368 379.035 490.371L380.751 493.948Z" fill="black"/>
<path id="[Copy] Problems on Automatic Relations_11" d="M439.598 472.374L430.989 459.638L430.869 459.67L429.346 475.073L439.598 472.374ZM419.539 496.76C420.627 496.345 421.488 495.883 422.124 495.374C422.788 494.814 423.287 494.192 423.619 493.506C423.992 492.809 424.263 492.054 424.433 491.24C424.633 490.375 424.807 489.411 424.954 488.346L429.493 457.852L427.656 455.258C428.872 454.682 430.057 454.07 431.212 453.424C432.357 452.738 433.44 451.983 434.462 451.158L456.769 483.049C457.586 484.201 458.672 484.92 460.029 485.204C461.376 485.448 462.669 485.406 463.908 485.08L464.286 486.519C463.516 486.679 462.647 486.865 461.677 487.078C460.707 487.291 459.737 487.503 458.767 487.716C457.808 487.968 456.849 488.221 455.889 488.473C454.97 488.715 454.13 488.936 453.371 489.136C451.692 489.578 450.019 490.04 448.35 490.522C446.722 490.993 445.079 491.49 443.421 492.012L443.042 490.573C445.079 489.866 446.528 489.121 447.391 488.338C448.253 487.555 448.548 486.644 448.274 485.605C448.18 485.245 447.979 484.807 447.671 484.289C447.404 483.761 447.077 483.249 446.69 482.753C446.332 482.206 445.96 481.684 445.573 481.187C445.215 480.64 444.904 480.188 444.639 479.831L441.037 474.431L429.106 477.572L428.273 486.831C428.221 487.443 428.143 488.041 428.04 488.623C427.977 489.196 428.051 489.882 428.261 490.681C428.387 491.161 428.663 491.558 429.088 491.874C429.553 492.179 430.087 492.423 430.691 492.606C431.324 492.738 431.967 492.826 432.619 492.868C433.311 492.899 433.928 492.886 434.469 492.83L434.847 494.269C433.547 494.525 432.232 494.807 430.903 495.115C429.613 495.411 428.329 495.728 427.05 496.065C425.851 496.38 424.657 496.716 423.468 497.072C422.279 497.427 421.096 497.803 419.918 498.199L419.539 496.76Z" fill="black"/>
<path id="[Copy] Problems on Automatic Relations_12" d="M488.157 479.467C488.288 480.534 488.733 481.27 489.491 481.677C490.249 482.083 491.408 482.19 492.966 481.998L493.118 483.229C490.913 483.584 488.79 483.929 486.749 484.263C484.754 484.634 483.02 485.098 481.548 485.654L481.1 482.024C479.904 483.129 478.592 484.144 477.166 485.07C475.739 485.995 474.123 486.569 472.318 486.792C470.103 487.065 468.235 486.608 466.714 485.421C465.193 484.234 464.266 482.287 463.933 479.579L462.507 468.011C462.254 465.96 460.774 465.101 458.066 465.435L457.914 464.204C459.914 463.874 461.914 463.545 463.914 463.215C465.909 462.844 467.643 462.38 469.115 461.824L471.14 478.254C471.317 479.69 471.823 480.752 472.658 481.44C473.492 482.128 474.545 482.394 475.817 482.238C476.966 482.096 477.927 481.79 478.702 481.32C479.477 480.849 480.173 480.243 480.789 479.501L479.121 465.963C478.989 464.897 478.545 464.16 477.787 463.754C477.029 463.347 475.87 463.24 474.311 463.433L474.159 462.202C476.365 461.847 478.467 461.504 480.467 461.174C482.503 460.799 484.257 460.333 485.73 459.776L488.157 479.467Z" fill="black"/>
<path id="[Copy] Problems on Automatic Relations_13" d="M491.468 462.349L491.43 460.923C492.75 460.805 493.92 460.464 494.938 459.9C495.998 459.334 496.91 458.628 497.673 457.78C498.478 456.932 499.176 455.983 499.768 454.934C500.36 453.843 500.868 452.734 501.293 451.606L502.532 451.574L502.754 459.941L511.307 459.714L511.363 461.821L502.81 462.048L503.158 475.187C503.206 477.005 503.508 478.258 504.064 478.947C504.661 479.634 505.662 479.959 507.067 479.921C507.811 479.902 508.589 479.633 509.403 479.115C510.257 478.596 511.026 477.976 511.71 477.255L513.049 478.646C512.444 479.2 511.757 479.797 510.988 480.438C510.22 481.078 509.388 481.679 508.493 482.24C507.638 482.759 506.761 483.196 505.861 483.551C505.002 483.904 504.159 484.092 503.333 484.114C501.184 484.171 499.477 483.699 498.21 482.699C496.983 481.657 496.342 480.082 496.286 477.974L495.868 462.232L491.468 462.349Z" fill="black"/>
<path id="[Copy] Problems on Automatic Relations_14" d="M524.068 470.403C523.929 472.341 523.992 474.045 524.26 475.514C524.527 476.984 524.936 478.215 525.486 479.208C526.08 480.162 526.773 480.896 527.565 481.409C528.357 481.921 529.186 482.209 530.052 482.271C531.783 482.396 533.199 481.731 534.298 480.277C535.397 478.823 536.053 476.611 536.267 473.643C536.406 471.705 536.342 470.002 536.075 468.532C535.808 467.062 535.377 465.85 534.783 464.896C534.233 463.903 533.562 463.151 532.77 462.638C531.978 462.125 531.149 461.837 530.283 461.775C528.552 461.65 527.136 462.315 526.037 463.769C524.938 465.224 524.281 467.435 524.068 470.403ZM531.071 459.47C532.926 459.603 534.698 460.021 536.388 460.722C538.081 461.383 539.549 462.297 540.791 463.463C542.074 464.633 543.072 466.031 543.784 467.657C544.496 469.283 544.78 471.085 544.638 473.064C544.496 475.043 543.956 476.786 543.019 478.294C542.081 479.801 540.894 481.042 539.456 482.016C538.06 482.993 536.477 483.687 534.707 484.098C532.934 484.551 531.119 484.71 529.264 484.577C527.409 484.443 525.636 484.026 523.946 483.324C522.253 482.663 520.765 481.748 519.482 480.578C518.24 479.412 517.263 478.015 516.551 476.389C515.839 474.763 515.554 472.961 515.697 470.982C515.839 469.003 516.379 467.26 517.316 465.753C518.254 464.245 519.42 463.003 520.817 462.026C522.254 461.052 523.858 460.36 525.628 459.948C527.401 459.496 529.215 459.336 531.071 459.47Z" fill="black"/>
<path id="[Copy] Problems on Automatic Relations_15" d="M559.491 466.368C560.892 465.576 562.4 464.976 564.013 464.569C565.675 464.13 567.293 464.084 568.868 464.43C570.563 464.802 571.959 465.384 573.055 466.175C574.159 466.926 574.893 468.208 575.256 470.023C576.156 469.586 576.982 469.196 577.735 468.854C578.536 468.48 579.336 468.211 580.134 468.048C580.94 467.844 581.765 467.751 582.608 467.767C583.459 467.742 584.39 467.841 585.399 468.063C586.852 468.382 588.01 468.89 588.873 469.588C589.735 470.285 590.36 471.1 590.748 472.031C591.185 472.931 591.418 473.892 591.447 474.914C591.517 475.945 591.445 476.945 591.233 477.914L588.837 488.814C588.678 489.541 588.666 490.173 588.801 490.711C588.946 491.208 589.169 491.638 589.47 492C589.821 492.331 590.205 492.606 590.622 492.825C591.089 493.012 591.544 493.154 591.988 493.252L591.722 494.463C591.327 494.334 590.912 494.2 590.477 494.062C590.033 493.965 589.513 493.829 588.916 493.656C588.351 493.532 587.689 493.365 586.931 493.156C586.164 492.988 585.255 492.788 584.206 492.557C582.228 492.123 580.689 491.806 579.59 491.607C578.492 491.407 577.651 491.286 577.068 491.243L577.334 490.032C577.697 490.111 578.09 490.155 578.511 490.163C578.982 490.14 579.405 490.042 579.781 489.871C580.207 489.668 580.589 489.372 580.929 488.981C581.278 488.549 581.532 487.971 581.692 487.244L583.941 477.01C584.313 475.315 584.16 473.99 583.481 473.037C582.842 472.092 581.796 471.46 580.343 471.141C579.535 470.964 578.712 470.952 577.874 471.106C577.036 471.261 576.217 471.525 575.415 471.899L572.487 485.221C572.328 485.948 572.316 486.58 572.451 487.118C572.596 487.615 572.799 488.04 573.06 488.394C573.37 488.716 573.713 488.982 574.09 489.192C574.476 489.361 574.851 489.486 575.214 489.566L574.948 490.777C574.36 490.563 573.546 490.321 572.505 490.05C571.505 489.787 569.955 489.426 567.856 488.964C565.878 488.53 564.319 488.208 563.18 488C562.081 487.801 561.22 487.675 560.597 487.623L560.863 486.412C561.267 486.501 561.679 486.549 562.101 486.557C562.571 486.533 563.015 486.44 563.431 486.278C563.857 486.075 564.24 485.779 564.579 485.388C564.928 484.957 565.182 484.378 565.342 483.651L567.711 472.872C567.941 471.822 567.791 470.774 567.259 469.726C566.737 468.638 565.789 467.943 564.417 467.641C563.528 467.446 562.587 467.493 561.592 467.782C560.607 468.031 559.724 468.387 558.945 468.851L556.138 481.628C555.978 482.355 555.966 482.987 556.102 483.525C556.246 484.022 556.449 484.447 556.71 484.801C557.02 485.123 557.364 485.389 557.741 485.599C558.127 485.768 558.481 485.888 558.804 485.959L558.538 487.171C557.99 486.966 557.196 486.728 556.156 486.457C555.155 486.194 553.605 485.833 551.506 485.371C549.528 484.937 547.969 484.615 546.83 484.407C545.691 484.199 544.709 484.047 543.884 483.95L544.15 482.739C544.634 482.846 545.127 482.912 545.63 482.937C546.141 482.923 546.604 482.834 547.021 482.672C547.487 482.478 547.89 482.186 548.229 481.795C548.578 481.364 548.832 480.785 548.992 480.058L552.039 466.191C552.483 464.172 551.373 462.87 548.708 462.285L548.974 461.074C550.97 461.428 552.966 461.782 554.962 462.136C556.967 462.449 558.756 462.588 560.329 462.553L559.491 466.368Z" fill="black"/>
<path id="[Copy] Problems on Automatic Relations_16" d="M601.082 491.036C600.635 492.237 600.631 493.316 601.068 494.273C601.521 495.19 602.367 495.88 603.607 496.341C604.304 496.601 605.025 496.736 605.77 496.749C606.554 496.776 607.311 496.638 608.04 496.337C608.203 495.78 608.352 495.262 608.486 494.782C608.659 494.318 608.839 493.833 609.026 493.33C609.228 492.787 609.423 492.264 609.61 491.761C609.836 491.272 610.069 490.763 610.31 490.235C609.796 489.956 609.295 489.703 608.806 489.477C608.355 489.265 607.859 489.059 607.316 488.857C606.154 488.425 604.947 488.351 603.695 488.634C602.443 488.918 601.572 489.719 601.082 491.036ZM612.687 483.843C613.667 481.209 613.228 479.546 611.368 478.854C610.709 478.609 610.124 478.523 609.611 478.597C609.137 478.686 608.712 478.88 608.336 479.181C608.012 479.458 607.725 479.814 607.475 480.25C607.225 480.686 607.02 481.117 606.862 481.544C606.717 481.931 606.595 482.26 606.494 482.531C606.446 482.778 606.406 483.006 606.373 483.214C605.054 482.371 603.826 481.583 602.687 480.851C601.548 480.119 600.376 479.418 599.169 478.749C599.785 477.566 600.548 476.703 601.456 476.159C602.378 475.576 603.364 475.237 604.414 475.143C605.516 475.023 606.639 475.088 607.781 475.337C608.938 475.547 610.039 475.846 611.085 476.235C612.325 476.696 613.541 477.281 614.733 477.989C615.939 478.658 616.945 479.451 617.751 480.368C618.609 481.261 619.202 482.275 619.529 483.411C619.871 484.508 619.797 485.715 619.307 487.033C619.047 487.73 618.74 488.498 618.384 489.335C618.028 490.173 617.673 491.011 617.317 491.849C617.014 492.663 616.699 493.45 616.372 494.21C616.06 494.932 615.81 495.544 615.623 496.048C615.306 496.9 615.172 497.733 615.223 498.545C615.273 499.358 615.802 499.951 616.81 500.326C617.468 500.571 618.114 500.613 618.747 500.452C619.42 500.305 620.067 500.105 620.691 499.851L621.231 501.243C620.622 501.458 619.919 501.747 619.122 502.112C618.363 502.492 617.581 502.818 616.773 503.091C616.005 503.378 615.227 503.574 614.438 503.678C613.636 503.82 612.886 503.762 612.188 503.502C611.22 503.142 610.4 502.44 609.73 501.397C609.06 500.354 608.518 499.381 608.104 498.477C606.339 498.835 604.555 499.009 602.75 498.999C600.946 498.99 599.191 498.668 597.487 498.034C596.673 497.731 595.91 497.293 595.197 496.719C594.523 496.16 593.963 495.532 593.516 494.837C593.083 494.103 592.796 493.334 592.653 492.532C592.55 491.743 592.635 490.981 592.909 490.245C593.6 488.386 594.637 487.14 596.019 486.507C597.415 485.836 598.963 485.529 600.661 485.587C602.412 485.622 604.2 485.912 606.026 486.458C607.851 487.005 609.538 487.567 611.088 488.143L612.687 483.843Z" fill="black"/>
<path id="[Copy] Problems on Automatic Relations_17" d="M625.713 485.079L626.327 483.792C627.557 484.287 628.753 484.515 629.917 484.475C631.119 484.453 632.252 484.239 633.317 483.831C634.419 483.441 635.472 482.913 636.477 482.248C637.499 481.545 638.456 480.788 639.347 479.977L640.466 480.511L636.86 488.065L644.582 491.751L643.673 493.653L635.952 489.967L630.29 501.829C629.506 503.47 629.205 504.723 629.388 505.589C629.607 506.472 630.351 507.217 631.619 507.822C632.291 508.143 633.106 508.257 634.066 508.166C635.063 508.092 636.03 507.89 636.967 507.558L637.527 509.406C636.736 509.624 635.853 509.843 634.877 510.064C633.901 510.286 632.887 510.443 631.835 510.536C630.838 510.61 629.858 510.6 628.895 510.507C627.969 510.431 627.133 510.215 626.387 509.859C624.448 508.933 623.141 507.737 622.467 506.27C621.848 504.784 621.993 503.089 622.901 501.187L629.686 486.975L625.713 485.079Z" fill="black"/>
<path id="[Copy] Problems on Automatic Relations_18" d="M648.767 515.244C648.033 516.538 647.939 517.625 648.485 518.505C649.051 519.349 649.856 520.067 650.898 520.659L650.286 521.737C649.839 521.436 649.392 521.135 648.946 520.834C648.478 520.569 647.985 520.265 647.466 519.923C646.927 519.617 646.326 519.252 645.663 518.829C644.98 518.441 644.172 517.982 643.237 517.452C641.475 516.452 640.063 515.675 639 515.119C637.937 514.564 636.972 514.087 636.104 513.69L636.716 512.611C637.723 513.183 638.734 513.495 639.749 513.548C640.785 513.566 641.67 512.927 642.404 511.633L649.411 499.285C649.942 498.35 650.024 497.493 649.657 496.715C649.291 495.937 648.425 495.16 647.059 494.385L647.671 493.307C649.653 494.336 651.593 495.271 653.493 496.112C655.392 496.952 657.145 497.59 658.751 498.026C658.205 498.904 657.669 499.765 657.144 500.607C656.618 501.449 656.121 502.284 655.652 503.111L648.767 515.244ZM663.468 481.17C664.618 481.823 665.365 482.769 665.707 484.009C666.085 485.269 665.937 486.492 665.264 487.678C664.591 488.865 663.617 489.619 662.341 489.94C661.101 490.283 659.906 490.127 658.756 489.474C657.606 488.822 656.841 487.865 656.463 486.605C656.121 485.366 656.287 484.153 656.96 482.966C657.633 481.78 658.589 481.016 659.829 480.674C661.105 480.352 662.318 480.517 663.468 481.17Z" fill="black"/>
<path id="[Copy] Problems on Automatic Relations_19" d="M674.89 532.974C672.469 533.229 670.211 533.17 668.116 532.797C666.056 532.447 664.153 531.681 662.409 530.497C660.87 529.452 659.545 528.203 658.434 526.749C657.299 525.329 656.47 523.792 655.945 522.137C655.454 520.505 655.308 518.807 655.506 517.043C655.704 515.279 656.36 513.576 657.475 511.935C658.589 510.293 659.929 509.055 661.495 508.22C663.061 507.385 664.693 506.894 666.391 506.748C668.123 506.624 669.858 506.828 671.597 507.359C673.358 507.855 675.008 508.625 676.547 509.67C677.163 510.088 677.704 510.505 678.17 510.922C678.671 511.362 679.155 511.79 679.621 512.206C680.088 512.623 680.537 513.028 680.969 513.421C681.436 513.838 681.909 514.209 682.387 514.534L683.67 515.404C683.322 515.917 682.892 516.55 682.381 517.302C681.905 518.078 681.394 518.905 680.847 519.783C680.359 520.65 679.87 521.517 679.381 522.385C678.892 523.252 678.467 524.062 678.105 524.816L677.131 524.154C677.345 523.25 677.548 522.214 677.741 521.047C677.958 519.845 678.014 518.659 677.909 517.489C677.861 516.307 677.618 515.193 677.18 514.146C676.765 513.065 676.045 512.176 675.019 511.48C673.343 510.342 671.637 510.059 669.901 510.629C668.2 511.222 666.745 512.408 665.538 514.186C664.609 515.554 663.927 516.964 663.491 518.417C663.077 519.835 662.923 521.204 663.026 522.523C663.187 523.831 663.601 525.061 664.268 526.213C664.935 527.365 665.866 528.347 667.063 529.16C668.158 529.903 669.266 530.405 670.387 530.667C671.566 530.917 672.94 531.026 674.511 530.994L674.89 532.974Z" fill="black"/>
<path id="[Copy] Problems on Automatic Relations_20" d="M713.292 516.242C714.325 517.373 715.342 518.46 716.345 519.504C717.377 520.577 718.557 521.765 719.883 523.069C721.475 524.633 723.11 526.154 724.789 527.63C726.467 529.106 728.176 530.699 729.915 532.408C731.448 533.915 732.602 535.484 733.376 537.114C734.179 538.773 734.617 540.42 734.69 542.057C734.821 543.692 734.6 545.243 734.028 546.71C733.486 548.205 732.62 549.557 731.432 550.765C730.418 551.797 729.343 552.537 728.207 552.985C727.13 553.433 726.006 553.662 724.837 553.672C723.697 553.652 722.541 553.443 721.368 553.044C720.196 552.645 719.036 552.085 717.89 551.364C717.524 552.975 717.117 554.922 716.669 557.205C716.25 559.46 715.948 561.771 715.764 564.14C715.638 566.509 715.731 568.803 716.043 571.021C716.354 573.24 717.057 575.119 718.152 576.659L717.369 577.455C716.572 576.555 715.776 575.685 714.979 574.845C714.212 574.033 713.402 573.207 712.547 572.366C711.81 571.642 711.058 570.932 710.292 570.238C709.527 569.543 708.746 568.863 707.951 568.197C708.036 564.397 708.339 560.638 708.863 556.922C709.416 553.234 710.203 549.574 711.223 545.941C710.78 545.389 710.292 544.736 709.76 543.981C709.257 543.254 708.959 542.614 708.866 542.059L701.348 549.709C700.362 550.711 699.595 551.55 699.046 552.227C698.526 552.933 698.239 553.608 698.186 554.252C698.163 554.924 698.359 555.638 698.774 556.395C699.219 557.122 699.914 558.036 700.859 559.139L699.816 560.2C698.842 559.127 697.75 557.967 696.541 556.721C695.362 555.503 694.138 554.272 692.871 553.026C691.515 551.693 690.159 550.389 688.804 549.115C687.448 547.841 686.078 546.581 684.694 545.336L685.737 544.275C686.914 545.258 687.885 545.981 688.649 546.442C689.471 546.903 690.204 547.101 690.846 547.037C691.518 547.002 692.203 546.718 692.9 546.186C693.596 545.654 694.437 544.887 695.423 543.885L711.938 527.083C712.807 526.198 713.502 525.403 714.022 524.697C714.542 523.991 714.843 523.273 714.924 522.541C715.035 521.839 714.868 521.066 714.422 520.222C714.035 519.378 713.339 518.375 712.336 517.215L713.292 516.242ZM710.562 540.335C711.07 541.704 711.84 542.896 712.872 543.91C714.818 545.822 716.916 546.813 719.167 546.881C721.448 546.978 723.617 545.981 725.674 543.888C726.543 543.003 727.207 542.033 727.666 540.977C728.183 539.92 728.451 538.851 728.471 537.77C728.52 536.659 728.335 535.579 727.917 534.53C727.499 533.481 726.833 532.508 725.919 531.61C725.329 531.03 724.726 530.495 724.108 530.003C723.49 529.512 722.784 529.079 721.992 528.706L710.562 540.335Z" fill="black"/>
<path id="[Copy] Problems on Automatic Relations_21" d="M735.724 579.181C736.233 579.832 736.658 580.208 736.999 580.309C737.34 580.409 737.804 580.23 738.39 579.772C739.822 578.651 740.748 577.454 741.169 576.18C741.589 574.906 741.239 573.553 740.118 572.121C739.532 571.372 738.824 570.903 737.993 570.714C737.221 570.531 736.398 570.519 735.524 570.677C734.677 570.868 733.844 571.179 733.026 571.609C732.208 572.039 731.489 572.496 730.871 572.98L735.724 579.181ZM729.016 574.432C726.965 576.037 725.718 577.931 725.275 580.115C724.89 582.306 725.525 584.459 727.181 586.575C728.073 587.714 729.183 588.63 730.512 589.322C731.866 590.047 733.292 590.427 734.789 590.462L734.437 592.627C732.011 592.479 729.745 591.864 727.639 590.782C725.534 589.701 723.755 588.233 722.303 586.377C721.055 584.782 720.178 583.159 719.673 581.507C719.135 579.881 718.933 578.281 719.066 576.708C719.231 575.108 719.725 573.594 720.548 572.163C721.403 570.707 722.579 569.393 724.076 568.221C725.573 567.049 727.115 566.236 728.702 565.782C730.321 565.302 731.91 565.187 733.47 565.436C735.062 565.66 736.582 566.228 738.032 567.141C739.513 568.028 740.878 569.269 742.126 570.864C743.349 572.427 744.159 573.998 744.555 575.577C745.009 577.164 745.099 578.72 744.824 580.247C744.608 581.782 744.075 583.248 743.228 584.646C742.38 586.044 741.323 587.343 740.058 588.543L729.016 574.432Z" fill="black"/>
<path id="[Copy] Problems on Automatic Relations_22" d="M741.823 604.012C740.58 604.83 740.001 605.755 740.086 606.787C740.206 607.797 740.595 608.802 741.253 609.804L740.217 610.485C739.957 610.013 739.696 609.542 739.435 609.07C739.14 608.621 738.839 608.126 738.533 607.585C738.192 607.067 737.824 606.469 737.427 605.79C736.995 605.134 736.484 604.357 735.894 603.459C734.781 601.767 733.878 600.431 733.185 599.452C732.492 598.474 731.849 597.61 731.258 596.861L732.294 596.18C732.93 597.147 733.688 597.885 734.567 598.395C735.481 598.882 736.56 598.717 737.803 597.899L765.414 579.742C766.622 578.947 767.258 578.109 767.321 577.226C767.441 576.356 767.081 575.282 766.241 574.004L767.277 573.322C768.527 575.073 769.795 576.737 771.08 578.316C772.388 579.929 773.635 581.261 774.821 582.312L741.823 604.012Z" fill="black"/>
<path id="[Copy] Problems on Automatic Relations_23" d="M750.776 614.364C749.65 614.976 748.938 615.787 748.64 616.796C748.378 617.785 748.563 618.861 749.194 620.023C749.55 620.677 750.004 621.253 750.558 621.752C751.131 622.287 751.792 622.68 752.54 622.932C753.029 622.62 753.481 622.327 753.897 622.053C754.333 621.816 754.787 621.57 755.259 621.313C755.767 621.037 756.258 620.77 756.73 620.514C757.222 620.293 757.732 620.063 758.26 619.823C758.056 619.275 757.844 618.755 757.624 618.263C757.423 617.808 757.185 617.326 756.908 616.818C756.316 615.728 755.455 614.879 754.324 614.271C753.193 613.662 752.011 613.693 750.776 614.364ZM764.252 616.566C766.721 615.223 767.482 613.681 766.534 611.938C766.199 611.32 765.813 610.871 765.378 610.59C764.963 610.345 764.515 610.213 764.033 610.192C763.607 610.188 763.157 610.269 762.682 610.433C762.207 610.597 761.769 610.788 761.37 611.005C761.007 611.202 760.698 611.37 760.444 611.508C760.246 611.663 760.066 611.808 759.904 611.943C759.464 610.441 759.055 609.041 758.678 607.74C758.3 606.44 757.876 605.141 757.407 603.844C758.648 603.358 759.789 603.208 760.831 603.394C761.91 603.56 762.876 603.953 763.729 604.571C764.639 605.205 765.443 605.992 766.141 606.93C766.875 607.848 767.509 608.797 768.042 609.777C768.673 610.939 769.206 612.179 769.64 613.496C770.109 614.793 770.347 616.052 770.352 617.272C770.413 618.509 770.193 619.664 769.694 620.735C769.23 621.787 768.381 622.648 767.146 623.319C766.493 623.675 765.757 624.051 764.938 624.449C764.119 624.847 763.301 625.245 762.482 625.643C761.719 626.058 760.965 626.444 760.219 626.803C759.509 627.141 758.918 627.439 758.446 627.696C757.647 628.13 757 628.67 756.504 629.316C756.009 629.962 756.017 630.757 756.531 631.701C756.866 632.318 757.326 632.774 757.909 633.069C758.512 633.399 759.132 633.674 759.769 633.893L759.262 635.297C758.662 635.059 757.941 634.815 757.101 634.567C756.279 634.355 755.475 634.086 754.687 633.762C753.919 633.474 753.204 633.11 752.541 632.67C751.842 632.25 751.315 631.713 750.96 631.06C750.466 630.152 750.31 629.085 750.49 627.858C750.669 626.631 750.9 625.541 751.182 624.588C749.616 623.698 748.156 622.657 746.802 621.464C745.448 620.272 744.337 618.876 743.468 617.278C743.054 616.516 742.766 615.684 742.606 614.783C742.465 613.919 742.455 613.078 742.575 612.26C742.731 611.422 743.019 610.654 743.439 609.955C743.879 609.293 744.444 608.774 745.134 608.399C746.877 607.451 748.477 607.193 749.934 607.624C751.428 608.035 752.796 608.82 754.038 609.98C755.336 611.156 756.494 612.55 757.511 614.161C758.528 615.773 759.431 617.304 760.221 618.757L764.252 616.566Z" fill="black"/>
<path id="[Copy] Problems on Automatic Relations_24" d="M773.313 626.161L774.622 625.594C775.224 626.775 775.976 627.732 776.88 628.467C777.8 629.24 778.796 629.822 779.866 630.214C780.954 630.644 782.095 630.938 783.289 631.096C784.522 631.238 785.74 631.295 786.945 631.269L787.438 632.407L779.758 635.734L783.159 643.585L781.224 644.423L777.823 636.572L765.762 641.797C764.094 642.519 763.044 643.267 762.612 644.039C762.198 644.85 762.27 645.9 762.828 647.189C763.124 647.872 763.664 648.494 764.448 649.055C765.248 649.655 766.11 650.137 767.034 650.503L766.243 652.264C765.503 651.909 764.693 651.494 763.812 651.02C762.931 650.546 762.063 649.998 761.209 649.377C760.408 648.778 759.676 648.127 759.011 647.424C758.363 646.759 757.874 646.047 757.545 645.289C756.691 643.316 756.492 641.556 756.947 640.007C757.457 638.48 758.678 637.298 760.613 636.46L775.063 630.2L773.313 626.161Z" fill="black"/>
<path id="[Copy] Problems on Automatic Relations_25" d="M770.888 664.054C769.484 664.548 768.699 665.306 768.533 666.329C768.406 667.337 768.541 668.407 768.939 669.538L767.769 669.949C767.63 669.429 767.491 668.908 767.351 668.388C767.173 667.881 767 667.328 766.834 666.729C766.628 666.145 766.414 665.475 766.193 664.72C765.932 663.979 765.623 663.102 765.267 662.088C764.595 660.178 764.04 658.664 763.603 657.547C763.167 656.43 762.751 655.437 762.358 654.567L763.528 654.156C763.912 655.248 764.469 656.147 765.2 656.854C765.969 657.547 767.056 657.647 768.46 657.153L781.853 652.441C782.867 652.085 783.491 651.492 783.726 650.665C783.961 649.838 783.817 648.683 783.296 647.201L784.466 646.79C785.284 648.868 786.134 650.847 787.015 652.728C787.896 654.609 788.799 656.242 789.724 657.625C788.735 657.929 787.766 658.226 786.817 658.516C785.867 658.806 784.944 659.109 784.047 659.425L770.888 664.054ZM804.35 648.01C804.789 649.258 804.73 650.462 804.174 651.621C803.632 652.82 802.717 653.645 801.431 654.098C800.144 654.551 798.914 654.479 797.741 653.884C796.581 653.328 795.782 652.427 795.343 651.179C794.904 649.931 794.955 648.708 795.498 647.509C796.054 646.35 796.975 645.544 798.262 645.091C799.549 644.638 800.772 644.69 801.931 645.246C803.105 645.841 803.911 646.763 804.35 648.01Z" fill="black"/>
<path id="[Copy] Problems on Automatic Relations_26" d="M783.13 675.7C781.248 676.179 779.651 676.777 778.341 677.494C777.03 678.211 775.991 678.988 775.223 679.823C774.504 680.688 774.027 681.577 773.79 682.49C773.553 683.404 773.542 684.281 773.756 685.122C774.184 686.804 775.261 687.938 776.988 688.522C778.715 689.106 781.02 689.032 783.904 688.298C785.787 687.819 787.383 687.221 788.694 686.504C790.004 685.787 791.018 684.996 791.736 684.13C792.505 683.295 793.007 682.421 793.244 681.508C793.481 680.595 793.493 679.717 793.279 678.876C792.851 677.194 791.773 676.06 790.047 675.476C788.32 674.892 786.014 674.966 783.13 675.7ZM795.715 678.896C796.173 680.699 796.336 682.513 796.203 684.338C796.111 686.152 795.706 687.833 794.991 689.38C794.286 690.967 793.274 692.355 791.956 693.543C790.637 694.731 789.017 695.57 787.094 696.059C785.171 696.548 783.347 696.586 781.621 696.172C779.895 695.758 778.343 695.023 776.965 693.966C775.598 692.949 774.439 691.665 773.491 690.115C772.502 688.576 771.778 686.905 771.32 685.102C770.861 683.299 770.698 681.486 770.831 679.66C770.924 677.846 771.323 676.145 772.028 674.558C772.743 673.011 773.76 671.644 775.079 670.455C776.397 669.267 778.018 668.428 779.94 667.939C781.863 667.45 783.688 667.412 785.413 667.826C787.139 668.24 788.686 668.955 790.054 669.972C791.432 671.029 792.595 672.333 793.544 673.883C794.532 675.422 795.256 677.094 795.715 678.896Z" fill="black"/>
<path id="[Copy] Problems on Automatic Relations_27" d="M797.89 708.74C799.31 710.012 800.462 711.319 801.349 712.661C802.235 714.003 802.798 715.575 803.036 717.378C803.367 719.877 802.91 721.939 801.666 723.563C800.468 725.223 798.681 726.21 796.304 726.524L784.749 728.054C784.011 728.151 783.413 728.356 782.954 728.666C782.535 728.972 782.207 729.328 781.969 729.735C781.778 730.177 781.65 730.632 781.587 731.099C781.57 731.601 781.594 732.098 781.659 732.59L780.43 732.753C780.357 731.887 780.288 730.895 780.224 729.778C780.124 728.707 779.933 727.107 779.651 724.976C779.385 722.968 779.156 721.393 778.963 720.251C778.77 719.109 778.587 718.196 778.413 717.51L779.642 717.347C779.702 717.798 779.802 718.243 779.944 718.683C780.132 719.158 780.373 719.564 780.668 719.901C781.003 720.231 781.413 720.49 781.896 720.676C782.42 720.857 783.051 720.898 783.789 720.801L795.221 719.288C796.41 719.131 797.313 718.552 797.931 717.553C798.549 716.554 798.764 715.338 798.574 713.903C798.444 712.92 798.093 712.007 797.523 711.166C796.959 710.365 796.282 709.662 795.493 709.058L782.463 710.782C781.725 710.88 781.127 711.084 780.668 711.395C780.25 711.701 779.922 712.057 779.684 712.463C779.492 712.906 779.364 713.36 779.301 713.827C779.284 714.33 779.306 714.807 779.365 715.257L778.136 715.42C778.123 715.005 778.107 714.569 778.088 714.113C778.028 713.662 777.978 713.127 777.938 712.507C777.862 711.933 777.793 711.254 777.731 710.47C777.628 709.692 777.506 708.77 777.365 707.704C777.099 705.697 776.867 704.101 776.669 702.918C776.476 701.777 776.282 700.781 776.086 699.931L777.315 699.768C777.386 700.301 777.495 700.808 777.642 701.289C777.835 701.805 778.079 702.231 778.374 702.568C778.715 702.94 779.127 703.219 779.61 703.405C780.135 703.585 780.765 703.627 781.503 703.529L795.578 701.667C797.627 701.395 798.473 699.908 798.115 697.203L799.344 697.041C799.692 699.038 800.039 701.035 800.387 703.032C800.776 705.023 801.255 706.753 801.824 708.22L797.89 708.74Z" fill="black"/>
<path id="[Copy] Problems on Automatic Relations_28" d="M789.277 734.811C787.16 735.987 785.384 737.505 783.948 739.365C782.513 741.267 781.831 743.477 781.903 745.998C781.928 746.907 782.158 747.707 782.591 748.397C783.024 749.088 783.716 749.42 784.666 749.393C785.533 749.368 786.245 748.955 786.802 748.154C787.359 747.394 787.849 746.429 788.27 745.259C788.735 744.13 789.175 742.877 789.59 741.5C790.049 740.164 790.592 738.908 791.221 737.733C791.891 736.597 792.711 735.623 793.681 734.81C794.651 734.038 795.88 733.631 797.368 733.589C798.773 733.549 799.936 733.765 800.859 734.235C801.824 734.704 802.606 735.322 803.207 736.091C803.809 736.901 804.248 737.819 804.525 738.845C804.802 739.871 804.956 740.9 804.985 741.933C805.022 743.255 804.878 744.727 804.552 746.349C804.227 748.012 804.086 749.608 804.129 751.137C804.136 751.385 804.185 751.673 804.277 752.001L796.607 752.714L796.564 751.227C797.298 750.834 798.048 750.317 798.815 749.675C799.584 749.074 800.267 748.372 800.865 747.57C801.505 746.807 802.019 745.987 802.408 745.107C802.838 744.227 803.04 743.353 803.016 742.485C802.991 741.617 802.782 740.817 802.39 740.084C802.039 739.391 801.327 739.059 800.253 739.09C799.385 739.114 798.672 739.507 798.115 740.267C797.558 741.027 797.047 741.972 796.583 743.101C796.16 744.23 795.718 745.441 795.259 746.736C794.842 748.071 794.298 749.306 793.627 750.442C792.998 751.576 792.198 752.529 791.227 753.301C790.298 754.071 789.11 754.477 787.664 754.518C786.259 754.558 785.074 754.323 784.109 753.812C783.143 753.302 782.338 752.601 781.692 751.71C781.089 750.859 780.647 749.858 780.367 748.708C780.087 747.6 779.931 746.446 779.897 745.248C779.843 743.348 779.976 741.462 780.295 739.593C780.573 737.724 781.038 735.912 781.692 734.157L789.237 733.385L789.277 734.811Z" fill="black"/>
</g>
</g>
<rect id="undecidable" opacity="0.5" x="364" y="50" width="296" height="222" fill="#FF0000"/>
<rect id="decidable" opacity="0.5" x="727" y="208" width="296" height="223" fill="#FF0000"/>
</g>
</svg>
