<svg width="1024" height="768" viewBox="0 0 1024 768" fill="none" xmlns="http://www.w3.org/2000/svg">
<g id="synchronous algebras">
<rect width="1024" height="768" fill="white"/>
<path id="Synchronous_algebras" d="M244.424 42.304C243.869 40.9387 243.144 39.5947 242.248 38.272C241.395 36.9067 240.392 35.712 239.24 34.688C238.088 33.6213 236.808 32.768 235.4 32.128C233.992 31.488 232.456 31.168 230.792 31.168C228.36 31.168 226.355 31.616 224.776 32.512C223.24 33.408 222.472 35.008 222.472 37.312C222.472 38.6773 222.813 39.872 223.496 40.896C224.221 41.8773 225.16 42.752 226.312 43.52C227.507 44.288 228.851 44.992 230.344 45.632C231.837 46.272 233.352 46.9333 234.888 47.616C236.467 48.256 238.003 48.96 239.496 49.728C240.989 50.496 242.312 51.4133 243.464 52.48C244.659 53.5467 245.597 54.784 246.28 56.192C247.005 57.6 247.368 59.2853 247.368 61.248C247.368 63.3387 246.984 65.152 246.216 66.688C245.448 68.1813 244.403 69.4187 243.08 70.4C241.8 71.3813 240.285 72.1067 238.536 72.576C236.829 73.0453 234.995 73.28 233.032 73.28C231.965 73.28 230.856 73.1733 229.704 72.96C228.552 72.7893 227.443 72.576 226.376 72.32C225.309 72.1067 224.328 71.9147 223.432 71.744C222.579 71.5307 221.896 71.424 221.384 71.424C220.915 71.424 220.467 71.5093 220.04 71.68C219.613 71.808 219.165 71.9573 218.696 72.128C218.312 69.696 217.864 67.328 217.352 65.024C216.84 62.6773 216.307 60.288 215.752 57.856L216.584 57.408C217.352 58.9013 218.269 60.4587 219.336 62.08C220.445 63.7013 221.683 65.1947 223.048 66.56C224.413 67.8827 225.907 68.992 227.528 69.888C229.192 70.784 230.984 71.232 232.904 71.232C234.141 71.232 235.336 71.104 236.488 70.848C237.64 70.5493 238.643 70.1013 239.496 69.504C240.392 68.9067 241.096 68.1387 241.608 67.2C242.12 66.2187 242.376 65.024 242.376 63.616C242.376 61.6107 241.757 59.9467 240.52 58.624C239.283 57.2587 237.747 56.0853 235.912 55.104C234.077 54.08 232.072 53.1413 229.896 52.288C227.763 51.4347 225.779 50.4747 223.944 49.408C222.109 48.3413 220.573 47.0827 219.336 45.632C218.099 44.1813 217.48 42.3467 217.48 40.128C217.48 38.464 217.8 36.9493 218.44 35.584C219.08 34.2187 219.933 33.0667 221 32.128C222.109 31.1467 223.368 30.4 224.776 29.888C226.227 29.376 227.763 29.12 229.384 29.12C230.963 29.12 232.371 29.2267 233.608 29.44C234.888 29.6533 236.125 29.888 237.32 30.144C238.557 30.4 239.773 30.656 240.968 30.912C242.163 31.1253 243.443 31.232 244.808 31.232C244.808 33.152 244.829 35.0293 244.872 36.864C244.957 38.656 245.107 40.4693 245.32 42.304H244.424ZM249.337 48.192C250.618 48.32 251.791 48.4053 252.858 48.448C253.967 48.448 255.183 48.448 256.506 48.448C257.786 48.448 259.087 48.448 260.41 48.448C261.732 48.4053 263.034 48.32 264.314 48.192V48.96C263.375 49.0453 262.479 49.3227 261.626 49.792C260.772 50.2613 260.345 51.0293 260.345 52.096C260.345 52.9493 260.623 54.1013 261.178 55.552C261.732 56.96 262.372 58.496 263.098 60.16C263.866 61.7813 264.634 63.4453 265.402 65.152C266.212 66.8587 266.852 68.4373 267.322 69.888C267.535 69.4613 267.855 68.7573 268.282 67.776C268.751 66.7947 269.263 65.6853 269.818 64.448C270.415 63.168 270.991 61.8453 271.546 60.48C272.143 59.1147 272.676 57.8347 273.146 56.64C273.658 55.4453 274.063 54.4 274.362 53.504C274.703 52.608 274.874 52.0107 274.874 51.712C274.874 51.2 274.746 50.7947 274.49 50.496C274.276 50.1973 273.999 49.9627 273.658 49.792C273.316 49.5787 272.911 49.4293 272.442 49.344C271.972 49.216 271.524 49.088 271.098 48.96V48.192C272.079 48.32 273.06 48.4053 274.042 48.448C275.023 48.448 276.026 48.448 277.05 48.448C278.031 48.448 278.991 48.448 279.93 48.448C280.868 48.4053 281.828 48.32 282.81 48.192V48.96C281.615 49.1307 280.442 49.8773 279.29 51.2C278.18 52.48 277.135 53.952 276.154 55.616C275.215 57.28 274.383 58.9227 273.658 60.544C272.932 62.1227 272.378 63.296 271.994 64.064C270.202 67.776 268.58 70.9547 267.13 73.6C265.679 76.2453 264.356 78.4427 263.162 80.192C262.01 81.984 260.943 83.392 259.962 84.416C259.023 85.44 258.106 86.208 257.21 86.72C256.356 87.2747 255.503 87.616 254.65 87.744C253.839 87.9147 252.986 88 252.09 88C251.322 88 250.575 87.8933 249.849 87.68C249.081 87.4667 248.42 87.1253 247.865 86.656C247.268 86.2293 246.799 85.6747 246.457 84.992C246.073 84.3093 245.881 83.4987 245.881 82.56C245.881 81.7067 246.201 80.9387 246.841 80.256C247.439 79.5733 248.164 79.232 249.017 79.232C249.999 79.232 250.788 79.4667 251.386 79.936C251.983 80.448 252.282 81.216 252.282 82.24C252.282 82.9653 252.111 83.5627 251.77 84.032C251.428 84.544 251.258 84.9067 251.258 85.12C251.258 85.376 251.556 85.5253 252.154 85.568C252.794 85.6533 253.412 85.696 254.01 85.696C255.29 85.696 256.548 85.1627 257.786 84.096C259.023 83.072 260.111 81.8773 261.05 80.512C262.031 79.1893 262.82 77.9093 263.418 76.672C264.015 75.4773 264.314 74.7093 264.314 74.368C264.314 74.24 264.164 73.792 263.866 73.024C263.567 72.2987 263.162 71.36 262.65 70.208C262.138 69.0133 261.562 67.6907 260.922 66.24C260.282 64.7893 259.642 63.36 259.002 61.952C258.362 60.5013 257.722 59.1147 257.082 57.792C256.442 56.4267 255.887 55.2747 255.418 54.336C254.991 53.3547 254.628 52.5653 254.33 51.968C254.031 51.3707 253.668 50.9013 253.242 50.56C252.815 50.176 252.303 49.8773 251.706 49.664C251.108 49.4507 250.319 49.216 249.337 48.96V48.192ZM283.834 49.216L293.178 47.808V51.2C294.33 50.304 295.652 49.4507 297.146 48.64C298.639 47.8293 300.068 47.424 301.434 47.424C302.628 47.424 303.759 47.5733 304.826 47.872C305.935 48.1707 306.916 48.6613 307.77 49.344C308.623 50.0267 309.306 50.944 309.818 52.096C310.33 53.248 310.586 54.6773 310.586 56.384V67.648C310.586 69.056 310.97 69.9947 311.738 70.464C312.506 70.8907 313.615 71.232 315.066 71.488V72.256C313.828 72.1707 312.506 72.1067 311.098 72.064C309.69 72.0213 308.26 72 306.81 72C305.828 72 304.868 72.0213 303.93 72.064C303.034 72.1067 302.159 72.1707 301.306 72.256V71.488C302.671 71.232 303.716 70.8907 304.442 70.464C305.21 69.9947 305.594 69.056 305.594 67.648V57.344C305.594 55.168 305.124 53.4827 304.186 52.288C303.29 51.0933 301.818 50.496 299.77 50.496C299.044 50.496 298.298 50.6027 297.53 50.816C296.762 51.0293 296.058 51.328 295.418 51.712C294.778 52.0533 294.244 52.4373 293.818 52.864C293.391 53.2907 293.178 53.696 293.178 54.08V67.648C293.178 69.056 293.583 69.9947 294.394 70.464C295.204 70.8907 296.42 71.232 298.042 71.488V72.256C296.591 72.1707 295.14 72.1067 293.69 72.064C292.282 72.0213 290.852 72 289.402 72C288.42 72 287.46 72.0213 286.522 72.064C285.626 72.1067 284.687 72.1707 283.706 72.256V71.488C285.156 71.232 286.266 70.8907 287.034 70.464C287.802 69.9947 288.186 69.056 288.186 67.648V52.8C288.186 51.52 287.738 50.7307 286.842 50.432C285.988 50.1333 284.986 49.984 283.834 49.984V49.216ZM340.865 58.176C340.438 57.1093 339.947 56.0427 339.393 54.976C338.881 53.8667 338.241 52.8853 337.473 52.032C336.747 51.1787 335.873 50.4747 334.849 49.92C333.867 49.3653 332.715 49.088 331.393 49.088C330.07 49.088 328.939 49.408 328.001 50.048C327.062 50.688 326.294 51.52 325.697 52.544C325.142 53.5253 324.715 54.656 324.417 55.936C324.161 57.1733 324.033 58.4107 324.033 59.648C324.033 61.056 324.267 62.4 324.737 63.68C325.206 64.96 325.867 66.112 326.72 67.136C327.574 68.1173 328.598 68.9067 329.793 69.504C331.03 70.0587 332.395 70.336 333.889 70.336C335.467 70.336 336.961 70.0587 338.369 69.504C339.777 68.9067 341.121 68.16 342.401 67.264L343.297 68.288C341.377 69.8667 339.478 71.0613 337.601 71.872C335.766 72.64 333.697 73.024 331.393 73.024C329.729 73.024 328.129 72.6827 326.593 72C325.099 71.3173 323.777 70.4 322.625 69.248C321.515 68.096 320.619 66.752 319.937 65.216C319.254 63.6373 318.913 61.9733 318.913 60.224C318.913 58.4747 319.254 56.832 319.937 55.296C320.619 53.7173 321.515 52.352 322.625 51.2C323.777 50.048 325.099 49.1307 326.593 48.448C328.129 47.7653 329.729 47.424 331.393 47.424C333.185 47.424 334.827 47.5307 336.321 47.744C337.814 47.9147 339.307 48.1493 340.801 48.448L341.633 58.176H340.865ZM377.878 72.256C376.641 72.1707 375.318 72.1067 373.91 72.064C372.502 72.0213 371.073 72 369.622 72C368.641 72 367.681 72.0213 366.742 72.064C365.846 72.1067 364.971 72.1707 364.118 72.256V71.488C365.483 71.232 366.529 70.8907 367.254 70.464C368.022 69.9947 368.406 69.056 368.406 67.648V57.344C368.406 55.168 367.937 53.4827 366.998 52.288C366.102 51.0933 364.63 50.496 362.582 50.496C361.857 50.496 361.11 50.6027 360.342 50.816C359.574 51.0293 358.87 51.328 358.23 51.712C357.59 52.0533 357.057 52.4373 356.63 52.864C356.203 53.2907 355.99 53.696 355.99 54.08V67.648C355.99 69.056 356.395 69.9947 357.206 70.464C358.017 70.8907 359.233 71.232 360.854 71.488V72.256C359.403 72.1707 357.953 72.1067 356.502 72.064C355.094 72.0213 353.665 72 352.214 72C351.233 72 350.273 72.0213 349.334 72.064C348.438 72.1067 347.499 72.1707 346.518 72.256V71.488C347.969 71.232 349.078 70.8907 349.846 70.464C350.614 69.9947 350.998 69.056 350.998 67.648V35.008C350.998 33.472 350.913 32.2773 350.742 31.424C350.614 30.528 350.358 29.8667 349.974 29.44C349.633 28.9707 349.142 28.672 348.502 28.544C347.905 28.416 347.137 28.3307 346.198 28.288V27.52L355.99 26.432V51.2C357.142 50.304 358.465 49.4507 359.958 48.64C361.451 47.8293 362.881 47.424 364.246 47.424C365.441 47.424 366.571 47.5733 367.638 47.872C368.747 48.1707 369.729 48.6613 370.582 49.344C371.435 50.0267 372.118 50.944 372.63 52.096C373.142 53.248 373.398 54.6773 373.398 56.384V67.648C373.398 69.056 373.782 69.9947 374.55 70.464C375.318 70.8907 376.427 71.232 377.878 71.488V72.256ZM380.701 71.488C382.152 71.232 383.261 70.8907 384.029 70.464C384.797 69.9947 385.181 69.056 385.181 67.648V52.8C385.181 51.52 384.733 50.7307 383.837 50.432C382.984 50.1333 381.981 49.984 380.829 49.984V49.216L390.173 47.808V51.456C390.685 51.1147 391.261 50.6667 391.901 50.112C392.584 49.5573 393.288 49.024 394.013 48.512C394.781 47.9573 395.549 47.488 396.317 47.104C397.085 46.72 397.832 46.528 398.557 46.528C400.221 46.528 401.458 46.9973 402.269 47.936C403.122 48.832 403.592 50.0907 403.677 51.712L398.557 54.4C398.642 54.1013 398.728 53.8027 398.813 53.504C398.898 53.1627 398.941 52.736 398.941 52.224C398.941 51.6267 398.728 51.072 398.301 50.56C397.874 50.0053 397.298 49.728 396.573 49.728C395.976 49.728 395.378 49.8773 394.781 50.176C394.184 50.4747 393.608 50.8587 393.053 51.328C392.498 51.7547 391.965 52.224 391.453 52.736C390.984 53.248 390.557 53.696 390.173 54.08V67.648C390.173 69.056 390.578 69.9947 391.389 70.464C392.2 70.8907 393.416 71.232 395.037 71.488V72.256C393.586 72.1707 392.136 72.1067 390.685 72.064C389.277 72.0213 387.848 72 386.397 72C385.416 72 384.456 72.0213 383.517 72.064C382.621 72.1067 381.682 72.1707 380.701 72.256V71.488ZM420.296 47.424C422.344 47.424 424.2 47.744 425.864 48.384C427.571 48.9813 429.021 49.8347 430.216 50.944C431.453 52.0533 432.392 53.3973 433.032 54.976C433.715 56.5547 434.056 58.304 434.056 60.224C434.056 62.144 433.715 63.8933 433.032 65.472C432.392 67.0507 431.453 68.3947 430.216 69.504C429.021 70.6133 427.571 71.4667 425.864 72.064C424.2 72.704 422.344 73.024 420.296 73.024C418.248 73.024 416.371 72.704 414.664 72.064C413 71.4667 411.549 70.6133 410.312 69.504C409.117 68.3947 408.179 67.0507 407.496 65.472C406.856 63.8933 406.536 62.144 406.536 60.224C406.536 58.304 406.856 56.5547 407.496 54.976C408.179 53.3973 409.117 52.0533 410.312 50.944C411.549 49.8347 413 48.9813 414.664 48.384C416.371 47.744 418.248 47.424 420.296 47.424ZM419.144 49.344C417.949 49.344 416.904 49.6427 416.008 50.24C415.155 50.8373 414.429 51.6267 413.832 52.608C413.277 53.5467 412.851 54.6347 412.552 55.872C412.296 57.0667 412.168 58.2613 412.168 59.456C412.168 60.8213 412.339 62.1867 412.68 63.552C413.064 64.9173 413.64 66.176 414.408 67.328C415.176 68.4373 416.136 69.3547 417.288 70.08C418.44 70.7627 419.827 71.104 421.448 71.104C422.643 71.104 423.667 70.8053 424.52 70.208C425.416 69.6107 426.141 68.8427 426.696 67.904C427.293 66.9227 427.72 65.8347 427.976 64.64C428.275 63.4453 428.424 62.2293 428.424 60.992C428.424 59.6693 428.232 58.3253 427.848 56.96C427.464 55.552 426.888 54.2933 426.12 53.184C425.352 52.032 424.392 51.1147 423.24 50.432C422.088 49.7067 420.723 49.344 419.144 49.344ZM437.896 49.216L447.24 47.808V51.2C448.392 50.304 449.715 49.4507 451.208 48.64C452.701 47.8293 454.131 47.424 455.496 47.424C456.691 47.424 457.821 47.5733 458.888 47.872C459.997 48.1707 460.979 48.6613 461.832 49.344C462.685 50.0267 463.368 50.944 463.88 52.096C464.392 53.248 464.648 54.6773 464.648 56.384V67.648C464.648 69.056 465.032 69.9947 465.8 70.464C466.568 70.8907 467.677 71.232 469.128 71.488V72.256C467.891 72.1707 466.568 72.1067 465.16 72.064C463.752 72.0213 462.323 72 460.872 72C459.891 72 458.931 72.0213 457.992 72.064C457.096 72.1067 456.221 72.1707 455.368 72.256V71.488C456.733 71.232 457.779 70.8907 458.504 70.464C459.272 69.9947 459.656 69.056 459.656 67.648V57.344C459.656 55.168 459.187 53.4827 458.248 52.288C457.352 51.0933 455.88 50.496 453.832 50.496C453.107 50.496 452.36 50.6027 451.592 50.816C450.824 51.0293 450.12 51.328 449.48 51.712C448.84 52.0533 448.307 52.4373 447.88 52.864C447.453 53.2907 447.24 53.696 447.24 54.08V67.648C447.24 69.056 447.645 69.9947 448.456 70.464C449.267 70.8907 450.483 71.232 452.104 71.488V72.256C450.653 72.1707 449.203 72.1067 447.752 72.064C446.344 72.0213 444.915 72 443.464 72C442.483 72 441.523 72.0213 440.584 72.064C439.688 72.1067 438.749 72.1707 437.768 72.256V71.488C439.219 71.232 440.328 70.8907 441.096 70.464C441.864 69.9947 442.248 69.056 442.248 67.648V52.8C442.248 51.52 441.8 50.7307 440.904 50.432C440.051 50.1333 439.048 49.984 437.896 49.984V49.216ZM486.671 47.424C488.719 47.424 490.575 47.744 492.239 48.384C493.946 48.9813 495.396 49.8347 496.591 50.944C497.828 52.0533 498.767 53.3973 499.407 54.976C500.09 56.5547 500.431 58.304 500.431 60.224C500.431 62.144 500.09 63.8933 499.407 65.472C498.767 67.0507 497.828 68.3947 496.591 69.504C495.396 70.6133 493.946 71.4667 492.239 72.064C490.575 72.704 488.719 73.024 486.671 73.024C484.623 73.024 482.746 72.704 481.039 72.064C479.375 71.4667 477.924 70.6133 476.687 69.504C475.492 68.3947 474.554 67.0507 473.871 65.472C473.231 63.8933 472.911 62.144 472.911 60.224C472.911 58.304 473.231 56.5547 473.871 54.976C474.554 53.3973 475.492 52.0533 476.687 50.944C477.924 49.8347 479.375 48.9813 481.039 48.384C482.746 47.744 484.623 47.424 486.671 47.424ZM485.519 49.344C484.324 49.344 483.279 49.6427 482.383 50.24C481.53 50.8373 480.804 51.6267 480.207 52.608C479.652 53.5467 479.226 54.6347 478.927 55.872C478.671 57.0667 478.543 58.2613 478.543 59.456C478.543 60.8213 478.714 62.1867 479.055 63.552C479.439 64.9173 480.015 66.176 480.783 67.328C481.551 68.4373 482.511 69.3547 483.663 70.08C484.815 70.7627 486.202 71.104 487.823 71.104C489.018 71.104 490.042 70.8053 490.895 70.208C491.791 69.6107 492.516 68.8427 493.071 67.904C493.668 66.9227 494.095 65.8347 494.351 64.64C494.65 63.4453 494.799 62.2293 494.799 60.992C494.799 59.6693 494.607 58.3253 494.223 56.96C493.839 55.552 493.263 54.2933 492.495 53.184C491.727 52.032 490.767 51.1147 489.615 50.432C488.463 49.7067 487.098 49.344 485.519 49.344ZM513.359 64.192C513.359 65.984 513.807 67.3707 514.703 68.352C515.642 69.3333 517.007 69.824 518.799 69.824C520.164 69.824 521.508 69.504 522.831 68.864C524.196 68.1813 525.199 67.4773 525.839 66.752V53.248C525.839 52.6933 525.796 52.1813 525.711 51.712C525.626 51.2427 525.412 50.8373 525.071 50.496C524.73 50.112 524.218 49.792 523.535 49.536C522.852 49.2373 521.935 49.0027 520.783 48.832V48.128L530.831 47.424V67.072C530.831 68.6933 531.236 69.7813 532.047 70.336C532.9 70.848 534.074 71.1467 535.567 71.232V71.872C533.946 71.9573 532.303 72.0213 530.639 72.064C529.018 72.1067 527.418 72.1707 525.839 72.256V68.928C524.346 70.0373 522.767 70.9973 521.103 71.808C519.482 72.6187 517.711 73.024 515.791 73.024C513.743 73.024 511.994 72.448 510.543 71.296C509.092 70.144 508.367 68.3733 508.367 65.984V52.736C508.367 51.456 508.004 50.5813 507.279 50.112C506.596 49.6427 505.359 49.3013 503.567 49.088V48.256L513.359 47.424V64.192ZM539.606 63.872H540.502C541.099 64.768 541.761 65.6427 542.486 66.496C543.254 67.3493 544.086 68.1173 544.982 68.8C545.878 69.4827 546.838 70.0373 547.862 70.464C548.886 70.8907 549.974 71.104 551.126 71.104C551.681 71.104 552.235 71.0613 552.79 70.976C553.387 70.848 553.921 70.656 554.39 70.4C554.859 70.144 555.243 69.8027 555.542 69.376C555.841 68.9493 555.99 68.416 555.99 67.776C555.99 66.7093 555.585 65.8347 554.774 65.152C554.006 64.4693 553.046 63.872 551.894 63.36C550.742 62.848 549.462 62.3787 548.054 61.952C546.689 61.4827 545.43 60.9493 544.278 60.352C543.126 59.712 542.145 58.944 541.334 58.048C540.566 57.152 540.182 56 540.182 54.592C540.182 52.288 540.886 50.5173 542.294 49.28C543.745 48.0427 545.558 47.424 547.734 47.424C549.355 47.424 550.913 47.6373 552.406 48.064C553.942 48.4907 555.521 48.7467 557.142 48.832L557.526 55.616H556.694C556.267 54.8053 555.734 54.0373 555.094 53.312C554.454 52.544 553.729 51.8827 552.918 51.328C552.15 50.7307 551.318 50.2613 550.422 49.92C549.526 49.536 548.609 49.344 547.67 49.344C546.603 49.344 545.643 49.5787 544.79 50.048C543.937 50.5173 543.51 51.3707 543.51 52.608C543.51 53.504 543.894 54.2507 544.662 54.848C545.473 55.4027 546.454 55.936 547.606 56.448C548.758 56.9173 550.017 57.3867 551.382 57.856C552.79 58.3253 554.07 58.9013 555.222 59.584C556.374 60.224 557.334 61.0347 558.102 62.016C558.913 62.9547 559.318 64.128 559.318 65.536C559.318 67.0293 559.062 68.2667 558.55 69.248C558.081 70.1867 557.419 70.9333 556.566 71.488C555.713 72.0427 554.71 72.4267 553.558 72.64C552.449 72.896 551.254 73.024 549.974 73.024C548.95 73.024 547.969 72.9387 547.03 72.768C546.091 72.64 545.195 72.4693 544.342 72.256C543.531 72.0427 542.763 71.8507 542.038 71.68C541.313 71.5093 540.673 71.3813 540.118 71.296L539.606 63.872ZM582.081 53.312C582.422 51.9893 582.892 50.944 583.489 50.176C584.129 49.3653 584.854 48.768 585.665 48.384C586.476 47.9573 587.393 47.7013 588.417 47.616C589.441 47.488 590.529 47.424 591.681 47.424C592.79 47.424 593.878 47.552 594.945 47.808C596.054 48.0213 597.036 48.4053 597.889 48.96C598.785 49.5147 599.489 50.2613 600.001 51.2C600.556 52.096 600.833 53.2053 600.833 54.528V66.368C600.833 67.1787 601.046 67.904 601.473 68.544C601.9 69.1413 602.561 69.44 603.457 69.44C604.31 69.44 605.057 69.2053 605.697 68.736C606.38 68.224 607.02 67.7333 607.617 67.264L608.257 67.968C607.83 68.3947 607.318 68.9067 606.721 69.504C606.166 70.0587 605.569 70.6133 604.929 71.168C604.289 71.68 603.628 72.1067 602.945 72.448C602.305 72.832 601.665 73.024 601.025 73.024C600.598 73.024 600.15 72.8747 599.681 72.576C599.212 72.32 598.742 72 598.273 71.616C597.846 71.232 597.441 70.8267 597.057 70.4C596.673 69.9733 596.332 69.6107 596.033 69.312C594.668 70.2507 593.132 71.104 591.425 71.872C589.718 72.64 588.054 73.024 586.433 73.024C585.537 73.024 584.662 72.8747 583.809 72.576C582.998 72.2773 582.273 71.8507 581.633 71.296C580.993 70.7413 580.481 70.08 580.097 69.312C579.713 68.544 579.521 67.6693 579.521 66.688C579.521 64.9387 580.012 63.552 580.993 62.528C581.974 61.4613 583.233 60.6507 584.769 60.096C586.348 59.5413 588.118 59.1787 590.081 59.008C592.086 58.7947 594.092 58.6667 596.097 58.624V53.76C596.097 52.1813 595.606 50.9653 594.625 50.112C593.644 49.2587 592.406 48.832 590.913 48.832C589.804 48.832 588.929 49.3867 588.289 50.496C587.649 51.6053 587.329 52.864 587.329 54.272L582.081 53.312ZM595.969 61.12C594.561 60.736 593.132 60.544 591.681 60.544C590.87 60.544 590.06 60.6507 589.249 60.864C588.438 61.0347 587.713 61.3333 587.073 61.76C586.433 62.1867 585.9 62.7413 585.473 63.424C585.089 64.064 584.897 64.8533 584.897 65.792C584.897 67.2427 585.388 68.288 586.369 68.928C587.393 69.5253 588.524 69.824 589.761 69.824C591.126 69.824 592.364 69.5467 593.473 68.992C594.625 68.4373 595.457 67.968 595.969 67.584V61.12ZM608.186 71.488C609.253 71.4027 610.106 71.2533 610.746 71.04C611.386 70.784 611.877 70.4213 612.218 69.952C612.559 69.4827 612.773 68.8427 612.858 68.032C612.943 67.2213 612.986 66.1973 612.986 64.96V32.832C612.986 31.168 612.73 30.016 612.218 29.376C611.706 28.6933 610.49 28.352 608.57 28.352V27.584L617.978 26.432V64.96C617.978 66.1973 618.021 67.2213 618.106 68.032C618.191 68.8427 618.405 69.4827 618.746 69.952C619.13 70.4213 619.642 70.784 620.282 71.04C620.965 71.2533 621.882 71.4027 623.034 71.488V72.256C621.797 72.1707 620.517 72.1067 619.194 72.064C617.914 72.0213 616.634 72 615.354 72C614.117 72 612.901 72.0213 611.706 72.064C610.554 72.1067 609.381 72.1707 608.186 72.256V71.488ZM651.437 53.632C651.607 52.992 651.693 52.288 651.693 51.52C651.693 51.0507 651.479 50.7093 651.053 50.496C650.626 50.24 650.114 50.112 649.517 50.112C649.175 50.112 648.77 50.2187 648.301 50.432C647.831 50.6453 647.469 50.816 647.213 50.944C647.554 51.84 647.81 52.6933 647.981 53.504C648.194 54.3147 648.301 55.2107 648.301 56.192C648.301 57.344 648.087 58.4107 647.661 59.392C647.234 60.3733 646.615 61.248 645.805 62.016C644.994 62.7413 643.97 63.3173 642.733 63.744C641.495 64.1707 640.087 64.384 638.509 64.384C636.375 64.384 634.413 63.872 632.621 62.848C631.895 63.2747 631.191 63.7867 630.509 64.384C629.869 64.9387 629.549 65.7067 629.549 66.688C629.549 67.6693 629.89 68.3307 630.573 68.672C631.298 69.0133 632.621 69.184 634.541 69.184C634.967 69.184 635.479 69.1627 636.077 69.12C636.717 69.0773 637.378 69.0347 638.061 68.992C638.743 68.9493 639.426 68.9067 640.109 68.864C640.791 68.8213 641.431 68.8 642.029 68.8C643.479 68.8 644.823 68.928 646.061 69.184C647.298 69.3973 648.343 69.8027 649.197 70.4C650.05 70.9973 650.711 71.8293 651.181 72.896C651.693 73.9627 651.949 75.328 651.949 76.992C651.949 78.9973 651.479 80.6827 650.541 82.048C649.645 83.456 648.471 84.5867 647.021 85.44C645.613 86.336 644.034 86.976 642.285 87.36C640.535 87.7867 638.807 88 637.101 88C635.778 88 634.413 87.8507 633.005 87.552C631.597 87.2533 630.317 86.7627 629.165 86.08C628.013 85.44 627.053 84.5653 626.285 83.456C625.559 82.3467 625.197 80.9813 625.197 79.36C625.197 78.1227 625.453 76.9707 625.965 75.904C626.519 74.8373 627.245 73.8773 628.141 73.024C626.861 72.0427 626.221 70.656 626.221 68.864C626.221 67.1573 626.669 65.728 627.565 64.576C628.503 63.3813 629.719 62.464 631.213 61.824C630.359 61.2267 629.719 60.416 629.293 59.392C628.909 58.368 628.717 57.2373 628.717 56C628.717 54.7627 628.93 53.632 629.357 52.608C629.826 51.5413 630.466 50.624 631.277 49.856C632.087 49.088 633.047 48.4907 634.157 48.064C635.309 47.6373 636.567 47.424 637.933 47.424C639.426 47.424 640.855 47.5947 642.221 47.936C643.586 48.2347 644.866 48.8533 646.061 49.792C647.042 49.3227 648.023 48.8533 649.005 48.384C650.029 47.9147 651.095 47.68 652.205 47.68C652.973 47.68 653.634 47.936 654.189 48.448C654.743 48.96 655.021 49.4293 655.021 49.856V51.392C655.021 51.8187 654.978 52.16 654.893 52.416L651.437 53.632ZM638.829 84.032C639.725 84.032 640.791 83.9467 642.029 83.776C643.309 83.648 644.503 83.3707 645.613 82.944C646.765 82.5173 647.746 81.92 648.557 81.152C649.367 80.384 649.773 79.3813 649.773 78.144C649.773 76.3093 649.047 75.0293 647.597 74.304C646.146 73.6213 644.013 73.28 641.197 73.28C638.082 73.28 635.65 73.3013 633.901 73.344C632.151 73.4293 630.679 73.472 629.485 73.472C629.143 74.0267 628.887 74.6667 628.717 75.392C628.589 76.16 628.525 76.9067 628.525 77.632C628.525 78.8693 628.866 79.8933 629.549 80.704C630.274 81.5147 631.149 82.1547 632.173 82.624C633.239 83.136 634.37 83.4987 635.565 83.712C636.759 83.9253 637.847 84.032 638.829 84.032ZM633.453 55.872C633.453 56.768 633.559 57.6213 633.773 58.432C633.986 59.2427 634.285 59.968 634.669 60.608C635.095 61.248 635.629 61.76 636.269 62.144C636.909 62.528 637.655 62.72 638.509 62.72C639.362 62.72 640.109 62.528 640.749 62.144C641.389 61.76 641.9 61.248 642.285 60.608C642.711 59.968 643.031 59.2427 643.245 58.432C643.458 57.6213 643.565 56.768 643.565 55.872C643.565 54.976 643.458 54.1227 643.245 53.312C643.031 52.5013 642.711 51.7973 642.285 51.2C641.9 50.56 641.389 50.048 640.749 49.664C640.109 49.28 639.362 49.088 638.509 49.088C637.655 49.088 636.909 49.28 636.269 49.664C635.629 50.048 635.095 50.56 634.669 51.2C634.285 51.7973 633.986 52.5013 633.773 53.312C633.559 54.1227 633.453 54.976 633.453 55.872ZM663.469 58.56C663.469 60.7787 663.746 62.6133 664.301 64.064C664.898 65.5147 665.623 66.6667 666.477 67.52C667.373 68.3733 668.311 68.9707 669.293 69.312C670.317 69.6533 671.255 69.824 672.109 69.824C673.901 69.824 675.522 69.5467 676.973 68.992C678.423 68.3947 679.767 67.4773 681.005 66.24L682.093 67.264C680.343 69.1413 678.551 70.5707 676.717 71.552C674.882 72.5333 672.685 73.024 670.125 73.024C668.29 73.024 666.647 72.6613 665.197 71.936C663.746 71.2107 662.509 70.2507 661.485 69.056C660.461 67.8613 659.671 66.496 659.117 64.96C658.605 63.424 658.349 61.8453 658.349 60.224C658.349 58.6027 658.605 57.024 659.117 55.488C659.671 53.952 660.461 52.5867 661.485 51.392C662.509 50.1973 663.746 49.2373 665.197 48.512C666.647 47.7867 668.29 47.424 670.125 47.424C673.495 47.424 676.205 48.3413 678.253 50.176C680.301 52.0107 681.559 54.8053 682.029 58.56H663.469ZM675.949 56.64C675.821 55.488 675.65 54.464 675.437 53.568C675.223 52.6293 674.882 51.8613 674.413 51.264C673.943 50.624 673.325 50.1547 672.557 49.856C671.789 49.5147 670.807 49.344 669.613 49.344C668.717 49.344 667.885 49.5787 667.117 50.048C666.391 50.4747 665.751 51.0507 665.197 51.776C664.685 52.4587 664.279 53.248 663.981 54.144C663.725 54.9973 663.597 55.8293 663.597 56.64H675.949ZM685.186 27.648L695.17 26.432C695.085 30.4427 695.021 34.4107 694.978 38.336C694.978 42.2613 694.935 46.2293 694.85 50.24C696.002 49.3867 697.261 48.704 698.626 48.192C700.034 47.68 701.57 47.424 703.234 47.424C705.111 47.424 706.839 47.7227 708.418 48.32C710.039 48.9173 711.426 49.7493 712.578 50.816C713.773 51.84 714.69 53.0987 715.33 54.592C716.013 56.0427 716.354 57.6427 716.354 59.392C716.354 61.6533 715.991 63.6373 715.266 65.344C714.541 67.008 713.559 68.416 712.322 69.568C711.085 70.72 709.613 71.5733 707.906 72.128C706.199 72.7253 704.386 73.024 702.466 73.024C701.058 73.024 699.671 72.8533 698.306 72.512C696.941 72.2133 695.682 71.8507 694.53 71.424C693.378 70.9547 692.397 70.5067 691.586 70.08C690.818 69.6107 690.306 69.248 690.05 68.992V32.32C690.05 30.8267 689.645 29.8027 688.834 29.248C688.023 28.6933 686.807 28.416 685.186 28.416V27.648ZM710.722 60.224C710.722 58.6453 710.53 57.1947 710.146 55.872C709.762 54.5493 709.207 53.4187 708.482 52.48C707.799 51.4987 706.946 50.7307 705.922 50.176C704.941 49.6213 703.831 49.344 702.594 49.344C701.229 49.344 700.034 49.5147 699.01 49.856C697.986 50.1973 697.133 50.7947 696.45 51.648C695.81 52.4587 695.319 53.568 694.978 54.976C694.637 56.384 694.466 58.1333 694.466 60.224C694.466 62.3147 694.637 64.064 694.978 65.472C695.319 66.8373 695.81 67.9467 696.45 68.8C697.133 69.6107 697.986 70.208 699.01 70.592C700.034 70.9333 701.229 71.104 702.594 71.104C703.831 71.104 704.941 70.8267 705.922 70.272C706.946 69.7173 707.799 68.9707 708.482 68.032C709.207 67.0507 709.762 65.8987 710.146 64.576C710.53 63.2533 710.722 61.8027 710.722 60.224ZM720.201 71.488C721.652 71.232 722.761 70.8907 723.529 70.464C724.297 69.9947 724.681 69.056 724.681 67.648V52.8C724.681 51.52 724.233 50.7307 723.337 50.432C722.484 50.1333 721.481 49.984 720.329 49.984V49.216L729.673 47.808V51.456C730.185 51.1147 730.761 50.6667 731.401 50.112C732.084 49.5573 732.788 49.024 733.513 48.512C734.281 47.9573 735.049 47.488 735.817 47.104C736.585 46.72 737.332 46.528 738.057 46.528C739.721 46.528 740.958 46.9973 741.769 47.936C742.622 48.832 743.092 50.0907 743.177 51.712L738.057 54.4C738.142 54.1013 738.228 53.8027 738.313 53.504C738.398 53.1627 738.441 52.736 738.441 52.224C738.441 51.6267 738.228 51.072 737.801 50.56C737.374 50.0053 736.798 49.728 736.073 49.728C735.476 49.728 734.878 49.8773 734.281 50.176C733.684 50.4747 733.108 50.8587 732.553 51.328C731.998 51.7547 731.465 52.224 730.953 52.736C730.484 53.248 730.057 53.696 729.673 54.08V67.648C729.673 69.056 730.078 69.9947 730.889 70.464C731.7 70.8907 732.916 71.232 734.537 71.488V72.256C733.086 72.1707 731.636 72.1067 730.185 72.064C728.777 72.0213 727.348 72 725.897 72C724.916 72 723.956 72.0213 723.017 72.064C722.121 72.1067 721.182 72.1707 720.201 72.256V71.488ZM747.956 53.312C748.297 51.9893 748.767 50.944 749.364 50.176C750.004 49.3653 750.729 48.768 751.54 48.384C752.351 47.9573 753.268 47.7013 754.292 47.616C755.316 47.488 756.404 47.424 757.556 47.424C758.665 47.424 759.753 47.552 760.82 47.808C761.929 48.0213 762.911 48.4053 763.764 48.96C764.66 49.5147 765.364 50.2613 765.876 51.2C766.431 52.096 766.708 53.2053 766.708 54.528V66.368C766.708 67.1787 766.921 67.904 767.348 68.544C767.775 69.1413 768.436 69.44 769.332 69.44C770.185 69.44 770.932 69.2053 771.572 68.736C772.255 68.224 772.895 67.7333 773.492 67.264L774.132 67.968C773.705 68.3947 773.193 68.9067 772.596 69.504C772.041 70.0587 771.444 70.6133 770.804 71.168C770.164 71.68 769.503 72.1067 768.82 72.448C768.18 72.832 767.54 73.024 766.9 73.024C766.473 73.024 766.025 72.8747 765.556 72.576C765.087 72.32 764.617 72 764.148 71.616C763.721 71.232 763.316 70.8267 762.932 70.4C762.548 69.9733 762.207 69.6107 761.908 69.312C760.543 70.2507 759.007 71.104 757.3 71.872C755.593 72.64 753.929 73.024 752.308 73.024C751.412 73.024 750.537 72.8747 749.684 72.576C748.873 72.2773 748.148 71.8507 747.508 71.296C746.868 70.7413 746.356 70.08 745.972 69.312C745.588 68.544 745.396 67.6693 745.396 66.688C745.396 64.9387 745.887 63.552 746.868 62.528C747.849 61.4613 749.108 60.6507 750.644 60.096C752.223 59.5413 753.993 59.1787 755.956 59.008C757.961 58.7947 759.967 58.6667 761.972 58.624V53.76C761.972 52.1813 761.481 50.9653 760.5 50.112C759.519 49.2587 758.281 48.832 756.788 48.832C755.679 48.832 754.804 49.3867 754.164 50.496C753.524 51.6053 753.204 52.864 753.204 54.272L747.956 53.312ZM761.844 61.12C760.436 60.736 759.007 60.544 757.556 60.544C756.745 60.544 755.935 60.6507 755.124 60.864C754.313 61.0347 753.588 61.3333 752.948 61.76C752.308 62.1867 751.775 62.7413 751.348 63.424C750.964 64.064 750.772 64.8533 750.772 65.792C750.772 67.2427 751.263 68.288 752.244 68.928C753.268 69.5253 754.399 69.824 755.636 69.824C757.001 69.824 758.239 69.5467 759.348 68.992C760.5 68.4373 761.332 67.968 761.844 67.584V61.12ZM775.981 63.872H776.877C777.474 64.768 778.136 65.6427 778.861 66.496C779.629 67.3493 780.461 68.1173 781.357 68.8C782.253 69.4827 783.213 70.0373 784.237 70.464C785.261 70.8907 786.349 71.104 787.501 71.104C788.056 71.104 788.61 71.0613 789.165 70.976C789.762 70.848 790.296 70.656 790.765 70.4C791.234 70.144 791.618 69.8027 791.917 69.376C792.216 68.9493 792.365 68.416 792.365 67.776C792.365 66.7093 791.96 65.8347 791.149 65.152C790.381 64.4693 789.421 63.872 788.269 63.36C787.117 62.848 785.837 62.3787 784.429 61.952C783.064 61.4827 781.805 60.9493 780.653 60.352C779.501 59.712 778.52 58.944 777.709 58.048C776.941 57.152 776.557 56 776.557 54.592C776.557 52.288 777.261 50.5173 778.669 49.28C780.12 48.0427 781.933 47.424 784.109 47.424C785.73 47.424 787.288 47.6373 788.781 48.064C790.317 48.4907 791.896 48.7467 793.517 48.832L793.901 55.616H793.069C792.642 54.8053 792.109 54.0373 791.469 53.312C790.829 52.544 790.104 51.8827 789.293 51.328C788.525 50.7307 787.693 50.2613 786.797 49.92C785.901 49.536 784.984 49.344 784.045 49.344C782.978 49.344 782.018 49.5787 781.165 50.048C780.312 50.5173 779.885 51.3707 779.885 52.608C779.885 53.504 780.269 54.2507 781.037 54.848C781.848 55.4027 782.829 55.936 783.981 56.448C785.133 56.9173 786.392 57.3867 787.757 57.856C789.165 58.3253 790.445 58.9013 791.597 59.584C792.749 60.224 793.709 61.0347 794.477 62.016C795.288 62.9547 795.693 64.128 795.693 65.536C795.693 67.0293 795.437 68.2667 794.925 69.248C794.456 70.1867 793.794 70.9333 792.941 71.488C792.088 72.0427 791.085 72.4267 789.933 72.64C788.824 72.896 787.629 73.024 786.349 73.024C785.325 73.024 784.344 72.9387 783.405 72.768C782.466 72.64 781.57 72.4693 780.717 72.256C779.906 72.0427 779.138 71.8507 778.413 71.68C777.688 71.5093 777.048 71.3813 776.493 71.296L775.981 63.872Z" fill="black"/>
</g>
</svg>
