<svg width="1921" height="1081" viewBox="0 0 1921 1081" fill="none" xmlns="http://www.w3.org/2000/svg">
<g id="graph database">
<rect width="1920" height="1080" transform="translate(0.600098 0.640137)" fill="white"/>
<path id="author1" d="M361.407 609.736C361.407 610.76 361.583 611.528 361.935 612.04C362.287 612.52 362.815 612.888 363.519 613.144L362.511 616.216C361.199 616.056 360.143 615.688 359.343 615.112C358.543 614.536 357.951 613.64 357.567 612.424C355.871 614.952 353.359 616.216 350.031 616.216C347.535 616.216 345.567 615.512 344.127 614.104C342.687 612.696 341.967 610.856 341.967 608.584C341.967 605.896 342.927 603.832 344.847 602.392C346.799 600.952 349.551 600.232 353.103 600.232H356.991V598.36C356.991 596.568 356.559 595.288 355.695 594.52C354.831 593.752 353.503 593.368 351.711 593.368C349.855 593.368 347.583 593.816 344.895 594.712L343.791 591.496C346.927 590.344 349.839 589.768 352.527 589.768C355.503 589.768 357.727 590.504 359.199 591.976C360.671 593.416 361.407 595.48 361.407 598.168V609.736ZM351.039 612.904C353.567 612.904 355.551 611.592 356.991 608.968V603.16H353.679C349.007 603.16 346.671 604.888 346.671 608.344C346.671 609.848 347.039 610.984 347.775 611.752C348.511 612.52 349.599 612.904 351.039 612.904ZM389.292 615.64H385.5L385.164 611.704C384.204 613.272 383.1 614.424 381.852 615.16C380.604 615.864 379.084 616.216 377.292 616.216C375.084 616.216 373.356 615.544 372.108 614.2C370.86 612.856 370.236 610.952 370.236 608.488V590.344H374.652V608.008C374.652 609.736 374.956 610.968 375.564 611.704C376.172 612.408 377.164 612.76 378.54 612.76C381.004 612.76 383.116 611.304 384.876 608.392V590.344H389.292V615.64ZM411.182 614.488C409.518 615.64 407.63 616.216 405.518 616.216C403.374 616.216 401.694 615.608 400.478 614.392C399.294 613.144 398.702 611.352 398.702 609.016V593.752H394.286V590.344H398.702V584.632L403.118 584.104V590.344H409.118L408.638 593.752H403.118V608.824C403.118 610.136 403.342 611.096 403.79 611.704C404.27 612.28 405.054 612.568 406.142 612.568C407.198 612.568 408.318 612.2 409.502 611.464L411.182 614.488ZM427.661 589.768C429.965 589.768 431.757 590.456 433.037 591.832C434.349 593.208 435.005 595.096 435.005 597.496V615.64H430.589V598.12C430.589 596.328 430.237 595.064 429.533 594.328C428.861 593.592 427.869 593.224 426.557 593.224C425.245 593.224 424.077 593.608 423.053 594.376C422.029 595.144 421.069 596.232 420.173 597.64V615.64H415.757V580.216L420.173 579.736V593.848C422.157 591.128 424.653 589.768 427.661 589.768ZM453.386 589.768C456.938 589.768 459.69 590.952 461.642 593.32C463.626 595.688 464.618 598.904 464.618 602.968C464.618 605.592 464.17 607.912 463.274 609.928C462.378 611.912 461.082 613.464 459.386 614.584C457.69 615.672 455.674 616.216 453.338 616.216C449.786 616.216 447.018 615.032 445.034 612.664C443.05 610.296 442.058 607.08 442.058 603.016C442.058 600.392 442.506 598.088 443.402 596.104C444.298 594.088 445.594 592.536 447.29 591.448C448.986 590.328 451.018 589.768 453.386 589.768ZM453.386 593.32C449.002 593.32 446.81 596.552 446.81 603.016C446.81 609.448 448.986 612.664 453.338 612.664C457.69 612.664 459.866 609.432 459.866 602.968C459.866 596.536 457.706 593.32 453.386 593.32ZM482.906 589.768C483.802 589.768 484.634 589.864 485.402 590.056L484.586 594.376C483.818 594.184 483.082 594.088 482.378 594.088C480.81 594.088 479.546 594.664 478.586 595.816C477.626 596.968 476.874 598.76 476.33 601.192V615.64H471.914V590.344H475.706L476.138 595.48C476.81 593.592 477.722 592.168 478.874 591.208C480.026 590.248 481.37 589.768 482.906 589.768ZM499.021 625.336H495.325V609.112L490.621 611.848L488.989 609.304L495.709 605.32H499.021V625.336Z" fill="black"/>
<path id="author2" d="M700.407 609.736C700.407 610.76 700.583 611.528 700.935 612.04C701.287 612.52 701.815 612.888 702.519 613.144L701.511 616.216C700.199 616.056 699.143 615.688 698.343 615.112C697.543 614.536 696.951 613.64 696.567 612.424C694.871 614.952 692.359 616.216 689.031 616.216C686.535 616.216 684.567 615.512 683.127 614.104C681.687 612.696 680.967 610.856 680.967 608.584C680.967 605.896 681.927 603.832 683.847 602.392C685.799 600.952 688.551 600.232 692.103 600.232H695.991V598.36C695.991 596.568 695.559 595.288 694.695 594.52C693.831 593.752 692.503 593.368 690.711 593.368C688.855 593.368 686.583 593.816 683.895 594.712L682.791 591.496C685.927 590.344 688.839 589.768 691.527 589.768C694.503 589.768 696.727 590.504 698.199 591.976C699.671 593.416 700.407 595.48 700.407 598.168V609.736ZM690.039 612.904C692.567 612.904 694.551 611.592 695.991 608.968V603.16H692.679C688.007 603.16 685.671 604.888 685.671 608.344C685.671 609.848 686.039 610.984 686.775 611.752C687.511 612.52 688.599 612.904 690.039 612.904ZM728.292 615.64H724.5L724.164 611.704C723.204 613.272 722.1 614.424 720.852 615.16C719.604 615.864 718.084 616.216 716.292 616.216C714.084 616.216 712.356 615.544 711.108 614.2C709.86 612.856 709.236 610.952 709.236 608.488V590.344H713.652V608.008C713.652 609.736 713.956 610.968 714.564 611.704C715.172 612.408 716.164 612.76 717.54 612.76C720.004 612.76 722.116 611.304 723.876 608.392V590.344H728.292V615.64ZM750.182 614.488C748.518 615.64 746.63 616.216 744.518 616.216C742.374 616.216 740.694 615.608 739.478 614.392C738.294 613.144 737.702 611.352 737.702 609.016V593.752H733.286V590.344H737.702V584.632L742.118 584.104V590.344H748.118L747.638 593.752H742.118V608.824C742.118 610.136 742.342 611.096 742.79 611.704C743.27 612.28 744.054 612.568 745.142 612.568C746.198 612.568 747.318 612.2 748.502 611.464L750.182 614.488ZM766.661 589.768C768.965 589.768 770.757 590.456 772.037 591.832C773.349 593.208 774.005 595.096 774.005 597.496V615.64H769.589V598.12C769.589 596.328 769.237 595.064 768.533 594.328C767.861 593.592 766.869 593.224 765.557 593.224C764.245 593.224 763.077 593.608 762.053 594.376C761.029 595.144 760.069 596.232 759.173 597.64V615.64H754.757V580.216L759.173 579.736V593.848C761.157 591.128 763.653 589.768 766.661 589.768ZM792.386 589.768C795.938 589.768 798.69 590.952 800.642 593.32C802.626 595.688 803.618 598.904 803.618 602.968C803.618 605.592 803.17 607.912 802.274 609.928C801.378 611.912 800.082 613.464 798.386 614.584C796.69 615.672 794.674 616.216 792.338 616.216C788.786 616.216 786.018 615.032 784.034 612.664C782.05 610.296 781.058 607.08 781.058 603.016C781.058 600.392 781.506 598.088 782.402 596.104C783.298 594.088 784.594 592.536 786.29 591.448C787.986 590.328 790.018 589.768 792.386 589.768ZM792.386 593.32C788.002 593.32 785.81 596.552 785.81 603.016C785.81 609.448 787.986 612.664 792.338 612.664C796.69 612.664 798.866 609.432 798.866 602.968C798.866 596.536 796.706 593.32 792.386 593.32ZM821.906 589.768C822.802 589.768 823.634 589.864 824.402 590.056L823.586 594.376C822.818 594.184 822.082 594.088 821.378 594.088C819.81 594.088 818.546 594.664 817.586 595.816C816.626 596.968 815.874 598.76 815.33 601.192V615.64H810.914V590.344H814.706L815.138 595.48C815.81 593.592 816.722 592.168 817.874 591.208C819.026 590.248 820.37 589.768 821.906 589.768ZM834.229 604.984C836.277 604.984 837.893 605.528 839.077 606.616C840.293 607.704 840.901 609.08 840.901 610.744C840.901 611.832 840.629 612.888 840.085 613.912C839.573 614.904 838.725 616.04 837.541 617.32C836.357 618.6 834.613 620.28 832.309 622.36H841.381L840.997 625.336H828.085V622.552C830.773 619.96 832.693 618.04 833.845 616.792C834.997 615.576 835.813 614.536 836.293 613.672C836.805 612.808 837.061 611.928 837.061 611.032C837.061 610.072 836.773 609.32 836.197 608.776C835.621 608.232 834.869 607.96 833.941 607.96C833.109 607.96 832.389 608.12 831.781 608.44C831.173 608.76 830.533 609.304 829.861 610.072L827.509 608.248C829.269 606.072 831.509 604.984 834.229 604.984Z" fill="black"/>
<path id="author3" d="M1039.41 609.736C1039.41 610.76 1039.58 611.528 1039.93 612.04C1040.29 612.52 1040.81 612.888 1041.52 613.144L1040.51 616.216C1039.2 616.056 1038.14 615.688 1037.34 615.112C1036.54 614.536 1035.95 613.64 1035.57 612.424C1033.87 614.952 1031.36 616.216 1028.03 616.216C1025.53 616.216 1023.57 615.512 1022.13 614.104C1020.69 612.696 1019.97 610.856 1019.97 608.584C1019.97 605.896 1020.93 603.832 1022.85 602.392C1024.8 600.952 1027.55 600.232 1031.1 600.232H1034.99V598.36C1034.99 596.568 1034.56 595.288 1033.69 594.52C1032.83 593.752 1031.5 593.368 1029.71 593.368C1027.85 593.368 1025.58 593.816 1022.89 594.712L1021.79 591.496C1024.93 590.344 1027.84 589.768 1030.53 589.768C1033.5 589.768 1035.73 590.504 1037.2 591.976C1038.67 593.416 1039.41 595.48 1039.41 598.168V609.736ZM1029.04 612.904C1031.57 612.904 1033.55 611.592 1034.99 608.968V603.16H1031.68C1027.01 603.16 1024.67 604.888 1024.67 608.344C1024.67 609.848 1025.04 610.984 1025.77 611.752C1026.51 612.52 1027.6 612.904 1029.04 612.904ZM1067.29 615.64H1063.5L1063.16 611.704C1062.2 613.272 1061.1 614.424 1059.85 615.16C1058.6 615.864 1057.08 616.216 1055.29 616.216C1053.08 616.216 1051.36 615.544 1050.11 614.2C1048.86 612.856 1048.24 610.952 1048.24 608.488V590.344H1052.65V608.008C1052.65 609.736 1052.96 610.968 1053.56 611.704C1054.17 612.408 1055.16 612.76 1056.54 612.76C1059 612.76 1061.12 611.304 1062.88 608.392V590.344H1067.29V615.64ZM1089.18 614.488C1087.52 615.64 1085.63 616.216 1083.52 616.216C1081.37 616.216 1079.69 615.608 1078.48 614.392C1077.29 613.144 1076.7 611.352 1076.7 609.016V593.752H1072.29V590.344H1076.7V584.632L1081.12 584.104V590.344H1087.12L1086.64 593.752H1081.12V608.824C1081.12 610.136 1081.34 611.096 1081.79 611.704C1082.27 612.28 1083.05 612.568 1084.14 612.568C1085.2 612.568 1086.32 612.2 1087.5 611.464L1089.18 614.488ZM1105.66 589.768C1107.97 589.768 1109.76 590.456 1111.04 591.832C1112.35 593.208 1113.01 595.096 1113.01 597.496V615.64H1108.59V598.12C1108.59 596.328 1108.24 595.064 1107.53 594.328C1106.86 593.592 1105.87 593.224 1104.56 593.224C1103.25 593.224 1102.08 593.608 1101.05 594.376C1100.03 595.144 1099.07 596.232 1098.17 597.64V615.64H1093.76V580.216L1098.17 579.736V593.848C1100.16 591.128 1102.65 589.768 1105.66 589.768ZM1131.39 589.768C1134.94 589.768 1137.69 590.952 1139.64 593.32C1141.63 595.688 1142.62 598.904 1142.62 602.968C1142.62 605.592 1142.17 607.912 1141.27 609.928C1140.38 611.912 1139.08 613.464 1137.39 614.584C1135.69 615.672 1133.67 616.216 1131.34 616.216C1127.79 616.216 1125.02 615.032 1123.03 612.664C1121.05 610.296 1120.06 607.08 1120.06 603.016C1120.06 600.392 1120.51 598.088 1121.4 596.104C1122.3 594.088 1123.59 592.536 1125.29 591.448C1126.99 590.328 1129.02 589.768 1131.39 589.768ZM1131.39 593.32C1127 593.32 1124.81 596.552 1124.81 603.016C1124.81 609.448 1126.99 612.664 1131.34 612.664C1135.69 612.664 1137.87 609.432 1137.87 602.968C1137.87 596.536 1135.71 593.32 1131.39 593.32ZM1160.91 589.768C1161.8 589.768 1162.63 589.864 1163.4 590.056L1162.59 594.376C1161.82 594.184 1161.08 594.088 1160.38 594.088C1158.81 594.088 1157.55 594.664 1156.59 595.816C1155.63 596.968 1154.87 598.76 1154.33 601.192V615.64H1149.91V590.344H1153.71L1154.14 595.48C1154.81 593.592 1155.72 592.168 1156.87 591.208C1158.03 590.248 1159.37 589.768 1160.91 589.768ZM1173.33 604.984C1175.37 604.984 1176.97 605.464 1178.13 606.424C1179.31 607.384 1179.9 608.584 1179.9 610.024C1179.9 611.24 1179.53 612.248 1178.8 613.048C1178.06 613.848 1177.05 614.408 1175.77 614.728C1177.18 614.856 1178.33 615.336 1179.23 616.168C1180.13 617 1180.57 618.152 1180.57 619.624C1180.57 621.384 1179.89 622.84 1178.51 623.992C1177.17 625.176 1175.34 625.768 1173.04 625.768C1170.25 625.768 1168.03 624.808 1166.37 622.888L1168.53 620.872C1169.74 622.184 1171.18 622.84 1172.85 622.84C1174.03 622.84 1174.96 622.536 1175.63 621.928C1176.33 621.32 1176.69 620.488 1176.69 619.432C1176.69 618.28 1176.35 617.448 1175.68 616.936C1175.04 616.456 1174.09 616.216 1172.85 616.216H1171.21L1171.65 613.528H1172.75C1173.77 613.528 1174.61 613.272 1175.25 612.76C1175.89 612.216 1176.21 611.464 1176.21 610.504C1176.21 609.672 1175.92 609.016 1175.34 608.536C1174.77 608.056 1174 607.816 1173.04 607.816C1172.24 607.816 1171.5 607.96 1170.83 608.248C1170.16 608.536 1169.49 608.984 1168.81 609.592L1166.89 607.48C1168.75 605.816 1170.89 604.984 1173.33 604.984Z" fill="black"/>
<path id="author4" d="M1378.41 609.736C1378.41 610.76 1378.58 611.528 1378.93 612.04C1379.29 612.52 1379.81 612.888 1380.52 613.144L1379.51 616.216C1378.2 616.056 1377.14 615.688 1376.34 615.112C1375.54 614.536 1374.95 613.64 1374.57 612.424C1372.87 614.952 1370.36 616.216 1367.03 616.216C1364.53 616.216 1362.57 615.512 1361.13 614.104C1359.69 612.696 1358.97 610.856 1358.97 608.584C1358.97 605.896 1359.93 603.832 1361.85 602.392C1363.8 600.952 1366.55 600.232 1370.1 600.232H1373.99V598.36C1373.99 596.568 1373.56 595.288 1372.69 594.52C1371.83 593.752 1370.5 593.368 1368.71 593.368C1366.85 593.368 1364.58 593.816 1361.89 594.712L1360.79 591.496C1363.93 590.344 1366.84 589.768 1369.53 589.768C1372.5 589.768 1374.73 590.504 1376.2 591.976C1377.67 593.416 1378.41 595.48 1378.41 598.168V609.736ZM1368.04 612.904C1370.57 612.904 1372.55 611.592 1373.99 608.968V603.16H1370.68C1366.01 603.16 1363.67 604.888 1363.67 608.344C1363.67 609.848 1364.04 610.984 1364.77 611.752C1365.51 612.52 1366.6 612.904 1368.04 612.904ZM1406.29 615.64H1402.5L1402.16 611.704C1401.2 613.272 1400.1 614.424 1398.85 615.16C1397.6 615.864 1396.08 616.216 1394.29 616.216C1392.08 616.216 1390.36 615.544 1389.11 614.2C1387.86 612.856 1387.24 610.952 1387.24 608.488V590.344H1391.65V608.008C1391.65 609.736 1391.96 610.968 1392.56 611.704C1393.17 612.408 1394.16 612.76 1395.54 612.76C1398 612.76 1400.12 611.304 1401.88 608.392V590.344H1406.29V615.64ZM1428.18 614.488C1426.52 615.64 1424.63 616.216 1422.52 616.216C1420.37 616.216 1418.69 615.608 1417.48 614.392C1416.29 613.144 1415.7 611.352 1415.7 609.016V593.752H1411.29V590.344H1415.7V584.632L1420.12 584.104V590.344H1426.12L1425.64 593.752H1420.12V608.824C1420.12 610.136 1420.34 611.096 1420.79 611.704C1421.27 612.28 1422.05 612.568 1423.14 612.568C1424.2 612.568 1425.32 612.2 1426.5 611.464L1428.18 614.488ZM1444.66 589.768C1446.97 589.768 1448.76 590.456 1450.04 591.832C1451.35 593.208 1452.01 595.096 1452.01 597.496V615.64H1447.59V598.12C1447.59 596.328 1447.24 595.064 1446.53 594.328C1445.86 593.592 1444.87 593.224 1443.56 593.224C1442.25 593.224 1441.08 593.608 1440.05 594.376C1439.03 595.144 1438.07 596.232 1437.17 597.64V615.64H1432.76V580.216L1437.17 579.736V593.848C1439.16 591.128 1441.65 589.768 1444.66 589.768ZM1470.39 589.768C1473.94 589.768 1476.69 590.952 1478.64 593.32C1480.63 595.688 1481.62 598.904 1481.62 602.968C1481.62 605.592 1481.17 607.912 1480.27 609.928C1479.38 611.912 1478.08 613.464 1476.39 614.584C1474.69 615.672 1472.67 616.216 1470.34 616.216C1466.79 616.216 1464.02 615.032 1462.03 612.664C1460.05 610.296 1459.06 607.08 1459.06 603.016C1459.06 600.392 1459.51 598.088 1460.4 596.104C1461.3 594.088 1462.59 592.536 1464.29 591.448C1465.99 590.328 1468.02 589.768 1470.39 589.768ZM1470.39 593.32C1466 593.32 1463.81 596.552 1463.81 603.016C1463.81 609.448 1465.99 612.664 1470.34 612.664C1474.69 612.664 1476.87 609.432 1476.87 602.968C1476.87 596.536 1474.71 593.32 1470.39 593.32ZM1499.91 589.768C1500.8 589.768 1501.63 589.864 1502.4 590.056L1501.59 594.376C1500.82 594.184 1500.08 594.088 1499.38 594.088C1497.81 594.088 1496.55 594.664 1495.59 595.816C1494.63 596.968 1493.87 598.76 1493.33 601.192V615.64H1488.91V590.344H1492.71L1493.14 595.48C1493.81 593.592 1494.72 592.168 1495.87 591.208C1497.03 590.248 1498.37 589.768 1499.91 589.768ZM1520.01 620.728H1517.46V625.336H1513.81V620.728H1504.89V618.136L1511.03 604.984L1514.2 606.184L1508.77 617.848H1513.86L1514.2 612.808H1517.46V617.848H1520.01V620.728Z" fill="black"/>
<path id="author5" d="M1717.41 609.736C1717.41 610.76 1717.58 611.528 1717.93 612.04C1718.29 612.52 1718.81 612.888 1719.52 613.144L1718.51 616.216C1717.2 616.056 1716.14 615.688 1715.34 615.112C1714.54 614.536 1713.95 613.64 1713.57 612.424C1711.87 614.952 1709.36 616.216 1706.03 616.216C1703.53 616.216 1701.57 615.512 1700.13 614.104C1698.69 612.696 1697.97 610.856 1697.97 608.584C1697.97 605.896 1698.93 603.832 1700.85 602.392C1702.8 600.952 1705.55 600.232 1709.1 600.232H1712.99V598.36C1712.99 596.568 1712.56 595.288 1711.69 594.52C1710.83 593.752 1709.5 593.368 1707.71 593.368C1705.85 593.368 1703.58 593.816 1700.89 594.712L1699.79 591.496C1702.93 590.344 1705.84 589.768 1708.53 589.768C1711.5 589.768 1713.73 590.504 1715.2 591.976C1716.67 593.416 1717.41 595.48 1717.41 598.168V609.736ZM1707.04 612.904C1709.57 612.904 1711.55 611.592 1712.99 608.968V603.16H1709.68C1705.01 603.16 1702.67 604.888 1702.67 608.344C1702.67 609.848 1703.04 610.984 1703.77 611.752C1704.51 612.52 1705.6 612.904 1707.04 612.904ZM1745.29 615.64H1741.5L1741.16 611.704C1740.2 613.272 1739.1 614.424 1737.85 615.16C1736.6 615.864 1735.08 616.216 1733.29 616.216C1731.08 616.216 1729.36 615.544 1728.11 614.2C1726.86 612.856 1726.24 610.952 1726.24 608.488V590.344H1730.65V608.008C1730.65 609.736 1730.96 610.968 1731.56 611.704C1732.17 612.408 1733.16 612.76 1734.54 612.76C1737 612.76 1739.12 611.304 1740.88 608.392V590.344H1745.29V615.64ZM1767.18 614.488C1765.52 615.64 1763.63 616.216 1761.52 616.216C1759.37 616.216 1757.69 615.608 1756.48 614.392C1755.29 613.144 1754.7 611.352 1754.7 609.016V593.752H1750.29V590.344H1754.7V584.632L1759.12 584.104V590.344H1765.12L1764.64 593.752H1759.12V608.824C1759.12 610.136 1759.34 611.096 1759.79 611.704C1760.27 612.28 1761.05 612.568 1762.14 612.568C1763.2 612.568 1764.32 612.2 1765.5 611.464L1767.18 614.488ZM1783.66 589.768C1785.97 589.768 1787.76 590.456 1789.04 591.832C1790.35 593.208 1791.01 595.096 1791.01 597.496V615.64H1786.59V598.12C1786.59 596.328 1786.24 595.064 1785.53 594.328C1784.86 593.592 1783.87 593.224 1782.56 593.224C1781.25 593.224 1780.08 593.608 1779.05 594.376C1778.03 595.144 1777.07 596.232 1776.17 597.64V615.64H1771.76V580.216L1776.17 579.736V593.848C1778.16 591.128 1780.65 589.768 1783.66 589.768ZM1809.39 589.768C1812.94 589.768 1815.69 590.952 1817.64 593.32C1819.63 595.688 1820.62 598.904 1820.62 602.968C1820.62 605.592 1820.17 607.912 1819.27 609.928C1818.38 611.912 1817.08 613.464 1815.39 614.584C1813.69 615.672 1811.67 616.216 1809.34 616.216C1805.79 616.216 1803.02 615.032 1801.03 612.664C1799.05 610.296 1798.06 607.08 1798.06 603.016C1798.06 600.392 1798.51 598.088 1799.4 596.104C1800.3 594.088 1801.59 592.536 1803.29 591.448C1804.99 590.328 1807.02 589.768 1809.39 589.768ZM1809.39 593.32C1805 593.32 1802.81 596.552 1802.81 603.016C1802.81 609.448 1804.99 612.664 1809.34 612.664C1813.69 612.664 1815.87 609.432 1815.87 602.968C1815.87 596.536 1813.71 593.32 1809.39 593.32ZM1838.91 589.768C1839.8 589.768 1840.63 589.864 1841.4 590.056L1840.59 594.376C1839.82 594.184 1839.08 594.088 1838.38 594.088C1836.81 594.088 1835.55 594.664 1834.59 595.816C1833.63 596.968 1832.87 598.76 1832.33 601.192V615.64H1827.91V590.344H1831.71L1832.14 595.48C1832.81 593.592 1833.72 592.168 1834.87 591.208C1836.03 590.248 1837.37 589.768 1838.91 589.768ZM1857.28 608.104H1849.36V613.096C1850.41 612.616 1851.49 612.376 1852.57 612.376C1854.37 612.376 1855.81 612.952 1856.89 614.104C1858.01 615.256 1858.57 616.824 1858.57 618.808C1858.57 620.888 1857.87 622.568 1856.46 623.848C1855.05 625.128 1853.2 625.768 1850.89 625.768C1848.33 625.768 1846.16 624.84 1844.37 622.984L1846.57 620.92C1847.76 622.2 1849.17 622.84 1850.8 622.84C1852.01 622.84 1852.97 622.488 1853.68 621.784C1854.38 621.112 1854.73 620.12 1854.73 618.808C1854.73 616.312 1853.58 615.064 1851.28 615.064C1850.38 615.064 1849.45 615.304 1848.49 615.784H1845.76V605.32H1857.76L1857.28 608.104Z" fill="black"/>
<path id="paper1" d="M535.03 887.768C538.262 887.768 540.63 888.92 542.134 891.224C543.638 893.528 544.39 896.776 544.39 900.968C544.39 904.936 543.526 908.136 541.798 910.568C540.07 913 537.622 914.216 534.454 914.216C531.638 914.216 529.43 913.256 527.83 911.336V923.336L523.414 923.864V888.344H527.206L527.542 891.752C528.47 890.472 529.59 889.496 530.902 888.824C532.214 888.12 533.59 887.768 535.03 887.768ZM533.398 910.616C537.558 910.616 539.638 907.4 539.638 900.968C539.638 894.504 537.734 891.272 533.926 891.272C532.678 891.272 531.542 891.64 530.518 892.376C529.494 893.112 528.598 894.056 527.83 895.208V907.544C528.47 908.536 529.27 909.304 530.23 909.848C531.19 910.36 532.246 910.616 533.398 910.616ZM568.954 907.736C568.954 908.76 569.13 909.528 569.482 910.04C569.834 910.52 570.362 910.888 571.066 911.144L570.058 914.216C568.746 914.056 567.69 913.688 566.89 913.112C566.09 912.536 565.498 911.64 565.114 910.424C563.418 912.952 560.906 914.216 557.578 914.216C555.082 914.216 553.114 913.512 551.674 912.104C550.234 910.696 549.514 908.856 549.514 906.584C549.514 903.896 550.474 901.832 552.394 900.392C554.346 898.952 557.098 898.232 560.65 898.232H564.538V896.36C564.538 894.568 564.106 893.288 563.242 892.52C562.378 891.752 561.05 891.368 559.258 891.368C557.402 891.368 555.13 891.816 552.442 892.712L551.338 889.496C554.474 888.344 557.386 887.768 560.074 887.768C563.05 887.768 565.274 888.504 566.746 889.976C568.218 891.416 568.954 893.48 568.954 896.168V907.736ZM558.586 910.904C561.114 910.904 563.098 909.592 564.538 906.968V901.16H561.226C556.554 901.16 554.218 902.888 554.218 906.344C554.218 907.848 554.586 908.984 555.322 909.752C556.058 910.52 557.146 910.904 558.586 910.904ZM589.639 887.768C592.871 887.768 595.239 888.92 596.743 891.224C598.247 893.528 598.999 896.776 598.999 900.968C598.999 904.936 598.135 908.136 596.407 910.568C594.679 913 592.231 914.216 589.063 914.216C586.247 914.216 584.039 913.256 582.439 911.336V923.336L578.023 923.864V888.344H581.815L582.151 891.752C583.079 890.472 584.199 889.496 585.511 888.824C586.823 888.12 588.199 887.768 589.639 887.768ZM588.007 910.616C592.167 910.616 594.247 907.4 594.247 900.968C594.247 894.504 592.343 891.272 588.535 891.272C587.287 891.272 586.151 891.64 585.127 892.376C584.103 893.112 583.207 894.056 582.439 895.208V907.544C583.079 908.536 583.879 909.304 584.839 909.848C585.799 910.36 586.855 910.616 588.007 910.616ZM625.627 900.248C625.627 900.984 625.595 901.736 625.531 902.504H609.403C609.595 905.288 610.299 907.336 611.515 908.648C612.731 909.96 614.299 910.616 616.219 910.616C617.435 910.616 618.555 910.44 619.579 910.088C620.603 909.736 621.675 909.176 622.795 908.408L624.715 911.048C622.027 913.16 619.083 914.216 615.883 914.216C612.363 914.216 609.611 913.064 607.627 910.76C605.675 908.456 604.699 905.288 604.699 901.256C604.699 898.632 605.115 896.312 605.947 894.296C606.811 892.248 608.027 890.648 609.595 889.496C611.195 888.344 613.067 887.768 615.211 887.768C618.571 887.768 621.147 888.872 622.939 891.08C624.731 893.288 625.627 896.344 625.627 900.248ZM621.259 898.952C621.259 896.456 620.763 894.552 619.771 893.24C618.779 891.928 617.291 891.272 615.307 891.272C611.691 891.272 609.723 893.928 609.403 899.24H621.259V898.952ZM643.906 887.768C644.802 887.768 645.634 887.864 646.402 888.056L645.586 892.376C644.818 892.184 644.082 892.088 643.378 892.088C641.81 892.088 640.546 892.664 639.586 893.816C638.626 894.968 637.874 896.76 637.33 899.192V913.64H632.914V888.344H636.706L637.138 893.48C637.81 891.592 638.722 890.168 639.874 889.208C641.026 888.248 642.37 887.768 643.906 887.768ZM660.021 923.336H656.325V907.112L651.621 909.848L649.989 907.304L656.709 903.32H660.021V923.336Z" fill="black"/>
<path id="paper2" d="M885.03 887.768C888.262 887.768 890.63 888.92 892.134 891.224C893.638 893.528 894.39 896.776 894.39 900.968C894.39 904.936 893.526 908.136 891.798 910.568C890.07 913 887.622 914.216 884.454 914.216C881.638 914.216 879.43 913.256 877.83 911.336V923.336L873.414 923.864V888.344H877.206L877.542 891.752C878.47 890.472 879.59 889.496 880.902 888.824C882.214 888.12 883.59 887.768 885.03 887.768ZM883.398 910.616C887.558 910.616 889.638 907.4 889.638 900.968C889.638 894.504 887.734 891.272 883.926 891.272C882.678 891.272 881.542 891.64 880.518 892.376C879.494 893.112 878.598 894.056 877.83 895.208V907.544C878.47 908.536 879.27 909.304 880.23 909.848C881.19 910.36 882.246 910.616 883.398 910.616ZM918.954 907.736C918.954 908.76 919.13 909.528 919.482 910.04C919.834 910.52 920.362 910.888 921.066 911.144L920.058 914.216C918.746 914.056 917.69 913.688 916.89 913.112C916.09 912.536 915.498 911.64 915.114 910.424C913.418 912.952 910.906 914.216 907.578 914.216C905.082 914.216 903.114 913.512 901.674 912.104C900.234 910.696 899.514 908.856 899.514 906.584C899.514 903.896 900.474 901.832 902.394 900.392C904.346 898.952 907.098 898.232 910.65 898.232H914.538V896.36C914.538 894.568 914.106 893.288 913.242 892.52C912.378 891.752 911.05 891.368 909.258 891.368C907.402 891.368 905.13 891.816 902.442 892.712L901.338 889.496C904.474 888.344 907.386 887.768 910.074 887.768C913.05 887.768 915.274 888.504 916.746 889.976C918.218 891.416 918.954 893.48 918.954 896.168V907.736ZM908.586 910.904C911.114 910.904 913.098 909.592 914.538 906.968V901.16H911.226C906.554 901.16 904.218 902.888 904.218 906.344C904.218 907.848 904.586 908.984 905.322 909.752C906.058 910.52 907.146 910.904 908.586 910.904ZM939.639 887.768C942.871 887.768 945.239 888.92 946.743 891.224C948.247 893.528 948.999 896.776 948.999 900.968C948.999 904.936 948.135 908.136 946.407 910.568C944.679 913 942.231 914.216 939.063 914.216C936.247 914.216 934.039 913.256 932.439 911.336V923.336L928.023 923.864V888.344H931.815L932.151 891.752C933.079 890.472 934.199 889.496 935.511 888.824C936.823 888.12 938.199 887.768 939.639 887.768ZM938.007 910.616C942.167 910.616 944.247 907.4 944.247 900.968C944.247 894.504 942.343 891.272 938.535 891.272C937.287 891.272 936.151 891.64 935.127 892.376C934.103 893.112 933.207 894.056 932.439 895.208V907.544C933.079 908.536 933.879 909.304 934.839 909.848C935.799 910.36 936.855 910.616 938.007 910.616ZM975.627 900.248C975.627 900.984 975.595 901.736 975.531 902.504H959.403C959.595 905.288 960.299 907.336 961.515 908.648C962.731 909.96 964.299 910.616 966.219 910.616C967.435 910.616 968.555 910.44 969.579 910.088C970.603 909.736 971.675 909.176 972.795 908.408L974.715 911.048C972.027 913.16 969.083 914.216 965.883 914.216C962.363 914.216 959.611 913.064 957.627 910.76C955.675 908.456 954.699 905.288 954.699 901.256C954.699 898.632 955.115 896.312 955.947 894.296C956.811 892.248 958.027 890.648 959.595 889.496C961.195 888.344 963.067 887.768 965.211 887.768C968.571 887.768 971.147 888.872 972.939 891.08C974.731 893.288 975.627 896.344 975.627 900.248ZM971.259 898.952C971.259 896.456 970.763 894.552 969.771 893.24C968.779 891.928 967.291 891.272 965.307 891.272C961.691 891.272 959.723 893.928 959.403 899.24H971.259V898.952ZM993.906 887.768C994.802 887.768 995.634 887.864 996.402 888.056L995.586 892.376C994.818 892.184 994.082 892.088 993.378 892.088C991.81 892.088 990.546 892.664 989.586 893.816C988.626 894.968 987.874 896.76 987.33 899.192V913.64H982.914V888.344H986.706L987.138 893.48C987.81 891.592 988.722 890.168 989.874 889.208C991.026 888.248 992.37 887.768 993.906 887.768ZM1006.23 902.984C1008.28 902.984 1009.89 903.528 1011.08 904.616C1012.29 905.704 1012.9 907.08 1012.9 908.744C1012.9 909.832 1012.63 910.888 1012.09 911.912C1011.57 912.904 1010.73 914.04 1009.54 915.32C1008.36 916.6 1006.61 918.28 1004.31 920.36H1013.38L1013 923.336H1000.09V920.552C1002.77 917.96 1004.69 916.04 1005.85 914.792C1007 913.576 1007.81 912.536 1008.29 911.672C1008.81 910.808 1009.06 909.928 1009.06 909.032C1009.06 908.072 1008.77 907.32 1008.2 906.776C1007.62 906.232 1006.87 905.96 1005.94 905.96C1005.11 905.96 1004.39 906.12 1003.78 906.44C1003.17 906.76 1002.53 907.304 1001.86 908.072L999.509 906.248C1001.27 904.072 1003.51 902.984 1006.23 902.984Z" fill="black"/>
<path id="paper3" d="M1391.11 887.296C1394.34 887.296 1396.71 888.448 1398.21 890.752C1399.72 893.056 1400.47 896.304 1400.47 900.496C1400.47 904.464 1399.61 907.664 1397.88 910.096C1396.15 912.528 1393.7 913.744 1390.53 913.744C1387.72 913.744 1385.51 912.784 1383.91 910.864V922.864L1379.49 923.392V887.872H1383.29L1383.62 891.28C1384.55 890 1385.67 889.024 1386.98 888.352C1388.29 887.648 1389.67 887.296 1391.11 887.296ZM1389.48 910.144C1393.64 910.144 1395.72 906.928 1395.72 900.496C1395.72 894.032 1393.81 890.8 1390.01 890.8C1388.76 890.8 1387.62 891.168 1386.6 891.904C1385.57 892.64 1384.68 893.584 1383.91 894.736V907.072C1384.55 908.064 1385.35 908.832 1386.31 909.376C1387.27 909.888 1388.33 910.144 1389.48 910.144ZM1425.03 907.264C1425.03 908.288 1425.21 909.056 1425.56 909.568C1425.91 910.048 1426.44 910.416 1427.15 910.672L1426.14 913.744C1424.83 913.584 1423.77 913.216 1422.97 912.64C1422.17 912.064 1421.58 911.168 1421.19 909.952C1419.5 912.48 1416.99 913.744 1413.66 913.744C1411.16 913.744 1409.19 913.04 1407.75 911.632C1406.31 910.224 1405.59 908.384 1405.59 906.112C1405.59 903.424 1406.55 901.36 1408.47 899.92C1410.43 898.48 1413.18 897.76 1416.73 897.76H1420.62V895.888C1420.62 894.096 1420.19 892.816 1419.32 892.048C1418.46 891.28 1417.13 890.896 1415.34 890.896C1413.48 890.896 1411.21 891.344 1408.52 892.24L1407.42 889.024C1410.55 887.872 1413.47 887.296 1416.15 887.296C1419.13 887.296 1421.35 888.032 1422.83 889.504C1424.3 890.944 1425.03 893.008 1425.03 895.696V907.264ZM1414.67 910.432C1417.19 910.432 1419.18 909.12 1420.62 906.496V900.688H1417.31C1412.63 900.688 1410.3 902.416 1410.3 905.872C1410.3 907.376 1410.67 908.512 1411.4 909.28C1412.14 910.048 1413.23 910.432 1414.67 910.432ZM1445.72 887.296C1448.95 887.296 1451.32 888.448 1452.82 890.752C1454.33 893.056 1455.08 896.304 1455.08 900.496C1455.08 904.464 1454.21 907.664 1452.49 910.096C1450.76 912.528 1448.31 913.744 1445.14 913.744C1442.33 913.744 1440.12 912.784 1438.52 910.864V922.864L1434.1 923.392V887.872H1437.89L1438.23 891.28C1439.16 890 1440.28 889.024 1441.59 888.352C1442.9 887.648 1444.28 887.296 1445.72 887.296ZM1444.09 910.144C1448.25 910.144 1450.33 906.928 1450.33 900.496C1450.33 894.032 1448.42 890.8 1444.61 890.8C1443.37 890.8 1442.23 891.168 1441.21 891.904C1440.18 892.64 1439.29 893.584 1438.52 894.736V907.072C1439.16 908.064 1439.96 908.832 1440.92 909.376C1441.88 909.888 1442.93 910.144 1444.09 910.144ZM1481.71 899.776C1481.71 900.512 1481.67 901.264 1481.61 902.032H1465.48C1465.67 904.816 1466.38 906.864 1467.59 908.176C1468.81 909.488 1470.38 910.144 1472.3 910.144C1473.51 910.144 1474.63 909.968 1475.66 909.616C1476.68 909.264 1477.75 908.704 1478.87 907.936L1480.79 910.576C1478.11 912.688 1475.16 913.744 1471.96 913.744C1468.44 913.744 1465.69 912.592 1463.71 910.288C1461.75 907.984 1460.78 904.816 1460.78 900.784C1460.78 898.16 1461.19 895.84 1462.03 893.824C1462.89 891.776 1464.11 890.176 1465.67 889.024C1467.27 887.872 1469.15 887.296 1471.29 887.296C1474.65 887.296 1477.23 888.4 1479.02 890.608C1480.81 892.816 1481.71 895.872 1481.71 899.776ZM1477.34 898.48C1477.34 895.984 1476.84 894.08 1475.85 892.768C1474.86 891.456 1473.37 890.8 1471.39 890.8C1467.77 890.8 1465.8 893.456 1465.48 898.768H1477.34V898.48ZM1499.99 887.296C1500.88 887.296 1501.71 887.392 1502.48 887.584L1501.67 891.904C1500.9 891.712 1500.16 891.616 1499.46 891.616C1497.89 891.616 1496.63 892.192 1495.67 893.344C1494.71 894.496 1493.95 896.288 1493.41 898.72V913.168H1488.99V887.872H1492.79L1493.22 893.008C1493.89 891.12 1494.8 889.696 1495.95 888.736C1497.11 887.776 1498.45 887.296 1499.99 887.296ZM1512.41 902.512C1514.45 902.512 1516.05 902.992 1517.21 903.952C1518.39 904.912 1518.98 906.112 1518.98 907.552C1518.98 908.768 1518.61 909.776 1517.88 910.576C1517.14 911.376 1516.13 911.936 1514.85 912.256C1516.26 912.384 1517.41 912.864 1518.31 913.696C1519.21 914.528 1519.65 915.68 1519.65 917.152C1519.65 918.912 1518.97 920.368 1517.59 921.52C1516.25 922.704 1514.42 923.296 1512.12 923.296C1509.33 923.296 1507.11 922.336 1505.45 920.416L1507.61 918.4C1508.82 919.712 1510.26 920.368 1511.93 920.368C1513.11 920.368 1514.04 920.064 1514.71 919.456C1515.41 918.848 1515.77 918.016 1515.77 916.96C1515.77 915.808 1515.43 914.976 1514.76 914.464C1514.12 913.984 1513.17 913.744 1511.93 913.744H1510.29L1510.73 911.056H1511.83C1512.85 911.056 1513.69 910.8 1514.33 910.288C1514.97 909.744 1515.29 908.992 1515.29 908.032C1515.29 907.2 1515 906.544 1514.42 906.064C1513.85 905.584 1513.08 905.344 1512.12 905.344C1511.32 905.344 1510.58 905.488 1509.91 905.776C1509.24 906.064 1508.57 906.512 1507.89 907.12L1505.97 905.008C1507.83 903.344 1509.97 902.512 1512.41 902.512Z" fill="black"/>
<g id="wrote">
<path id="Arrow 2" d="M567.915 840.137C569.004 840.323 570.037 839.591 570.223 838.502L573.253 820.759C573.438 819.67 572.706 818.637 571.618 818.451C570.529 818.265 569.495 818.997 569.31 820.086L566.617 835.857L550.845 833.165C549.756 832.979 548.723 833.711 548.537 834.8C548.351 835.888 549.083 836.922 550.172 837.108L567.915 840.137ZM441.088 658.64L439.456 659.796L566.62 839.322L568.252 838.166L569.884 837.009L442.72 657.484L441.088 658.64Z" fill="#FF2D55"/>
<path id="Arrow 3" d="M602.425 840.137C601.336 840.323 600.303 839.591 600.117 838.502L597.087 820.759C596.901 819.67 597.633 818.637 598.722 818.451C599.811 818.265 600.844 818.997 601.03 820.086L603.723 835.857L619.495 833.165C620.584 832.979 621.617 833.711 621.803 834.8C621.989 835.888 621.257 836.922 620.168 837.108L602.425 840.137ZM729.252 658.64L730.884 659.796L603.72 839.322L602.088 838.166L600.456 837.009L727.62 657.484L729.252 658.64Z" fill="#FF2D55"/>
<path id="Arrow 4" d="M924.915 840.137C926.004 840.323 927.037 839.591 927.223 838.502L930.253 820.759C930.438 819.67 929.706 818.637 928.618 818.451C927.529 818.265 926.495 818.997 926.31 820.086L923.617 835.857L907.845 833.165C906.756 832.979 905.723 833.711 905.537 834.8C905.351 835.888 906.083 836.922 907.172 837.108L924.915 840.137ZM798.088 658.64L796.456 659.796L923.62 839.322L925.252 838.166L926.884 837.009L799.72 657.484L798.088 658.64Z" fill="#FF2D55"/>
<path id="Arrow 5" d="M959.425 840.137C958.336 840.323 957.303 839.591 957.117 838.502L954.087 820.759C953.901 819.67 954.633 818.637 955.722 818.451C956.811 818.265 957.844 818.997 958.03 820.086L960.723 835.857L976.495 833.165C977.584 832.979 978.617 833.711 978.803 834.8C978.989 835.888 978.257 836.922 977.168 837.108L959.425 840.137ZM1086.25 658.64L1087.88 659.796L960.72 839.322L959.088 838.166L957.456 837.009L1084.62 657.484L1086.25 658.64Z" fill="#FF2D55"/>
<path id="Arrow 6" d="M1391.95 870.156C1393.05 870.277 1394.03 869.486 1394.16 868.388L1396.13 850.497C1396.25 849.399 1395.46 848.41 1394.36 848.289C1393.27 848.168 1392.28 848.96 1392.16 850.057L1390.4 865.961L1374.5 864.204C1373.4 864.083 1372.41 864.875 1372.29 865.973C1372.17 867.071 1372.96 868.059 1374.06 868.18L1391.95 870.156ZM1126.17 658.168L1125.77 660.127C1154.64 666.05 1185.63 682.009 1215.96 702.756C1246.26 723.487 1275.77 748.909 1301.66 773.615C1327.55 798.317 1349.79 822.274 1365.56 840.058C1373.45 848.949 1379.71 856.294 1384 861.414C1386.15 863.974 1387.8 865.978 1388.92 867.34C1389.48 868.022 1389.9 868.542 1390.18 868.892C1390.32 869.067 1390.43 869.2 1390.5 869.288C1390.54 869.332 1390.56 869.365 1390.58 869.387C1390.59 869.398 1390.6 869.406 1390.6 869.411C1390.6 869.414 1390.6 869.416 1390.61 869.417C1390.61 869.418 1390.61 869.419 1392.17 868.168C1393.73 866.918 1393.73 866.917 1393.73 866.915C1393.73 866.914 1393.72 866.911 1393.72 866.908C1393.72 866.902 1393.71 866.894 1393.7 866.882C1393.68 866.859 1393.65 866.824 1393.62 866.779C1393.54 866.688 1393.44 866.553 1393.29 866.376C1393 866.02 1392.58 865.494 1392.01 864.807C1390.89 863.433 1389.23 861.417 1387.07 858.844C1382.76 853.699 1376.47 846.325 1368.56 837.404C1352.73 819.562 1330.41 795.52 1304.42 770.721C1278.44 745.927 1248.76 720.349 1218.22 699.455C1187.7 678.577 1156.2 662.286 1126.57 656.209L1126.17 658.168Z" fill="#FF2D55"/>
<path id="Arrow 7" d="M1488.21 868.587C1488.44 869.668 1489.51 870.355 1490.59 870.124L1508.19 866.35C1509.27 866.119 1509.96 865.056 1509.72 863.976C1509.49 862.896 1508.43 862.208 1507.35 862.439L1491.7 865.793L1488.35 850.149C1488.12 849.069 1487.06 848.381 1485.98 848.613C1484.9 848.844 1484.21 849.907 1484.44 850.987L1488.21 868.587ZM1753.25 658.64L1753.03 656.653C1683.49 664.501 1617.29 717.352 1568.68 767.84C1544.32 793.133 1524.28 817.933 1510.33 836.408C1503.36 845.647 1497.9 853.308 1494.19 858.662C1492.33 861.339 1490.91 863.44 1489.95 864.874C1489.47 865.591 1489.11 866.141 1488.86 866.512C1488.74 866.698 1488.65 866.84 1488.58 866.935C1488.55 866.983 1488.53 867.019 1488.51 867.043C1488.51 867.056 1488.5 867.065 1488.5 867.072C1488.49 867.075 1488.49 867.077 1488.49 867.079C1488.49 867.081 1488.49 867.082 1490.17 868.168C1491.85 869.255 1491.85 869.254 1491.85 869.253C1491.85 869.252 1491.85 869.25 1491.85 869.247C1491.86 869.242 1491.86 869.233 1491.87 869.222C1491.88 869.2 1491.9 869.166 1491.93 869.12C1491.99 869.029 1492.08 868.892 1492.2 868.71C1492.44 868.347 1492.8 867.805 1493.27 867.098C1494.22 865.682 1495.63 863.6 1497.47 860.942C1501.16 855.626 1506.58 848.009 1513.52 838.818C1527.4 820.433 1547.34 795.763 1571.56 770.614C1620.08 720.22 1685.43 668.307 1753.48 660.628L1753.25 658.64Z" fill="#FF2D55"/>
<rect id="Rectangle 3" x="447.088" y="718.64" width="1299" height="38" fill="white" fill-opacity="0.85"/>
<path id="wrote_2" d="M482.052 748.64H478.052L475.108 734.432L472.068 748.64H468.164L464.228 731.776H467.172L470.212 746.592L473.54 731.776H476.836L480.004 746.592L483.076 731.776H485.892L482.052 748.64ZM496.893 731.392C497.491 731.392 498.045 731.456 498.557 731.584L498.013 734.464C497.501 734.336 497.011 734.272 496.541 734.272C495.496 734.272 494.653 734.656 494.013 735.424C493.373 736.192 492.872 737.387 492.509 739.008V748.64H489.565V731.776H492.093L492.381 735.2C492.829 733.941 493.437 732.992 494.205 732.352C494.973 731.712 495.869 731.392 496.893 731.392ZM507.933 731.392C510.301 731.392 512.135 732.181 513.437 733.76C514.759 735.339 515.421 737.483 515.421 740.192C515.421 741.941 515.122 743.488 514.525 744.832C513.927 746.155 513.063 747.189 511.933 747.936C510.802 748.661 509.458 749.024 507.901 749.024C505.533 749.024 503.687 748.235 502.365 746.656C501.042 745.077 500.381 742.933 500.381 740.224C500.381 738.475 500.679 736.939 501.277 735.616C501.874 734.272 502.738 733.237 503.869 732.512C504.999 731.765 506.354 731.392 507.933 731.392ZM507.933 733.76C505.01 733.76 503.549 735.915 503.549 740.224C503.549 744.512 504.999 746.656 507.901 746.656C510.802 746.656 512.253 744.501 512.253 740.192C512.253 735.904 510.813 733.76 507.933 733.76ZM528.796 747.872C527.687 748.64 526.428 749.024 525.02 749.024C523.591 749.024 522.471 748.619 521.66 747.808C520.871 746.976 520.476 745.781 520.476 744.224V734.048H517.532V731.776H520.476V727.968L523.42 727.616V731.776H527.42L527.1 734.048H523.42V744.096C523.42 744.971 523.569 745.611 523.868 746.016C524.188 746.4 524.711 746.592 525.436 746.592C526.14 746.592 526.887 746.347 527.676 745.856L528.796 747.872ZM544.27 739.712C544.27 740.203 544.249 740.704 544.206 741.216H533.454C533.582 743.072 534.051 744.437 534.862 745.312C535.673 746.187 536.718 746.624 537.998 746.624C538.809 746.624 539.555 746.507 540.238 746.272C540.921 746.037 541.635 745.664 542.382 745.152L543.662 746.912C541.87 748.32 539.907 749.024 537.774 749.024C535.427 749.024 533.593 748.256 532.27 746.72C530.969 745.184 530.318 743.072 530.318 740.384C530.318 738.635 530.595 737.088 531.15 735.744C531.726 734.379 532.537 733.312 533.582 732.544C534.649 731.776 535.897 731.392 537.326 731.392C539.566 731.392 541.283 732.128 542.478 733.6C543.673 735.072 544.27 737.109 544.27 739.712ZM541.358 738.848C541.358 737.184 541.027 735.915 540.366 735.04C539.705 734.165 538.713 733.728 537.39 733.728C534.979 733.728 533.667 735.499 533.454 739.04H541.358V738.848Z" fill="#FF2D55"/>
<path id="wrote_3" d="M643.052 748.64H639.052L636.108 734.432L633.068 748.64H629.164L625.228 731.776H628.172L631.212 746.592L634.54 731.776H637.836L641.004 746.592L644.076 731.776H646.892L643.052 748.64ZM657.893 731.392C658.491 731.392 659.045 731.456 659.557 731.584L659.013 734.464C658.501 734.336 658.011 734.272 657.541 734.272C656.496 734.272 655.653 734.656 655.013 735.424C654.373 736.192 653.872 737.387 653.509 739.008V748.64H650.565V731.776H653.093L653.381 735.2C653.829 733.941 654.437 732.992 655.205 732.352C655.973 731.712 656.869 731.392 657.893 731.392ZM668.933 731.392C671.301 731.392 673.135 732.181 674.437 733.76C675.759 735.339 676.421 737.483 676.421 740.192C676.421 741.941 676.122 743.488 675.525 744.832C674.927 746.155 674.063 747.189 672.933 747.936C671.802 748.661 670.458 749.024 668.901 749.024C666.533 749.024 664.687 748.235 663.365 746.656C662.042 745.077 661.381 742.933 661.381 740.224C661.381 738.475 661.679 736.939 662.277 735.616C662.874 734.272 663.738 733.237 664.869 732.512C665.999 731.765 667.354 731.392 668.933 731.392ZM668.933 733.76C666.01 733.76 664.549 735.915 664.549 740.224C664.549 744.512 665.999 746.656 668.901 746.656C671.802 746.656 673.253 744.501 673.253 740.192C673.253 735.904 671.813 733.76 668.933 733.76ZM689.796 747.872C688.687 748.64 687.428 749.024 686.02 749.024C684.591 749.024 683.471 748.619 682.66 747.808C681.871 746.976 681.476 745.781 681.476 744.224V734.048H678.532V731.776H681.476V727.968L684.42 727.616V731.776H688.42L688.1 734.048H684.42V744.096C684.42 744.971 684.569 745.611 684.868 746.016C685.188 746.4 685.711 746.592 686.436 746.592C687.14 746.592 687.887 746.347 688.676 745.856L689.796 747.872ZM705.27 739.712C705.27 740.203 705.249 740.704 705.206 741.216H694.454C694.582 743.072 695.051 744.437 695.862 745.312C696.673 746.187 697.718 746.624 698.998 746.624C699.809 746.624 700.555 746.507 701.238 746.272C701.921 746.037 702.635 745.664 703.382 745.152L704.662 746.912C702.87 748.32 700.907 749.024 698.774 749.024C696.427 749.024 694.593 748.256 693.27 746.72C691.969 745.184 691.318 743.072 691.318 740.384C691.318 738.635 691.595 737.088 692.15 735.744C692.726 734.379 693.537 733.312 694.582 732.544C695.649 731.776 696.897 731.392 698.326 731.392C700.566 731.392 702.283 732.128 703.478 733.6C704.673 735.072 705.27 737.109 705.27 739.712ZM702.358 738.848C702.358 737.184 702.027 735.915 701.366 735.04C700.705 734.165 699.713 733.728 698.39 733.728C695.979 733.728 694.667 735.499 694.454 739.04H702.358V738.848Z" fill="#FF2D55"/>
<path id="wrote_4" d="M839.052 748.64H835.052L832.108 734.432L829.068 748.64H825.164L821.228 731.776H824.172L827.212 746.592L830.54 731.776H833.836L837.004 746.592L840.076 731.776H842.892L839.052 748.64ZM853.893 731.392C854.491 731.392 855.045 731.456 855.557 731.584L855.013 734.464C854.501 734.336 854.011 734.272 853.541 734.272C852.496 734.272 851.653 734.656 851.013 735.424C850.373 736.192 849.872 737.387 849.509 739.008V748.64H846.565V731.776H849.093L849.381 735.2C849.829 733.941 850.437 732.992 851.205 732.352C851.973 731.712 852.869 731.392 853.893 731.392ZM864.933 731.392C867.301 731.392 869.135 732.181 870.437 733.76C871.759 735.339 872.421 737.483 872.421 740.192C872.421 741.941 872.122 743.488 871.525 744.832C870.927 746.155 870.063 747.189 868.933 747.936C867.802 748.661 866.458 749.024 864.901 749.024C862.533 749.024 860.687 748.235 859.365 746.656C858.042 745.077 857.381 742.933 857.381 740.224C857.381 738.475 857.679 736.939 858.277 735.616C858.874 734.272 859.738 733.237 860.869 732.512C861.999 731.765 863.354 731.392 864.933 731.392ZM864.933 733.76C862.01 733.76 860.549 735.915 860.549 740.224C860.549 744.512 861.999 746.656 864.901 746.656C867.802 746.656 869.253 744.501 869.253 740.192C869.253 735.904 867.813 733.76 864.933 733.76ZM885.796 747.872C884.687 748.64 883.428 749.024 882.02 749.024C880.591 749.024 879.471 748.619 878.66 747.808C877.871 746.976 877.476 745.781 877.476 744.224V734.048H874.532V731.776H877.476V727.968L880.42 727.616V731.776H884.42L884.1 734.048H880.42V744.096C880.42 744.971 880.569 745.611 880.868 746.016C881.188 746.4 881.711 746.592 882.436 746.592C883.14 746.592 883.887 746.347 884.676 745.856L885.796 747.872ZM901.27 739.712C901.27 740.203 901.249 740.704 901.206 741.216H890.454C890.582 743.072 891.051 744.437 891.862 745.312C892.673 746.187 893.718 746.624 894.998 746.624C895.809 746.624 896.555 746.507 897.238 746.272C897.921 746.037 898.635 745.664 899.382 745.152L900.662 746.912C898.87 748.32 896.907 749.024 894.774 749.024C892.427 749.024 890.593 748.256 889.27 746.72C887.969 745.184 887.318 743.072 887.318 740.384C887.318 738.635 887.595 737.088 888.15 735.744C888.726 734.379 889.537 733.312 890.582 732.544C891.649 731.776 892.897 731.392 894.326 731.392C896.566 731.392 898.283 732.128 899.478 733.6C900.673 735.072 901.27 737.109 901.27 739.712ZM898.358 738.848C898.358 737.184 898.027 735.915 897.366 735.04C896.705 734.165 895.713 733.728 894.39 733.728C891.979 733.728 890.667 735.499 890.454 739.04H898.358V738.848Z" fill="#FF2D55"/>
<path id="wrote_5" d="M1000.05 748.64H996.052L993.108 734.432L990.068 748.64H986.164L982.228 731.776H985.172L988.212 746.592L991.54 731.776H994.836L998.004 746.592L1001.08 731.776H1003.89L1000.05 748.64ZM1014.89 731.392C1015.49 731.392 1016.05 731.456 1016.56 731.584L1016.01 734.464C1015.5 734.336 1015.01 734.272 1014.54 734.272C1013.5 734.272 1012.65 734.656 1012.01 735.424C1011.37 736.192 1010.87 737.387 1010.51 739.008V748.64H1007.57V731.776H1010.09L1010.38 735.2C1010.83 733.941 1011.44 732.992 1012.21 732.352C1012.97 731.712 1013.87 731.392 1014.89 731.392ZM1025.93 731.392C1028.3 731.392 1030.14 732.181 1031.44 733.76C1032.76 735.339 1033.42 737.483 1033.42 740.192C1033.42 741.941 1033.12 743.488 1032.52 744.832C1031.93 746.155 1031.06 747.189 1029.93 747.936C1028.8 748.661 1027.46 749.024 1025.9 749.024C1023.53 749.024 1021.69 748.235 1020.36 746.656C1019.04 745.077 1018.38 742.933 1018.38 740.224C1018.38 738.475 1018.68 736.939 1019.28 735.616C1019.87 734.272 1020.74 733.237 1021.87 732.512C1023 731.765 1024.35 731.392 1025.93 731.392ZM1025.93 733.76C1023.01 733.76 1021.55 735.915 1021.55 740.224C1021.55 744.512 1023 746.656 1025.9 746.656C1028.8 746.656 1030.25 744.501 1030.25 740.192C1030.25 735.904 1028.81 733.76 1025.93 733.76ZM1046.8 747.872C1045.69 748.64 1044.43 749.024 1043.02 749.024C1041.59 749.024 1040.47 748.619 1039.66 747.808C1038.87 746.976 1038.48 745.781 1038.48 744.224V734.048H1035.53V731.776H1038.48V727.968L1041.42 727.616V731.776H1045.42L1045.1 734.048H1041.42V744.096C1041.42 744.971 1041.57 745.611 1041.87 746.016C1042.19 746.4 1042.71 746.592 1043.44 746.592C1044.14 746.592 1044.89 746.347 1045.68 745.856L1046.8 747.872ZM1062.27 739.712C1062.27 740.203 1062.25 740.704 1062.21 741.216H1051.45C1051.58 743.072 1052.05 744.437 1052.86 745.312C1053.67 746.187 1054.72 746.624 1056 746.624C1056.81 746.624 1057.56 746.507 1058.24 746.272C1058.92 746.037 1059.64 745.664 1060.38 745.152L1061.66 746.912C1059.87 748.32 1057.91 749.024 1055.77 749.024C1053.43 749.024 1051.59 748.256 1050.27 746.72C1048.97 745.184 1048.32 743.072 1048.32 740.384C1048.32 738.635 1048.6 737.088 1049.15 735.744C1049.73 734.379 1050.54 733.312 1051.58 732.544C1052.65 731.776 1053.9 731.392 1055.33 731.392C1057.57 731.392 1059.28 732.128 1060.48 733.6C1061.67 735.072 1062.27 737.109 1062.27 739.712ZM1059.36 738.848C1059.36 737.184 1059.03 735.915 1058.37 735.04C1057.7 734.165 1056.71 733.728 1055.39 733.728C1052.98 733.728 1051.67 735.499 1051.45 739.04H1059.36V738.848Z" fill="#FF2D55"/>
<path id="wrote_6" d="M1244.13 748.168H1240.13L1237.19 733.96L1234.15 748.168H1230.24L1226.31 731.304H1229.25L1232.29 746.12L1235.62 731.304H1238.92L1242.08 746.12L1245.16 731.304H1247.97L1244.13 748.168ZM1258.97 730.92C1259.57 730.92 1260.13 730.984 1260.64 731.112L1260.09 733.992C1259.58 733.864 1259.09 733.8 1258.62 733.8C1257.58 733.8 1256.73 734.184 1256.09 734.952C1255.45 735.72 1254.95 736.915 1254.59 738.536V748.168H1251.65V731.304H1254.17L1254.46 734.728C1254.91 733.469 1255.52 732.52 1256.29 731.88C1257.05 731.24 1257.95 730.92 1258.97 730.92ZM1270.01 730.92C1272.38 730.92 1274.22 731.709 1275.52 733.288C1276.84 734.867 1277.5 737.011 1277.5 739.72C1277.5 741.469 1277.2 743.016 1276.6 744.36C1276.01 745.683 1275.14 746.717 1274.01 747.464C1272.88 748.189 1271.54 748.552 1269.98 748.552C1267.61 748.552 1265.77 747.763 1264.44 746.184C1263.12 744.605 1262.46 742.461 1262.46 739.752C1262.46 738.003 1262.76 736.467 1263.36 735.144C1263.95 733.8 1264.82 732.765 1265.95 732.04C1267.08 731.293 1268.43 730.92 1270.01 730.92ZM1270.01 733.288C1267.09 733.288 1265.63 735.443 1265.63 739.752C1265.63 744.04 1267.08 746.184 1269.98 746.184C1272.88 746.184 1274.33 744.029 1274.33 739.72C1274.33 735.432 1272.89 733.288 1270.01 733.288ZM1290.88 747.4C1289.77 748.168 1288.51 748.552 1287.1 748.552C1285.67 748.552 1284.55 748.147 1283.74 747.336C1282.95 746.504 1282.56 745.309 1282.56 743.752V733.576H1279.61V731.304H1282.56V727.496L1285.5 727.144V731.304H1289.5L1289.18 733.576H1285.5V743.624C1285.5 744.499 1285.65 745.139 1285.95 745.544C1286.27 745.928 1286.79 746.12 1287.52 746.12C1288.22 746.12 1288.97 745.875 1289.76 745.384L1290.88 747.4ZM1306.35 739.24C1306.35 739.731 1306.33 740.232 1306.29 740.744H1295.53C1295.66 742.6 1296.13 743.965 1296.94 744.84C1297.75 745.715 1298.8 746.152 1300.08 746.152C1300.89 746.152 1301.64 746.035 1302.32 745.8C1303 745.565 1303.72 745.192 1304.46 744.68L1305.74 746.44C1303.95 747.848 1301.99 748.552 1299.85 748.552C1297.51 748.552 1295.67 747.784 1294.35 746.248C1293.05 744.712 1292.4 742.6 1292.4 739.912C1292.4 738.163 1292.68 736.616 1293.23 735.272C1293.81 733.907 1294.62 732.84 1295.66 732.072C1296.73 731.304 1297.98 730.92 1299.41 730.92C1301.65 730.92 1303.36 731.656 1304.56 733.128C1305.75 734.6 1306.35 736.637 1306.35 739.24ZM1303.44 738.376C1303.44 736.712 1303.11 735.443 1302.45 734.568C1301.78 733.693 1300.79 733.256 1299.47 733.256C1297.06 733.256 1295.75 735.027 1295.53 738.568H1303.44V738.376Z" fill="#FF2D55"/>
<path id="wrote_7" d="M1577.13 748.168H1573.13L1570.19 733.96L1567.15 748.168H1563.24L1559.31 731.304H1562.25L1565.29 746.12L1568.62 731.304H1571.92L1575.08 746.12L1578.16 731.304H1580.97L1577.13 748.168ZM1591.97 730.92C1592.57 730.92 1593.13 730.984 1593.64 731.112L1593.09 733.992C1592.58 733.864 1592.09 733.8 1591.62 733.8C1590.58 733.8 1589.73 734.184 1589.09 734.952C1588.45 735.72 1587.95 736.915 1587.59 738.536V748.168H1584.65V731.304H1587.17L1587.46 734.728C1587.91 733.469 1588.52 732.52 1589.29 731.88C1590.05 731.24 1590.95 730.92 1591.97 730.92ZM1603.01 730.92C1605.38 730.92 1607.22 731.709 1608.52 733.288C1609.84 734.867 1610.5 737.011 1610.5 739.72C1610.5 741.469 1610.2 743.016 1609.6 744.36C1609.01 745.683 1608.14 746.717 1607.01 747.464C1605.88 748.189 1604.54 748.552 1602.98 748.552C1600.61 748.552 1598.77 747.763 1597.44 746.184C1596.12 744.605 1595.46 742.461 1595.46 739.752C1595.46 738.003 1595.76 736.467 1596.36 735.144C1596.95 733.8 1597.82 732.765 1598.95 732.04C1600.08 731.293 1601.43 730.92 1603.01 730.92ZM1603.01 733.288C1600.09 733.288 1598.63 735.443 1598.63 739.752C1598.63 744.04 1600.08 746.184 1602.98 746.184C1605.88 746.184 1607.33 744.029 1607.33 739.72C1607.33 735.432 1605.89 733.288 1603.01 733.288ZM1623.88 747.4C1622.77 748.168 1621.51 748.552 1620.1 748.552C1618.67 748.552 1617.55 748.147 1616.74 747.336C1615.95 746.504 1615.56 745.309 1615.56 743.752V733.576H1612.61V731.304H1615.56V727.496L1618.5 727.144V731.304H1622.5L1622.18 733.576H1618.5V743.624C1618.5 744.499 1618.65 745.139 1618.95 745.544C1619.27 745.928 1619.79 746.12 1620.52 746.12C1621.22 746.12 1621.97 745.875 1622.76 745.384L1623.88 747.4ZM1639.35 739.24C1639.35 739.731 1639.33 740.232 1639.29 740.744H1628.53C1628.66 742.6 1629.13 743.965 1629.94 744.84C1630.75 745.715 1631.8 746.152 1633.08 746.152C1633.89 746.152 1634.64 746.035 1635.32 745.8C1636 745.565 1636.72 745.192 1637.46 744.68L1638.74 746.44C1636.95 747.848 1634.99 748.552 1632.85 748.552C1630.51 748.552 1628.67 747.784 1627.35 746.248C1626.05 744.712 1625.4 742.6 1625.4 739.912C1625.4 738.163 1625.68 736.616 1626.23 735.272C1626.81 733.907 1627.62 732.84 1628.66 732.072C1629.73 731.304 1630.98 730.92 1632.41 730.92C1634.65 730.92 1636.36 731.656 1637.56 733.128C1638.75 734.6 1639.35 736.637 1639.35 739.24ZM1636.44 738.376C1636.44 736.712 1636.11 735.443 1635.45 734.568C1634.78 733.693 1633.79 733.256 1632.47 733.256C1630.06 733.256 1628.75 735.027 1628.53 738.568H1636.44V738.376Z" fill="#FF2D55"/>
</g>
<g id="advised">
<path id="Arrow 8" d="M1202.67 598.226C1201.89 599.007 1201.89 600.273 1202.67 601.054L1215.4 613.782C1216.18 614.563 1217.45 614.563 1218.23 613.782C1219.01 613.001 1219.01 611.735 1218.23 610.954L1206.92 599.64L1218.23 588.326C1219.01 587.545 1219.01 586.279 1218.23 585.498C1217.45 584.717 1216.18 584.717 1215.4 585.498L1202.67 598.226ZM1334.09 599.64V597.64H1204.09V599.64V601.64H1334.09V599.64Z" fill="#32ADE6"/>
<path id="Arrow 9" d="M1541.67 598.226C1540.89 599.007 1540.89 600.273 1541.67 601.054L1554.4 613.782C1555.18 614.563 1556.45 614.563 1557.23 613.782C1558.01 613.001 1558.01 611.735 1557.23 610.954L1545.92 599.64L1557.23 588.326C1558.01 587.545 1558.01 586.279 1557.23 585.498C1556.45 584.717 1555.18 584.717 1554.4 585.498L1541.67 598.226ZM1673.09 599.64V597.64H1543.09V599.64V601.64H1673.09V599.64Z" fill="#32ADE6"/>
<path id="advised_2" d="M1226.52 566.704C1226.52 567.387 1226.64 567.899 1226.87 568.24C1227.11 568.56 1227.46 568.805 1227.93 568.976L1227.26 571.024C1226.38 570.917 1225.68 570.672 1225.14 570.288C1224.61 569.904 1224.22 569.307 1223.96 568.496C1222.83 570.181 1221.15 571.024 1218.94 571.024C1217.27 571.024 1215.96 570.555 1215 569.616C1214.04 568.677 1213.56 567.451 1213.56 565.936C1213.56 564.144 1214.2 562.768 1215.48 561.808C1216.78 560.848 1218.62 560.368 1220.98 560.368H1223.58V559.12C1223.58 557.925 1223.29 557.072 1222.71 556.56C1222.14 556.048 1221.25 555.792 1220.06 555.792C1218.82 555.792 1217.3 556.091 1215.51 556.688L1214.78 554.544C1216.87 553.776 1218.81 553.392 1220.6 553.392C1222.58 553.392 1224.07 553.883 1225.05 554.864C1226.03 555.824 1226.52 557.2 1226.52 558.992V566.704ZM1219.61 568.816C1221.29 568.816 1222.62 567.941 1223.58 566.192V562.32H1221.37C1218.25 562.32 1216.7 563.472 1216.7 565.776C1216.7 566.779 1216.94 567.536 1217.43 568.048C1217.92 568.56 1218.65 568.816 1219.61 568.816ZM1245.62 546.992V570.64H1243.03L1242.74 568.304C1242.19 569.157 1241.49 569.829 1240.66 570.32C1239.83 570.789 1238.9 571.024 1237.88 571.024C1235.87 571.024 1234.3 570.235 1233.17 568.656C1232.06 567.077 1231.51 564.955 1231.51 562.288C1231.51 560.56 1231.78 559.024 1232.31 557.68C1232.84 556.336 1233.61 555.291 1234.61 554.544C1235.62 553.776 1236.79 553.392 1238.13 553.392C1239.86 553.392 1241.38 554.085 1242.68 555.472V546.64L1245.62 546.992ZM1238.52 568.688C1239.41 568.688 1240.18 568.485 1240.82 568.08C1241.46 567.653 1242.08 567.024 1242.68 566.192V557.936C1242.12 557.211 1241.53 556.667 1240.89 556.304C1240.27 555.92 1239.56 555.728 1238.77 555.728C1237.47 555.728 1236.46 556.272 1235.73 557.36C1235.03 558.448 1234.68 560.069 1234.68 562.224C1234.68 564.4 1235.01 566.021 1235.67 567.088C1236.33 568.155 1237.28 568.688 1238.52 568.688ZM1258.35 570.64H1254.79L1248.97 553.776H1252.17L1256.59 568.016L1260.97 553.776H1264.07L1258.35 570.64ZM1270.38 570.64H1267.44V553.776H1270.38V570.64ZM1268.88 545.68C1269.5 545.68 1270 545.872 1270.38 546.256C1270.77 546.64 1270.96 547.12 1270.96 547.696C1270.96 548.272 1270.77 548.752 1270.38 549.136C1270 549.499 1269.5 549.68 1268.88 549.68C1268.28 549.68 1267.79 549.499 1267.41 549.136C1267.02 548.752 1266.83 548.272 1266.83 547.696C1266.83 547.12 1267.02 546.64 1267.41 546.256C1267.79 545.872 1268.28 545.68 1268.88 545.68ZM1281.05 553.392C1282.2 553.392 1283.23 553.552 1284.15 553.872C1285.07 554.192 1285.94 554.672 1286.78 555.312L1285.53 557.168C1284.76 556.677 1284.02 556.315 1283.32 556.08C1282.64 555.845 1281.91 555.728 1281.14 555.728C1280.18 555.728 1279.43 555.931 1278.87 556.336C1278.32 556.72 1278.04 557.253 1278.04 557.936C1278.04 558.619 1278.3 559.152 1278.81 559.536C1279.34 559.92 1280.29 560.293 1281.66 560.656C1283.53 561.125 1284.93 561.765 1285.85 562.576C1286.79 563.387 1287.26 564.496 1287.26 565.904C1287.26 567.568 1286.6 568.837 1285.3 569.712C1284.02 570.587 1282.46 571.024 1280.6 571.024C1278.04 571.024 1275.92 570.288 1274.23 568.816L1275.8 567.024C1277.23 568.112 1278.81 568.656 1280.54 568.656C1281.64 568.656 1282.52 568.432 1283.16 567.984C1283.82 567.515 1284.15 566.885 1284.15 566.096C1284.15 565.52 1284.03 565.061 1283.8 564.72C1283.56 564.357 1283.16 564.048 1282.58 563.792C1282.01 563.515 1281.16 563.227 1280.06 562.928C1278.26 562.459 1276.96 561.829 1276.15 561.04C1275.36 560.251 1274.97 559.248 1274.97 558.032C1274.97 557.157 1275.22 556.368 1275.74 555.664C1276.27 554.939 1276.99 554.384 1277.91 554C1278.85 553.595 1279.9 553.392 1281.05 553.392ZM1304.15 561.712C1304.15 562.203 1304.12 562.704 1304.08 563.216H1293.33C1293.46 565.072 1293.93 566.437 1294.74 567.312C1295.55 568.187 1296.59 568.624 1297.87 568.624C1298.68 568.624 1299.43 568.507 1300.11 568.272C1300.8 568.037 1301.51 567.664 1302.26 567.152L1303.54 568.912C1301.75 570.32 1299.78 571.024 1297.65 571.024C1295.3 571.024 1293.47 570.256 1292.15 568.72C1290.84 567.184 1290.19 565.072 1290.19 562.384C1290.19 560.635 1290.47 559.088 1291.03 557.744C1291.6 556.379 1292.41 555.312 1293.46 554.544C1294.52 553.776 1295.77 553.392 1297.2 553.392C1299.44 553.392 1301.16 554.128 1302.35 555.6C1303.55 557.072 1304.15 559.109 1304.15 561.712ZM1301.23 560.848C1301.23 559.184 1300.9 557.915 1300.24 557.04C1299.58 556.165 1298.59 555.728 1297.27 555.728C1294.85 555.728 1293.54 557.499 1293.33 561.04H1301.23V560.848ZM1322.06 546.992V570.64H1319.47L1319.18 568.304C1318.62 569.157 1317.93 569.829 1317.1 570.32C1316.27 570.789 1315.34 571.024 1314.31 571.024C1312.31 571.024 1310.74 570.235 1309.61 568.656C1308.5 567.077 1307.95 564.955 1307.95 562.288C1307.95 560.56 1308.21 559.024 1308.75 557.68C1309.28 556.336 1310.05 555.291 1311.05 554.544C1312.05 553.776 1313.23 553.392 1314.57 553.392C1316.3 553.392 1317.81 554.085 1319.11 555.472V546.64L1322.06 546.992ZM1314.95 568.688C1315.85 568.688 1316.62 568.485 1317.26 568.08C1317.9 567.653 1318.52 567.024 1319.11 566.192V557.936C1318.56 557.211 1317.96 556.667 1317.32 556.304C1316.7 555.92 1316 555.728 1315.21 555.728C1313.91 555.728 1312.9 556.272 1312.17 557.36C1311.47 558.448 1311.11 560.069 1311.11 562.224C1311.11 564.4 1311.45 566.021 1312.11 567.088C1312.77 568.155 1313.72 568.688 1314.95 568.688Z" fill="#32ADE6"/>
<path id="advised_3" d="M1566.52 566.704C1566.52 567.387 1566.64 567.899 1566.87 568.24C1567.11 568.56 1567.46 568.805 1567.93 568.976L1567.26 571.024C1566.38 570.917 1565.68 570.672 1565.14 570.288C1564.61 569.904 1564.22 569.307 1563.96 568.496C1562.83 570.181 1561.15 571.024 1558.94 571.024C1557.27 571.024 1555.96 570.555 1555 569.616C1554.04 568.677 1553.56 567.451 1553.56 565.936C1553.56 564.144 1554.2 562.768 1555.48 561.808C1556.78 560.848 1558.62 560.368 1560.98 560.368H1563.58V559.12C1563.58 557.925 1563.29 557.072 1562.71 556.56C1562.14 556.048 1561.25 555.792 1560.06 555.792C1558.82 555.792 1557.3 556.091 1555.51 556.688L1554.78 554.544C1556.87 553.776 1558.81 553.392 1560.6 553.392C1562.58 553.392 1564.07 553.883 1565.05 554.864C1566.03 555.824 1566.52 557.2 1566.52 558.992V566.704ZM1559.61 568.816C1561.29 568.816 1562.62 567.941 1563.58 566.192V562.32H1561.37C1558.25 562.32 1556.7 563.472 1556.7 565.776C1556.7 566.779 1556.94 567.536 1557.43 568.048C1557.92 568.56 1558.65 568.816 1559.61 568.816ZM1585.62 546.992V570.64H1583.03L1582.74 568.304C1582.19 569.157 1581.49 569.829 1580.66 570.32C1579.83 570.789 1578.9 571.024 1577.88 571.024C1575.87 571.024 1574.3 570.235 1573.17 568.656C1572.06 567.077 1571.51 564.955 1571.51 562.288C1571.51 560.56 1571.78 559.024 1572.31 557.68C1572.84 556.336 1573.61 555.291 1574.61 554.544C1575.62 553.776 1576.79 553.392 1578.13 553.392C1579.86 553.392 1581.38 554.085 1582.68 555.472V546.64L1585.62 546.992ZM1578.52 568.688C1579.41 568.688 1580.18 568.485 1580.82 568.08C1581.46 567.653 1582.08 567.024 1582.68 566.192V557.936C1582.12 557.211 1581.53 556.667 1580.89 556.304C1580.27 555.92 1579.56 555.728 1578.77 555.728C1577.47 555.728 1576.46 556.272 1575.73 557.36C1575.03 558.448 1574.68 560.069 1574.68 562.224C1574.68 564.4 1575.01 566.021 1575.67 567.088C1576.33 568.155 1577.28 568.688 1578.52 568.688ZM1598.35 570.64H1594.79L1588.97 553.776H1592.17L1596.59 568.016L1600.97 553.776H1604.07L1598.35 570.64ZM1610.38 570.64H1607.44V553.776H1610.38V570.64ZM1608.88 545.68C1609.5 545.68 1610 545.872 1610.38 546.256C1610.77 546.64 1610.96 547.12 1610.96 547.696C1610.96 548.272 1610.77 548.752 1610.38 549.136C1610 549.499 1609.5 549.68 1608.88 549.68C1608.28 549.68 1607.79 549.499 1607.41 549.136C1607.02 548.752 1606.83 548.272 1606.83 547.696C1606.83 547.12 1607.02 546.64 1607.41 546.256C1607.79 545.872 1608.28 545.68 1608.88 545.68ZM1621.05 553.392C1622.2 553.392 1623.23 553.552 1624.15 553.872C1625.07 554.192 1625.94 554.672 1626.78 555.312L1625.53 557.168C1624.76 556.677 1624.02 556.315 1623.32 556.08C1622.64 555.845 1621.91 555.728 1621.14 555.728C1620.18 555.728 1619.43 555.931 1618.87 556.336C1618.32 556.72 1618.04 557.253 1618.04 557.936C1618.04 558.619 1618.3 559.152 1618.81 559.536C1619.34 559.92 1620.29 560.293 1621.66 560.656C1623.53 561.125 1624.93 561.765 1625.85 562.576C1626.79 563.387 1627.26 564.496 1627.26 565.904C1627.26 567.568 1626.6 568.837 1625.3 569.712C1624.02 570.587 1622.46 571.024 1620.6 571.024C1618.04 571.024 1615.92 570.288 1614.23 568.816L1615.8 567.024C1617.23 568.112 1618.81 568.656 1620.54 568.656C1621.64 568.656 1622.52 568.432 1623.16 567.984C1623.82 567.515 1624.15 566.885 1624.15 566.096C1624.15 565.52 1624.03 565.061 1623.8 564.72C1623.56 564.357 1623.16 564.048 1622.58 563.792C1622.01 563.515 1621.16 563.227 1620.06 562.928C1618.26 562.459 1616.96 561.829 1616.15 561.04C1615.36 560.251 1614.97 559.248 1614.97 558.032C1614.97 557.157 1615.22 556.368 1615.74 555.664C1616.27 554.939 1616.99 554.384 1617.91 554C1618.85 553.595 1619.9 553.392 1621.05 553.392ZM1644.15 561.712C1644.15 562.203 1644.12 562.704 1644.08 563.216H1633.33C1633.46 565.072 1633.93 566.437 1634.74 567.312C1635.55 568.187 1636.59 568.624 1637.87 568.624C1638.68 568.624 1639.43 568.507 1640.11 568.272C1640.8 568.037 1641.51 567.664 1642.26 567.152L1643.54 568.912C1641.75 570.32 1639.78 571.024 1637.65 571.024C1635.3 571.024 1633.47 570.256 1632.15 568.72C1630.84 567.184 1630.19 565.072 1630.19 562.384C1630.19 560.635 1630.47 559.088 1631.03 557.744C1631.6 556.379 1632.41 555.312 1633.46 554.544C1634.52 553.776 1635.77 553.392 1637.2 553.392C1639.44 553.392 1641.16 554.128 1642.35 555.6C1643.55 557.072 1644.15 559.109 1644.15 561.712ZM1641.23 560.848C1641.23 559.184 1640.9 557.915 1640.24 557.04C1639.58 556.165 1638.59 555.728 1637.27 555.728C1634.85 555.728 1633.54 557.499 1633.33 561.04H1641.23V560.848ZM1662.06 546.992V570.64H1659.47L1659.18 568.304C1658.62 569.157 1657.93 569.829 1657.1 570.32C1656.27 570.789 1655.34 571.024 1654.31 571.024C1652.31 571.024 1650.74 570.235 1649.61 568.656C1648.5 567.077 1647.95 564.955 1647.95 562.288C1647.95 560.56 1648.21 559.024 1648.75 557.68C1649.28 556.336 1650.05 555.291 1651.05 554.544C1652.05 553.776 1653.23 553.392 1654.57 553.392C1656.3 553.392 1657.81 554.085 1659.11 555.472V546.64L1662.06 546.992ZM1654.95 568.688C1655.85 568.688 1656.62 568.485 1657.26 568.08C1657.9 567.653 1658.52 567.024 1659.11 566.192V557.936C1658.56 557.211 1657.96 556.667 1657.32 556.304C1656.7 555.92 1656 555.728 1655.21 555.728C1653.91 555.728 1652.9 556.272 1652.17 557.36C1651.47 558.448 1651.11 560.069 1651.11 562.224C1651.11 564.4 1651.45 566.021 1652.11 567.088C1652.77 568.155 1653.72 568.688 1654.95 568.688Z" fill="#32ADE6"/>
</g>
</g>
</svg>
