<svg width="1921" height="1080" viewBox="0 0 1921 1080" fill="none" xmlns="http://www.w3.org/2000/svg" xmlns:xlink="http://www.w3.org/1999/xlink">
<g id="focus Banach-Tarski">
<rect width="1920" height="1080" transform="translate(0.480011)" fill="white"/>
<g id="Alice et al">
<g id="Banach-Tarski">
<g id="Banach">
<g id="Head">
<circle id="Ellipse 1" cx="311.85" cy="799.453" r="42.5142" fill="white" stroke="black" stroke-width="3"/>
<ellipse id="Ellipse 6" cx="329.803" cy="794.24" rx="2.89567" ry="4.05394" fill="black"/>
<ellipse id="Ellipse 7" cx="346.019" cy="796.557" rx="2.89567" ry="4.05394" fill="black"/>
<path id="Line 5" d="M312.429 813.352C330.382 819.723 324.981 829.191 340.761 830.55" stroke="black" stroke-width="3"/>
</g>
<path id="Line 1" d="M298.134 837.231C276.748 866.373 272.992 882.524 273.311 911.171L249.304 971.956L249.304 1027.88" stroke="black" stroke-width="3"/>
<path id="Line 2" d="M273.004 907.371C295.459 932.525 308.375 964.662 308.954 980.061C306.059 1005.18 308.954 1008.43 308.954 1027.88" stroke="black" stroke-width="3"/>
<path id="Ellipse 2" d="M263.385 1022.37C267.313 1022.72 270.712 1023.95 273.035 1025.58C275.394 1027.24 276.394 1029.1 276.248 1030.73C276.102 1032.36 274.788 1034.02 272.171 1035.23C269.596 1036.43 266.031 1037.04 262.104 1036.68C258.177 1036.33 254.777 1035.1 252.455 1033.47C250.095 1031.81 249.095 1029.94 249.241 1028.32C249.387 1026.69 250.702 1025.03 253.318 1023.82C255.894 1022.63 259.458 1022.02 263.385 1022.37Z" stroke="black" stroke-width="3"/>
<path id="Ellipse 3" d="M323.358 1021.03C327.282 1021.42 330.669 1022.69 332.975 1024.34C335.318 1026.02 336.299 1027.9 336.137 1029.52C335.975 1031.15 334.644 1032.79 332.016 1033.98C329.429 1035.15 325.858 1035.72 321.935 1035.33C318.011 1034.94 314.624 1033.67 312.318 1032.02C309.975 1030.34 308.994 1028.47 309.156 1026.84C309.318 1025.21 310.649 1023.57 313.277 1022.38C315.864 1021.21 319.435 1020.64 323.358 1021.03Z" stroke="black" stroke-width="3"/>
<path id="Ellipse 4" d="M261.184 911.412C262.669 909.211 264.473 907.616 266.122 906.783C267.822 905.924 269.03 906.007 269.705 906.462C270.379 906.917 270.908 908.005 270.75 909.902C270.596 911.744 269.795 914.015 268.311 916.216C266.827 918.418 265.023 920.011 263.374 920.845C261.675 921.703 260.467 921.621 259.792 921.166C259.117 920.711 258.588 919.623 258.746 917.725C258.9 915.884 259.7 913.614 261.184 911.412Z" stroke="black" stroke-width="3"/>
<path id="Ellipse 5" d="M326.83 840.293C329.212 839.119 331.57 838.631 333.415 838.727C335.317 838.826 336.324 839.497 336.684 840.227C337.044 840.958 336.962 842.165 335.883 843.733C334.835 845.255 333.012 846.828 330.63 848.002C328.249 849.175 325.892 849.663 324.046 849.567C322.145 849.468 321.138 848.797 320.778 848.067C320.418 847.337 320.499 846.129 321.579 844.561C322.627 843.039 324.449 841.466 326.83 840.293Z" fill="white" stroke="black" stroke-width="3"/>
<path id="Line 3" d="M288.685 850.795C263.962 862.616 242.354 866.599 236.563 875.108C240.617 882.402 255.918 896.965 267.046 906.105" stroke="black" stroke-width="3"/>
<path id="Line 4" d="M290.494 849.853C314.73 862.492 363.683 870.836 364.552 867.999C365.42 865.163 352.077 851.239 336.441 843.046" stroke="black" stroke-width="3"/>
<path id="Vector 12" d="M323.985 868.818L328.64 857.569C329.09 856.48 328.506 855.24 327.38 854.893L296.569 845.413C296.161 845.287 295.719 845.298 295.315 845.436C287.621 848.077 286.62 847.329 282.271 845.536C281.776 845.332 281.217 845.34 280.727 845.554L247.546 860.041C246.255 860.605 245.936 862.292 246.932 863.289L255.894 872.25C256.649 873.005 257.863 873.034 258.653 872.316L268.937 862.967C270.437 861.603 272.781 863.08 272.198 865.022L263.273 894.759C262.888 896.042 263.849 897.334 265.188 897.334H298.88C300.03 897.334 300.944 896.366 300.877 895.217L299.168 865.878C299.086 864.485 300.421 863.439 301.755 863.851L321.547 869.965C322.533 870.27 323.59 869.773 323.985 868.818Z" fill="url(#pattern0_17_96)" stroke="black"/>
<path id="Pants" d="M303.711 891.658H259.824C258.912 891.658 258.115 892.275 257.887 893.158L234.152 985.131C233.825 986.397 234.781 987.631 236.089 987.631H271.054C272.02 987.631 272.848 986.94 273.021 985.99L280.558 944.738C280.958 942.55 284.093 942.55 284.493 944.738L292.029 985.99C292.203 986.94 293.031 987.631 293.997 987.631H329.424C330.748 987.631 331.707 986.367 331.35 985.092L305.637 893.119C305.396 892.255 304.608 891.658 303.711 891.658Z" fill="#030146"/>
<path id="Bretelle" d="M297.489 895.27C297.489 895.27 286.653 869.471 301.101 846.767L297.489 845.735C284.589 866.891 293.5 895.27 293.5 895.27H297.489Z" fill="#B30829" stroke="#930404"/>
<path id="Bretelle_2" d="M266.014 895.27C266.014 895.27 282.525 860.183 272.206 849.347L275.302 847.799C284.589 860.183 270.142 895.27 270.142 895.27H266.014Z" fill="#B30829" stroke="#930404"/>
</g>
<g id="Tarski">
<g id="Head_2">
<circle id="Ellipse 1_2" cx="180.805" cy="753.014" r="42.5142" fill="white" stroke="black" stroke-width="3"/>
<ellipse id="Ellipse 6_2" cx="198.759" cy="747.802" rx="2.89567" ry="4.05394" fill="black"/>
<ellipse id="Ellipse 7_2" cx="214.974" cy="750.118" rx="2.89567" ry="4.05394" fill="black"/>
<path id="Line 5_2" d="M181.384 766.914C196.16 776.078 204.416 777.11 215.251 771.95" stroke="black" stroke-width="3"/>
</g>
<path id="Line 1_2" d="M167.089 790.792C145.704 819.934 141.947 836.085 142.266 864.733L118.259 925.518L118.259 981.439" stroke="black" stroke-width="3"/>
<path id="Line 2_2" d="M141.959 860.933C164.415 886.087 177.33 918.224 177.91 933.622C175.014 958.746 177.91 961.988 177.91 981.439" stroke="black" stroke-width="3"/>
<path id="Ellipse 2_2" d="M132.341 975.928C136.268 976.28 139.667 977.513 141.99 979.145C144.349 980.803 145.349 982.666 145.204 984.295C145.058 985.924 143.743 987.58 141.126 988.793C138.551 989.987 134.986 990.597 131.059 990.245C127.132 989.893 123.732 988.66 121.41 987.028C119.05 985.37 118.05 983.506 118.196 981.877C118.342 980.248 119.657 978.593 122.274 977.38C124.849 976.187 128.414 975.577 132.341 975.928Z" stroke="black" stroke-width="3"/>
<path id="Ellipse 3_2" d="M192.314 974.591C196.237 974.981 199.624 976.248 201.93 977.903C204.273 979.585 205.255 981.457 205.093 983.085C204.931 984.712 203.6 986.355 200.971 987.542C198.384 988.71 194.813 989.284 190.89 988.894C186.966 988.503 183.579 987.236 181.273 985.581C178.93 983.9 177.949 982.026 178.111 980.399C178.273 978.772 179.604 977.129 182.233 975.942C184.82 974.775 188.39 974.2 192.314 974.591Z" stroke="black" stroke-width="3"/>
<path id="Line 3_2" d="M157.64 804.356C132.917 816.177 112.171 816.586 106.379 825.096C106.379 831.804 105.571 848.979 116.699 858.119" stroke="black" stroke-width="3"/>
<path id="Line 4_2" d="M157.132 804.04C181.368 816.679 203.574 831.288 201.836 836.964C200.098 842.639 196.16 852.443 182.229 863.279" stroke="black" stroke-width="3"/>
<path id="Shirt" d="M116.153 822.356L113.415 815.741C112.514 813.563 113.682 811.081 115.935 810.388L144.017 801.748C144.834 801.496 145.715 801.516 146.522 801.796C153.648 804.263 153.622 803.86 163.624 802.555C164.439 802.448 165.271 802.598 165.998 802.982L188.979 815.099C191.2 816.27 191.806 819.175 190.237 821.136L185.215 827.413C183.926 829.024 181.622 829.391 179.897 828.258L173.039 823.758C170.298 821.959 166.676 824.041 166.85 827.315L168.269 853.906C168.391 856.195 166.567 858.119 164.274 858.119H131.868C129.42 858.119 127.546 855.939 127.914 853.518L132.13 825.76C132.638 822.414 129.02 819.988 126.117 821.73L121.907 824.256C119.811 825.514 117.087 824.614 116.153 822.356Z" fill="url(#pattern1_17_96)" stroke="black"/>
<path id="Pants_2" d="M168.038 851.927H127.218C125.393 851.927 123.8 853.161 123.344 854.928L100.642 942.9C99.9884 945.432 101.9 947.9 104.515 947.9H135.231C137.163 947.9 138.819 946.519 139.166 944.619L144.435 915.776C145.234 911.401 151.506 911.401 152.305 915.776L157.574 944.619C157.921 946.519 159.577 947.9 161.509 947.9H192.633C195.281 947.9 197.198 945.373 196.485 942.823L171.89 854.85C171.407 853.122 169.832 851.927 168.038 851.927Z" fill="#030146"/>
<path id="Ellipse 4_2" d="M116.759 866.974C115.717 864.532 115.358 862.151 115.554 860.313C115.756 858.42 116.481 857.451 117.23 857.131C117.978 856.812 119.179 856.959 120.687 858.122C122.15 859.251 123.621 861.157 124.664 863.599C125.706 866.04 126.065 868.42 125.869 870.258C125.667 872.151 124.942 873.12 124.194 873.44C123.445 873.759 122.243 873.613 120.736 872.45C119.273 871.32 117.802 869.415 116.759 866.974Z" fill="white" stroke="black" stroke-width="3"/>
<path id="Ellipse 5_2" d="M172.079 864.564C174.46 863.39 176.818 862.902 178.664 862.998C180.565 863.097 181.573 863.769 181.932 864.499C182.292 865.229 182.211 866.436 181.131 868.004C180.083 869.527 178.26 871.099 175.879 872.273C173.497 873.447 171.14 873.934 169.295 873.838C167.393 873.739 166.386 873.069 166.026 872.339C165.666 871.609 165.747 870.401 166.827 868.832C167.875 867.31 169.697 865.738 172.079 864.564Z" fill="white" stroke="black" stroke-width="3"/>
<path id="Bretelle_3" d="M133.406 856.571C133.406 856.571 141.146 814.777 137.534 803.425L142.694 801.877C145.79 813.745 137.534 856.571 137.534 856.571H133.406Z" fill="#B30829" stroke="#930404"/>
<path id="Bretelle_4" d="M163.849 856.571C163.849 856.571 159.722 815.808 170.041 804.973L165.913 802.909C156.626 815.292 159.722 856.571 159.722 856.571H163.849Z" fill="#B30829" stroke="#930404"/>
</g>
</g>
</g>
</g>
<defs>
<pattern id="pattern0_17_96" patternUnits="userSpaceOnUse" viewBox="-518 -1290 144 10" width="170.17027514862787%" height="19.188618001392534%" patternContentUnits="objectBoundingBox">
<g id="Pattern tshirt">
<rect id="Rectangle 1" x="-518" y="-1290" width="144" height="5" fill="#222222"/>
<rect id="Rectangle 2" x="-518" y="-1285" width="144" height="5" fill="#F0F0F0"/>
</g>
</pattern><pattern id="pattern1_17_96" patternUnits="userSpaceOnUse" viewBox="-518 -1290 144 10" width="176.63245201004636%" height="17.618639367668926%" patternContentUnits="objectBoundingBox">
<g id="Pattern tshirt">
<rect id="Rectangle 1" x="-518" y="-1290" width="144" height="5" fill="#222222"/>
<rect id="Rectangle 2" x="-518" y="-1285" width="144" height="5" fill="#F0F0F0"/>
</g>
</pattern></defs>
</svg>
