<svg width="1231" height="765" viewBox="0 0 1231 765" fill="none" xmlns="http://www.w3.org/2000/svg">
<g id="slide1">
<rect width="1231" height="765" fill="white"/>
<rect id="Rectangle 1" x="209" y="213" width="245" height="146" fill="#D9D9D9"/>
<path id="Polygon 1" d="M825 316L899.478 509.5H750.522L825 316Z" fill="#D9D9D9"/>
<rect id="new_slide2" opacity="0.5" x="332" y="445" width="241" height="173" fill="#FF0000"/>
<g id="ABC X DEF " clip-path="url(#clip0_1_4)">
<g id="page1">
<path id="Vector" d="M757.388 179.472C756.897 180.301 756.419 180.582 755.745 180.624C755.59 180.638 755.478 180.638 755.478 180.891C755.478 180.975 755.548 181.031 755.646 181.031C755.899 181.031 756.531 181.003 756.784 181.003C757.192 181.003 757.641 181.031 758.035 181.031C758.119 181.031 758.288 181.031 758.288 180.765C758.288 180.638 758.175 180.624 758.091 180.624C757.768 180.596 757.501 180.484 757.501 180.146C757.501 179.95 757.585 179.795 757.768 179.486L758.836 177.716H762.418C762.432 177.842 762.432 177.955 762.446 178.081C762.488 178.446 762.657 179.908 762.657 180.174C762.657 180.596 761.941 180.624 761.716 180.624C761.561 180.624 761.407 180.624 761.407 180.877C761.407 181.031 761.533 181.031 761.617 181.031C761.856 181.031 762.137 181.003 762.376 181.003H763.177C764.034 181.003 764.652 181.031 764.666 181.031C764.765 181.031 764.919 181.031 764.919 180.765C764.919 180.624 764.793 180.624 764.582 180.624C763.809 180.624 763.795 180.498 763.753 180.076L762.896 171.309C762.868 171.028 762.812 171 762.657 171C762.517 171 762.432 171.028 762.306 171.239L757.388 179.472ZM759.074 177.308L761.898 172.588L762.376 177.308H759.074Z" fill="black"/>
<path id="Vector_2" d="M770.455 172.391C770.581 171.871 770.638 171.843 771.186 171.843H773.012C774.6 171.843 774.6 173.192 774.6 173.318C774.6 174.456 773.462 175.903 771.607 175.903H769.584L770.455 172.391ZM772.829 176.016C774.361 175.735 775.752 174.667 775.752 173.374C775.752 172.279 774.782 171.436 773.195 171.436H768.685C768.418 171.436 768.291 171.436 768.291 171.702C768.291 171.843 768.418 171.843 768.628 171.843C769.486 171.843 769.486 171.955 769.486 172.11C769.486 172.138 769.486 172.222 769.429 172.433L767.533 179.992C767.406 180.484 767.378 180.624 766.395 180.624C766.128 180.624 765.987 180.624 765.987 180.877C765.987 181.032 766.071 181.032 766.352 181.032H771.171C773.321 181.032 774.979 179.402 774.979 177.983C774.979 176.831 773.967 176.128 772.829 176.016ZM770.834 180.624H768.938C768.741 180.624 768.713 180.624 768.628 180.61C768.474 180.596 768.46 180.568 768.46 180.455C768.46 180.357 768.488 180.273 768.516 180.146L769.5 176.184H772.141C773.799 176.184 773.799 177.73 773.799 177.842C773.799 179.191 772.576 180.624 770.834 180.624Z" fill="black"/>
<path id="Vector_3" d="M786.968 171.267C786.968 171.141 786.87 171.141 786.841 171.141C786.813 171.141 786.757 171.141 786.645 171.281L785.675 172.461C785.184 171.618 784.411 171.141 783.357 171.141C780.322 171.141 777.175 174.217 777.175 177.519C777.175 179.865 778.819 181.327 780.87 181.327C781.994 181.327 782.978 180.849 783.793 180.16C785.015 179.135 785.38 177.772 785.38 177.66C785.38 177.533 785.268 177.533 785.226 177.533C785.099 177.533 785.085 177.617 785.057 177.674C784.411 179.865 782.514 180.919 781.109 180.919C779.62 180.919 778.327 179.964 778.327 177.969C778.327 177.519 778.468 175.074 780.055 173.234C780.828 172.335 782.149 171.548 783.484 171.548C785.029 171.548 785.717 172.826 785.717 174.26C785.717 174.625 785.675 174.934 785.675 174.99C785.675 175.117 785.816 175.117 785.858 175.117C786.013 175.117 786.027 175.103 786.083 174.85L786.968 171.267Z" fill="black"/>
<path id="Vector_4" d="M793.998 175.327L792.677 172.25C792.86 171.913 793.281 171.857 793.45 171.843C793.534 171.843 793.689 171.829 793.689 171.59C793.689 171.436 793.562 171.436 793.478 171.436C793.239 171.436 792.958 171.464 792.719 171.464H791.904C791.047 171.464 790.429 171.436 790.415 171.436C790.303 171.436 790.162 171.436 790.162 171.702C790.162 171.843 790.289 171.843 790.471 171.843C791.286 171.843 791.342 171.983 791.483 172.321L793.155 176.226L790.106 179.486C789.6 180.034 788.996 180.568 787.956 180.624C787.788 180.638 787.675 180.638 787.675 180.891C787.675 180.933 787.689 181.032 787.844 181.032C788.041 181.032 788.251 181.003 788.448 181.003H789.108C789.558 181.003 790.05 181.032 790.485 181.032C790.584 181.032 790.752 181.032 790.752 180.779C790.752 180.638 790.654 180.624 790.57 180.624C790.289 180.596 790.106 180.441 790.106 180.217C790.106 179.978 790.275 179.809 790.682 179.388L791.932 178.025C792.242 177.702 792.986 176.887 793.295 176.578L794.77 180.034C794.785 180.062 794.841 180.203 794.841 180.217C794.841 180.343 794.532 180.596 794.082 180.624C793.998 180.624 793.843 180.638 793.843 180.891C793.843 181.032 793.984 181.032 794.054 181.032C794.293 181.032 794.574 181.003 794.813 181.003H796.358C796.611 181.003 796.878 181.032 797.117 181.032C797.215 181.032 797.37 181.032 797.37 180.765C797.37 180.624 797.229 180.624 797.103 180.624C796.26 180.61 796.232 180.54 795.993 180.02L794.138 175.665L795.923 173.754C796.063 173.613 796.386 173.262 796.513 173.122C797.117 172.489 797.679 171.913 798.817 171.843C798.957 171.829 799.098 171.829 799.098 171.59C799.098 171.436 798.971 171.436 798.915 171.436C798.718 171.436 798.508 171.464 798.311 171.464H797.665C797.215 171.464 796.723 171.436 796.288 171.436C796.189 171.436 796.021 171.436 796.021 171.688C796.021 171.829 796.119 171.843 796.204 171.843C796.428 171.871 796.667 171.983 796.667 172.25L796.653 172.279C796.639 172.377 796.611 172.517 796.456 172.686L793.998 175.327Z" fill="black"/>
<path id="Vector_5" d="M802.052 179.992C801.925 180.484 801.897 180.624 800.914 180.624C800.647 180.624 800.506 180.624 800.506 180.877C800.506 181.032 800.591 181.032 800.872 181.032H805.325C808.163 181.032 810.931 178.095 810.931 174.962C810.931 172.939 809.723 171.436 807.714 171.436H803.204C802.937 171.436 802.811 171.436 802.811 171.702C802.811 171.843 802.937 171.843 803.148 171.843C804.005 171.843 804.005 171.955 804.005 172.11C804.005 172.138 804.005 172.222 803.949 172.433L802.052 179.992ZM805.016 172.391C805.143 171.871 805.199 171.843 805.747 171.843H807.292C808.613 171.843 809.821 172.56 809.821 174.498C809.821 175.201 809.54 177.646 808.177 179.191C807.784 179.655 806.716 180.624 805.101 180.624H803.499C803.302 180.624 803.274 180.624 803.19 180.61C803.035 180.596 803.021 180.568 803.021 180.455C803.021 180.357 803.049 180.273 803.077 180.146L805.016 172.391Z" fill="black"/>
<path id="Vector_6" d="M821.415 177.772C821.429 177.73 821.471 177.632 821.471 177.575C821.471 177.505 821.415 177.435 821.33 177.435C821.274 177.435 821.246 177.449 821.204 177.491C821.176 177.505 821.176 177.533 821.049 177.814C820.221 179.781 819.616 180.624 817.368 180.624H815.317C815.121 180.624 815.092 180.624 815.008 180.61C814.854 180.596 814.84 180.568 814.84 180.456C814.84 180.357 814.868 180.273 814.896 180.146L815.865 176.269H817.256C818.352 176.269 818.436 176.508 818.436 176.929C818.436 177.07 818.436 177.196 818.338 177.618C818.31 177.674 818.296 177.73 818.296 177.772C818.296 177.87 818.366 177.913 818.45 177.913C818.577 177.913 818.591 177.814 818.647 177.618L819.448 174.358C819.448 174.288 819.392 174.217 819.307 174.217C819.181 174.217 819.167 174.274 819.111 174.47C818.83 175.552 818.549 175.861 817.298 175.861H815.963L816.835 172.405C816.961 171.913 816.989 171.871 817.565 171.871H819.574C821.302 171.871 821.654 172.335 821.654 173.403C821.654 173.417 821.654 173.81 821.597 174.274C821.583 174.33 821.569 174.414 821.569 174.442C821.569 174.555 821.64 174.597 821.724 174.597C821.822 174.597 821.878 174.541 821.907 174.288L822.202 171.829C822.202 171.787 822.23 171.646 822.23 171.618C822.23 171.464 822.103 171.464 821.85 171.464H814.994C814.727 171.464 814.587 171.464 814.587 171.717C814.587 171.871 814.685 171.871 814.924 171.871C815.795 171.871 815.795 171.97 815.795 172.124C815.795 172.194 815.781 172.251 815.739 172.405L813.842 179.992C813.716 180.484 813.687 180.624 812.704 180.624C812.437 180.624 812.297 180.624 812.297 180.877C812.297 181.032 812.381 181.032 812.662 181.032H819.715C820.024 181.032 820.038 181.018 820.136 180.793L821.415 177.772Z" fill="black"/>
<path id="Vector_7" d="M826.83 176.451H828.179C829.247 176.451 829.331 176.69 829.331 177.098C829.331 177.28 829.303 177.477 829.233 177.786C829.205 177.842 829.191 177.913 829.191 177.941C829.191 178.039 829.247 178.095 829.345 178.095C829.457 178.095 829.472 178.039 829.528 177.814L830.343 174.541C830.343 174.484 830.3 174.4 830.202 174.4C830.076 174.4 830.062 174.456 830.005 174.695C829.71 175.749 829.429 176.044 828.207 176.044H826.929L827.842 172.405C827.968 171.913 827.996 171.871 828.572 171.871H830.455C832.211 171.871 832.464 172.391 832.464 173.389C832.464 173.473 832.464 173.782 832.422 174.147C832.408 174.203 832.38 174.386 832.38 174.442C832.38 174.555 832.45 174.597 832.534 174.597C832.633 174.597 832.689 174.541 832.717 174.288L833.012 171.829C833.012 171.787 833.04 171.646 833.04 171.618C833.04 171.464 832.914 171.464 832.661 171.464H826.001C825.734 171.464 825.594 171.464 825.594 171.717C825.594 171.871 825.692 171.871 825.931 171.871C826.802 171.871 826.802 171.97 826.802 172.124C826.802 172.194 826.788 172.251 826.746 172.405L824.849 179.992C824.723 180.484 824.695 180.624 823.711 180.624C823.444 180.624 823.304 180.624 823.304 180.877C823.304 181.032 823.43 181.032 823.514 181.032C823.781 181.032 824.062 181.004 824.329 181.004H826.156C826.465 181.004 826.802 181.032 827.111 181.032C827.238 181.032 827.406 181.032 827.406 180.779C827.406 180.624 827.322 180.624 827.013 180.624C825.903 180.624 825.875 180.526 825.875 180.315C825.875 180.245 825.903 180.132 825.931 180.034L826.83 176.451Z" fill="black"/>
</g>
</g>
<g id="\mathcal{A}" clip-path="url(#clip1_1_4)">
<g id="page1_2">
<path id="Vector_8" d="M848.36 230.826C848.43 231.711 848.598 232.357 848.669 232.624C848.823 233.256 848.893 233.565 849.498 233.565C850.13 233.565 851.212 232.933 851.212 232.652C851.212 232.582 851.155 232.554 851.085 232.554C850.903 232.554 850.608 232.708 850.565 232.736C850.467 232.793 850.439 232.793 850.411 232.793C850.017 232.793 849.933 232.413 849.765 231.57C849.666 231.107 849.54 230.545 849.427 228.62C849.329 227.187 849.273 225.754 849.273 224.321C849.273 223.983 849.287 223.618 849.287 223.281C849.287 223.056 849.287 223 849.132 223C848.936 223 848.36 223.239 848.107 223.618L848.008 223.773C846.898 226.147 845.859 227.847 845.128 228.985C844.299 230.264 842.838 232.554 842.079 232.554C841.56 232.554 841.124 232.217 840.998 231.711C840.983 231.683 840.955 231.598 840.899 231.598C840.688 231.598 840.379 232.273 840.379 232.666C840.379 233.228 840.983 233.846 841.644 233.846C842.613 233.846 844.229 231.317 844.538 230.826H848.36ZM848.079 224.728V225.543C848.079 226.358 848.107 227.173 848.149 227.988C848.163 228.269 848.219 229.322 848.289 230.053H845.718C845.493 230.053 845.283 230.053 844.917 230.278C845.901 228.76 846.716 227.299 846.8 227.145C847.503 225.894 847.882 225.079 848.065 224.728H848.079Z" fill="black"/>
</g>
</g>
</g>
<defs>
<clipPath id="clip0_1_4">
<rect width="78.0402" height="10.3265" fill="white" transform="translate(755 171)"/>
</clipPath>
<clipPath id="clip1_1_4">
<rect width="11.2117" height="10.8464" fill="white" transform="translate(840 223)"/>
</clipPath>
</defs>
</svg>
