<svg width="1921" height="1081" viewBox="0 0 1921 1081" fill="none" xmlns="http://www.w3.org/2000/svg">
<g id="graph database">
<rect width="1920" height="1080" transform="translate(0.546875 0.587402)" fill="white"/>
<path id="author1" d="M361.354 609.683C361.354 610.707 361.53 611.475 361.882 611.987C362.234 612.467 362.762 612.835 363.466 613.091L362.458 616.163C361.146 616.003 360.09 615.635 359.29 615.059C358.49 614.483 357.898 613.587 357.514 612.371C355.818 614.899 353.306 616.163 349.978 616.163C347.482 616.163 345.514 615.459 344.074 614.051C342.634 612.643 341.914 610.803 341.914 608.531C341.914 605.843 342.874 603.779 344.794 602.339C346.746 600.899 349.498 600.179 353.05 600.179H356.938V598.307C356.938 596.515 356.506 595.235 355.642 594.467C354.778 593.699 353.45 593.315 351.658 593.315C349.802 593.315 347.53 593.763 344.842 594.659L343.738 591.443C346.874 590.291 349.786 589.715 352.474 589.715C355.45 589.715 357.674 590.451 359.146 591.923C360.618 593.363 361.354 595.427 361.354 598.115V609.683ZM350.986 612.851C353.514 612.851 355.498 611.539 356.938 608.915V603.107H353.626C348.954 603.107 346.618 604.835 346.618 608.291C346.618 609.795 346.986 610.931 347.722 611.699C348.458 612.467 349.546 612.851 350.986 612.851ZM389.239 615.587H385.447L385.111 611.651C384.151 613.219 383.047 614.371 381.799 615.107C380.551 615.811 379.031 616.163 377.239 616.163C375.031 616.163 373.303 615.491 372.055 614.147C370.807 612.803 370.183 610.899 370.183 608.435V590.291H374.599V607.955C374.599 609.683 374.903 610.915 375.511 611.651C376.119 612.355 377.111 612.707 378.487 612.707C380.951 612.707 383.063 611.251 384.823 608.339V590.291H389.239V615.587ZM411.129 614.435C409.465 615.587 407.577 616.163 405.465 616.163C403.321 616.163 401.641 615.555 400.425 614.339C399.241 613.091 398.649 611.299 398.649 608.963V593.699H394.233V590.291H398.649V584.579L403.065 584.051V590.291H409.065L408.585 593.699H403.065V608.771C403.065 610.083 403.289 611.043 403.737 611.651C404.217 612.227 405.001 612.515 406.089 612.515C407.145 612.515 408.265 612.147 409.449 611.411L411.129 614.435ZM427.609 589.715C429.913 589.715 431.705 590.403 432.985 591.779C434.297 593.155 434.953 595.043 434.953 597.443V615.587H430.537V598.067C430.537 596.275 430.185 595.011 429.481 594.275C428.809 593.539 427.817 593.171 426.505 593.171C425.193 593.171 424.025 593.555 423.001 594.323C421.977 595.091 421.017 596.179 420.121 597.587V615.587H415.705V580.163L420.121 579.683V593.795C422.105 591.075 424.601 589.715 427.609 589.715ZM453.334 589.715C456.886 589.715 459.638 590.899 461.59 593.267C463.574 595.635 464.566 598.851 464.566 602.915C464.566 605.539 464.118 607.859 463.222 609.875C462.326 611.859 461.03 613.411 459.334 614.531C457.638 615.619 455.622 616.163 453.286 616.163C449.734 616.163 446.966 614.979 444.982 612.611C442.998 610.243 442.006 607.027 442.006 602.963C442.006 600.339 442.454 598.035 443.35 596.051C444.246 594.035 445.542 592.483 447.238 591.395C448.934 590.275 450.966 589.715 453.334 589.715ZM453.334 593.267C448.95 593.267 446.758 596.499 446.758 602.963C446.758 609.395 448.934 612.611 453.286 612.611C457.638 612.611 459.814 609.379 459.814 602.915C459.814 596.483 457.654 593.267 453.334 593.267ZM482.853 589.715C483.749 589.715 484.581 589.811 485.349 590.003L484.533 594.323C483.765 594.131 483.029 594.035 482.325 594.035C480.757 594.035 479.493 594.611 478.533 595.763C477.573 596.915 476.821 598.707 476.277 601.139V615.587H471.861V590.291H475.653L476.085 595.427C476.757 593.539 477.669 592.115 478.821 591.155C479.973 590.195 481.317 589.715 482.853 589.715ZM498.968 625.283H495.272V609.059L490.568 611.795L488.936 609.251L495.656 605.267H498.968V625.283Z" fill="black"/>
<path id="author2" d="M700.354 609.683C700.354 610.707 700.53 611.475 700.882 611.987C701.234 612.467 701.762 612.835 702.466 613.091L701.458 616.163C700.146 616.003 699.09 615.635 698.29 615.059C697.49 614.483 696.898 613.587 696.514 612.371C694.818 614.899 692.306 616.163 688.978 616.163C686.482 616.163 684.514 615.459 683.074 614.051C681.634 612.643 680.914 610.803 680.914 608.531C680.914 605.843 681.874 603.779 683.794 602.339C685.746 600.899 688.498 600.179 692.05 600.179H695.938V598.307C695.938 596.515 695.506 595.235 694.642 594.467C693.778 593.699 692.45 593.315 690.658 593.315C688.802 593.315 686.53 593.763 683.842 594.659L682.738 591.443C685.874 590.291 688.786 589.715 691.474 589.715C694.45 589.715 696.674 590.451 698.146 591.923C699.618 593.363 700.354 595.427 700.354 598.115V609.683ZM689.986 612.851C692.514 612.851 694.498 611.539 695.938 608.915V603.107H692.626C687.954 603.107 685.618 604.835 685.618 608.291C685.618 609.795 685.986 610.931 686.722 611.699C687.458 612.467 688.546 612.851 689.986 612.851ZM728.239 615.587H724.447L724.111 611.651C723.151 613.219 722.047 614.371 720.799 615.107C719.551 615.811 718.031 616.163 716.239 616.163C714.031 616.163 712.303 615.491 711.055 614.147C709.807 612.803 709.183 610.899 709.183 608.435V590.291H713.599V607.955C713.599 609.683 713.903 610.915 714.511 611.651C715.119 612.355 716.111 612.707 717.487 612.707C719.951 612.707 722.063 611.251 723.823 608.339V590.291H728.239V615.587ZM750.129 614.435C748.465 615.587 746.577 616.163 744.465 616.163C742.321 616.163 740.641 615.555 739.425 614.339C738.241 613.091 737.649 611.299 737.649 608.963V593.699H733.233V590.291H737.649V584.579L742.065 584.051V590.291H748.065L747.585 593.699H742.065V608.771C742.065 610.083 742.289 611.043 742.737 611.651C743.217 612.227 744.001 612.515 745.089 612.515C746.145 612.515 747.265 612.147 748.449 611.411L750.129 614.435ZM766.609 589.715C768.913 589.715 770.705 590.403 771.985 591.779C773.297 593.155 773.953 595.043 773.953 597.443V615.587H769.537V598.067C769.537 596.275 769.185 595.011 768.481 594.275C767.809 593.539 766.817 593.171 765.505 593.171C764.193 593.171 763.025 593.555 762.001 594.323C760.977 595.091 760.017 596.179 759.121 597.587V615.587H754.705V580.163L759.121 579.683V593.795C761.105 591.075 763.601 589.715 766.609 589.715ZM792.334 589.715C795.886 589.715 798.638 590.899 800.59 593.267C802.574 595.635 803.566 598.851 803.566 602.915C803.566 605.539 803.118 607.859 802.222 609.875C801.326 611.859 800.03 613.411 798.334 614.531C796.638 615.619 794.622 616.163 792.286 616.163C788.734 616.163 785.966 614.979 783.982 612.611C781.998 610.243 781.006 607.027 781.006 602.963C781.006 600.339 781.454 598.035 782.35 596.051C783.246 594.035 784.542 592.483 786.238 591.395C787.934 590.275 789.966 589.715 792.334 589.715ZM792.334 593.267C787.95 593.267 785.758 596.499 785.758 602.963C785.758 609.395 787.934 612.611 792.286 612.611C796.638 612.611 798.814 609.379 798.814 602.915C798.814 596.483 796.654 593.267 792.334 593.267ZM821.853 589.715C822.749 589.715 823.581 589.811 824.349 590.003L823.533 594.323C822.765 594.131 822.029 594.035 821.325 594.035C819.757 594.035 818.493 594.611 817.533 595.763C816.573 596.915 815.821 598.707 815.277 601.139V615.587H810.861V590.291H814.653L815.085 595.427C815.757 593.539 816.669 592.115 817.821 591.155C818.973 590.195 820.317 589.715 821.853 589.715ZM834.176 604.931C836.224 604.931 837.84 605.475 839.024 606.563C840.24 607.651 840.848 609.027 840.848 610.691C840.848 611.779 840.576 612.835 840.032 613.859C839.52 614.851 838.672 615.987 837.488 617.267C836.304 618.547 834.56 620.227 832.256 622.307H841.328L840.944 625.283H828.032V622.499C830.72 619.907 832.64 617.987 833.792 616.739C834.944 615.523 835.76 614.483 836.24 613.619C836.752 612.755 837.008 611.875 837.008 610.979C837.008 610.019 836.72 609.267 836.144 608.723C835.568 608.179 834.816 607.907 833.888 607.907C833.056 607.907 832.336 608.067 831.728 608.387C831.12 608.707 830.48 609.251 829.808 610.019L827.456 608.195C829.216 606.019 831.456 604.931 834.176 604.931Z" fill="black"/>
<path id="author3" d="M1039.35 609.683C1039.35 610.707 1039.53 611.475 1039.88 611.987C1040.23 612.467 1040.76 612.835 1041.47 613.091L1040.46 616.163C1039.15 616.003 1038.09 615.635 1037.29 615.059C1036.49 614.483 1035.9 613.587 1035.51 612.371C1033.82 614.899 1031.31 616.163 1027.98 616.163C1025.48 616.163 1023.51 615.459 1022.07 614.051C1020.63 612.643 1019.91 610.803 1019.91 608.531C1019.91 605.843 1020.87 603.779 1022.79 602.339C1024.75 600.899 1027.5 600.179 1031.05 600.179H1034.94V598.307C1034.94 596.515 1034.51 595.235 1033.64 594.467C1032.78 593.699 1031.45 593.315 1029.66 593.315C1027.8 593.315 1025.53 593.763 1022.84 594.659L1021.74 591.443C1024.87 590.291 1027.79 589.715 1030.47 589.715C1033.45 589.715 1035.67 590.451 1037.15 591.923C1038.62 593.363 1039.35 595.427 1039.35 598.115V609.683ZM1028.99 612.851C1031.51 612.851 1033.5 611.539 1034.94 608.915V603.107H1031.63C1026.95 603.107 1024.62 604.835 1024.62 608.291C1024.62 609.795 1024.99 610.931 1025.72 611.699C1026.46 612.467 1027.55 612.851 1028.99 612.851ZM1067.24 615.587H1063.45L1063.11 611.651C1062.15 613.219 1061.05 614.371 1059.8 615.107C1058.55 615.811 1057.03 616.163 1055.24 616.163C1053.03 616.163 1051.3 615.491 1050.06 614.147C1048.81 612.803 1048.18 610.899 1048.18 608.435V590.291H1052.6V607.955C1052.6 609.683 1052.9 610.915 1053.51 611.651C1054.12 612.355 1055.11 612.707 1056.49 612.707C1058.95 612.707 1061.06 611.251 1062.82 608.339V590.291H1067.24V615.587ZM1089.13 614.435C1087.46 615.587 1085.58 616.163 1083.46 616.163C1081.32 616.163 1079.64 615.555 1078.42 614.339C1077.24 613.091 1076.65 611.299 1076.65 608.963V593.699H1072.23V590.291H1076.65V584.579L1081.06 584.051V590.291H1087.06L1086.58 593.699H1081.06V608.771C1081.06 610.083 1081.29 611.043 1081.74 611.651C1082.22 612.227 1083 612.515 1084.09 612.515C1085.14 612.515 1086.26 612.147 1087.45 611.411L1089.13 614.435ZM1105.61 589.715C1107.91 589.715 1109.7 590.403 1110.98 591.779C1112.3 593.155 1112.95 595.043 1112.95 597.443V615.587H1108.54V598.067C1108.54 596.275 1108.18 595.011 1107.48 594.275C1106.81 593.539 1105.82 593.171 1104.5 593.171C1103.19 593.171 1102.02 593.555 1101 594.323C1099.98 595.091 1099.02 596.179 1098.12 597.587V615.587H1093.7V580.163L1098.12 579.683V593.795C1100.1 591.075 1102.6 589.715 1105.61 589.715ZM1131.33 589.715C1134.89 589.715 1137.64 590.899 1139.59 593.267C1141.57 595.635 1142.57 598.851 1142.57 602.915C1142.57 605.539 1142.12 607.859 1141.22 609.875C1140.33 611.859 1139.03 613.411 1137.33 614.531C1135.64 615.619 1133.62 616.163 1131.29 616.163C1127.73 616.163 1124.97 614.979 1122.98 612.611C1121 610.243 1120.01 607.027 1120.01 602.963C1120.01 600.339 1120.45 598.035 1121.35 596.051C1122.25 594.035 1123.54 592.483 1125.24 591.395C1126.93 590.275 1128.97 589.715 1131.33 589.715ZM1131.33 593.267C1126.95 593.267 1124.76 596.499 1124.76 602.963C1124.76 609.395 1126.93 612.611 1131.29 612.611C1135.64 612.611 1137.81 609.379 1137.81 602.915C1137.81 596.483 1135.65 593.267 1131.33 593.267ZM1160.85 589.715C1161.75 589.715 1162.58 589.811 1163.35 590.003L1162.53 594.323C1161.76 594.131 1161.03 594.035 1160.32 594.035C1158.76 594.035 1157.49 594.611 1156.53 595.763C1155.57 596.915 1154.82 598.707 1154.28 601.139V615.587H1149.86V590.291H1153.65L1154.08 595.427C1154.76 593.539 1155.67 592.115 1156.82 591.155C1157.97 590.195 1159.32 589.715 1160.85 589.715ZM1173.27 604.931C1175.32 604.931 1176.92 605.411 1178.07 606.371C1179.26 607.331 1179.85 608.531 1179.85 609.971C1179.85 611.187 1179.48 612.195 1178.74 612.995C1178.01 613.795 1177 614.355 1175.72 614.675C1177.13 614.803 1178.28 615.283 1179.18 616.115C1180.07 616.947 1180.52 618.099 1180.52 619.571C1180.52 621.331 1179.83 622.787 1178.46 623.939C1177.11 625.123 1175.29 625.715 1172.98 625.715C1170.2 625.715 1167.98 624.755 1166.31 622.835L1168.47 620.819C1169.69 622.131 1171.13 622.787 1172.79 622.787C1173.98 622.787 1174.9 622.483 1175.58 621.875C1176.28 621.267 1176.63 620.435 1176.63 619.379C1176.63 618.227 1176.3 617.395 1175.62 616.883C1174.98 616.403 1174.04 616.163 1172.79 616.163H1171.16L1171.59 613.475H1172.7C1173.72 613.475 1174.55 613.219 1175.19 612.707C1175.83 612.163 1176.15 611.411 1176.15 610.451C1176.15 609.619 1175.86 608.963 1175.29 608.483C1174.71 608.003 1173.94 607.763 1172.98 607.763C1172.18 607.763 1171.45 607.907 1170.78 608.195C1170.1 608.483 1169.43 608.931 1168.76 609.539L1166.84 607.427C1168.7 605.763 1170.84 604.931 1173.27 604.931Z" fill="black"/>
<path id="author4" d="M1378.35 609.683C1378.35 610.707 1378.53 611.475 1378.88 611.987C1379.23 612.467 1379.76 612.835 1380.47 613.091L1379.46 616.163C1378.15 616.003 1377.09 615.635 1376.29 615.059C1375.49 614.483 1374.9 613.587 1374.51 612.371C1372.82 614.899 1370.31 616.163 1366.98 616.163C1364.48 616.163 1362.51 615.459 1361.07 614.051C1359.63 612.643 1358.91 610.803 1358.91 608.531C1358.91 605.843 1359.87 603.779 1361.79 602.339C1363.75 600.899 1366.5 600.179 1370.05 600.179H1373.94V598.307C1373.94 596.515 1373.51 595.235 1372.64 594.467C1371.78 593.699 1370.45 593.315 1368.66 593.315C1366.8 593.315 1364.53 593.763 1361.84 594.659L1360.74 591.443C1363.87 590.291 1366.79 589.715 1369.47 589.715C1372.45 589.715 1374.67 590.451 1376.15 591.923C1377.62 593.363 1378.35 595.427 1378.35 598.115V609.683ZM1367.99 612.851C1370.51 612.851 1372.5 611.539 1373.94 608.915V603.107H1370.63C1365.95 603.107 1363.62 604.835 1363.62 608.291C1363.62 609.795 1363.99 610.931 1364.72 611.699C1365.46 612.467 1366.55 612.851 1367.99 612.851ZM1406.24 615.587H1402.45L1402.11 611.651C1401.15 613.219 1400.05 614.371 1398.8 615.107C1397.55 615.811 1396.03 616.163 1394.24 616.163C1392.03 616.163 1390.3 615.491 1389.06 614.147C1387.81 612.803 1387.18 610.899 1387.18 608.435V590.291H1391.6V607.955C1391.6 609.683 1391.9 610.915 1392.51 611.651C1393.12 612.355 1394.11 612.707 1395.49 612.707C1397.95 612.707 1400.06 611.251 1401.82 608.339V590.291H1406.24V615.587ZM1428.13 614.435C1426.46 615.587 1424.58 616.163 1422.46 616.163C1420.32 616.163 1418.64 615.555 1417.42 614.339C1416.24 613.091 1415.65 611.299 1415.65 608.963V593.699H1411.23V590.291H1415.65V584.579L1420.06 584.051V590.291H1426.06L1425.58 593.699H1420.06V608.771C1420.06 610.083 1420.29 611.043 1420.74 611.651C1421.22 612.227 1422 612.515 1423.09 612.515C1424.14 612.515 1425.26 612.147 1426.45 611.411L1428.13 614.435ZM1444.61 589.715C1446.91 589.715 1448.7 590.403 1449.98 591.779C1451.3 593.155 1451.95 595.043 1451.95 597.443V615.587H1447.54V598.067C1447.54 596.275 1447.18 595.011 1446.48 594.275C1445.81 593.539 1444.82 593.171 1443.5 593.171C1442.19 593.171 1441.02 593.555 1440 594.323C1438.98 595.091 1438.02 596.179 1437.12 597.587V615.587H1432.7V580.163L1437.12 579.683V593.795C1439.1 591.075 1441.6 589.715 1444.61 589.715ZM1470.33 589.715C1473.89 589.715 1476.64 590.899 1478.59 593.267C1480.57 595.635 1481.57 598.851 1481.57 602.915C1481.57 605.539 1481.12 607.859 1480.22 609.875C1479.33 611.859 1478.03 613.411 1476.33 614.531C1474.64 615.619 1472.62 616.163 1470.29 616.163C1466.73 616.163 1463.97 614.979 1461.98 612.611C1460 610.243 1459.01 607.027 1459.01 602.963C1459.01 600.339 1459.45 598.035 1460.35 596.051C1461.25 594.035 1462.54 592.483 1464.24 591.395C1465.93 590.275 1467.97 589.715 1470.33 589.715ZM1470.33 593.267C1465.95 593.267 1463.76 596.499 1463.76 602.963C1463.76 609.395 1465.93 612.611 1470.29 612.611C1474.64 612.611 1476.81 609.379 1476.81 602.915C1476.81 596.483 1474.65 593.267 1470.33 593.267ZM1499.85 589.715C1500.75 589.715 1501.58 589.811 1502.35 590.003L1501.53 594.323C1500.76 594.131 1500.03 594.035 1499.32 594.035C1497.76 594.035 1496.49 594.611 1495.53 595.763C1494.57 596.915 1493.82 598.707 1493.28 601.139V615.587H1488.86V590.291H1492.65L1493.08 595.427C1493.76 593.539 1494.67 592.115 1495.82 591.155C1496.97 590.195 1498.32 589.715 1499.85 589.715ZM1519.95 620.675H1517.41V625.283H1513.76V620.675H1504.83V618.083L1510.98 604.931L1514.14 606.131L1508.72 617.795H1513.81L1514.14 612.755H1517.41V617.795H1519.95V620.675Z" fill="black"/>
<path id="author5" d="M1717.35 609.683C1717.35 610.707 1717.53 611.475 1717.88 611.987C1718.23 612.467 1718.76 612.835 1719.47 613.091L1718.46 616.163C1717.15 616.003 1716.09 615.635 1715.29 615.059C1714.49 614.483 1713.9 613.587 1713.51 612.371C1711.82 614.899 1709.31 616.163 1705.98 616.163C1703.48 616.163 1701.51 615.459 1700.07 614.051C1698.63 612.643 1697.91 610.803 1697.91 608.531C1697.91 605.843 1698.87 603.779 1700.79 602.339C1702.75 600.899 1705.5 600.179 1709.05 600.179H1712.94V598.307C1712.94 596.515 1712.51 595.235 1711.64 594.467C1710.78 593.699 1709.45 593.315 1707.66 593.315C1705.8 593.315 1703.53 593.763 1700.84 594.659L1699.74 591.443C1702.87 590.291 1705.79 589.715 1708.47 589.715C1711.45 589.715 1713.67 590.451 1715.15 591.923C1716.62 593.363 1717.35 595.427 1717.35 598.115V609.683ZM1706.99 612.851C1709.51 612.851 1711.5 611.539 1712.94 608.915V603.107H1709.63C1704.95 603.107 1702.62 604.835 1702.62 608.291C1702.62 609.795 1702.99 610.931 1703.72 611.699C1704.46 612.467 1705.55 612.851 1706.99 612.851ZM1745.24 615.587H1741.45L1741.11 611.651C1740.15 613.219 1739.05 614.371 1737.8 615.107C1736.55 615.811 1735.03 616.163 1733.24 616.163C1731.03 616.163 1729.3 615.491 1728.06 614.147C1726.81 612.803 1726.18 610.899 1726.18 608.435V590.291H1730.6V607.955C1730.6 609.683 1730.9 610.915 1731.51 611.651C1732.12 612.355 1733.11 612.707 1734.49 612.707C1736.95 612.707 1739.06 611.251 1740.82 608.339V590.291H1745.24V615.587ZM1767.13 614.435C1765.46 615.587 1763.58 616.163 1761.46 616.163C1759.32 616.163 1757.64 615.555 1756.42 614.339C1755.24 613.091 1754.65 611.299 1754.65 608.963V593.699H1750.23V590.291H1754.65V584.579L1759.06 584.051V590.291H1765.06L1764.58 593.699H1759.06V608.771C1759.06 610.083 1759.29 611.043 1759.74 611.651C1760.22 612.227 1761 612.515 1762.09 612.515C1763.14 612.515 1764.26 612.147 1765.45 611.411L1767.13 614.435ZM1783.61 589.715C1785.91 589.715 1787.7 590.403 1788.98 591.779C1790.3 593.155 1790.95 595.043 1790.95 597.443V615.587H1786.54V598.067C1786.54 596.275 1786.18 595.011 1785.48 594.275C1784.81 593.539 1783.82 593.171 1782.5 593.171C1781.19 593.171 1780.02 593.555 1779 594.323C1777.98 595.091 1777.02 596.179 1776.12 597.587V615.587H1771.7V580.163L1776.12 579.683V593.795C1778.1 591.075 1780.6 589.715 1783.61 589.715ZM1809.33 589.715C1812.89 589.715 1815.64 590.899 1817.59 593.267C1819.57 595.635 1820.57 598.851 1820.57 602.915C1820.57 605.539 1820.12 607.859 1819.22 609.875C1818.33 611.859 1817.03 613.411 1815.33 614.531C1813.64 615.619 1811.62 616.163 1809.29 616.163C1805.73 616.163 1802.97 614.979 1800.98 612.611C1799 610.243 1798.01 607.027 1798.01 602.963C1798.01 600.339 1798.45 598.035 1799.35 596.051C1800.25 594.035 1801.54 592.483 1803.24 591.395C1804.93 590.275 1806.97 589.715 1809.33 589.715ZM1809.33 593.267C1804.95 593.267 1802.76 596.499 1802.76 602.963C1802.76 609.395 1804.93 612.611 1809.29 612.611C1813.64 612.611 1815.81 609.379 1815.81 602.915C1815.81 596.483 1813.65 593.267 1809.33 593.267ZM1838.85 589.715C1839.75 589.715 1840.58 589.811 1841.35 590.003L1840.53 594.323C1839.76 594.131 1839.03 594.035 1838.32 594.035C1836.76 594.035 1835.49 594.611 1834.53 595.763C1833.57 596.915 1832.82 598.707 1832.28 601.139V615.587H1827.86V590.291H1831.65L1832.08 595.427C1832.76 593.539 1833.67 592.115 1834.82 591.155C1835.97 590.195 1837.32 589.715 1838.85 589.715ZM1857.22 608.051H1849.3V613.043C1850.36 612.563 1851.43 612.323 1852.52 612.323C1854.31 612.323 1855.75 612.899 1856.84 614.051C1857.96 615.203 1858.52 616.771 1858.52 618.755C1858.52 620.835 1857.82 622.515 1856.41 623.795C1855 625.075 1853.14 625.715 1850.84 625.715C1848.28 625.715 1846.1 624.787 1844.31 622.931L1846.52 620.867C1847.7 622.147 1849.11 622.787 1850.74 622.787C1851.96 622.787 1852.92 622.435 1853.62 621.731C1854.33 621.059 1854.68 620.067 1854.68 618.755C1854.68 616.259 1853.53 615.011 1851.22 615.011C1850.33 615.011 1849.4 615.251 1848.44 615.731H1845.7V605.267H1857.7L1857.22 608.051Z" fill="black"/>
<path id="paper1" d="M534.977 887.715C538.209 887.715 540.577 888.867 542.081 891.171C543.585 893.475 544.337 896.723 544.337 900.915C544.337 904.883 543.473 908.083 541.745 910.515C540.017 912.947 537.569 914.163 534.401 914.163C531.585 914.163 529.377 913.203 527.777 911.283V923.283L523.361 923.811V888.291H527.153L527.489 891.699C528.417 890.419 529.537 889.443 530.849 888.771C532.161 888.067 533.537 887.715 534.977 887.715ZM533.345 910.563C537.505 910.563 539.585 907.347 539.585 900.915C539.585 894.451 537.681 891.219 533.873 891.219C532.625 891.219 531.489 891.587 530.465 892.323C529.441 893.059 528.545 894.003 527.777 895.155V907.491C528.417 908.483 529.217 909.251 530.177 909.795C531.137 910.307 532.193 910.563 533.345 910.563ZM568.901 907.683C568.901 908.707 569.077 909.475 569.429 909.987C569.781 910.467 570.309 910.835 571.013 911.091L570.005 914.163C568.693 914.003 567.637 913.635 566.837 913.059C566.037 912.483 565.445 911.587 565.061 910.371C563.365 912.899 560.853 914.163 557.525 914.163C555.029 914.163 553.061 913.459 551.621 912.051C550.181 910.643 549.461 908.803 549.461 906.531C549.461 903.843 550.421 901.779 552.341 900.339C554.293 898.899 557.045 898.179 560.597 898.179H564.485V896.307C564.485 894.515 564.053 893.235 563.189 892.467C562.325 891.699 560.997 891.315 559.205 891.315C557.349 891.315 555.077 891.763 552.389 892.659L551.285 889.443C554.421 888.291 557.333 887.715 560.021 887.715C562.997 887.715 565.221 888.451 566.693 889.923C568.165 891.363 568.901 893.427 568.901 896.115V907.683ZM558.533 910.851C561.061 910.851 563.045 909.539 564.485 906.915V901.107H561.173C556.501 901.107 554.165 902.835 554.165 906.291C554.165 907.795 554.533 908.931 555.269 909.699C556.005 910.467 557.093 910.851 558.533 910.851ZM589.586 887.715C592.818 887.715 595.186 888.867 596.69 891.171C598.194 893.475 598.946 896.723 598.946 900.915C598.946 904.883 598.082 908.083 596.354 910.515C594.626 912.947 592.178 914.163 589.01 914.163C586.194 914.163 583.986 913.203 582.386 911.283V923.283L577.97 923.811V888.291H581.762L582.098 891.699C583.026 890.419 584.146 889.443 585.458 888.771C586.77 888.067 588.146 887.715 589.586 887.715ZM587.954 910.563C592.114 910.563 594.194 907.347 594.194 900.915C594.194 894.451 592.29 891.219 588.482 891.219C587.234 891.219 586.098 891.587 585.074 892.323C584.05 893.059 583.154 894.003 582.386 895.155V907.491C583.026 908.483 583.826 909.251 584.786 909.795C585.746 910.307 586.802 910.563 587.954 910.563ZM625.574 900.195C625.574 900.931 625.542 901.683 625.478 902.451H609.35C609.542 905.235 610.246 907.283 611.462 908.595C612.678 909.907 614.246 910.563 616.166 910.563C617.382 910.563 618.502 910.387 619.526 910.035C620.55 909.683 621.622 909.123 622.742 908.355L624.662 910.995C621.974 913.107 619.03 914.163 615.83 914.163C612.31 914.163 609.558 913.011 607.574 910.707C605.622 908.403 604.646 905.235 604.646 901.203C604.646 898.579 605.062 896.259 605.894 894.243C606.758 892.195 607.974 890.595 609.542 889.443C611.142 888.291 613.014 887.715 615.158 887.715C618.518 887.715 621.094 888.819 622.886 891.027C624.678 893.235 625.574 896.291 625.574 900.195ZM621.206 898.899C621.206 896.403 620.71 894.499 619.718 893.187C618.726 891.875 617.238 891.219 615.254 891.219C611.638 891.219 609.67 893.875 609.35 899.187H621.206V898.899ZM643.853 887.715C644.749 887.715 645.581 887.811 646.349 888.003L645.533 892.323C644.765 892.131 644.029 892.035 643.325 892.035C641.757 892.035 640.493 892.611 639.533 893.763C638.573 894.915 637.821 896.707 637.277 899.139V913.587H632.861V888.291H636.653L637.085 893.427C637.757 891.539 638.669 890.115 639.821 889.155C640.973 888.195 642.317 887.715 643.853 887.715ZM659.968 923.283H656.272V907.059L651.568 909.795L649.936 907.251L656.656 903.267H659.968V923.283Z" fill="black"/>
<path id="paper2" d="M884.977 887.715C888.209 887.715 890.577 888.867 892.081 891.171C893.585 893.475 894.337 896.723 894.337 900.915C894.337 904.883 893.473 908.083 891.745 910.515C890.017 912.947 887.569 914.163 884.401 914.163C881.585 914.163 879.377 913.203 877.777 911.283V923.283L873.361 923.811V888.291H877.153L877.489 891.699C878.417 890.419 879.537 889.443 880.849 888.771C882.161 888.067 883.537 887.715 884.977 887.715ZM883.345 910.563C887.505 910.563 889.585 907.347 889.585 900.915C889.585 894.451 887.681 891.219 883.873 891.219C882.625 891.219 881.489 891.587 880.465 892.323C879.441 893.059 878.545 894.003 877.777 895.155V907.491C878.417 908.483 879.217 909.251 880.177 909.795C881.137 910.307 882.193 910.563 883.345 910.563ZM918.901 907.683C918.901 908.707 919.077 909.475 919.429 909.987C919.781 910.467 920.309 910.835 921.013 911.091L920.005 914.163C918.693 914.003 917.637 913.635 916.837 913.059C916.037 912.483 915.445 911.587 915.061 910.371C913.365 912.899 910.853 914.163 907.525 914.163C905.029 914.163 903.061 913.459 901.621 912.051C900.181 910.643 899.461 908.803 899.461 906.531C899.461 903.843 900.421 901.779 902.341 900.339C904.293 898.899 907.045 898.179 910.597 898.179H914.485V896.307C914.485 894.515 914.053 893.235 913.189 892.467C912.325 891.699 910.997 891.315 909.205 891.315C907.349 891.315 905.077 891.763 902.389 892.659L901.285 889.443C904.421 888.291 907.333 887.715 910.021 887.715C912.997 887.715 915.221 888.451 916.693 889.923C918.165 891.363 918.901 893.427 918.901 896.115V907.683ZM908.533 910.851C911.061 910.851 913.045 909.539 914.485 906.915V901.107H911.173C906.501 901.107 904.165 902.835 904.165 906.291C904.165 907.795 904.533 908.931 905.269 909.699C906.005 910.467 907.093 910.851 908.533 910.851ZM939.586 887.715C942.818 887.715 945.186 888.867 946.69 891.171C948.194 893.475 948.946 896.723 948.946 900.915C948.946 904.883 948.082 908.083 946.354 910.515C944.626 912.947 942.178 914.163 939.01 914.163C936.194 914.163 933.986 913.203 932.386 911.283V923.283L927.97 923.811V888.291H931.762L932.098 891.699C933.026 890.419 934.146 889.443 935.458 888.771C936.77 888.067 938.146 887.715 939.586 887.715ZM937.954 910.563C942.114 910.563 944.194 907.347 944.194 900.915C944.194 894.451 942.29 891.219 938.482 891.219C937.234 891.219 936.098 891.587 935.074 892.323C934.05 893.059 933.154 894.003 932.386 895.155V907.491C933.026 908.483 933.826 909.251 934.786 909.795C935.746 910.307 936.802 910.563 937.954 910.563ZM975.574 900.195C975.574 900.931 975.542 901.683 975.478 902.451H959.35C959.542 905.235 960.246 907.283 961.462 908.595C962.678 909.907 964.246 910.563 966.166 910.563C967.382 910.563 968.502 910.387 969.526 910.035C970.55 909.683 971.622 909.123 972.742 908.355L974.662 910.995C971.974 913.107 969.03 914.163 965.83 914.163C962.31 914.163 959.558 913.011 957.574 910.707C955.622 908.403 954.646 905.235 954.646 901.203C954.646 898.579 955.062 896.259 955.894 894.243C956.758 892.195 957.974 890.595 959.542 889.443C961.142 888.291 963.014 887.715 965.158 887.715C968.518 887.715 971.094 888.819 972.886 891.027C974.678 893.235 975.574 896.291 975.574 900.195ZM971.206 898.899C971.206 896.403 970.71 894.499 969.718 893.187C968.726 891.875 967.238 891.219 965.254 891.219C961.638 891.219 959.67 893.875 959.35 899.187H971.206V898.899ZM993.853 887.715C994.749 887.715 995.581 887.811 996.349 888.003L995.533 892.323C994.765 892.131 994.029 892.035 993.325 892.035C991.757 892.035 990.493 892.611 989.533 893.763C988.573 894.915 987.821 896.707 987.277 899.139V913.587H982.861V888.291H986.653L987.085 893.427C987.757 891.539 988.669 890.115 989.821 889.155C990.973 888.195 992.317 887.715 993.853 887.715ZM1006.18 902.931C1008.22 902.931 1009.84 903.475 1011.02 904.563C1012.24 905.651 1012.85 907.027 1012.85 908.691C1012.85 909.779 1012.58 910.835 1012.03 911.859C1011.52 912.851 1010.67 913.987 1009.49 915.267C1008.3 916.547 1006.56 918.227 1004.26 920.307H1013.33L1012.94 923.283H1000.03V920.499C1002.72 917.907 1004.64 915.987 1005.79 914.739C1006.94 913.523 1007.76 912.483 1008.24 911.619C1008.75 910.755 1009.01 909.875 1009.01 908.979C1009.01 908.019 1008.72 907.267 1008.14 906.723C1007.57 906.179 1006.82 905.907 1005.89 905.907C1005.06 905.907 1004.34 906.067 1003.73 906.387C1003.12 906.707 1002.48 907.251 1001.81 908.019L999.456 906.195C1001.22 904.019 1003.46 902.931 1006.18 902.931Z" fill="black"/>
<path id="paper3" d="M1391.06 887.243C1394.29 887.243 1396.66 888.395 1398.16 890.699C1399.66 893.003 1400.42 896.251 1400.42 900.443C1400.42 904.411 1399.55 907.611 1397.82 910.043C1396.1 912.475 1393.65 913.691 1390.48 913.691C1387.66 913.691 1385.46 912.731 1383.86 910.811V922.811L1379.44 923.339V887.819H1383.23L1383.57 891.227C1384.5 889.947 1385.62 888.971 1386.93 888.299C1388.24 887.595 1389.62 887.243 1391.06 887.243ZM1389.42 910.091C1393.58 910.091 1395.66 906.875 1395.66 900.443C1395.66 893.979 1393.76 890.747 1389.95 890.747C1388.7 890.747 1387.57 891.115 1386.54 891.851C1385.52 892.587 1384.62 893.531 1383.86 894.683V907.019C1384.5 908.011 1385.3 908.779 1386.26 909.323C1387.22 909.835 1388.27 910.091 1389.42 910.091ZM1424.98 907.211C1424.98 908.235 1425.16 909.003 1425.51 909.515C1425.86 909.995 1426.39 910.363 1427.09 910.619L1426.08 913.691C1424.77 913.531 1423.72 913.163 1422.92 912.587C1422.12 912.011 1421.52 911.115 1421.14 909.899C1419.44 912.427 1416.93 913.691 1413.6 913.691C1411.11 913.691 1409.14 912.987 1407.7 911.579C1406.26 910.171 1405.54 908.331 1405.54 906.059C1405.54 903.371 1406.5 901.307 1408.42 899.867C1410.37 898.427 1413.12 897.707 1416.68 897.707H1420.56V895.835C1420.56 894.043 1420.13 892.763 1419.27 891.995C1418.4 891.227 1417.08 890.843 1415.28 890.843C1413.43 890.843 1411.16 891.291 1408.47 892.187L1407.36 888.971C1410.5 887.819 1413.41 887.243 1416.1 887.243C1419.08 887.243 1421.3 887.979 1422.77 889.451C1424.24 890.891 1424.98 892.955 1424.98 895.643V907.211ZM1414.61 910.379C1417.14 910.379 1419.12 909.067 1420.56 906.443V900.635H1417.25C1412.58 900.635 1410.24 902.363 1410.24 905.819C1410.24 907.323 1410.61 908.459 1411.35 909.227C1412.08 909.995 1413.17 910.379 1414.61 910.379ZM1445.67 887.243C1448.9 887.243 1451.27 888.395 1452.77 890.699C1454.27 893.003 1455.03 896.251 1455.03 900.443C1455.03 904.411 1454.16 907.611 1452.43 910.043C1450.71 912.475 1448.26 913.691 1445.09 913.691C1442.27 913.691 1440.07 912.731 1438.47 910.811V922.811L1434.05 923.339V887.819H1437.84L1438.18 891.227C1439.11 889.947 1440.23 888.971 1441.54 888.299C1442.85 887.595 1444.23 887.243 1445.67 887.243ZM1444.03 910.091C1448.19 910.091 1450.27 906.875 1450.27 900.443C1450.27 893.979 1448.37 890.747 1444.56 890.747C1443.31 890.747 1442.18 891.115 1441.15 891.851C1440.13 892.587 1439.23 893.531 1438.47 894.683V907.019C1439.11 908.011 1439.91 908.779 1440.87 909.323C1441.83 909.835 1442.88 910.091 1444.03 910.091ZM1481.65 899.723C1481.65 900.459 1481.62 901.211 1481.56 901.979H1465.43C1465.62 904.763 1466.33 906.811 1467.54 908.123C1468.76 909.435 1470.33 910.091 1472.25 910.091C1473.46 910.091 1474.58 909.915 1475.61 909.563C1476.63 909.211 1477.7 908.651 1478.82 907.883L1480.74 910.523C1478.05 912.635 1475.11 913.691 1471.91 913.691C1468.39 913.691 1465.64 912.539 1463.65 910.235C1461.7 907.931 1460.73 904.763 1460.73 900.731C1460.73 898.107 1461.14 895.787 1461.97 893.771C1462.84 891.723 1464.05 890.123 1465.62 888.971C1467.22 887.819 1469.09 887.243 1471.24 887.243C1474.6 887.243 1477.17 888.347 1478.97 890.555C1480.76 892.763 1481.65 895.819 1481.65 899.723ZM1477.29 898.427C1477.29 895.931 1476.79 894.027 1475.8 892.715C1474.81 891.403 1473.32 890.747 1471.33 890.747C1467.72 890.747 1465.75 893.403 1465.43 898.715H1477.29V898.427ZM1499.93 887.243C1500.83 887.243 1501.66 887.339 1502.43 887.531L1501.61 891.851C1500.84 891.659 1500.11 891.563 1499.4 891.563C1497.84 891.563 1496.57 892.139 1495.61 893.291C1494.65 894.443 1493.9 896.235 1493.36 898.667V913.115H1488.94V887.819H1492.73L1493.16 892.955C1493.84 891.067 1494.75 889.643 1495.9 888.683C1497.05 887.723 1498.4 887.243 1499.93 887.243ZM1512.35 902.459C1514.4 902.459 1516 902.939 1517.15 903.899C1518.34 904.859 1518.93 906.059 1518.93 907.499C1518.93 908.715 1518.56 909.723 1517.82 910.523C1517.09 911.323 1516.08 911.883 1514.8 912.203C1516.21 912.331 1517.36 912.811 1518.26 913.643C1519.15 914.475 1519.6 915.627 1519.6 917.099C1519.6 918.859 1518.91 920.315 1517.54 921.467C1516.19 922.651 1514.37 923.243 1512.06 923.243C1509.28 923.243 1507.06 922.283 1505.39 920.363L1507.55 918.347C1508.77 919.659 1510.21 920.315 1511.87 920.315C1513.06 920.315 1513.98 920.011 1514.66 919.403C1515.36 918.795 1515.71 917.963 1515.71 916.907C1515.71 915.755 1515.38 914.923 1514.7 914.411C1514.06 913.931 1513.12 913.691 1511.87 913.691H1510.24L1510.67 911.003H1511.78C1512.8 911.003 1513.63 910.747 1514.27 910.235C1514.91 909.691 1515.23 908.939 1515.23 907.979C1515.23 907.147 1514.94 906.491 1514.37 906.011C1513.79 905.531 1513.02 905.291 1512.06 905.291C1511.26 905.291 1510.53 905.435 1509.86 905.723C1509.18 906.011 1508.51 906.459 1507.84 907.067L1505.92 904.955C1507.78 903.291 1509.92 902.459 1512.35 902.459Z" fill="black"/>
<g id="wrote">
<path id="Arrow 2" d="M567.862 840.084C568.951 840.27 569.985 839.538 570.17 838.449L573.2 820.706C573.386 819.617 572.654 818.584 571.565 818.398C570.476 818.212 569.443 818.944 569.257 820.033L566.564 835.805L550.792 833.112C549.703 832.926 548.67 833.658 548.484 834.747C548.298 835.836 549.03 836.869 550.119 837.055L567.862 840.084ZM441.035 658.587L439.403 659.743L566.567 839.269L568.199 838.113L569.831 836.957L442.667 657.431L441.035 658.587Z" fill="#FF2D55"/>
<path id="Arrow 3" d="M602.372 840.084C601.283 840.27 600.25 839.538 600.064 838.449L597.035 820.706C596.849 819.617 597.581 818.584 598.669 818.398C599.758 818.212 600.792 818.944 600.978 820.033L603.67 835.805L619.442 833.112C620.531 832.926 621.564 833.658 621.75 834.747C621.936 835.836 621.204 836.869 620.115 837.055L602.372 840.084ZM729.199 658.587L730.831 659.743L603.667 839.269L602.035 838.113L600.403 836.957L727.567 657.431L729.199 658.587Z" fill="#FF2D55"/>
<path id="Arrow 4" d="M924.862 840.084C925.951 840.27 926.985 839.538 927.17 838.449L930.2 820.706C930.386 819.617 929.654 818.584 928.565 818.398C927.476 818.212 926.443 818.944 926.257 820.033L923.564 835.805L907.792 833.112C906.703 832.926 905.67 833.658 905.484 834.747C905.298 835.836 906.03 836.869 907.119 837.055L924.862 840.084ZM798.035 658.587L796.403 659.743L923.567 839.269L925.199 838.113L926.831 836.957L799.667 657.431L798.035 658.587Z" fill="#FF2D55"/>
<path id="Arrow 5" d="M959.372 840.084C958.283 840.27 957.25 839.538 957.064 838.449L954.035 820.706C953.849 819.617 954.581 818.584 955.669 818.398C956.758 818.212 957.792 818.944 957.978 820.033L960.67 835.805L976.442 833.112C977.531 832.926 978.564 833.658 978.75 834.747C978.936 835.836 978.204 836.869 977.115 837.055L959.372 840.084ZM1086.2 658.587L1087.83 659.743L960.667 839.269L959.035 838.113L957.403 836.957L1084.57 657.431L1086.2 658.587Z" fill="#FF2D55"/>
<path id="Arrow 6" d="M1391.9 870.103C1392.99 870.225 1393.98 869.433 1394.1 868.335L1396.08 850.444C1396.2 849.346 1395.41 848.358 1394.31 848.236C1393.21 848.115 1392.22 848.907 1392.1 850.005L1390.35 865.908L1374.44 864.152C1373.35 864.03 1372.36 864.822 1372.24 865.92C1372.12 867.018 1372.91 868.006 1374 868.127L1391.9 870.103ZM1126.12 658.115L1125.71 660.075C1154.59 665.998 1185.58 681.957 1215.91 702.704C1246.21 723.434 1275.72 748.856 1301.61 773.562C1327.5 798.264 1349.74 822.221 1365.51 840.005C1373.39 848.896 1379.66 856.241 1383.95 861.361C1386.1 863.921 1387.75 865.925 1388.87 867.288C1389.42 867.969 1389.85 868.49 1390.13 868.84C1390.27 869.015 1390.38 869.147 1390.45 869.235C1390.48 869.279 1390.51 869.312 1390.53 869.334C1390.54 869.345 1390.54 869.353 1390.55 869.358C1390.55 869.361 1390.55 869.363 1390.55 869.364C1390.55 869.365 1390.55 869.366 1392.12 868.115C1393.68 866.865 1393.68 866.864 1393.67 866.862C1393.67 866.861 1393.67 866.859 1393.67 866.856C1393.66 866.85 1393.66 866.841 1393.65 866.829C1393.63 866.806 1393.6 866.772 1393.56 866.726C1393.49 866.635 1393.38 866.5 1393.24 866.323C1392.95 865.967 1392.52 865.441 1391.96 864.754C1390.84 863.38 1389.17 861.364 1387.02 858.792C1382.7 853.646 1376.41 846.273 1368.5 837.351C1352.68 819.509 1330.36 795.467 1304.37 770.669C1278.39 745.875 1248.71 720.297 1218.17 699.402C1187.65 678.524 1156.14 662.233 1126.52 656.156L1126.12 658.115Z" fill="#FF2D55"/>
<path id="Arrow 7" d="M1488.16 868.535C1488.39 869.615 1489.45 870.303 1490.53 870.071L1508.13 866.298C1509.21 866.066 1509.9 865.003 1509.67 863.923C1509.44 862.843 1508.38 862.155 1507.3 862.387L1491.65 865.741L1488.3 850.096C1488.07 849.016 1487 848.328 1485.92 848.56C1484.84 848.791 1484.15 849.855 1484.39 850.935L1488.16 868.535ZM1753.2 658.587L1752.97 656.6C1683.44 664.448 1617.24 717.299 1568.62 767.787C1544.27 793.08 1524.23 817.88 1510.28 836.355C1503.3 845.594 1497.85 853.255 1494.13 858.609C1492.28 861.287 1490.85 863.388 1489.9 864.821C1489.42 865.538 1489.05 866.088 1488.81 866.46C1488.69 866.646 1488.59 866.787 1488.53 866.882C1488.5 866.93 1488.48 866.966 1488.46 866.991C1488.45 867.003 1488.45 867.012 1488.44 867.019C1488.44 867.022 1488.44 867.025 1488.44 867.026C1488.44 867.028 1488.44 867.029 1490.12 868.115C1491.79 869.202 1491.79 869.201 1491.8 869.2C1491.8 869.199 1491.8 869.197 1491.8 869.194C1491.8 869.189 1491.81 869.181 1491.82 869.17C1491.83 869.147 1491.85 869.113 1491.88 869.067C1491.94 868.976 1492.03 868.839 1492.15 868.657C1492.39 868.294 1492.75 867.753 1493.22 867.045C1494.17 865.629 1495.58 863.547 1497.42 860.889C1501.11 855.573 1506.53 847.957 1513.47 838.765C1527.35 820.38 1547.29 795.71 1571.5 770.562C1620.03 720.167 1685.38 668.255 1753.42 660.575L1753.2 658.587Z" fill="#FF2D55"/>
<rect id="Rectangle 3" x="447.035" y="718.587" width="1299" height="38" fill="white" fill-opacity="0.85"/>
<path id="wrote_2" d="M481.999 748.587H477.999L475.055 734.379L472.015 748.587H468.111L464.175 731.723H467.119L470.159 746.539L473.487 731.723H476.783L479.951 746.539L483.023 731.723H485.839L481.999 748.587ZM496.841 731.339C497.438 731.339 497.993 731.403 498.505 731.531L497.961 734.411C497.449 734.283 496.958 734.219 496.489 734.219C495.443 734.219 494.601 734.603 493.961 735.371C493.321 736.139 492.819 737.334 492.457 738.955V748.587H489.513V731.723H492.041L492.329 735.147C492.777 733.889 493.385 732.939 494.153 732.299C494.921 731.659 495.817 731.339 496.841 731.339ZM507.88 731.339C510.248 731.339 512.083 732.129 513.384 733.707C514.707 735.286 515.368 737.43 515.368 740.139C515.368 741.889 515.069 743.435 514.472 744.779C513.875 746.102 513.011 747.137 511.88 747.883C510.749 748.609 509.405 748.971 507.848 748.971C505.48 748.971 503.635 748.182 502.312 746.603C500.989 745.025 500.328 742.881 500.328 740.171C500.328 738.422 500.627 736.886 501.224 735.563C501.821 734.219 502.685 733.185 503.816 732.459C504.947 731.713 506.301 731.339 507.88 731.339ZM507.88 733.707C504.957 733.707 503.496 735.862 503.496 740.171C503.496 744.459 504.947 746.603 507.848 746.603C510.749 746.603 512.2 744.449 512.2 740.139C512.2 735.851 510.76 733.707 507.88 733.707ZM528.743 747.819C527.634 748.587 526.375 748.971 524.967 748.971C523.538 748.971 522.418 748.566 521.607 747.755C520.818 746.923 520.423 745.729 520.423 744.171V733.995H517.479V731.723H520.423V727.915L523.367 727.563V731.723H527.367L527.047 733.995H523.367V744.043C523.367 744.918 523.517 745.558 523.815 745.963C524.135 746.347 524.658 746.539 525.383 746.539C526.087 746.539 526.834 746.294 527.623 745.803L528.743 747.819ZM544.217 739.659C544.217 740.15 544.196 740.651 544.153 741.163H533.401C533.529 743.019 533.999 744.385 534.809 745.259C535.62 746.134 536.665 746.571 537.945 746.571C538.756 746.571 539.503 746.454 540.185 746.219C540.868 745.985 541.583 745.611 542.329 745.099L543.609 746.859C541.817 748.267 539.855 748.971 537.721 748.971C535.375 748.971 533.54 748.203 532.217 746.667C530.916 745.131 530.265 743.019 530.265 740.331C530.265 738.582 530.543 737.035 531.097 735.691C531.673 734.326 532.484 733.259 533.529 732.491C534.596 731.723 535.844 731.339 537.273 731.339C539.513 731.339 541.231 732.075 542.425 733.547C543.62 735.019 544.217 737.057 544.217 739.659ZM541.305 738.795C541.305 737.131 540.975 735.862 540.313 734.987C539.652 734.113 538.66 733.675 537.337 733.675C534.927 733.675 533.615 735.446 533.401 738.987H541.305V738.795Z" fill="#FF2D55"/>
<path id="wrote_3" d="M642.999 748.587H638.999L636.055 734.379L633.015 748.587H629.111L625.175 731.723H628.119L631.159 746.539L634.487 731.723H637.783L640.951 746.539L644.023 731.723H646.839L642.999 748.587ZM657.841 731.339C658.438 731.339 658.993 731.403 659.505 731.531L658.961 734.411C658.449 734.283 657.958 734.219 657.489 734.219C656.443 734.219 655.601 734.603 654.961 735.371C654.321 736.139 653.819 737.334 653.457 738.955V748.587H650.513V731.723H653.041L653.329 735.147C653.777 733.889 654.385 732.939 655.153 732.299C655.921 731.659 656.817 731.339 657.841 731.339ZM668.88 731.339C671.248 731.339 673.083 732.129 674.384 733.707C675.707 735.286 676.368 737.43 676.368 740.139C676.368 741.889 676.069 743.435 675.472 744.779C674.875 746.102 674.011 747.137 672.88 747.883C671.749 748.609 670.405 748.971 668.848 748.971C666.48 748.971 664.635 748.182 663.312 746.603C661.989 745.025 661.328 742.881 661.328 740.171C661.328 738.422 661.627 736.886 662.224 735.563C662.821 734.219 663.685 733.185 664.816 732.459C665.947 731.713 667.301 731.339 668.88 731.339ZM668.88 733.707C665.957 733.707 664.496 735.862 664.496 740.171C664.496 744.459 665.947 746.603 668.848 746.603C671.749 746.603 673.2 744.449 673.2 740.139C673.2 735.851 671.76 733.707 668.88 733.707ZM689.743 747.819C688.634 748.587 687.375 748.971 685.967 748.971C684.538 748.971 683.418 748.566 682.607 747.755C681.818 746.923 681.423 745.729 681.423 744.171V733.995H678.479V731.723H681.423V727.915L684.367 727.563V731.723H688.367L688.047 733.995H684.367V744.043C684.367 744.918 684.517 745.558 684.815 745.963C685.135 746.347 685.658 746.539 686.383 746.539C687.087 746.539 687.834 746.294 688.623 745.803L689.743 747.819ZM705.217 739.659C705.217 740.15 705.196 740.651 705.153 741.163H694.401C694.529 743.019 694.999 744.385 695.809 745.259C696.62 746.134 697.665 746.571 698.945 746.571C699.756 746.571 700.503 746.454 701.185 746.219C701.868 745.985 702.583 745.611 703.329 745.099L704.609 746.859C702.817 748.267 700.855 748.971 698.721 748.971C696.375 748.971 694.54 748.203 693.217 746.667C691.916 745.131 691.265 743.019 691.265 740.331C691.265 738.582 691.543 737.035 692.097 735.691C692.673 734.326 693.484 733.259 694.529 732.491C695.596 731.723 696.844 731.339 698.273 731.339C700.513 731.339 702.231 732.075 703.425 733.547C704.62 735.019 705.217 737.057 705.217 739.659ZM702.305 738.795C702.305 737.131 701.975 735.862 701.313 734.987C700.652 734.113 699.66 733.675 698.337 733.675C695.927 733.675 694.615 735.446 694.401 738.987H702.305V738.795Z" fill="#FF2D55"/>
<path id="wrote_4" d="M838.999 748.587H834.999L832.055 734.379L829.015 748.587H825.111L821.175 731.723H824.119L827.159 746.539L830.487 731.723H833.783L836.951 746.539L840.023 731.723H842.839L838.999 748.587ZM853.841 731.339C854.438 731.339 854.993 731.403 855.505 731.531L854.961 734.411C854.449 734.283 853.958 734.219 853.489 734.219C852.443 734.219 851.601 734.603 850.961 735.371C850.321 736.139 849.819 737.334 849.457 738.955V748.587H846.513V731.723H849.041L849.329 735.147C849.777 733.889 850.385 732.939 851.153 732.299C851.921 731.659 852.817 731.339 853.841 731.339ZM864.88 731.339C867.248 731.339 869.083 732.129 870.384 733.707C871.707 735.286 872.368 737.43 872.368 740.139C872.368 741.889 872.069 743.435 871.472 744.779C870.875 746.102 870.011 747.137 868.88 747.883C867.749 748.609 866.405 748.971 864.848 748.971C862.48 748.971 860.635 748.182 859.312 746.603C857.989 745.025 857.328 742.881 857.328 740.171C857.328 738.422 857.627 736.886 858.224 735.563C858.821 734.219 859.685 733.185 860.816 732.459C861.947 731.713 863.301 731.339 864.88 731.339ZM864.88 733.707C861.957 733.707 860.496 735.862 860.496 740.171C860.496 744.459 861.947 746.603 864.848 746.603C867.749 746.603 869.2 744.449 869.2 740.139C869.2 735.851 867.76 733.707 864.88 733.707ZM885.743 747.819C884.634 748.587 883.375 748.971 881.967 748.971C880.538 748.971 879.418 748.566 878.607 747.755C877.818 746.923 877.423 745.729 877.423 744.171V733.995H874.479V731.723H877.423V727.915L880.367 727.563V731.723H884.367L884.047 733.995H880.367V744.043C880.367 744.918 880.517 745.558 880.815 745.963C881.135 746.347 881.658 746.539 882.383 746.539C883.087 746.539 883.834 746.294 884.623 745.803L885.743 747.819ZM901.217 739.659C901.217 740.15 901.196 740.651 901.153 741.163H890.401C890.529 743.019 890.999 744.385 891.809 745.259C892.62 746.134 893.665 746.571 894.945 746.571C895.756 746.571 896.503 746.454 897.185 746.219C897.868 745.985 898.583 745.611 899.329 745.099L900.609 746.859C898.817 748.267 896.855 748.971 894.721 748.971C892.375 748.971 890.54 748.203 889.217 746.667C887.916 745.131 887.265 743.019 887.265 740.331C887.265 738.582 887.543 737.035 888.097 735.691C888.673 734.326 889.484 733.259 890.529 732.491C891.596 731.723 892.844 731.339 894.273 731.339C896.513 731.339 898.231 732.075 899.425 733.547C900.62 735.019 901.217 737.057 901.217 739.659ZM898.305 738.795C898.305 737.131 897.975 735.862 897.313 734.987C896.652 734.113 895.66 733.675 894.337 733.675C891.927 733.675 890.615 735.446 890.401 738.987H898.305V738.795Z" fill="#FF2D55"/>
<path id="wrote_5" d="M999.999 748.587H995.999L993.055 734.379L990.015 748.587H986.111L982.175 731.723H985.119L988.159 746.539L991.487 731.723H994.783L997.951 746.539L1001.02 731.723H1003.84L999.999 748.587ZM1014.84 731.339C1015.44 731.339 1015.99 731.403 1016.5 731.531L1015.96 734.411C1015.45 734.283 1014.96 734.219 1014.49 734.219C1013.44 734.219 1012.6 734.603 1011.96 735.371C1011.32 736.139 1010.82 737.334 1010.46 738.955V748.587H1007.51V731.723H1010.04L1010.33 735.147C1010.78 733.889 1011.38 732.939 1012.15 732.299C1012.92 731.659 1013.82 731.339 1014.84 731.339ZM1025.88 731.339C1028.25 731.339 1030.08 732.129 1031.38 733.707C1032.71 735.286 1033.37 737.43 1033.37 740.139C1033.37 741.889 1033.07 743.435 1032.47 744.779C1031.87 746.102 1031.01 747.137 1029.88 747.883C1028.75 748.609 1027.41 748.971 1025.85 748.971C1023.48 748.971 1021.63 748.182 1020.31 746.603C1018.99 745.025 1018.33 742.881 1018.33 740.171C1018.33 738.422 1018.63 736.886 1019.22 735.563C1019.82 734.219 1020.69 733.185 1021.82 732.459C1022.95 731.713 1024.3 731.339 1025.88 731.339ZM1025.88 733.707C1022.96 733.707 1021.5 735.862 1021.5 740.171C1021.5 744.459 1022.95 746.603 1025.85 746.603C1028.75 746.603 1030.2 744.449 1030.2 740.139C1030.2 735.851 1028.76 733.707 1025.88 733.707ZM1046.74 747.819C1045.63 748.587 1044.38 748.971 1042.97 748.971C1041.54 748.971 1040.42 748.566 1039.61 747.755C1038.82 746.923 1038.42 745.729 1038.42 744.171V733.995H1035.48V731.723H1038.42V727.915L1041.37 727.563V731.723H1045.37L1045.05 733.995H1041.37V744.043C1041.37 744.918 1041.52 745.558 1041.82 745.963C1042.14 746.347 1042.66 746.539 1043.38 746.539C1044.09 746.539 1044.83 746.294 1045.62 745.803L1046.74 747.819ZM1062.22 739.659C1062.22 740.15 1062.2 740.651 1062.15 741.163H1051.4C1051.53 743.019 1052 744.385 1052.81 745.259C1053.62 746.134 1054.67 746.571 1055.95 746.571C1056.76 746.571 1057.5 746.454 1058.19 746.219C1058.87 745.985 1059.58 745.611 1060.33 745.099L1061.61 746.859C1059.82 748.267 1057.85 748.971 1055.72 748.971C1053.37 748.971 1051.54 748.203 1050.22 746.667C1048.92 745.131 1048.27 743.019 1048.27 740.331C1048.27 738.582 1048.54 737.035 1049.1 735.691C1049.67 734.326 1050.48 733.259 1051.53 732.491C1052.6 731.723 1053.84 731.339 1055.27 731.339C1057.51 731.339 1059.23 732.075 1060.43 733.547C1061.62 735.019 1062.22 737.057 1062.22 739.659ZM1059.31 738.795C1059.31 737.131 1058.97 735.862 1058.31 734.987C1057.65 734.113 1056.66 733.675 1055.34 733.675C1052.93 733.675 1051.61 735.446 1051.4 738.987H1059.31V738.795Z" fill="#FF2D55"/>
<path id="wrote_6" d="M1244.08 748.115H1240.08L1237.14 733.907L1234.1 748.115H1230.19L1226.26 731.251H1229.2L1232.24 746.067L1235.57 731.251H1238.86L1242.03 746.067L1245.1 731.251H1247.92L1244.08 748.115ZM1258.92 730.867C1259.52 730.867 1260.07 730.931 1260.58 731.059L1260.04 733.939C1259.53 733.811 1259.04 733.747 1258.57 733.747C1257.52 733.747 1256.68 734.131 1256.04 734.899C1255.4 735.667 1254.9 736.862 1254.54 738.483V748.115H1251.59V731.251H1254.12L1254.41 734.675C1254.86 733.417 1255.46 732.467 1256.23 731.827C1257 731.187 1257.9 730.867 1258.92 730.867ZM1269.96 730.867C1272.33 730.867 1274.16 731.657 1275.46 733.235C1276.79 734.814 1277.45 736.958 1277.45 739.667C1277.45 741.417 1277.15 742.963 1276.55 744.307C1275.95 745.63 1275.09 746.665 1273.96 747.411C1272.83 748.137 1271.49 748.499 1269.93 748.499C1267.56 748.499 1265.71 747.71 1264.39 746.131C1263.07 744.553 1262.41 742.409 1262.41 739.699C1262.41 737.95 1262.71 736.414 1263.3 735.091C1263.9 733.747 1264.77 732.713 1265.9 731.987C1267.03 731.241 1268.38 730.867 1269.96 730.867ZM1269.96 733.235C1267.04 733.235 1265.58 735.39 1265.58 739.699C1265.58 743.987 1267.03 746.131 1269.93 746.131C1272.83 746.131 1274.28 743.977 1274.28 739.667C1274.28 735.379 1272.84 733.235 1269.96 733.235ZM1290.82 747.347C1289.71 748.115 1288.46 748.499 1287.05 748.499C1285.62 748.499 1284.5 748.094 1283.69 747.283C1282.9 746.451 1282.5 745.257 1282.5 743.699V733.523H1279.56V731.251H1282.5V727.443L1285.45 727.091V731.251H1289.45L1289.13 733.523H1285.45V743.571C1285.45 744.446 1285.6 745.086 1285.9 745.491C1286.22 745.875 1286.74 746.067 1287.46 746.067C1288.17 746.067 1288.91 745.822 1289.7 745.331L1290.82 747.347ZM1306.3 739.187C1306.3 739.678 1306.28 740.179 1306.23 740.691H1295.48C1295.61 742.547 1296.08 743.913 1296.89 744.787C1297.7 745.662 1298.75 746.099 1300.03 746.099C1300.84 746.099 1301.58 745.982 1302.27 745.747C1302.95 745.513 1303.66 745.139 1304.41 744.627L1305.69 746.387C1303.9 747.795 1301.93 748.499 1299.8 748.499C1297.45 748.499 1295.62 747.731 1294.3 746.195C1293 744.659 1292.35 742.547 1292.35 739.859C1292.35 738.11 1292.62 736.563 1293.18 735.219C1293.75 733.854 1294.56 732.787 1295.61 732.019C1296.68 731.251 1297.92 730.867 1299.35 730.867C1301.59 730.867 1303.31 731.603 1304.51 733.075C1305.7 734.547 1306.3 736.585 1306.3 739.187ZM1303.39 738.323C1303.39 736.659 1303.05 735.39 1302.39 734.515C1301.73 733.641 1300.74 733.203 1299.42 733.203C1297.01 733.203 1295.69 734.974 1295.48 738.515H1303.39V738.323Z" fill="#FF2D55"/>
<path id="wrote_7" d="M1577.08 748.115H1573.08L1570.14 733.907L1567.1 748.115H1563.19L1559.26 731.251H1562.2L1565.24 746.067L1568.57 731.251H1571.86L1575.03 746.067L1578.1 731.251H1580.92L1577.08 748.115ZM1591.92 730.867C1592.52 730.867 1593.07 730.931 1593.58 731.059L1593.04 733.939C1592.53 733.811 1592.04 733.747 1591.57 733.747C1590.52 733.747 1589.68 734.131 1589.04 734.899C1588.4 735.667 1587.9 736.862 1587.54 738.483V748.115H1584.59V731.251H1587.12L1587.41 734.675C1587.86 733.417 1588.46 732.467 1589.23 731.827C1590 731.187 1590.9 730.867 1591.92 730.867ZM1602.96 730.867C1605.33 730.867 1607.16 731.657 1608.46 733.235C1609.79 734.814 1610.45 736.958 1610.45 739.667C1610.45 741.417 1610.15 742.963 1609.55 744.307C1608.95 745.63 1608.09 746.665 1606.96 747.411C1605.83 748.137 1604.49 748.499 1602.93 748.499C1600.56 748.499 1598.71 747.71 1597.39 746.131C1596.07 744.553 1595.41 742.409 1595.41 739.699C1595.41 737.95 1595.71 736.414 1596.3 735.091C1596.9 733.747 1597.77 732.713 1598.9 731.987C1600.03 731.241 1601.38 730.867 1602.96 730.867ZM1602.96 733.235C1600.04 733.235 1598.58 735.39 1598.58 739.699C1598.58 743.987 1600.03 746.131 1602.93 746.131C1605.83 746.131 1607.28 743.977 1607.28 739.667C1607.28 735.379 1605.84 733.235 1602.96 733.235ZM1623.82 747.347C1622.71 748.115 1621.46 748.499 1620.05 748.499C1618.62 748.499 1617.5 748.094 1616.69 747.283C1615.9 746.451 1615.5 745.257 1615.5 743.699V733.523H1612.56V731.251H1615.5V727.443L1618.45 727.091V731.251H1622.45L1622.13 733.523H1618.45V743.571C1618.45 744.446 1618.6 745.086 1618.9 745.491C1619.22 745.875 1619.74 746.067 1620.46 746.067C1621.17 746.067 1621.91 745.822 1622.7 745.331L1623.82 747.347ZM1639.3 739.187C1639.3 739.678 1639.28 740.179 1639.23 740.691H1628.48C1628.61 742.547 1629.08 743.913 1629.89 744.787C1630.7 745.662 1631.75 746.099 1633.03 746.099C1633.84 746.099 1634.58 745.982 1635.27 745.747C1635.95 745.513 1636.66 745.139 1637.41 744.627L1638.69 746.387C1636.9 747.795 1634.93 748.499 1632.8 748.499C1630.45 748.499 1628.62 747.731 1627.3 746.195C1626 744.659 1625.35 742.547 1625.35 739.859C1625.35 738.11 1625.62 736.563 1626.18 735.219C1626.75 733.854 1627.56 732.787 1628.61 732.019C1629.68 731.251 1630.92 730.867 1632.35 730.867C1634.59 730.867 1636.31 731.603 1637.51 733.075C1638.7 734.547 1639.3 736.585 1639.3 739.187ZM1636.39 738.323C1636.39 736.659 1636.05 735.39 1635.39 734.515C1634.73 733.641 1633.74 733.203 1632.42 733.203C1630.01 733.203 1628.69 734.974 1628.48 738.515H1636.39V738.323Z" fill="#FF2D55"/>
</g>
<g id="advised">
<path id="Arrow 8" d="M1202.62 598.173C1201.84 598.954 1201.84 600.221 1202.62 601.002L1215.35 613.73C1216.13 614.511 1217.4 614.511 1218.18 613.73C1218.96 612.948 1218.96 611.682 1218.18 610.901L1206.86 599.587L1218.18 588.274C1218.96 587.493 1218.96 586.226 1218.18 585.445C1217.4 584.664 1216.13 584.664 1215.35 585.445L1202.62 598.173ZM1334.04 599.587V597.587H1204.04V599.587V601.587H1334.04V599.587Z" fill="#32ADE6"/>
<path id="Arrow 9" d="M1541.62 598.173C1540.84 598.954 1540.84 600.221 1541.62 601.002L1554.35 613.73C1555.13 614.511 1556.4 614.511 1557.18 613.73C1557.96 612.948 1557.96 611.682 1557.18 610.901L1545.86 599.587L1557.18 588.274C1557.96 587.493 1557.96 586.226 1557.18 585.445C1556.4 584.664 1555.13 584.664 1554.35 585.445L1541.62 598.173ZM1673.04 599.587V597.587H1543.04V599.587V601.587H1673.04V599.587Z" fill="#32ADE6"/>
<path id="advised_2" d="M1226.47 566.651C1226.47 567.334 1226.58 567.846 1226.82 568.187C1227.05 568.507 1227.41 568.753 1227.87 568.923L1227.2 570.971C1226.33 570.865 1225.62 570.619 1225.09 570.235C1224.56 569.851 1224.16 569.254 1223.91 568.443C1222.78 570.129 1221.1 570.971 1218.88 570.971C1217.22 570.971 1215.91 570.502 1214.95 569.563C1213.99 568.625 1213.51 567.398 1213.51 565.883C1213.51 564.091 1214.15 562.715 1215.43 561.755C1216.73 560.795 1218.56 560.315 1220.93 560.315H1223.52V559.067C1223.52 557.873 1223.23 557.019 1222.66 556.507C1222.08 555.995 1221.2 555.739 1220 555.739C1218.77 555.739 1217.25 556.038 1215.46 556.635L1214.72 554.491C1216.81 553.723 1218.75 553.339 1220.55 553.339C1222.53 553.339 1224.01 553.83 1224.99 554.811C1225.98 555.771 1226.47 557.147 1226.47 558.939V566.651ZM1219.55 568.763C1221.24 568.763 1222.56 567.889 1223.52 566.139V562.267H1221.31C1218.2 562.267 1216.64 563.419 1216.64 565.723C1216.64 566.726 1216.89 567.483 1217.38 567.995C1217.87 568.507 1218.59 568.763 1219.55 568.763ZM1245.57 546.939V570.587H1242.98L1242.69 568.251C1242.13 569.105 1241.44 569.777 1240.61 570.267C1239.78 570.737 1238.85 570.971 1237.82 570.971C1235.82 570.971 1234.25 570.182 1233.12 568.603C1232.01 567.025 1231.46 564.902 1231.46 562.235C1231.46 560.507 1231.72 558.971 1232.26 557.627C1232.79 556.283 1233.56 555.238 1234.56 554.491C1235.56 553.723 1236.74 553.339 1238.08 553.339C1239.81 553.339 1241.32 554.033 1242.62 555.419V546.587L1245.57 546.939ZM1238.46 568.635C1239.36 568.635 1240.13 568.433 1240.77 568.027C1241.41 567.601 1242.03 566.971 1242.62 566.139V557.883C1242.07 557.158 1241.47 556.614 1240.83 556.251C1240.21 555.867 1239.51 555.675 1238.72 555.675C1237.42 555.675 1236.41 556.219 1235.68 557.307C1234.98 558.395 1234.62 560.017 1234.62 562.171C1234.62 564.347 1234.96 565.969 1235.62 567.035C1236.28 568.102 1237.23 568.635 1238.46 568.635ZM1258.29 570.587H1254.74L1248.92 553.723H1252.12L1256.53 567.963L1260.92 553.723H1264.02L1258.29 570.587ZM1270.33 570.587H1267.39V553.723H1270.33V570.587ZM1268.83 545.627C1269.45 545.627 1269.95 545.819 1270.33 546.203C1270.72 546.587 1270.91 547.067 1270.91 547.643C1270.91 548.219 1270.72 548.699 1270.33 549.083C1269.95 549.446 1269.45 549.627 1268.83 549.627C1268.23 549.627 1267.74 549.446 1267.36 549.083C1266.97 548.699 1266.78 548.219 1266.78 547.643C1266.78 547.067 1266.97 546.587 1267.36 546.203C1267.74 545.819 1268.23 545.627 1268.83 545.627ZM1280.99 553.339C1282.15 553.339 1283.18 553.499 1284.1 553.819C1285.02 554.139 1285.89 554.619 1286.72 555.259L1285.47 557.115C1284.71 556.625 1283.97 556.262 1283.27 556.027C1282.58 555.793 1281.86 555.675 1281.09 555.675C1280.13 555.675 1279.37 555.878 1278.82 556.283C1278.26 556.667 1277.99 557.201 1277.99 557.883C1277.99 558.566 1278.24 559.099 1278.75 559.483C1279.29 559.867 1280.24 560.241 1281.6 560.603C1283.48 561.073 1284.88 561.713 1285.79 562.523C1286.73 563.334 1287.2 564.443 1287.2 565.851C1287.2 567.515 1286.55 568.785 1285.25 569.659C1283.97 570.534 1282.4 570.971 1280.55 570.971C1277.99 570.971 1275.86 570.235 1274.18 568.763L1275.75 566.971C1277.18 568.059 1278.75 568.603 1280.48 568.603C1281.59 568.603 1282.47 568.379 1283.11 567.931C1283.77 567.462 1284.1 566.833 1284.1 566.043C1284.1 565.467 1283.98 565.009 1283.75 564.667C1283.51 564.305 1283.11 563.995 1282.53 563.739C1281.95 563.462 1281.11 563.174 1280 562.875C1278.21 562.406 1276.91 561.777 1276.1 560.987C1275.31 560.198 1274.91 559.195 1274.91 557.979C1274.91 557.105 1275.17 556.315 1275.68 555.611C1276.22 554.886 1276.94 554.331 1277.86 553.947C1278.8 553.542 1279.84 553.339 1280.99 553.339ZM1304.09 561.659C1304.09 562.15 1304.07 562.651 1304.03 563.163H1293.28C1293.4 565.019 1293.87 566.385 1294.68 567.259C1295.5 568.134 1296.54 568.571 1297.82 568.571C1298.63 568.571 1299.38 568.454 1300.06 568.219C1300.74 567.985 1301.46 567.611 1302.2 567.099L1303.48 568.859C1301.69 570.267 1299.73 570.971 1297.6 570.971C1295.25 570.971 1293.42 570.203 1292.09 568.667C1290.79 567.131 1290.14 565.019 1290.14 562.331C1290.14 560.582 1290.42 559.035 1290.97 557.691C1291.55 556.326 1292.36 555.259 1293.4 554.491C1294.47 553.723 1295.72 553.339 1297.15 553.339C1299.39 553.339 1301.11 554.075 1302.3 555.547C1303.5 557.019 1304.09 559.057 1304.09 561.659ZM1301.18 560.795C1301.18 559.131 1300.85 557.862 1300.19 556.987C1299.53 556.113 1298.54 555.675 1297.21 555.675C1294.8 555.675 1293.49 557.446 1293.28 560.987H1301.18V560.795ZM1322.01 546.939V570.587H1319.41L1319.13 568.251C1318.57 569.105 1317.88 569.777 1317.05 570.267C1316.21 570.737 1315.29 570.971 1314.26 570.971C1312.26 570.971 1310.69 570.182 1309.56 568.603C1308.45 567.025 1307.89 564.902 1307.89 562.235C1307.89 560.507 1308.16 558.971 1308.69 557.627C1309.23 556.283 1310 555.238 1311 554.491C1312 553.723 1313.17 553.339 1314.52 553.339C1316.25 553.339 1317.76 554.033 1319.06 555.419V546.587L1322.01 546.939ZM1314.9 568.635C1315.8 568.635 1316.57 568.433 1317.21 568.027C1317.85 567.601 1318.46 566.971 1319.06 566.139V557.883C1318.51 557.158 1317.91 556.614 1317.27 556.251C1316.65 555.867 1315.95 555.675 1315.16 555.675C1313.86 555.675 1312.84 556.219 1312.12 557.307C1311.41 558.395 1311.06 560.017 1311.06 562.171C1311.06 564.347 1311.39 565.969 1312.05 567.035C1312.72 568.102 1313.66 568.635 1314.9 568.635Z" fill="#32ADE6"/>
<path id="advised_3" d="M1566.47 566.651C1566.47 567.334 1566.58 567.846 1566.82 568.187C1567.05 568.507 1567.41 568.753 1567.87 568.923L1567.2 570.971C1566.33 570.865 1565.62 570.619 1565.09 570.235C1564.56 569.851 1564.16 569.254 1563.91 568.443C1562.78 570.129 1561.1 570.971 1558.88 570.971C1557.22 570.971 1555.91 570.502 1554.95 569.563C1553.99 568.625 1553.51 567.398 1553.51 565.883C1553.51 564.091 1554.15 562.715 1555.43 561.755C1556.73 560.795 1558.56 560.315 1560.93 560.315H1563.52V559.067C1563.52 557.873 1563.23 557.019 1562.66 556.507C1562.08 555.995 1561.2 555.739 1560 555.739C1558.77 555.739 1557.25 556.038 1555.46 556.635L1554.72 554.491C1556.81 553.723 1558.75 553.339 1560.55 553.339C1562.53 553.339 1564.01 553.83 1564.99 554.811C1565.98 555.771 1566.47 557.147 1566.47 558.939V566.651ZM1559.55 568.763C1561.24 568.763 1562.56 567.889 1563.52 566.139V562.267H1561.31C1558.2 562.267 1556.64 563.419 1556.64 565.723C1556.64 566.726 1556.89 567.483 1557.38 567.995C1557.87 568.507 1558.59 568.763 1559.55 568.763ZM1585.57 546.939V570.587H1582.98L1582.69 568.251C1582.13 569.105 1581.44 569.777 1580.61 570.267C1579.78 570.737 1578.85 570.971 1577.82 570.971C1575.82 570.971 1574.25 570.182 1573.12 568.603C1572.01 567.025 1571.46 564.902 1571.46 562.235C1571.46 560.507 1571.72 558.971 1572.26 557.627C1572.79 556.283 1573.56 555.238 1574.56 554.491C1575.56 553.723 1576.74 553.339 1578.08 553.339C1579.81 553.339 1581.32 554.033 1582.62 555.419V546.587L1585.57 546.939ZM1578.46 568.635C1579.36 568.635 1580.13 568.433 1580.77 568.027C1581.41 567.601 1582.03 566.971 1582.62 566.139V557.883C1582.07 557.158 1581.47 556.614 1580.83 556.251C1580.21 555.867 1579.51 555.675 1578.72 555.675C1577.42 555.675 1576.41 556.219 1575.68 557.307C1574.98 558.395 1574.62 560.017 1574.62 562.171C1574.62 564.347 1574.96 565.969 1575.62 567.035C1576.28 568.102 1577.23 568.635 1578.46 568.635ZM1598.29 570.587H1594.74L1588.92 553.723H1592.12L1596.53 567.963L1600.92 553.723H1604.02L1598.29 570.587ZM1610.33 570.587H1607.39V553.723H1610.33V570.587ZM1608.83 545.627C1609.45 545.627 1609.95 545.819 1610.33 546.203C1610.72 546.587 1610.91 547.067 1610.91 547.643C1610.91 548.219 1610.72 548.699 1610.33 549.083C1609.95 549.446 1609.45 549.627 1608.83 549.627C1608.23 549.627 1607.74 549.446 1607.36 549.083C1606.97 548.699 1606.78 548.219 1606.78 547.643C1606.78 547.067 1606.97 546.587 1607.36 546.203C1607.74 545.819 1608.23 545.627 1608.83 545.627ZM1620.99 553.339C1622.15 553.339 1623.18 553.499 1624.1 553.819C1625.02 554.139 1625.89 554.619 1626.72 555.259L1625.47 557.115C1624.71 556.625 1623.97 556.262 1623.27 556.027C1622.58 555.793 1621.86 555.675 1621.09 555.675C1620.13 555.675 1619.37 555.878 1618.82 556.283C1618.26 556.667 1617.99 557.201 1617.99 557.883C1617.99 558.566 1618.24 559.099 1618.75 559.483C1619.29 559.867 1620.24 560.241 1621.6 560.603C1623.48 561.073 1624.88 561.713 1625.79 562.523C1626.73 563.334 1627.2 564.443 1627.2 565.851C1627.2 567.515 1626.55 568.785 1625.25 569.659C1623.97 570.534 1622.4 570.971 1620.55 570.971C1617.99 570.971 1615.86 570.235 1614.18 568.763L1615.75 566.971C1617.18 568.059 1618.75 568.603 1620.48 568.603C1621.59 568.603 1622.47 568.379 1623.11 567.931C1623.77 567.462 1624.1 566.833 1624.1 566.043C1624.1 565.467 1623.98 565.009 1623.75 564.667C1623.51 564.305 1623.11 563.995 1622.53 563.739C1621.95 563.462 1621.11 563.174 1620 562.875C1618.21 562.406 1616.91 561.777 1616.1 560.987C1615.31 560.198 1614.91 559.195 1614.91 557.979C1614.91 557.105 1615.17 556.315 1615.68 555.611C1616.22 554.886 1616.94 554.331 1617.86 553.947C1618.8 553.542 1619.84 553.339 1620.99 553.339ZM1644.09 561.659C1644.09 562.15 1644.07 562.651 1644.03 563.163H1633.28C1633.4 565.019 1633.87 566.385 1634.68 567.259C1635.5 568.134 1636.54 568.571 1637.82 568.571C1638.63 568.571 1639.38 568.454 1640.06 568.219C1640.74 567.985 1641.46 567.611 1642.2 567.099L1643.48 568.859C1641.69 570.267 1639.73 570.971 1637.6 570.971C1635.25 570.971 1633.42 570.203 1632.09 568.667C1630.79 567.131 1630.14 565.019 1630.14 562.331C1630.14 560.582 1630.42 559.035 1630.97 557.691C1631.55 556.326 1632.36 555.259 1633.4 554.491C1634.47 553.723 1635.72 553.339 1637.15 553.339C1639.39 553.339 1641.11 554.075 1642.3 555.547C1643.5 557.019 1644.09 559.057 1644.09 561.659ZM1641.18 560.795C1641.18 559.131 1640.85 557.862 1640.19 556.987C1639.53 556.113 1638.54 555.675 1637.21 555.675C1634.8 555.675 1633.49 557.446 1633.28 560.987H1641.18V560.795ZM1662.01 546.939V570.587H1659.41L1659.13 568.251C1658.57 569.105 1657.88 569.777 1657.05 570.267C1656.21 570.737 1655.29 570.971 1654.26 570.971C1652.26 570.971 1650.69 570.182 1649.56 568.603C1648.45 567.025 1647.89 564.902 1647.89 562.235C1647.89 560.507 1648.16 558.971 1648.69 557.627C1649.23 556.283 1650 555.238 1651 554.491C1652 553.723 1653.17 553.339 1654.52 553.339C1656.25 553.339 1657.76 554.033 1659.06 555.419V546.587L1662.01 546.939ZM1654.9 568.635C1655.8 568.635 1656.57 568.433 1657.21 568.027C1657.85 567.601 1658.46 566.971 1659.06 566.139V557.883C1658.51 557.158 1657.91 556.614 1657.27 556.251C1656.65 555.867 1655.95 555.675 1655.16 555.675C1653.86 555.675 1652.84 556.219 1652.12 557.307C1651.41 558.395 1651.06 560.017 1651.06 562.171C1651.06 564.347 1651.39 565.969 1652.05 567.035C1652.72 568.102 1653.66 568.635 1654.9 568.635Z" fill="#32ADE6"/>
</g>
</g>
</svg>
