<svg width="1921" height="1081" viewBox="0 0 1921 1081" fill="none" xmlns="http://www.w3.org/2000/svg">
<g id="phylogenetic tree">
<rect width="1920" height="1080" transform="translate(0.547363 0.587402)" fill="white"/>
<g id="Frame 2">
<g id="Phylogenetic tree bis">
<g id="toucan-svgrepo-com" clip-path="url(#clip0_23_868)">
<g id="Group">
<g id="Group_2">
<path id="Vector" d="M963.039 438.553C962.905 437.895 962.323 437.4 961.626 437.4H959.607C958.81 437.4 958.164 438.047 958.164 438.843C958.164 439.641 958.81 440.287 959.607 440.287H960.182V442.852C960.182 443.65 960.829 444.296 961.626 444.296C962.423 444.296 963.069 443.65 963.069 442.852V438.843C963.069 438.744 963.058 438.647 963.039 438.553Z" fill="#B36F0F"/>
<g id="Group_3">
<path id="Vector_2" d="M960.153 438.553C960.019 437.895 959.437 437.4 958.74 437.4H956.721C955.924 437.4 955.278 438.047 955.278 438.843C955.278 439.641 955.924 440.287 956.721 440.287H957.296V442.852C957.296 443.65 957.942 444.296 958.74 444.296C959.537 444.296 960.183 443.65 960.183 442.852V438.843C960.183 438.744 960.173 438.647 960.153 438.553Z" fill="#B36F0F"/>
</g>
<path id="Vector_3" d="M957.267 438.553C957.132 437.895 956.551 437.4 955.853 437.4H953.835C953.038 437.4 952.392 438.047 952.392 438.843C952.392 439.641 953.038 440.287 953.835 440.287H954.411V442.852C954.411 443.65 955.057 444.296 955.853 444.296C956.65 444.296 957.296 443.65 957.296 442.852V438.843C957.296 438.744 957.286 438.647 957.267 438.553Z" fill="#B36F0F"/>
</g>
<path id="Vector_4" d="M954.847 415.695C947.577 415.695 941.684 409.802 941.684 402.531C941.684 395.261 947.577 389.368 954.847 389.368H992.643C992.643 403.907 980.856 415.694 966.316 415.695H954.847Z" fill="#2D3740"/>
<path id="Vector_5" d="M915.688 460.748C942.047 460.748 963.415 439.38 963.415 413.021V345.427C937.057 345.427 915.689 366.795 915.689 393.153" fill="#333E48"/>
<path id="Vector_6" d="M915.688 460.748C942.047 460.748 963.415 439.38 963.415 413.021V345.427C937.057 345.427 915.689 366.795 915.689 393.153" fill="#333E48"/>
<path id="Vector_7" d="M915.689 460.749H887.292L915.689 432.352L915.689 393.155C915.689 366.796 937.057 345.428 963.415 345.428V413.023C963.415 439.381 942.047 460.749 915.689 460.749Z" fill="#333E48"/>
<path id="Vector_8" d="M939.037 374.865C939.037 383.894 943.949 391.77 951.243 395.983V413.721C951.243 420.763 954.683 426.997 959.971 430.847C962.291 425.28 963.415 419.524 963.415 413.021V350.487C949.951 350.487 939.037 361.401 939.037 374.865Z" fill="white"/>
<path id="Vector_9" d="M926.708 416.251C933.978 416.251 939.872 410.358 939.872 403.087C939.872 395.817 933.978 389.923 926.708 389.924H888.912C888.912 404.463 900.699 416.25 915.239 416.251L926.708 416.251Z" fill="#2D3740"/>
<path id="Vector_10" d="M952.391 368.667C954.07 368.667 955.43 367.306 955.43 365.628C955.43 363.949 954.07 362.589 952.391 362.589C950.713 362.589 949.353 363.949 949.353 365.628C949.353 367.306 950.713 368.667 952.391 368.667Z" fill="#2D3740"/>
<g id="Group_4">
<path id="Vector_11" d="M1022.29 374.865C1022.29 358.607 1009.11 345.427 992.854 345.427H963.415V374.865H1022.29Z" fill="#ED9900"/>
<path id="Vector_12" d="M1013.77 354.153C1007.52 357.668 1003.3 364.355 1003.3 372.03C1003.3 372.993 1003.38 373.938 1003.5 374.865H1022.29C1022.29 366.788 1019.04 359.472 1013.77 354.153Z" fill="#333E48"/>
<path id="Vector_13" d="M1022.29 374.865H963.415V379.814H1022.29V374.865Z" fill="#B36F0F"/>
</g>
<g id="Group_5">
<path id="Vector_14" d="M957.267 438.553C957.132 437.895 956.551 437.4 955.853 437.4H953.834C953.038 437.4 952.392 438.047 952.392 438.843C952.392 439.641 953.038 440.287 953.834 440.287H954.41V442.852C954.41 443.65 955.056 444.296 955.853 444.296C956.65 444.296 957.296 443.65 957.296 442.852V438.843C957.296 438.744 957.286 438.647 957.267 438.553Z" fill="#FFB648"/>
<g id="Group_6">
<path id="Vector_15" d="M954.381 438.553C954.247 437.895 953.665 437.4 952.968 437.4H950.949C950.151 437.4 949.505 438.047 949.505 438.843C949.505 439.641 950.151 440.287 950.949 440.287H951.524V442.852C951.524 443.65 952.17 444.296 952.968 444.296C953.764 444.296 954.41 443.65 954.41 442.852V438.843C954.41 438.744 954.4 438.647 954.381 438.553Z" fill="#FFB648"/>
</g>
<path id="Vector_16" d="M951.495 438.553C951.36 437.895 950.778 437.4 950.081 437.4H948.062C947.265 437.4 946.619 438.047 946.619 438.843C946.619 439.641 947.265 440.287 948.062 440.287H948.638V442.852C948.638 443.65 949.284 444.296 950.081 444.296C950.878 444.296 951.524 443.65 951.524 442.852V438.843C951.524 438.744 951.514 438.647 951.495 438.553Z" fill="#FFB648"/>
</g>
</g>
</g>
<g id="pig-svgrepo-com" clip-path="url(#clip1_23_868)">
<g id="Group_7">
<g id="Group_8">
<path id="Vector_17" d="M509.18 196.418H487.336V226.289H509.18V196.418Z" fill="#DB8689"/>
<path id="Vector_18" d="M487.336 226.289V232.712H503.088L505.371 230.383L507.654 232.712H509.181V226.289H487.336Z" fill="#283038"/>
</g>
<g id="Group_9">
<path id="Vector_19" d="M558.744 196.418H536.9V226.289H558.744V196.418Z" fill="#DB8689"/>
<path id="Vector_20" d="M536.9 226.289V232.712H552.652L554.935 230.383L557.218 232.712H558.744V226.289H536.9Z" fill="#283038"/>
</g>
<g id="Group_10">
<path id="Vector_21" d="M464.063 166.653H457.582C453.011 166.653 449.292 162.859 449.292 158.196C449.292 153.532 453.011 149.739 457.582 149.739C458.859 149.739 459.894 150.795 459.894 152.097C459.894 153.4 458.859 154.456 457.582 154.456C455.56 154.456 453.916 156.133 453.916 158.196C453.916 160.258 455.56 161.935 457.582 161.935H464.063C465.34 161.935 466.375 162.991 466.375 164.294C466.375 165.596 465.34 166.653 464.063 166.653Z" fill="#FF9C9F"/>
<path id="Vector_22" d="M464.063 166.653C459.491 166.653 455.772 162.859 455.772 158.196C455.772 153.533 459.491 149.739 464.063 149.739C468.634 149.739 472.354 153.533 472.354 158.196C472.354 162.859 468.634 166.653 464.063 166.653ZM464.063 154.456C462.041 154.456 460.396 156.133 460.396 158.196C460.396 160.258 462.041 161.935 464.063 161.935C466.084 161.935 467.729 160.258 467.729 158.196C467.729 156.134 466.084 154.456 464.063 154.456Z" fill="#DB8689"/>
</g>
<g id="Group_11">
<path id="Vector_23" d="M561.769 134.807C566.508 127.047 578.779 120.681 586.491 125.408L575.865 143.446L561.769 134.807Z" fill="#FF9C9F"/>
<path id="Vector_24" d="M587.855 147.568C590.804 140.543 591.145 130.21 586.491 125.408C580.15 123.471 571.364 128.629 566.668 134.582C566.665 134.588 566.594 134.698 566.563 134.75C565.847 135.965 566.233 137.542 567.424 138.272L584.307 148.619C585.498 149.349 587.043 148.956 587.76 147.741C587.791 147.689 587.852 147.573 587.855 147.568Z" fill="#FFB6B6"/>
</g>
<path id="Vector_25" d="M472.146 226.29V232.712H487.898L490.181 230.384L492.464 232.712H493.99V226.29H472.146Z" fill="#333E48"/>
<path id="Vector_26" d="M559.783 129.784C547.73 129.784 537.1 136.005 530.812 145.47H497.352C478.174 145.47 462.628 161.327 462.628 180.888C462.628 190.325 466.247 198.899 472.147 205.247V226.289H493.991V216.14C495.097 216.248 496.217 216.305 497.352 216.305H521.709V226.289H543.553V214.326C550.509 211.845 556.454 207.17 560.592 201.114C579.532 200.675 594.753 184.878 594.753 165.454C594.753 145.754 579.096 129.784 559.783 129.784Z" fill="#FF9C9F"/>
<g id="Group_12">
<path id="Vector_27" d="M589.228 176.82H572.64C567.083 176.82 562.577 172.225 562.577 166.556C562.577 160.887 567.083 156.292 572.64 156.292H589.228V176.82Z" fill="#DB8689"/>
<path id="Vector_28" d="M589.228 156.292C594.785 156.292 599.291 160.887 599.291 166.556C599.291 172.225 594.785 176.82 589.228 176.82H579.162C573.604 176.82 569.098 172.225 569.098 166.556C569.098 160.887 573.604 156.292 579.162 156.292H589.228Z" fill="#FFB6B6"/>
<path id="Vector_29" d="M577.394 163.698C577.394 162.287 578.515 161.144 579.898 161.144C581.281 161.144 582.402 162.287 582.402 163.698V169.414C582.402 170.825 581.281 171.968 579.898 171.968C578.515 171.968 577.394 170.825 577.394 169.414V163.698Z" fill="#DB8689"/>
<path id="Vector_30" d="M593.486 163.698C593.486 162.287 592.365 161.144 590.982 161.144C589.599 161.144 588.478 162.287 588.478 163.698V169.414C588.478 170.825 589.599 171.968 590.982 171.968C592.365 171.968 593.486 170.825 593.486 169.414V163.698Z" fill="#DB8689"/>
</g>
<path id="Vector_31" d="M564 152.604C565.543 152.604 566.794 151.328 566.794 149.754C566.794 148.18 565.543 146.905 564 146.905C562.457 146.905 561.207 148.18 561.207 149.754C561.207 151.328 562.457 152.604 564 152.604Z" fill="#333E48"/>
<path id="Vector_32" d="M585.618 152.603C587.161 152.603 588.411 151.328 588.411 149.754C588.411 148.181 587.161 146.905 585.618 146.905C584.076 146.905 582.825 148.181 582.825 149.754C582.825 151.328 584.076 152.603 585.618 152.603Z" fill="#333E48"/>
<path id="Vector_33" d="M521.709 226.29V232.712H537.461L539.744 230.384L542.027 232.712H543.553V226.29H521.709Z" fill="#333E48"/>
<path id="Vector_34" d="M478.323 174.849C480.944 174.849 483.068 172.682 483.068 170.009C483.068 167.336 480.944 165.169 478.323 165.169C475.702 165.169 473.578 167.336 473.578 170.009C473.578 172.682 475.702 174.849 478.323 174.849Z" fill="#DB8689"/>
<path id="Vector_35" d="M493.99 165.983C496.611 165.983 498.735 163.816 498.735 161.143C498.735 158.471 496.611 156.304 493.99 156.304C491.369 156.304 489.245 158.471 489.245 161.143C489.245 163.816 491.369 165.983 493.99 165.983Z" fill="#DB8689"/>
<path id="Vector_36" d="M491.129 177.367C492.689 177.367 493.954 176.077 493.954 174.486C493.954 172.895 492.689 171.605 491.129 171.605C489.569 171.605 488.305 172.895 488.305 174.486C488.305 176.077 489.569 177.367 491.129 177.367Z" fill="#DB8689"/>
<g id="Group_13">
<path id="Vector_37" d="M532.483 150.318C528.263 142.252 528.995 128.229 536.863 123.78L546.866 142.186L532.483 150.318Z" fill="#FF9C9F"/>
<path id="Vector_38" d="M556.361 133.655C551.871 127.538 543.268 122.07 536.864 123.78C532.048 128.414 532.035 138.753 534.742 145.878C534.745 145.884 534.803 146.002 534.831 146.055C535.505 147.295 537.037 147.743 538.252 147.056L555.479 137.316C556.694 136.629 557.133 135.067 556.46 133.826C556.431 133.772 556.364 133.66 556.361 133.655Z" fill="#FFB6B6"/>
</g>
</g>
</g>
<g id="giraffe-svgrepo-com" clip-path="url(#clip2_23_868)">
<g id="Group_14">
<g id="Group_15">
<path id="Vector_39" d="M714.891 248.591L712.175 310.694C712.175 311.188 711.776 311.587 711.282 311.587H703.227C702.734 311.587 702.334 311.188 702.334 310.694L699.618 248.591H714.891Z" fill="#ED9900"/>
<path id="Vector_40" d="M702.169 306.918L702.334 310.695C702.334 311.188 702.734 311.587 703.227 311.587H711.283C711.776 311.587 712.175 311.188 712.175 310.695L712.34 306.918H702.169Z" fill="#333E48"/>
</g>
<g id="Group_16">
<path id="Vector_41" d="M763.313 248.591L760.597 310.694C760.597 311.188 760.198 311.587 759.705 311.587H751.649C751.156 311.587 750.756 311.188 750.756 310.694L748.041 248.591H763.313Z" fill="#ED9900"/>
<path id="Vector_42" d="M750.592 306.918L750.757 310.695C750.757 311.188 751.156 311.587 751.649 311.587H759.705C760.198 311.587 760.598 311.188 760.598 310.695L760.763 306.918H750.592Z" fill="#333E48"/>
</g>
<path id="Vector_43" d="M748.324 137.587C747.122 137.587 746.148 138.562 746.148 139.764V147.529H750.501V139.764C750.501 138.562 749.526 137.587 748.324 137.587Z" fill="#65513C"/>
<path id="Vector_44" d="M755.17 137.587C753.968 137.587 752.994 138.562 752.994 139.764V147.529H757.347V139.764C757.347 138.562 756.373 137.587 755.17 137.587Z" fill="#65513C"/>
<g id="Group_17">
<path id="Vector_45" d="M676.83 250.354C676.103 250.354 675.514 249.765 675.514 249.038C675.514 239.562 683.223 231.852 692.7 231.852C693.426 231.852 694.016 232.441 694.016 233.168C694.016 233.894 693.426 234.484 692.7 234.484C684.674 234.484 678.146 241.013 678.146 249.038C678.146 249.765 677.557 250.354 676.83 250.354Z" fill="#FFB648"/>
<path id="Vector_46" d="M679.293 251.35L678.726 254.49C678.537 255.537 677.535 256.233 676.488 256.044C675.676 255.897 675.074 255.257 674.934 254.49L674.367 251.35C674.122 249.99 675.025 248.688 676.386 248.443C677.746 248.197 679.047 249.101 679.293 250.461C679.347 250.761 679.343 251.067 679.293 251.35Z" fill="#65513C"/>
</g>
<path id="Vector_47" d="M775.778 152.204C771.003 152.204 766.683 150.256 763.57 147.111H763.568C761.989 145.223 759.617 144.021 756.963 144.021C756.903 144.021 756.844 144.029 756.784 144.03V144.021H749.292C744.718 144.021 740.987 147.59 740.708 152.094L740.698 152.095L734.773 226.323H706.89C694.592 226.323 684.622 236.293 684.622 248.591C684.622 260.889 694.592 270.859 706.89 270.859H743.306C755.604 270.859 765.574 260.889 765.574 248.591V226.323L761.696 165.16H775.778C779.355 165.16 782.256 162.26 782.256 158.682C782.256 155.105 779.355 152.204 775.778 152.204Z" fill="#FFB648"/>
<g id="Group_18">
<path id="Vector_48" d="M699.895 248.591L697.179 310.694C697.179 311.188 696.779 311.587 696.286 311.587H688.231C687.738 311.587 687.338 311.188 687.338 310.694L684.622 248.591H699.895Z" fill="#FFB648"/>
<path id="Vector_49" d="M687.173 306.918L687.338 310.695C687.338 311.188 687.738 311.587 688.231 311.587H696.287C696.78 311.587 697.179 311.188 697.179 310.695L697.344 306.918H687.173Z" fill="#333E48"/>
</g>
<g id="Group_19">
<path id="Vector_50" d="M748.317 248.591L745.601 310.694C745.601 311.188 745.202 311.587 744.709 311.587H736.653C736.16 311.587 735.76 311.188 735.76 310.694L733.045 248.591H748.317Z" fill="#FFB648"/>
<path id="Vector_51" d="M735.596 306.918L735.76 310.695C735.76 311.188 736.16 311.587 736.653 311.587H744.709C745.202 311.587 745.602 311.188 745.602 310.695L745.767 306.918H735.596Z" fill="#333E48"/>
</g>
<g id="Group_20">
<path id="Vector_52" d="M718.642 226.324H706.891C706.797 226.324 706.704 226.329 706.609 226.331C705.019 227.891 704.03 230.062 704.03 232.466C704.03 237.214 707.88 241.065 712.63 241.065C717.379 241.065 721.228 237.215 721.228 232.466C721.229 230.059 720.236 227.885 718.642 226.324Z" fill="#65513C"/>
<path id="Vector_53" d="M737.714 195.513C737.551 195.513 737.393 195.53 737.231 195.537L735.54 216.726C736.242 216.871 736.969 216.947 737.714 216.947C743.634 216.947 748.432 212.149 748.432 206.23C748.432 200.312 743.634 195.513 737.714 195.513Z" fill="#65513C"/>
<path id="Vector_54" d="M740.681 253.901C746.6 253.901 751.399 249.102 751.399 243.183C751.399 237.264 746.6 232.466 740.681 232.466C734.762 232.466 729.964 237.264 729.964 243.183C729.964 249.102 734.762 253.901 740.681 253.901Z" fill="#65513C"/>
<path id="Vector_55" d="M762.579 179.071C757.249 179.691 753.111 184.215 753.111 189.709C753.111 195.628 757.91 200.426 763.828 200.426C763.864 200.426 763.897 200.422 763.932 200.422L762.579 179.071Z" fill="#65513C"/>
<path id="Vector_56" d="M755.625 229.01C758.853 229.01 761.469 226.393 761.469 223.165C761.469 219.937 758.853 217.32 755.625 217.32C752.397 217.32 749.78 219.937 749.78 223.165C749.78 226.393 752.397 229.01 755.625 229.01Z" fill="#65513C"/>
<path id="Vector_57" d="M758.237 241.064C758.237 245.117 761.522 248.402 765.575 248.402V233.728C761.522 233.728 758.237 237.012 758.237 241.064Z" fill="#65513C"/>
<path id="Vector_58" d="M746.188 181.627C748.879 181.627 751.06 179.446 751.06 176.755C751.06 174.063 748.879 171.882 746.188 171.882C743.497 171.882 741.315 174.063 741.315 176.755C741.315 179.446 743.497 181.627 746.188 181.627Z" fill="#65513C"/>
<path id="Vector_59" d="M720.226 259.888C722.917 259.888 725.098 257.707 725.098 255.016C725.098 252.325 722.917 250.144 720.226 250.144C717.535 250.144 715.354 252.325 715.354 255.016C715.354 257.707 717.535 259.888 720.226 259.888Z" fill="#65513C"/>
<path id="Vector_60" d="M699.158 250.143C701.849 250.143 704.031 247.962 704.031 245.271C704.031 242.58 701.849 240.398 699.158 240.398C696.467 240.398 694.285 242.58 694.285 245.271C694.285 247.962 696.467 250.143 699.158 250.143Z" fill="#65513C"/>
</g>
<path id="Vector_61" d="M755.171 154.518C756.348 154.518 757.302 153.563 757.302 152.386C757.302 151.209 756.348 150.254 755.171 150.254C753.993 150.254 753.039 151.209 753.039 152.386C753.039 153.563 753.993 154.518 755.171 154.518Z" fill="#333E48"/>
<path id="Vector_62" d="M776.661 152.271C774.371 155.482 773.02 159.409 773.02 163.652C773.02 164.16 773.045 164.662 773.083 165.161H775.778C779.355 165.161 782.256 162.261 782.256 158.683C782.256 155.405 779.819 152.703 776.661 152.271Z" fill="#ED9900"/>
<g id="Group_21">
<path id="Vector_63" d="M739.116 151.262C736.792 148.939 736.22 146.137 737.756 144.601C739.292 143.066 742.093 143.638 744.417 145.962C746.741 148.285 747.313 151.087 745.777 152.623C744.241 154.158 741.44 153.586 739.116 151.262Z" fill="#FFB648"/>
<path id="Vector_64" d="M744.486 151.331C745.237 150.58 744.628 148.753 743.126 147.251C741.624 145.749 739.798 145.14 739.047 145.891C738.296 146.642 738.905 148.469 740.407 149.971C741.909 151.473 743.735 152.081 744.486 151.331Z" fill="#ED9900"/>
</g>
</g>
</g>
<g id="monkey-svgrepo-com" clip-path="url(#clip3_23_868)">
<g id="Group_22">
<g id="Group_23">
<path id="Vector_65" d="M262.414 206.077V197.509C262.414 194.721 264.625 192.46 267.353 192.46C270.08 192.46 272.291 194.721 272.291 197.509V206.077C272.291 208.866 270.08 211.126 267.353 211.126C264.625 211.126 262.414 208.866 262.414 206.077Z" fill="#FF9C9F"/>
<path id="Vector_66" d="M262.414 197.509C262.414 187.931 254.791 180.139 245.421 180.139C236.051 180.139 228.428 187.931 228.428 197.509V209.02C228.428 211.808 226.217 214.068 223.489 214.068C220.762 214.068 218.551 211.808 218.551 209.02V197.509C218.551 182.363 230.605 170.041 245.422 170.041C260.238 170.041 272.291 182.363 272.291 197.509H262.414Z" fill="#4D3D2D"/>
</g>
<path id="Vector_67" d="M200.126 225.053H182.913C171.571 225.053 162.343 215.62 162.343 204.025V192.595C162.343 187.652 158.409 183.63 153.572 183.63C148.737 183.63 144.802 187.651 144.802 192.595C144.802 194.715 143.12 196.434 141.047 196.434C138.973 196.434 137.292 194.715 137.292 192.595C137.292 183.418 144.595 175.952 153.573 175.952C162.55 175.952 169.854 183.418 169.854 192.595V204.025C169.854 211.387 175.713 217.375 182.914 217.375H200.126C202.2 217.375 203.881 219.094 203.881 221.214C203.881 223.334 202.199 225.053 200.126 225.053Z" fill="#4D3D2D"/>
<path id="Vector_68" d="M253.521 225.852C255.455 225.852 257.024 227.455 257.024 229.432C257.024 231.41 255.455 233.013 253.521 233.013H242.65C240.715 233.013 239.147 231.41 239.147 229.432C239.147 227.455 240.715 225.852 242.65 225.852H253.521Z" fill="#DB8689"/>
<path id="Vector_69" d="M227.597 196.57C217.753 196.57 209.772 204.728 209.772 214.791C209.772 224.855 217.753 233.012 227.597 233.012H245.422V214.791C245.422 204.728 237.441 196.57 227.597 196.57Z" fill="#4D3D2D"/>
<path id="Vector_70" d="M183.911 191.739C183.911 177.388 195.292 165.754 209.331 165.754C223.37 165.754 234.751 177.388 234.751 191.739V207.026C234.751 221.378 223.37 233.012 209.331 233.012C195.292 233.012 183.911 221.378 183.911 207.026V191.739Z" fill="#65513C"/>
<g id="Group_24">
<path id="Vector_71" d="M227.14 126.163C242.171 126.163 254.357 138.619 254.357 153.984C254.357 169.349 242.171 181.806 227.14 181.806H211.979C196.948 181.806 184.762 169.349 184.762 153.984C184.762 138.619 196.948 126.163 211.979 126.163H227.14Z" fill="#65513C"/>
<path id="Vector_72" d="M252.856 163.097C253.824 160.242 254.357 157.177 254.357 153.984C254.357 150.172 253.606 146.541 252.248 143.233C250.111 141.604 247.659 140.383 245.004 139.68C241.66 140.783 238.873 143.158 237.201 146.253C235.062 142.294 231.104 139.51 226.48 139.066C215.671 139.91 207.155 149.135 207.155 160.401C207.155 171.897 216.024 181.263 227.148 181.77C227.407 181.791 227.672 181.805 227.952 181.805H244.472C250.588 181.805 255.545 176.737 255.545 170.486C255.545 167.661 254.53 165.08 252.856 163.097Z" fill="#FF9C9F"/>
<path id="Vector_73" d="M222.634 156.175C223.908 156.175 224.941 155.119 224.941 153.816C224.941 152.513 223.908 151.457 222.634 151.457C221.359 151.457 220.326 152.513 220.326 153.816C220.326 155.119 221.359 156.175 222.634 156.175Z" fill="#333E48"/>
<path id="Vector_74" d="M249.707 156.175C250.982 156.175 252.015 155.119 252.015 153.816C252.015 152.513 250.982 151.457 249.707 151.457C248.433 151.457 247.4 152.513 247.4 153.816C247.4 155.119 248.433 156.175 249.707 156.175Z" fill="#333E48"/>
<path id="Vector_75" d="M235.649 163.541C235.432 163.541 235.214 163.456 235.048 163.287L233.647 161.854C233.316 161.515 233.316 160.964 233.647 160.625C233.98 160.286 234.518 160.286 234.85 160.625L236.25 162.057C236.582 162.396 236.582 162.947 236.25 163.287C236.084 163.456 235.867 163.541 235.649 163.541Z" fill="#333E48"/>
<path id="Vector_76" d="M242.271 163.541C242.053 163.541 241.836 163.456 241.67 163.287C241.338 162.947 241.338 162.396 241.67 162.057L243.07 160.625C243.401 160.286 243.94 160.286 244.273 160.625C244.605 160.964 244.605 161.514 244.273 161.854L242.872 163.287C242.706 163.456 242.488 163.541 242.271 163.541Z" fill="#333E48"/>
<g id="Group_25">
<path id="Vector_77" d="M191.208 143.538C185.565 143.538 180.989 148.215 180.989 153.984C180.989 159.753 185.565 164.431 191.208 164.431V143.538Z" fill="#65513C"/>
<path id="Vector_78" d="M191.208 147.574C187.744 147.574 184.937 150.444 184.937 153.984C184.937 157.525 187.744 160.395 191.208 160.395V147.574Z" fill="#FF9C9F"/>
</g>
</g>
<g id="Group_26">
<path id="Vector_79" d="M223.179 225.851C225.114 225.851 226.682 227.454 226.682 229.431C226.682 231.409 225.114 233.012 223.179 233.012H212.308C210.374 233.012 208.806 231.409 208.806 229.431C208.806 227.454 210.374 225.851 212.308 225.851H223.179Z" fill="#FF9C9F"/>
<path id="Vector_80" d="M197.255 196.57C187.411 196.57 179.431 204.728 179.431 214.791C179.431 224.855 187.411 233.012 197.255 233.012H215.08V214.791C215.08 204.728 207.1 196.57 197.255 196.57Z" fill="#65513C"/>
</g>
<g id="Group_27">
<path id="Vector_81" d="M192.308 145.029H183.926C181.198 145.029 178.987 142.768 178.987 139.981C178.987 137.192 181.198 134.933 183.926 134.933H192.308C195.035 134.933 197.247 137.192 197.247 139.981C197.247 142.768 195.035 145.029 192.308 145.029Z" fill="#FF9C9F"/>
<path id="Vector_82" d="M183.926 145.029C174.556 145.029 166.933 152.822 166.933 162.399C166.933 171.978 174.556 179.77 183.926 179.77H195.187C197.914 179.77 200.125 182.031 200.125 184.819C200.125 187.607 197.914 189.867 195.187 189.867H183.926C169.109 189.867 157.055 177.546 157.055 162.399C157.055 147.253 169.109 134.932 183.926 134.932V145.029Z" fill="#65513C"/>
</g>
</g>
</g>
<g id="crocodile-svgrepo-com" clip-path="url(#clip4_23_868)">
<g id="Group_28">
<path id="Vector_83" d="M1052.8 548.199H1052.93C1053.97 543.376 1058.26 539.762 1063.39 539.762C1068.53 539.762 1072.81 543.376 1073.86 548.199H1091.23C1091.23 541.14 1096.95 535.417 1104.01 535.417C1108.72 535.417 1112.83 537.966 1115.05 541.755C1116.27 541.203 1117.63 540.889 1119.06 540.889H1204.24C1225.26 540.889 1243.19 554.117 1250.17 572.703H1028.29C1028.29 559.169 1039.26 548.199 1052.8 548.199Z" fill="#00833E"/>
<path id="Vector_84" d="M1056.77 550.474C1056.77 546.815 1059.73 543.849 1063.39 543.849C1067.05 543.849 1070.02 546.815 1070.02 550.474H1056.77Z" fill="#006931"/>
<path id="Vector_85" d="M1104.01 553.46C1101.11 553.46 1098.75 551.104 1098.75 548.198C1098.75 545.291 1101.11 542.935 1104.01 542.935C1106.92 542.935 1109.28 545.291 1109.28 548.198C1109.28 551.104 1106.92 553.46 1104.01 553.46Z" fill="#333E48"/>
<path id="Vector_86" d="M1250.17 572.703C1252.19 578.066 1253.29 583.875 1253.29 589.943H1045.53C1036.01 589.943 1028.29 582.224 1028.29 572.702L1250.17 572.703Z" fill="#E1CB81"/>
<path id="Vector_87" d="M1160.16 585.625C1160.16 588.149 1158.11 590.195 1155.59 590.195H1111.09C1115.58 578.249 1127.1 569.747 1140.62 569.747H1153.87C1157.34 569.747 1160.16 572.563 1160.16 576.033V585.625Z" fill="#006931"/>
<g id="Group_29">
<path id="Vector_88" d="M1123.4 540.889C1123.4 537.073 1126.49 533.98 1130.31 533.98C1134.12 533.98 1137.22 537.073 1137.22 540.889H1123.4Z" fill="#006931"/>
<path id="Vector_89" d="M1139.92 540.889C1139.92 537.073 1143.01 533.98 1146.83 533.98C1150.65 533.98 1153.74 537.073 1153.74 540.889H1139.92Z" fill="#006931"/>
<path id="Vector_90" d="M1156.44 540.889C1156.44 537.073 1159.54 533.98 1163.35 533.98C1167.17 533.98 1170.26 537.073 1170.26 540.889H1156.44Z" fill="#006931"/>
<path id="Vector_91" d="M1172.97 540.889C1172.97 537.073 1176.06 533.98 1179.88 533.98C1183.69 533.98 1186.78 537.073 1186.78 540.889H1172.97Z" fill="#006931"/>
<path id="Vector_92" d="M1189.49 540.889C1189.49 537.073 1192.58 533.98 1196.4 533.98C1200.21 533.98 1203.31 537.073 1203.31 540.889H1189.49Z" fill="#006931"/>
</g>
<g id="Group_30">
<path id="Vector_93" d="M1166.32 589.943C1166.32 580.421 1174.04 572.702 1183.56 572.702H1250.17C1252.19 578.065 1253.29 583.875 1253.29 589.943H1166.32Z" fill="#00833E"/>
<g id="Group_31">
<path id="Vector_94" d="M1183.66 572.702C1183.66 568.887 1186.76 565.794 1190.57 565.794C1194.39 565.794 1197.48 568.887 1197.48 572.702H1183.66Z" fill="#006931"/>
<path id="Vector_95" d="M1200.18 572.702C1200.18 568.887 1203.28 565.794 1207.09 565.794C1210.91 565.794 1214 568.887 1214 572.702H1200.18Z" fill="#006931"/>
<path id="Vector_96" d="M1216.71 572.702C1216.71 568.887 1219.8 565.794 1223.61 565.794C1227.43 565.794 1230.52 568.887 1230.52 572.702H1216.71Z" fill="#006931"/>
<path id="Vector_97" d="M1233.23 572.702C1233.23 568.887 1236.32 565.794 1240.14 565.794C1243.95 565.794 1247.05 568.887 1247.05 572.702H1233.23Z" fill="#006931"/>
</g>
</g>
<g id="Group_32">
<path id="Vector_98" d="M1090.6 572.703L1095.53 581.237L1100.45 572.703H1090.6Z" fill="white"/>
<path id="Vector_99" d="M1078.8 572.703L1083.72 581.237L1088.65 572.703H1078.8Z" fill="white"/>
<path id="Vector_100" d="M1066.99 572.703L1071.92 581.237L1076.85 572.703H1066.99Z" fill="white"/>
<path id="Vector_101" d="M1055.19 572.703L1060.12 581.237L1065.05 572.703H1055.19Z" fill="white"/>
<path id="Vector_102" d="M1043.39 572.703L1048.32 581.237L1053.25 572.703H1043.39Z" fill="white"/>
<path id="Vector_103" d="M1031.59 572.703L1036.52 581.237L1041.44 572.703H1031.59Z" fill="white"/>
</g>
</g>
</g>
<path id="Line 6" d="M209.345 282.907C208.248 282.774 207.251 283.555 207.118 284.651L204.947 302.52C204.814 303.617 205.595 304.613 206.692 304.747C207.788 304.88 208.785 304.099 208.918 303.002L210.848 287.119L226.731 289.049C227.827 289.182 228.824 288.401 228.958 287.304C229.091 286.208 228.31 285.211 227.213 285.078L209.345 282.907ZM209.104 284.893L207.529 286.126L340.461 455.821L342.036 454.587L343.61 453.354L210.678 283.659L209.104 284.893Z" fill="#38332D"/>
<path id="Line 7" d="M523.685 287.092C523.523 285.999 522.506 285.245 521.413 285.407L503.608 288.047C502.515 288.209 501.761 289.227 501.923 290.319C502.085 291.412 503.102 292.166 504.195 292.004L520.022 289.657L522.369 305.484C522.531 306.577 523.548 307.331 524.64 307.169C525.733 307.007 526.487 305.99 526.325 304.897L523.685 287.092ZM521.707 287.385L520.1 286.194L411.227 432.981L412.833 434.173L414.44 435.364L523.313 288.577L521.707 287.385Z" fill="#38332D"/>
<path id="Line 10" d="M730.261 362.238C730.068 361.151 729.03 360.425 727.942 360.618L710.219 363.76C709.131 363.953 708.406 364.991 708.598 366.078C708.791 367.166 709.829 367.891 710.917 367.698L726.671 364.906L729.464 380.66C729.657 381.748 730.695 382.473 731.782 382.28C732.87 382.088 733.595 381.05 733.402 379.962L730.261 362.238ZM728.292 362.587L726.652 361.442L576.396 576.442L578.036 577.587L579.675 578.733L729.931 363.733L728.292 362.587Z" fill="#38332D"/>
<path id="Line 11" d="M406.553 538.208C405.459 538.364 404.699 539.377 404.856 540.47L407.401 558.289C407.557 559.383 408.57 560.143 409.664 559.986C410.757 559.83 411.517 558.817 411.361 557.724L409.098 541.885L424.937 539.622C426.031 539.466 426.791 538.453 426.634 537.359C426.478 536.266 425.465 535.506 424.372 535.662L406.553 538.208ZM406.835 540.188L405.635 541.788L486.435 602.387L487.635 600.787L488.835 599.187L408.035 538.587L406.835 540.188Z" fill="#38332D"/>
<path id="Line 16" d="M566.268 659.939C565.2 660.217 564.559 661.31 564.837 662.379L569.373 679.798C569.652 680.866 570.744 681.507 571.813 681.229C572.882 680.951 573.522 679.858 573.244 678.79L569.212 663.306L584.696 659.274C585.764 658.995 586.405 657.903 586.127 656.834C585.849 655.765 584.756 655.124 583.687 655.403L566.268 659.939ZM566.772 661.875L565.76 663.599L683.31 732.575L684.323 730.85L685.335 729.125L567.785 660.15L566.772 661.875Z" fill="#38332D"/>
<path id="Line 17" d="M766.382 783.039C765.302 783.27 764.614 784.334 764.846 785.414L768.617 803.014C768.849 804.094 769.912 804.782 770.992 804.551C772.072 804.319 772.76 803.256 772.528 802.176L769.176 786.531L784.821 783.179C785.901 782.947 786.589 781.884 786.357 780.804C786.126 779.724 785.063 779.036 783.983 779.268L766.382 783.039ZM766.801 784.995L765.715 786.674L898.356 872.501L899.443 870.822L900.529 869.142L767.888 783.315L766.801 784.995Z" fill="#38332D"/>
<path id="Line 12" d="M937.649 500.125C937.503 499.03 936.496 498.262 935.401 498.408L917.561 500.799C916.466 500.946 915.697 501.952 915.844 503.047C915.991 504.142 916.997 504.911 918.092 504.764L933.95 502.639L936.076 518.497C936.222 519.592 937.229 520.36 938.324 520.213C939.418 520.067 940.187 519.06 940.04 517.965L937.649 500.125ZM935.667 500.391L934.077 499.177L782.249 697.998L783.839 699.212L785.428 700.425L937.257 501.604L935.667 500.391Z" fill="#38332D"/>
<path id="Line 14" d="M1144.27 632.288C1144.1 631.196 1143.08 630.445 1141.99 630.61L1124.19 633.301C1123.1 633.466 1122.35 634.486 1122.52 635.578C1122.68 636.67 1123.7 637.421 1124.79 637.256L1140.61 634.864L1143.01 650.684C1143.17 651.776 1144.19 652.528 1145.28 652.363C1146.37 652.197 1147.13 651.178 1146.96 650.086L1144.27 632.288ZM1142.29 632.587L1140.68 631.401L981.426 847.401L983.036 848.587L984.645 849.774L1143.9 633.774L1142.29 632.587Z" fill="#38332D"/>
<circle id="Ellipse 14" cx="368.292" cy="491.587" r="21" fill="white" stroke="#38332D" stroke-width="4"/>
<circle id="Ellipse 15" cx="524.292" cy="629.587" r="21" fill="white" stroke="#38332D" stroke-width="4"/>
<circle id="Ellipse 16" cx="731.292" cy="764.587" r="21" fill="white" stroke="#38332D" stroke-width="4"/>
<circle id="Ellipse 17" cx="938.292" cy="902.587" r="21" fill="white" stroke="#38332D" stroke-width="4"/>
</g>
<g id="ancestors">
<g id="mpg">
<g id="Clip path group">
<mask id="mask0_23_868" style="mask-type:luminance" maskUnits="userSpaceOnUse" x="518" y="554" width="76" height="154">
<g id="clip0_33_2861">
<path id="Vector_104" d="M593.292 554.587H518.292V707.587H593.292V554.587Z" fill="white"/>
</g>
</mask>
<g mask="url(#mask0_23_868)">
<g id="Group_33">
<path id="Vector_105" d="M552.743 649.418H530.9V679.289H552.743V649.418Z" fill="#DB8689"/>
<path id="Vector_106" d="M530.9 679.29V685.713H546.651L548.934 683.384L551.217 685.713H552.743V679.29H530.9Z" fill="#283038"/>
<path id="Vector_107" d="M553.783 582.784C541.73 582.784 531.1 589.005 524.812 598.47H491.352C472.174 598.47 456.628 614.327 456.628 633.887C456.628 643.324 460.247 651.899 466.147 658.247V679.289H487.991V669.139C489.097 669.247 490.217 669.305 491.352 669.305H515.709V679.289H537.553V667.326C544.509 664.844 550.455 660.169 554.593 654.113C573.532 653.674 588.753 637.877 588.753 618.454C588.753 598.754 573.097 582.784 553.783 582.784Z" fill="#FF9C9F"/>
<path id="Vector_108" d="M583.229 629.821H566.641C561.083 629.821 556.578 625.225 556.578 619.557C556.578 613.888 561.083 609.292 566.641 609.292H583.229V629.821Z" fill="#DB8689"/>
<path id="Vector_109" d="M583.229 609.292C588.786 609.292 593.292 613.888 593.292 619.557C593.292 625.226 588.786 629.821 583.229 629.821H573.163C567.605 629.821 563.099 625.225 563.099 619.557C563.099 613.888 567.605 609.292 573.163 609.292H583.229Z" fill="#FFB6B6"/>
<path id="Vector_110" d="M571.394 616.699C571.394 615.288 572.516 614.144 573.899 614.144C575.282 614.144 576.403 615.288 576.403 616.699V622.415C576.403 623.825 575.282 624.969 573.899 624.969C572.516 624.969 571.394 623.825 571.394 622.415V616.699Z" fill="#DB8689"/>
<path id="Vector_111" d="M587.487 616.699C587.487 615.288 586.366 614.144 584.983 614.144C583.599 614.144 582.479 615.288 582.479 616.699V622.415C582.479 623.825 583.599 624.969 584.983 624.969C586.366 624.969 587.487 623.825 587.487 622.415V616.699Z" fill="#DB8689"/>
<path id="Vector_112" d="M515.709 679.29V685.713H531.461L533.744 683.384L536.027 685.713H537.553V679.29H515.709Z" fill="#333E48"/>
</g>
</g>
</g>
<g id="Clip path group_2">
<mask id="mask1_23_868" style="mask-type:luminance" maskUnits="userSpaceOnUse" x="449" y="584" width="70" height="115">
<g id="clip1_33_2861">
<path id="Vector_113" d="M518.292 584.587H449.292V698.587H518.292V584.587Z" fill="white"/>
</g>
</mask>
<g mask="url(#mask1_23_868)">
<g id="Group_34">
<path id="Vector_114" d="M512.126 679.145H494.913C483.571 679.145 474.343 671.353 474.343 661.775V652.332C474.343 648.249 470.409 644.926 465.572 644.926C460.737 644.926 456.802 648.248 456.802 652.332C456.802 654.084 455.12 655.503 453.047 655.503C450.973 655.503 449.292 654.084 449.292 652.332C449.292 644.751 456.596 638.583 465.573 638.583C474.55 638.583 481.854 644.751 481.854 652.332V661.775C481.854 667.856 487.713 672.803 494.914 672.803H512.126C514.2 672.803 515.881 674.223 515.881 675.974C515.881 677.726 514.199 679.145 512.126 679.145Z" fill="#4D3D2D"/>
<path id="Vector_115" d="M495.911 651.625C495.911 639.77 507.292 630.159 521.331 630.159C535.37 630.159 546.752 639.77 546.752 651.625V664.254C546.752 676.109 535.37 685.721 521.331 685.721C507.292 685.721 495.911 676.109 495.911 664.254V651.625Z" fill="#65513C"/>
<path id="Vector_116" d="M539.14 597.454C554.172 597.454 566.357 607.743 566.357 620.436C566.357 633.129 554.172 643.419 539.14 643.419H523.979C508.948 643.419 496.762 633.129 496.762 620.436C496.762 607.743 508.948 597.454 523.979 597.454H539.14Z" fill="#65513C"/>
<path id="Vector_117" d="M503.208 611.808C497.565 611.808 492.989 615.672 492.989 620.437C492.989 625.203 497.565 629.067 503.208 629.067V611.808Z" fill="#65513C"/>
<path id="Vector_118" d="M503.208 615.142C499.744 615.142 496.937 617.513 496.937 620.437C496.937 623.362 499.744 625.733 503.208 625.733V615.142Z" fill="#FF9C9F"/>
<path id="Vector_119" d="M509.256 655.616C499.411 655.616 491.431 662.355 491.431 670.668C491.431 678.981 499.412 685.72 509.256 685.72H527.08V670.668C527.08 662.355 519.1 655.616 509.256 655.616Z" fill="#65513C"/>
<path id="Vector_120" d="M504.308 613.039H495.926C493.198 613.039 490.987 611.171 490.987 608.869C490.987 606.565 493.198 604.698 495.926 604.698H504.308C507.035 604.698 509.247 606.565 509.247 608.869C509.247 611.171 507.035 613.039 504.308 613.039Z" fill="#FF9C9F"/>
<path id="Vector_121" d="M495.926 613.039C486.556 613.039 478.933 619.476 478.933 627.388C478.933 635.301 486.556 641.738 495.926 641.738H507.187C509.914 641.738 512.125 643.605 512.125 645.908C512.125 648.212 509.914 650.078 507.187 650.078H495.926C481.109 650.078 469.055 639.9 469.055 627.388C469.055 614.876 481.109 604.698 495.926 604.698V613.039Z" fill="#65513C"/>
</g>
</g>
</g>
<g id="Clip path group_3">
<mask id="mask2_23_868" style="mask-type:luminance" maskUnits="userSpaceOnUse" x="445" y="499" width="175" height="88">
<g id="clip2_33_2861">
<path id="Vector_122" d="M619.031 499.388H445.031V586.388H619.031V499.388Z" fill="white"/>
</g>
</mask>
<g mask="url(#mask2_23_868)">
<g id="Group_35">
<path id="Vector_123" d="M552.063 499.388C550.861 499.388 549.887 500.362 549.887 501.564V509.329H554.24V501.564C554.24 500.362 553.266 499.388 552.063 499.388Z" fill="#65513C"/>
<path id="Vector_124" d="M558.909 499.388C557.708 499.388 556.733 500.362 556.733 501.564V509.329H561.086V501.564C561.087 500.362 560.112 499.388 558.909 499.388Z" fill="#65513C"/>
<path id="Vector_125" d="M567.31 508.912C570.423 512.057 574.742 514.005 579.517 514.005C583.095 514.005 585.996 516.905 585.995 520.482C585.995 524.06 583.094 526.961 579.517 526.961H565.435L569.314 588.123C556.979 583.877 550.21 583.623 538.513 588.123L544.438 513.895L544.448 513.894C544.727 509.39 548.458 505.821 553.032 505.821H560.524V505.83C560.584 505.829 560.642 505.821 560.702 505.821C563.356 505.821 565.73 507.023 567.31 508.912Z" fill="#FFB648"/>
<path id="Vector_126" d="M541.454 557.313C541.291 557.313 541.132 557.33 540.971 557.338L539.279 578.527C539.981 578.671 540.708 578.748 541.454 578.748C547.372 578.748 552.171 573.949 552.171 568.03C552.171 562.112 547.372 557.313 541.454 557.313Z" fill="#65513C"/>
<path id="Vector_127" d="M566.319 540.872C560.989 541.491 556.851 546.015 556.851 551.51C556.851 557.429 561.65 562.227 567.569 562.227C567.604 562.227 567.637 562.222 567.673 562.222L566.319 540.872Z" fill="#65513C"/>
<path id="Vector_128" d="M549.927 543.428C552.618 543.428 554.799 541.246 554.799 538.555C554.799 535.864 552.618 533.682 549.927 533.682C547.236 533.682 545.054 535.864 545.054 538.555C545.054 541.246 547.236 543.428 549.927 543.428Z" fill="#65513C"/>
<path id="Vector_129" d="M558.91 516.318C560.087 516.318 561.042 515.364 561.042 514.186C561.042 513.009 560.087 512.055 558.91 512.055C557.733 512.055 556.778 513.009 556.778 514.186C556.778 515.364 557.733 516.318 558.91 516.318Z" fill="#333E48"/>
<path id="Vector_130" d="M580.4 514.072C578.11 517.282 576.759 521.209 576.759 525.452C576.759 525.961 576.784 526.463 576.822 526.961H579.517C583.094 526.961 585.995 524.061 585.995 520.483C585.995 517.205 583.558 514.503 580.4 514.072Z" fill="#ED9900"/>
<path id="Vector_131" d="M542.855 513.063C540.531 510.739 539.959 507.938 541.495 506.402C543.031 504.866 545.832 505.438 548.156 507.762C550.48 510.086 551.052 512.887 549.516 514.423C547.98 515.959 545.179 515.386 542.855 513.063Z" fill="#FFB648"/>
<path id="Vector_132" d="M548.225 513.13C548.976 512.38 548.367 510.553 546.865 509.051C545.363 507.549 543.537 506.94 542.786 507.691C542.036 508.442 542.644 510.268 544.146 511.77C545.648 513.273 547.474 513.881 548.225 513.13Z" fill="#ED9900"/>
</g>
</g>
</g>
</g>
<g id="mpgtc" clip-path="url(#clip5_23_868)">
<g id="Clip path group_4">
<mask id="mask3_23_868" style="mask-type:luminance" maskUnits="userSpaceOnUse" x="923" y="821" width="85" height="154">
<g id="clip0_33_3032">
<path id="Vector_133" d="M1007.29 821.587H923.292V974.587H1007.29V821.587Z" fill="white"/>
</g>
</mask>
<g mask="url(#mask3_23_868)">
<g id="Group_36">
<path id="Vector_134" d="M969.456 919.914C962.185 919.914 956.292 914.021 956.292 906.75C956.292 899.48 962.185 893.587 969.456 893.587H1007.25C1007.25 908.126 995.465 919.913 980.924 919.914H969.456Z" fill="#2D3740"/>
<path id="Vector_135" d="M959.004 917.618H937.161V947.489H959.004V917.618Z" fill="#DB8689"/>
<path id="Vector_136" d="M960.043 850.984C947.99 850.984 937.361 857.204 931.072 866.669H897.612C878.435 866.669 862.889 882.527 862.889 902.087C862.889 911.524 866.507 920.099 872.407 926.447V947.489H894.251V937.339C895.357 937.447 896.478 937.505 897.612 937.505H921.969V947.489H943.814V935.526C950.769 933.044 956.715 928.369 960.853 922.313C979.792 921.874 995.013 906.077 995.013 886.654C995.013 866.954 979.357 850.984 960.043 850.984Z" fill="#FF9C9F"/>
<path id="Vector_137" d="M989.489 898.02H972.901C967.344 898.02 962.838 893.424 962.838 887.756C962.838 882.087 967.344 877.491 972.901 877.491H989.489V898.02Z" fill="#DB8689"/>
<path id="Vector_138" d="M989.489 877.491C995.046 877.491 999.552 882.087 999.552 887.756C999.552 893.425 995.046 898.02 989.489 898.02H979.423C973.865 898.02 969.359 893.424 969.359 887.756C969.359 882.087 973.865 877.491 979.423 877.491H989.489Z" fill="#FFB6B6"/>
<path id="Vector_139" d="M977.655 884.898C977.655 883.487 978.776 882.343 980.159 882.343C981.542 882.343 982.663 883.487 982.663 884.898V890.614C982.663 892.024 981.542 893.168 980.159 893.168C978.776 893.168 977.655 892.024 977.655 890.614V884.898Z" fill="#DB8689"/>
<path id="Vector_140" d="M993.747 884.898C993.747 883.487 992.626 882.343 991.243 882.343C989.86 882.343 988.739 883.487 988.739 884.898V890.614C988.739 892.024 989.86 893.168 991.243 893.168C992.626 893.168 993.747 892.024 993.747 890.614V884.898Z" fill="#DB8689"/>
<path id="Vector_141" d="M953.035 955.235C953.693 955.1 954.187 954.519 954.187 953.821V951.802C954.187 951.005 953.541 950.359 952.745 950.359C951.947 950.359 951.301 951.005 951.301 951.802V952.378H948.735C947.938 952.378 947.292 953.024 947.292 953.821C947.292 954.618 947.938 955.264 948.735 955.264H952.745C952.844 955.264 952.941 955.254 953.035 955.235Z" fill="#B36F0F"/>
<path id="Vector_142" d="M953.035 952.349C953.693 952.214 954.187 951.633 954.187 950.935V948.916C954.187 948.119 953.541 947.473 952.745 947.473C951.947 947.473 951.301 948.119 951.301 948.916V949.492H948.735C947.938 949.492 947.292 950.138 947.292 950.935C947.292 951.732 947.938 952.378 948.735 952.378H952.745C952.844 952.378 952.941 952.368 953.035 952.349Z" fill="#B36F0F"/>
<path id="Vector_143" d="M953.035 949.463C953.693 949.328 954.187 948.746 954.187 948.048V946.03C954.187 945.233 953.541 944.587 952.745 944.587C951.947 944.587 951.301 945.233 951.301 946.03V946.606H948.735C947.938 946.606 947.292 947.252 947.292 948.048C947.292 948.846 947.938 949.492 948.735 949.492H952.745C952.844 949.492 952.941 949.481 953.035 949.463Z" fill="#B36F0F"/>
<path id="Vector_144" d="M935.035 955.235C935.693 955.1 936.187 954.518 936.187 953.821V951.802C936.187 951.005 935.541 950.359 934.744 950.359C933.947 950.359 933.301 951.005 933.301 951.802V952.378H930.735C929.938 952.378 929.292 953.024 929.292 953.821C929.292 954.618 929.938 955.264 930.735 955.264H934.744C934.843 955.264 934.941 955.254 935.035 955.235Z" fill="#FFB648"/>
<path id="Vector_145" d="M935.035 952.349C935.693 952.214 936.187 951.633 936.187 950.935V948.916C936.187 948.119 935.541 947.473 934.744 947.473C933.947 947.473 933.301 948.119 933.301 948.916V949.492H930.735C929.938 949.492 929.292 950.138 929.292 950.935C929.292 951.732 929.938 952.378 930.735 952.378H934.744C934.843 952.378 934.941 952.368 935.035 952.349Z" fill="#FFB648"/>
<path id="Vector_146" d="M935.035 949.463C935.693 949.328 936.187 948.746 936.187 948.048V946.03C936.187 945.233 935.541 944.587 934.744 944.587C933.947 944.587 933.301 945.233 933.301 946.03V946.606H930.735C929.938 946.606 929.292 947.252 929.292 948.048C929.292 948.846 929.938 949.492 930.735 949.492H934.744C934.843 949.492 934.941 949.481 935.035 949.463Z" fill="#FFB648"/>
</g>
</g>
</g>
<g id="Clip path group_5">
<mask id="mask4_23_868" style="mask-type:luminance" maskUnits="userSpaceOnUse" x="857" y="854" width="67" height="106">
<g id="clip1_33_3032">
<path id="Vector_147" d="M923.292 854.587H857.292V959.587H923.292V854.587Z" fill="white"/>
</g>
</mask>
<g mask="url(#mask4_23_868)">
<g id="Group_37">
<path id="Vector_148" d="M917.394 941.68H900.93C890.081 941.68 881.254 934.503 881.254 925.681V916.984C881.254 913.223 877.491 910.163 872.865 910.163C868.239 910.163 864.476 913.223 864.476 916.984C864.476 918.597 862.867 919.905 860.883 919.905C858.9 919.905 857.292 918.597 857.292 916.984C857.292 910.002 864.278 904.321 872.865 904.321C881.452 904.321 888.438 910.002 888.438 916.984V925.681C888.438 931.282 894.042 935.839 900.93 935.839H917.394C919.378 935.839 920.986 937.147 920.986 938.76C920.986 940.373 919.377 941.68 917.394 941.68Z" fill="#4D3D2D"/>
<path id="Vector_149" d="M901.884 916.333C901.884 905.414 912.77 896.562 926.199 896.562C939.628 896.562 950.514 905.414 950.514 916.333V927.965C950.514 938.884 939.628 947.737 926.199 947.737C912.77 947.737 901.884 938.884 901.884 927.965V916.333Z" fill="#65513C"/>
<path id="Vector_150" d="M943.234 866.438C957.611 866.438 969.267 875.915 969.267 887.606C969.267 899.297 957.611 908.775 943.234 908.775H928.732C914.354 908.775 902.698 899.297 902.698 887.606C902.698 875.915 914.354 866.438 928.732 866.438H943.234Z" fill="#65513C"/>
<path id="Vector_151" d="M908.864 879.659C903.466 879.659 899.089 883.218 899.089 887.607C899.089 891.997 903.466 895.556 908.864 895.556V879.659Z" fill="#65513C"/>
<path id="Vector_152" d="M908.864 882.729C905.551 882.729 902.866 884.913 902.866 887.606C902.866 890.3 905.551 892.484 908.864 892.484V882.729Z" fill="#FF9C9F"/>
<path id="Vector_153" d="M914.648 920.009C905.232 920.009 897.599 926.216 897.599 933.872C897.599 941.529 905.232 947.736 914.648 947.736H931.698V933.873C931.698 926.216 924.065 920.009 914.648 920.009Z" fill="#65513C"/>
<path id="Vector_154" d="M902.321 916.726C909.275 916.726 914.912 911.298 914.912 904.601C914.912 897.905 909.275 892.477 902.321 892.477H866.168C866.168 905.869 877.443 916.725 891.351 916.726H902.321Z" fill="#2D3740"/>
</g>
</g>
</g>
<g id="Clip path group_6">
<mask id="mask5_23_868" style="mask-type:luminance" maskUnits="userSpaceOnUse" x="851" y="767" width="175" height="88">
<g id="clip2_33_3032">
<path id="Vector_155" d="M1025.29 767.587H851.292V854.587H1025.29V767.587Z" fill="white"/>
</g>
</mask>
<g mask="url(#mask5_23_868)">
<g id="Group_38">
<path id="Vector_156" d="M958.324 767.587C957.121 767.587 956.147 768.562 956.147 769.764V777.529H960.5V769.764C960.5 768.562 959.526 767.587 958.324 767.587Z" fill="#65513C"/>
<path id="Vector_157" d="M965.17 767.587C963.969 767.587 962.994 768.562 962.994 769.764V777.529H967.347V769.764C967.348 768.562 966.373 767.587 965.17 767.587Z" fill="#65513C"/>
<path id="Vector_158" d="M973.571 777.111C976.684 780.256 981.004 782.204 985.778 782.204C989.356 782.204 992.257 785.105 992.256 788.682C992.256 792.26 989.356 795.16 985.778 795.16H971.696L975.575 856.323C963.24 852.076 956.472 851.823 944.773 856.323L950.699 782.095L950.708 782.094C950.988 777.59 954.719 774.021 959.293 774.021H966.785V774.03C966.845 774.029 966.903 774.021 966.963 774.021C969.617 774.021 971.992 775.223 973.571 777.111Z" fill="#FFB648"/>
<path id="Vector_159" d="M947.714 825.513C947.551 825.513 947.392 825.53 947.231 825.537L945.539 846.726C946.241 846.87 946.968 846.947 947.714 846.947C953.633 846.947 958.431 842.149 958.431 836.229C958.431 830.311 953.633 825.513 947.714 825.513Z" fill="#65513C"/>
<path id="Vector_160" d="M972.578 809.071C967.248 809.691 963.111 814.215 963.111 819.709C963.111 825.628 967.909 830.426 973.828 830.426C973.863 830.426 973.896 830.422 973.932 830.421L972.578 809.071Z" fill="#65513C"/>
<path id="Vector_161" d="M956.187 811.627C958.878 811.627 961.06 809.446 961.06 806.755C961.06 804.063 958.878 801.882 956.187 801.882C953.496 801.882 951.314 804.063 951.314 806.755C951.314 809.446 953.496 811.627 956.187 811.627Z" fill="#65513C"/>
<path id="Vector_162" d="M965.171 784.518C966.349 784.518 967.303 783.563 967.303 782.386C967.303 781.209 966.349 780.254 965.171 780.254C963.994 780.254 963.04 781.209 963.04 782.386C963.04 783.563 963.994 784.518 965.171 784.518Z" fill="#333E48"/>
<path id="Vector_163" d="M986.661 782.271C984.371 785.482 983.02 789.409 983.02 793.652C983.02 794.16 983.045 794.662 983.083 795.161H985.778C989.355 795.161 992.256 792.26 992.256 788.683C992.257 785.405 989.819 782.703 986.661 782.271Z" fill="#ED9900"/>
<path id="Vector_164" d="M949.116 777.805C946.792 775.482 946.22 772.68 947.756 771.144C949.292 769.608 952.094 770.181 954.417 772.505C956.741 774.828 957.313 777.63 955.777 779.166C954.241 780.701 951.44 780.129 949.116 777.805Z" fill="#FFB648"/>
<path id="Vector_165" d="M954.486 777.874C955.237 777.123 954.628 775.296 953.126 773.794C951.624 772.292 949.798 771.683 949.047 772.434C948.296 773.185 948.905 775.012 950.407 776.514C951.909 778.016 953.735 778.625 954.486 777.874Z" fill="#ED9900"/>
</g>
</g>
</g>
<g id="Clip path group_7">
<mask id="mask6_23_868" style="mask-type:luminance" maskUnits="userSpaceOnUse" x="875" y="716" width="130" height="130">
<g id="clip3_33_3032">
<path id="Vector_166" d="M1004.68 716.587H875.682V845.587H1004.68V716.587Z" fill="white"/>
</g>
</mask>
<g mask="url(#mask6_23_868)">
<g id="Group_39">
<g id="Mask group">
<mask id="mask7_23_868" style="mask-type:alpha" maskUnits="userSpaceOnUse" x="947" y="761" width="64" height="64">
<g id="Group_40">
<path id="Vector_167" d="M951.792 769.087L947.292 824.587L1010.29 818.587V761.587H951.792V769.087Z" fill="black"/>
</g>
</mask>
<g mask="url(#mask7_23_868)">
<g id="Group_41">
<path id="Vector_168" d="M990.633 773.124H990.559C989.96 770.359 987.502 768.287 984.558 768.287C981.614 768.287 979.157 770.359 978.558 773.124H968.596C968.596 769.077 965.316 765.796 961.269 765.796C958.57 765.796 956.214 767.258 954.942 769.43C954.24 769.114 952.612 770.587 951.792 770.587C947.292 773.587 948.792 782.587 948.792 782.587C948.792 788.587 881.472 776.518 877.47 787.173H1004.68C1004.68 779.414 998.392 773.124 990.633 773.124Z" fill="#00833E"/>
<path id="Vector_169" d="M988.357 774.429C988.357 772.331 986.656 770.63 984.558 770.63C982.461 770.63 980.76 772.331 980.76 774.429H988.357Z" fill="#006931"/>
<path id="Vector_170" d="M961.269 776.141C962.936 776.141 964.287 774.79 964.287 773.123C964.287 771.457 962.936 770.106 961.269 770.106C959.603 770.106 958.252 771.457 958.252 773.123C958.252 774.79 959.603 776.141 961.269 776.141Z" fill="#333E48"/>
<path id="Vector_171" d="M877.47 787.173C876.315 790.248 875.682 793.579 875.682 797.058H994.798C1000.26 797.058 1004.68 792.632 1004.68 787.173L877.47 787.173Z" fill="#E1CB81"/>
<path id="Vector_172" d="M929.079 794.582C929.079 796.029 930.252 797.202 931.699 797.202H957.209C954.637 790.353 948.029 785.478 940.281 785.478H932.683C930.693 785.478 929.079 787.093 929.079 789.082V794.582Z" fill="#006931"/>
<path id="Vector_173" d="M950.153 768.933C950.153 766.745 948.38 764.972 946.192 764.972C944.005 764.972 942.231 766.745 942.231 768.933H950.153Z" fill="#006931"/>
<path id="Vector_174" d="M968.96 787.173L966.135 792.066L963.31 787.173H968.96Z" fill="white"/>
<path id="Vector_175" d="M975.727 787.173L972.901 792.066L970.076 787.173H975.727Z" fill="white"/>
<path id="Vector_176" d="M982.493 787.173L979.667 792.066L976.842 787.173H982.493Z" fill="white"/>
<path id="Vector_177" d="M989.259 787.173L986.434 792.066L983.609 787.173H989.259Z" fill="white"/>
<path id="Vector_178" d="M996.025 787.173L993.2 792.066L990.375 787.173H996.025Z" fill="white"/>
<path id="Vector_179" d="M1002.79 787.173L999.966 792.066L997.141 787.173H1002.79Z" fill="white"/>
</g>
</g>
</g>
</g>
</g>
</g>
</g>
<g id="mpgt" clip-path="url(#clip6_23_868)">
<g id="Clip path group_8">
<mask id="mask8_23_868" style="mask-type:luminance" maskUnits="userSpaceOnUse" x="722" y="672" width="85" height="154">
<g id="clip0_33_2943">
<path id="Vector_180" d="M806.292 672.587H722.292V825.587H806.292V672.587Z" fill="white"/>
</g>
</mask>
<g mask="url(#mask8_23_868)">
<g id="Group_42">
<path id="Vector_181" d="M768.456 770.914C761.185 770.914 755.292 765.021 755.292 757.75C755.292 750.48 761.185 744.587 768.456 744.587H806.252C806.252 759.126 794.465 770.913 779.924 770.914H768.456Z" fill="#2D3740"/>
<path id="Vector_182" d="M758.004 768.618H736.161V798.489H758.004V768.618Z" fill="#DB8689"/>
<path id="Vector_183" d="M759.043 701.984C746.99 701.984 736.361 708.204 730.072 717.67H696.612C677.435 717.67 661.889 733.527 661.889 753.087C661.889 762.524 665.507 771.099 671.407 777.447V798.489H693.251V788.339C694.357 788.447 695.478 788.505 696.612 788.505H720.969V798.489H742.814V786.526C749.769 784.044 755.715 779.369 759.853 773.313C778.792 772.874 794.013 757.077 794.013 737.654C794.013 717.954 778.357 701.984 759.043 701.984Z" fill="#FF9C9F"/>
<path id="Vector_184" d="M788.489 749.02H771.901C766.344 749.02 761.838 744.424 761.838 738.756C761.838 733.086 766.344 728.491 771.901 728.491H788.489V749.02Z" fill="#DB8689"/>
<path id="Vector_185" d="M788.489 728.491C794.046 728.491 798.552 733.086 798.552 738.756C798.552 744.425 794.046 749.02 788.489 749.02H778.423C772.865 749.02 768.359 744.424 768.359 738.756C768.359 733.086 772.865 728.491 778.423 728.491H788.489Z" fill="#FFB6B6"/>
<path id="Vector_186" d="M776.655 735.898C776.655 734.487 777.776 733.343 779.159 733.343C780.542 733.343 781.663 734.487 781.663 735.898V741.614C781.663 743.024 780.542 744.168 779.159 744.168C777.776 744.168 776.655 743.024 776.655 741.614V735.898Z" fill="#DB8689"/>
<path id="Vector_187" d="M792.747 735.898C792.747 734.487 791.626 733.343 790.243 733.343C788.86 733.343 787.739 734.487 787.739 735.898V741.614C787.739 743.024 788.86 744.168 790.243 744.168C791.626 744.168 792.747 743.024 792.747 741.614V735.898Z" fill="#DB8689"/>
<path id="Vector_188" d="M752.035 806.235C752.693 806.101 753.187 805.519 753.187 804.821V802.802C753.187 802.006 752.541 801.36 751.745 801.36C750.947 801.36 750.301 802.006 750.301 802.802V803.378H747.735C746.938 803.378 746.292 804.024 746.292 804.821C746.292 805.618 746.938 806.264 747.735 806.264H751.745C751.844 806.264 751.941 806.254 752.035 806.235Z" fill="#B36F0F"/>
<path id="Vector_189" d="M752.035 803.349C752.693 803.214 753.187 802.633 753.187 801.935V799.916C753.187 799.119 752.541 798.473 751.745 798.473C750.947 798.473 750.301 799.119 750.301 799.916V800.492H747.735C746.938 800.492 746.292 801.138 746.292 801.935C746.292 802.732 746.938 803.378 747.735 803.378H751.745C751.844 803.378 751.941 803.368 752.035 803.349Z" fill="#B36F0F"/>
<path id="Vector_190" d="M752.035 800.463C752.693 800.328 753.187 799.746 753.187 799.048V797.03C753.187 796.233 752.541 795.587 751.745 795.587C750.947 795.587 750.301 796.233 750.301 797.03V797.606H747.735C746.938 797.606 746.292 798.252 746.292 799.048C746.292 799.846 746.938 800.492 747.735 800.492H751.745C751.844 800.492 751.941 800.481 752.035 800.463Z" fill="#B36F0F"/>
<path id="Vector_191" d="M734.035 806.235C734.693 806.101 735.187 805.519 735.187 804.821V802.802C735.187 802.006 734.541 801.36 733.744 801.36C732.947 801.36 732.301 802.006 732.301 802.802V803.378H729.735C728.938 803.378 728.292 804.024 728.292 804.821C728.292 805.618 728.938 806.264 729.735 806.264H733.744C733.843 806.264 733.941 806.254 734.035 806.235Z" fill="#FFB648"/>
<path id="Vector_192" d="M734.035 803.349C734.693 803.214 735.187 802.633 735.187 801.935V799.916C735.187 799.119 734.541 798.473 733.744 798.473C732.947 798.473 732.301 799.119 732.301 799.916V800.492H729.735C728.938 800.492 728.292 801.138 728.292 801.935C728.292 802.732 728.938 803.378 729.735 803.378H733.744C733.843 803.378 733.941 803.368 734.035 803.349Z" fill="#FFB648"/>
<path id="Vector_193" d="M734.035 800.463C734.693 800.328 735.187 799.746 735.187 799.048V797.03C735.187 796.233 734.541 795.587 733.744 795.587C732.947 795.587 732.301 796.233 732.301 797.03V797.606H729.735C728.938 797.606 728.292 798.252 728.292 799.048C728.292 799.846 728.938 800.492 729.735 800.492H733.744C733.843 800.492 733.941 800.481 734.035 800.463Z" fill="#FFB648"/>
</g>
</g>
</g>
<g id="Clip path group_9">
<mask id="mask9_23_868" style="mask-type:luminance" maskUnits="userSpaceOnUse" x="656" y="705" width="67" height="106">
<g id="clip1_33_2943">
<path id="Vector_194" d="M722.292 705.587H656.292V810.587H722.292V705.587Z" fill="white"/>
</g>
</mask>
<g mask="url(#mask9_23_868)">
<g id="Group_43">
<path id="Vector_195" d="M716.394 792.68H699.93C689.081 792.68 680.254 785.503 680.254 776.681V767.984C680.254 764.223 676.491 761.163 671.865 761.163C667.239 761.163 663.476 764.223 663.476 767.984C663.476 769.597 661.867 770.905 659.883 770.905C657.9 770.905 656.292 769.597 656.292 767.984C656.292 761.002 663.278 755.321 671.865 755.321C680.452 755.321 687.438 761.002 687.438 767.984V776.681C687.438 782.282 693.042 786.839 699.93 786.839H716.394C718.378 786.839 719.986 788.147 719.986 789.759C719.986 791.373 718.377 792.68 716.394 792.68Z" fill="#4D3D2D"/>
<path id="Vector_196" d="M700.884 767.333C700.884 756.414 711.77 747.562 725.199 747.562C738.628 747.562 749.514 756.414 749.514 767.333V778.965C749.514 789.884 738.628 798.737 725.199 798.737C711.77 798.737 700.884 789.884 700.884 778.965V767.333Z" fill="#65513C"/>
<path id="Vector_197" d="M742.234 717.438C756.611 717.438 768.267 726.915 768.267 738.606C768.267 750.297 756.611 759.775 742.234 759.775H727.732C713.354 759.775 701.698 750.297 701.698 738.606C701.698 726.915 713.354 717.438 727.732 717.438H742.234Z" fill="#65513C"/>
<path id="Vector_198" d="M707.864 730.658C702.466 730.658 698.089 734.217 698.089 738.606C698.089 742.996 702.466 746.555 707.864 746.555V730.658Z" fill="#65513C"/>
<path id="Vector_199" d="M707.864 733.729C704.551 733.729 701.866 735.912 701.866 738.606C701.866 741.3 704.551 743.484 707.864 743.484V733.729Z" fill="#FF9C9F"/>
<path id="Vector_200" d="M713.648 771.009C704.232 771.009 696.599 777.216 696.599 784.872C696.599 792.529 704.232 798.736 713.648 798.736H730.698V784.873C730.698 777.216 723.065 771.009 713.648 771.009Z" fill="#65513C"/>
<path id="Vector_201" d="M701.321 767.726C708.275 767.726 713.912 762.298 713.912 755.601C713.912 748.905 708.275 743.477 701.321 743.477H665.168C665.168 756.869 676.443 767.725 690.351 767.726H701.321Z" fill="#2D3740"/>
</g>
</g>
</g>
<g id="Clip path group_10">
<mask id="mask10_23_868" style="mask-type:luminance" maskUnits="userSpaceOnUse" x="650" y="618" width="175" height="88">
<g id="clip2_33_2943">
<path id="Vector_202" d="M824.292 618.587H650.292V705.587H824.292V618.587Z" fill="white"/>
</g>
</mask>
<g mask="url(#mask10_23_868)">
<g id="Group_44">
<path id="Vector_203" d="M757.324 618.587C756.121 618.587 755.147 619.562 755.147 620.764V628.529H759.5V620.764C759.5 619.562 758.526 618.587 757.324 618.587Z" fill="#65513C"/>
<path id="Vector_204" d="M764.17 618.587C762.969 618.587 761.994 619.562 761.994 620.764V628.529H766.347V620.764C766.348 619.562 765.373 618.587 764.17 618.587Z" fill="#65513C"/>
<path id="Vector_205" d="M772.571 628.111C775.684 631.256 780.004 633.204 784.778 633.204C788.356 633.204 791.257 636.105 791.256 639.682C791.256 643.26 788.356 646.16 784.778 646.16H770.696L774.575 707.323C762.24 703.077 755.472 702.823 743.773 707.323L749.699 633.095L749.708 633.094C749.988 628.59 753.719 625.021 758.293 625.021H765.785V625.03C765.845 625.029 765.903 625.021 765.963 625.021C768.617 625.021 770.992 626.223 772.571 628.111Z" fill="#FFB648"/>
<path id="Vector_206" d="M746.714 676.513C746.551 676.513 746.392 676.53 746.231 676.537L744.539 697.726C745.241 697.871 745.968 697.947 746.714 697.947C752.633 697.947 757.431 693.149 757.431 687.23C757.431 681.312 752.633 676.513 746.714 676.513Z" fill="#65513C"/>
<path id="Vector_207" d="M771.578 660.071C766.248 660.691 762.111 665.215 762.111 670.709C762.111 676.628 766.909 681.426 772.828 681.426C772.863 681.426 772.896 681.422 772.932 681.421L771.578 660.071Z" fill="#65513C"/>
<path id="Vector_208" d="M755.187 662.627C757.878 662.627 760.06 660.446 760.06 657.755C760.06 655.063 757.878 652.882 755.187 652.882C752.496 652.882 750.314 655.063 750.314 657.755C750.314 660.446 752.496 662.627 755.187 662.627Z" fill="#65513C"/>
<path id="Vector_209" d="M764.171 635.518C765.349 635.518 766.303 634.563 766.303 633.386C766.303 632.209 765.349 631.254 764.171 631.254C762.994 631.254 762.04 632.209 762.04 633.386C762.04 634.563 762.994 635.518 764.171 635.518Z" fill="#333E48"/>
<path id="Vector_210" d="M785.661 633.271C783.371 636.482 782.02 640.409 782.02 644.652C782.02 645.16 782.045 645.662 782.083 646.161H784.778C788.355 646.161 791.256 643.26 791.256 639.683C791.257 636.405 788.819 633.703 785.661 633.271Z" fill="#ED9900"/>
<path id="Vector_211" d="M748.116 632.262C745.792 629.939 745.22 627.137 746.756 625.601C748.292 624.066 751.094 624.638 753.417 626.962C755.741 629.285 756.313 632.087 754.777 633.623C753.241 635.158 750.44 634.586 748.116 632.262Z" fill="#FFB648"/>
<path id="Vector_212" d="M753.486 632.33C754.237 631.579 753.628 629.753 752.126 628.251C750.624 626.749 748.798 626.14 748.047 626.891C747.296 627.642 747.905 629.468 749.407 630.97C750.909 632.472 752.735 633.081 753.486 632.33Z" fill="#ED9900"/>
</g>
</g>
</g>
</g>
<g id="mp" clip-path="url(#clip7_23_868)">
<g id="Clip path group_11">
<mask id="mask11_23_868" style="mask-type:luminance" maskUnits="userSpaceOnUse" x="362" y="415" width="76" height="154">
<g id="clip0_33_2805">
<path id="Vector_213" d="M437.292 415.587H362.292V568.587H437.292V415.587Z" fill="white"/>
</g>
</mask>
<g mask="url(#mask11_23_868)">
<g id="Group_45">
<path id="Vector_214" d="M396.743 510.418H374.9V540.289H396.743V510.418Z" fill="#DB8689"/>
<path id="Vector_215" d="M374.9 540.29V546.713H390.651L392.934 544.384L395.217 546.713H396.743V540.29H374.9Z" fill="#283038"/>
<path id="Vector_216" d="M399.769 448.806C404.508 441.046 416.78 434.681 424.491 439.407L413.865 457.445L399.769 448.806Z" fill="#FF9C9F"/>
<path id="Vector_217" d="M425.854 461.568C428.804 454.543 429.144 444.209 424.49 439.408C418.149 437.47 409.363 442.629 404.667 448.582C404.664 448.588 404.594 448.697 404.562 448.749C403.846 449.964 404.232 451.542 405.423 452.271L422.306 462.619C423.497 463.349 425.043 462.956 425.759 461.74C425.79 461.688 425.852 461.573 425.854 461.568Z" fill="#FFB6B6"/>
<path id="Vector_218" d="M397.783 443.784C385.73 443.784 375.1 450.004 368.812 459.469H335.352C316.174 459.469 300.628 475.327 300.628 494.887C300.628 504.324 304.247 512.899 310.147 519.246V540.289H331.991V530.139C333.097 530.247 334.217 530.305 335.352 530.305H359.709V540.289H381.553V528.326C388.509 525.844 394.455 521.169 398.593 515.113C417.532 514.674 432.753 498.877 432.753 479.454C432.753 459.754 417.097 443.784 397.783 443.784Z" fill="#FF9C9F"/>
<path id="Vector_219" d="M427.229 490.82H410.641C405.084 490.82 400.578 486.225 400.578 480.556C400.578 474.887 405.084 470.292 410.641 470.292H427.229V490.82Z" fill="#DB8689"/>
<path id="Vector_220" d="M427.229 470.292C432.786 470.292 437.292 474.887 437.292 480.556C437.292 486.225 432.786 490.82 427.229 490.82H417.163C411.605 490.82 407.099 486.225 407.099 480.556C407.099 474.887 411.605 470.292 417.163 470.292H427.229Z" fill="#FFB6B6"/>
<path id="Vector_221" d="M415.394 477.698C415.394 476.287 416.516 475.144 417.899 475.144C419.282 475.144 420.403 476.287 420.403 477.698V483.414C420.403 484.825 419.282 485.968 417.899 485.968C416.516 485.968 415.394 484.825 415.394 483.414V477.698Z" fill="#DB8689"/>
<path id="Vector_222" d="M431.487 477.698C431.487 476.287 430.366 475.144 428.983 475.144C427.6 475.144 426.479 476.287 426.479 477.698V483.414C426.479 484.825 427.6 485.968 428.983 485.968C430.366 485.968 431.487 484.825 431.487 483.414V477.698Z" fill="#DB8689"/>
<path id="Vector_223" d="M402 466.603C403.543 466.603 404.794 465.328 404.794 463.754C404.794 462.18 403.543 460.905 402 460.905C400.458 460.905 399.207 462.18 399.207 463.754C399.207 465.328 400.458 466.603 402 466.603Z" fill="#333E48"/>
<path id="Vector_224" d="M423.619 466.603C425.161 466.603 426.412 465.328 426.412 463.754C426.412 462.181 425.161 460.905 423.619 460.905C422.076 460.905 420.826 462.181 420.826 463.754C420.826 465.328 422.076 466.603 423.619 466.603Z" fill="#333E48"/>
<path id="Vector_225" d="M359.709 540.29V546.713H375.461L377.744 544.384L380.027 546.713H381.553V540.29H359.709Z" fill="#333E48"/>
<path id="Vector_226" d="M370.482 464.318C366.263 456.252 366.995 442.229 374.863 437.78L384.866 456.186L370.482 464.318Z" fill="#FF9C9F"/>
<path id="Vector_227" d="M394.36 447.655C389.87 441.538 381.267 436.07 374.863 437.78C370.047 442.414 370.035 452.753 372.741 459.878C372.745 459.884 372.802 460.002 372.831 460.055C373.504 461.295 375.036 461.743 376.251 461.056L393.479 451.316C394.694 450.629 395.133 449.067 394.459 447.826C394.43 447.772 394.363 447.66 394.36 447.655Z" fill="#FFB6B6"/>
</g>
</g>
</g>
<g id="Clip path group_12">
<mask id="mask12_23_868" style="mask-type:luminance" maskUnits="userSpaceOnUse" x="293" y="445" width="70" height="115">
<g id="clip1_33_2805">
<path id="Vector_228" d="M362.292 445.587H293.292V559.587H362.292V445.587Z" fill="white"/>
</g>
</mask>
<g mask="url(#mask12_23_868)">
<g id="Group_46">
<path id="Vector_229" d="M356.126 540.145H338.913C327.571 540.145 318.343 532.353 318.343 522.775V513.332C318.343 509.249 314.409 505.926 309.572 505.926C304.737 505.926 300.802 509.248 300.802 513.332C300.802 515.084 299.12 516.503 297.047 516.503C294.973 516.503 293.292 515.084 293.292 513.332C293.292 505.751 300.595 499.583 309.573 499.583C318.55 499.583 325.854 505.751 325.854 513.332V522.775C325.854 528.856 331.713 533.803 338.914 533.803H356.126C358.2 533.803 359.881 535.223 359.881 536.974C359.881 538.726 358.199 540.145 356.126 540.145Z" fill="#4D3D2D"/>
<path id="Vector_230" d="M339.911 512.625C339.911 500.77 351.292 491.16 365.331 491.16C379.37 491.16 390.751 500.771 390.751 512.625V525.254C390.751 537.109 379.37 546.721 365.331 546.721C351.292 546.721 339.911 537.109 339.911 525.254V512.625Z" fill="#65513C"/>
<path id="Vector_231" d="M383.14 458.454C398.171 458.454 410.356 468.743 410.356 481.437C410.356 494.13 398.171 504.42 383.14 504.42H367.979C352.948 504.42 340.762 494.13 340.762 481.437C340.762 468.743 352.948 458.454 367.979 458.454H383.14Z" fill="#65513C"/>
<path id="Vector_232" d="M347.208 472.808C341.565 472.808 336.989 476.672 336.989 481.437C336.989 486.203 341.565 490.067 347.208 490.067V472.808Z" fill="#65513C"/>
<path id="Vector_233" d="M347.208 476.142C343.744 476.142 340.937 478.512 340.937 481.437C340.937 484.361 343.744 486.733 347.208 486.733V476.142Z" fill="#FF9C9F"/>
<path id="Vector_234" d="M353.255 516.616C343.411 516.616 335.431 523.355 335.431 531.668C335.431 539.982 343.411 546.72 353.255 546.72H371.08V531.668C371.08 523.355 363.1 516.616 353.255 516.616Z" fill="#65513C"/>
<path id="Vector_235" d="M348.308 474.039H339.926C337.198 474.039 334.987 472.172 334.987 469.869C334.987 467.566 337.198 465.699 339.926 465.699H348.308C351.036 465.699 353.247 467.566 353.247 469.869C353.247 472.172 351.036 474.039 348.308 474.039Z" fill="#FF9C9F"/>
<path id="Vector_236" d="M339.926 474.039C330.556 474.039 322.933 480.476 322.933 488.389C322.933 496.301 330.556 502.739 339.926 502.739H351.187C353.914 502.739 356.125 504.606 356.125 506.909C356.125 509.212 353.914 511.079 351.187 511.079H339.926C325.109 511.079 313.055 500.901 313.055 488.388C313.055 475.877 325.109 465.698 339.926 465.698V474.039Z" fill="#65513C"/>
</g>
</g>
</g>
</g>
</g>
</g>
</g>
<defs>
<clipPath id="clip0_23_868">
<rect width="135" height="135" fill="white" transform="translate(887.292 335.587)"/>
</clipPath>
<clipPath id="clip1_23_868">
<rect width="150" height="153" fill="white" transform="translate(449.292 101.587)"/>
</clipPath>
<clipPath id="clip2_23_868">
<rect width="174" height="174" fill="white" transform="translate(641.292 137.587)"/>
</clipPath>
<clipPath id="clip3_23_868">
<rect width="135" height="138" fill="white" transform="translate(137.292 110.587)"/>
</clipPath>
<clipPath id="clip4_23_868">
<rect width="225" height="225" fill="white" transform="matrix(-1 0 0 1 1253.29 449.587)"/>
</clipPath>
<clipPath id="clip5_23_868">
<rect width="174" height="258" fill="white" transform="translate(851.292 716.587)"/>
</clipPath>
<clipPath id="clip6_23_868">
<rect width="174" height="207" fill="white" transform="translate(650.292 618.587)"/>
</clipPath>
<clipPath id="clip7_23_868">
<rect width="144" height="153" fill="white" transform="translate(293.292 415.587)"/>
</clipPath>
</defs>
</svg>
