<svg width="1921" height="1080" viewBox="0 0 1921 1080" fill="none" xmlns="http://www.w3.org/2000/svg" xmlns:xlink="http://www.w3.org/1999/xlink">
<g id="banach-tarski">
<rect width="1920" height="1080" transform="translate(0.480011)" fill="white"/>
<g id="Banach-Tarski">
<g id="Banach">
<g id="Head">
<circle id="Ellipse 1" cx="1055.77" cy="566.205" r="90.0804" fill="white" stroke="black" stroke-width="3"/>
<ellipse id="Ellipse 6" cx="1093.12" cy="555.36" rx="6.02502" ry="8.43503" fill="black"/>
<ellipse id="Ellipse 7" cx="1126.86" cy="560.18" rx="6.02502" ry="8.43503" fill="black"/>
<path id="Line 5" d="M1056.97 595.125C1094.33 608.38 1083.09 628.082 1115.92 630.908" stroke="black" stroke-width="3"/>
</g>
<path id="Line 1" d="M1027.23 644.81C982.729 705.446 974.912 739.05 975.577 798.658L925.625 925.134L925.625 1041.49" stroke="black" stroke-width="3"/>
<path id="Line 2" d="M974.938 790.75C1021.66 843.089 1048.54 909.957 1049.74 941.997C1043.72 994.272 1049.74 1001.02 1049.74 1041.49" stroke="black" stroke-width="3"/>
<path id="Ellipse 2" d="M955.069 1028.41C963.472 1029.16 970.83 1031.8 975.934 1035.39C981.075 1039 983.679 1043.37 983.302 1047.58C982.925 1051.79 979.588 1055.62 973.886 1058.26C968.227 1060.88 960.516 1062.18 952.113 1061.43C943.71 1060.67 936.352 1058.03 931.248 1054.44C926.107 1050.83 923.503 1046.47 923.88 1042.26C924.257 1038.05 927.595 1034.22 933.296 1031.57C938.956 1028.95 946.666 1027.66 955.069 1028.41Z" stroke="black" stroke-width="3"/>
<path id="Ellipse 3" d="M1079.87 1025.63C1088.27 1026.46 1095.6 1029.18 1100.67 1032.82C1105.77 1036.48 1108.33 1040.87 1107.91 1045.07C1107.49 1049.28 1104.12 1053.08 1098.39 1055.67C1092.71 1058.23 1084.98 1059.45 1076.59 1058.61C1068.19 1057.78 1060.86 1055.06 1055.79 1051.42C1050.69 1047.76 1048.13 1043.37 1048.55 1039.17C1048.96 1034.96 1052.34 1031.16 1058.07 1028.57C1063.75 1026.01 1071.48 1024.79 1079.87 1025.63Z" stroke="black" stroke-width="3"/>
<path id="Ellipse 4" d="M949.001 798.253C952.214 793.486 956.165 789.961 959.888 788.081C963.661 786.175 966.868 786.093 968.978 787.515C971.087 788.937 972.214 791.94 971.863 796.153C971.517 800.309 969.732 805.294 966.519 810.061C963.305 814.828 959.354 818.352 955.631 820.233C951.858 822.138 948.651 822.22 946.542 820.798C944.432 819.376 943.305 816.373 943.656 812.16C944.003 808.004 945.788 803.02 949.001 798.253Z" stroke="black" stroke-width="3"/>
<path id="Ellipse 5" d="M1086.22 649.726C1091.38 647.185 1096.56 646.088 1100.72 646.305C1104.94 646.525 1107.77 648.046 1108.89 650.328C1110.02 652.61 1109.5 655.777 1107.11 659.258C1104.74 662.694 1100.71 666.134 1095.56 668.675C1090.4 671.217 1085.22 672.314 1081.06 672.097C1076.84 671.877 1074.01 670.356 1072.89 668.074C1071.76 665.792 1072.28 662.625 1074.67 659.144C1077.04 655.708 1081.06 652.268 1086.22 649.726Z" fill="white" stroke="black" stroke-width="3"/>
<path id="Line 3" d="M1007.57 673.033C956.124 697.628 911.165 705.915 899.115 723.621C907.55 738.798 939.387 769.099 962.541 788.117" stroke="black" stroke-width="3"/>
<path id="Line 4" d="M1011.33 671.072C1061.76 697.372 1163.61 714.732 1165.42 708.83C1167.23 702.928 1139.47 673.957 1106.93 656.91" stroke="black" stroke-width="3"/>
<path id="Vector 12" d="M1080.21 712.48L1091.61 684.934C1092.06 683.845 1091.47 682.604 1090.35 682.258L1023.29 661.625C1022.88 661.5 1022.43 661.513 1022.03 661.653C1004.91 667.59 1003.29 665.774 993.382 661.746C992.886 661.545 992.326 661.552 991.836 661.767L919.064 693.54C917.772 694.104 917.453 695.791 918.45 696.787L940.794 719.132C941.549 719.887 942.764 719.916 943.554 719.197L972.339 693.029C973.831 691.672 976.166 693.128 975.605 695.065L954.614 767.58C954.268 768.774 955.083 769.99 956.318 770.125L1020.45 777.139C1021.63 777.268 1022.66 776.341 1022.66 775.151V703.659C1022.66 702.376 1023.85 701.425 1025.1 701.708L1077.92 713.666C1078.87 713.881 1079.84 713.38 1080.21 712.48Z" fill="url(#pattern0_66_10)" stroke="black"/>
<path id="Pants" d="M1040.47 758.056H945.839C944.927 758.056 944.131 758.673 943.903 759.557L893.402 955.247C893.075 956.513 894.031 957.747 895.338 957.747H972.683C973.649 957.747 974.477 957.057 974.651 956.106L992.782 856.861C993.182 854.674 996.317 854.674 996.717 856.861L1014.85 956.106C1015.02 957.057 1015.85 957.747 1016.82 957.747H1095.18C1096.5 957.747 1097.46 956.484 1097.11 955.209L1042.4 759.518C1042.16 758.654 1041.37 758.056 1040.47 758.056Z" fill="#0E0C67"/>
<path id="Bretelle" d="M1019.44 765.572C1019.44 765.572 1003.34 711.891 1033.4 664.653L1025.88 662.505C999.044 706.523 1013 765.572 1013 765.572H1019.44Z" fill="#B30829" stroke="#930404"/>
<path id="Bretelle_2" d="M960.394 765.572C960.394 765.572 994.749 692.566 973.277 670.021L979.719 666.8C999.044 692.566 968.983 765.572 968.983 765.572H960.394Z" fill="#B30829" stroke="#930404"/>
</g>
<g id="Tarski">
<g id="Head_2">
<circle id="Ellipse 1_2" cx="783.1" cy="469.58" r="88.5804" fill="white" stroke="black" stroke-width="6"/>
<ellipse id="Ellipse 6_2" cx="820.456" cy="458.735" rx="6.02502" ry="8.43503" fill="black"/>
<ellipse id="Ellipse 7_2" cx="854.196" cy="463.555" rx="6.02502" ry="8.43503" fill="black"/>
<path id="Line 5_2" d="M784.305 498.5C815.049 517.569 832.227 519.716 854.773 508.98" stroke="black" stroke-width="6"/>
</g>
<path id="Line 1_2" d="M754.561 548.185C710.064 608.821 702.248 642.426 702.912 702.033L652.96 828.509L652.96 944.864" stroke="black" stroke-width="6"/>
<path id="Line 2_2" d="M702.273 694.126C748.996 746.465 775.87 813.332 777.075 845.372C771.05 897.647 777.075 904.392 777.075 944.864" stroke="black" stroke-width="6"/>
<path id="Ellipse 2_2" d="M682.27 933.277C690.459 934.01 697.554 936.582 702.406 939.992C707.334 943.455 709.452 947.368 709.143 950.819C708.834 954.269 706.054 957.744 700.59 960.276C695.209 962.77 687.77 964.041 679.582 963.308C671.393 962.575 664.299 960.003 659.446 956.593C654.519 953.13 652.4 949.217 652.709 945.766C653.018 942.315 655.798 938.841 661.262 936.309C666.643 933.815 674.082 932.544 682.27 933.277Z" stroke="black" stroke-width="6"/>
<path id="Ellipse 3_2" d="M807.057 930.494C815.238 931.309 822.307 933.951 827.125 937.409C832.018 940.92 834.098 944.854 833.755 948.302C833.412 951.749 830.597 955.196 825.108 957.674C819.703 960.114 812.252 961.311 804.071 960.497C795.89 959.682 788.821 957.04 784.003 953.582C779.11 950.071 777.03 946.137 777.373 942.689C777.716 939.242 780.531 935.795 786.02 933.317C791.425 930.877 798.876 929.68 807.057 930.494Z" stroke="black" stroke-width="6"/>
<path id="Line 3_2" d="M734.9 576.408C683.459 601.004 640.292 601.855 628.242 619.561C628.242 633.518 626.559 669.254 649.714 688.272" stroke="black" stroke-width="6"/>
<path id="Line 4_2" d="M733.844 575.75C784.271 602.049 830.476 632.445 826.859 644.254C823.243 656.064 815.05 676.463 786.062 699.008" stroke="black" stroke-width="6"/>
<path id="Shirt" d="M650.495 618.494L641.066 595.708C640.165 593.53 641.333 591.048 643.586 590.355L707.913 570.562C708.73 570.311 709.616 570.332 710.422 570.613C726.946 576.378 725.893 575.419 748.696 572.485C749.511 572.38 750.357 572.528 751.084 572.911L804.734 601.2C806.956 602.371 807.561 605.276 805.992 607.237L789.818 627.454C788.529 629.066 786.225 629.432 784.5 628.3L759.798 612.089C757.057 610.29 753.435 612.372 753.609 615.647L757.258 684.059C757.38 686.348 755.556 688.272 753.263 688.272H676.248C673.799 688.272 671.925 686.092 672.293 683.671L683.201 611.861C683.709 608.515 680.09 606.089 677.188 607.831L656.249 620.394C654.153 621.652 651.429 620.752 650.495 618.494Z" fill="url(#pattern1_66_10)" stroke="black" stroke-width="2"/>
<path id="Pants_2" d="M759.815 675.389H668.251C666.427 675.389 664.834 676.623 664.378 678.389L614.91 870.08C614.256 872.612 616.168 875.079 618.783 875.079H691.878C693.81 875.079 695.466 873.699 695.813 871.798L711.677 784.963C712.476 780.588 718.748 780.588 719.547 784.963L735.411 871.798C735.758 873.699 737.414 875.079 739.346 875.079H813.406C816.054 875.079 817.972 872.553 817.259 870.002L763.668 678.312C763.185 676.584 761.61 675.389 759.815 675.389Z" fill="#0E0C67"/>
<path id="Ellipse 4_2" d="M649.728 706.743C647.552 701.647 646.801 696.673 647.212 692.825C647.634 688.866 649.155 686.795 650.771 686.105C652.387 685.416 654.933 685.75 658.085 688.182C661.149 690.547 664.222 694.529 666.398 699.625C668.574 704.721 669.325 709.694 668.914 713.542C668.491 717.501 666.972 719.571 665.356 720.261C663.74 720.951 661.193 720.618 658.041 718.185C654.977 715.821 651.904 711.839 649.728 706.743Z" fill="white" stroke="black" stroke-width="6"/>
<path id="Ellipse 5_2" d="M764.89 701.573C769.86 699.123 774.786 698.103 778.65 698.304C782.627 698.511 784.777 699.917 785.554 701.493C786.33 703.069 786.135 705.63 783.878 708.909C781.683 712.096 777.874 715.381 772.903 717.831C767.933 720.281 763.008 721.301 759.144 721.1C755.168 720.893 753.018 719.488 752.241 717.912C751.464 716.336 751.659 713.774 753.916 710.495C756.111 707.307 759.92 704.023 764.89 701.573Z" fill="white" stroke="black" stroke-width="6"/>
<path id="Bretelle_3" d="M684.477 685.051C684.477 685.051 700.581 598.089 693.066 574.47L703.802 571.249C710.244 595.942 693.066 685.051 693.066 685.051H684.477Z" fill="#B30829" stroke="#930404" stroke-width="2"/>
<path id="Bretelle_4" d="M747.82 685.051C747.82 685.051 739.231 600.236 760.703 577.691L752.114 573.396C732.789 599.163 739.231 685.051 739.231 685.051H747.82Z" fill="#B30829" stroke="#930404" stroke-width="2"/>
</g>
</g>
</g>
<defs>
<pattern id="pattern0_66_10" patternUnits="userSpaceOnUse" viewBox="-518 -1290 144 10" width="81.785040484408981%" height="8.6244515624712115%" patternContentUnits="objectBoundingBox">
<g id="Pattern tshirt">
<rect id="Rectangle 1" x="-518" y="-1290" width="144" height="5" fill="#222222"/>
<rect id="Rectangle 2" x="-518" y="-1285" width="144" height="5" fill="#F0F0F0"/>
</g>
</pattern><pattern id="pattern1_66_10" patternUnits="userSpaceOnUse" viewBox="-518 -1290 144 10" width="84.890802260460276%" height="8.4676429470333012%" patternContentUnits="objectBoundingBox">
<g id="Pattern tshirt">
<rect id="Rectangle 1" x="-518" y="-1290" width="144" height="5" fill="#222222"/>
<rect id="Rectangle 2" x="-518" y="-1285" width="144" height="5" fill="#F0F0F0"/>
</g>
</pattern></defs>
</svg>
