<svg width="100" height="100" viewBox="0 0 100 100" fill="none" xmlns="http://www.w3.org/2000/svg">
<g clip-path="url(#clip0_151_471)">
<path d="M28.517 13.5989C33.9698 6.86535 43.1383 4.40866 51.2273 7.51375L78.9704 18.1633C87.0594 21.2684 92.229 29.229 91.7756 37.8816L90.2203 67.5577C89.7669 76.2104 83.7934 83.587 75.4241 85.8295L46.7199 93.5208C38.3506 95.7634 29.4891 92.3618 24.7701 85.0951L8.58512 60.1724C3.86609 52.9058 4.36286 43.4269 9.81562 36.6933L28.517 13.5989Z" fill="#B71540"/>
<path d="M33.585 46.8306C32.9661 51.5682 32.5974 56.335 32.4802 61.1114C38.9576 63.817 45.1594 67.1398 51 71.0339C56.8413 67.1397 63.0439 63.8169 69.522 61.1114C69.4048 56.335 69.036 51.5682 68.4172 46.8306M68.4172 46.8306C70.386 46.1691 72.3817 45.5571 74.3977 44.9991C67.055 39.8517 59.2169 35.4499 51 31.8591C42.783 35.4506 34.9449 39.8532 27.6022 45.0014C29.6121 45.5563 31.6064 46.1663 33.5827 46.8306C39.5871 48.8494 45.413 51.3645 51 54.3501C56.5862 51.3645 62.4136 48.8493 68.4172 46.8306ZM39.1875 57.7499C39.6351 57.7499 40.0643 57.5721 40.3807 57.2556C40.6972 56.9392 40.875 56.5099 40.875 56.0624C40.875 55.6148 40.6972 55.1856 40.3807 54.8691C40.0643 54.5527 39.6351 54.3749 39.1875 54.3749C38.7399 54.3749 38.3107 54.5527 37.9943 54.8691C37.6778 55.1856 37.5 55.6148 37.5 56.0624C37.5 56.5099 37.6778 56.9392 37.9943 57.2556C38.3107 57.5721 38.7399 57.7499 39.1875 57.7499ZM39.1875 57.7499V49.4811C43.0052 47.1081 46.9484 44.9435 51 42.9966M35.2342 68.9841C36.4897 67.7318 37.4852 66.2437 38.1637 64.6053C38.8421 62.9669 39.19 61.2107 39.1875 59.4374V56.0624" stroke="#E6EBE0" stroke-width="3" stroke-linecap="round" stroke-linejoin="round"/>
</g>
<defs>
<clipPath id="clip0_151_471">
<rect width="100" height="100" fill="white"/>
</clipPath>
</defs>
</svg>
