<svg width="101" height="101" viewBox="0 0 101 101" fill="none" xmlns="http://www.w3.org/2000/svg">
<g clip-path="url(#clip0_151_484)">
<path d="M20.391 21.2748C23.9152 13.3594 32.1355 8.61344 40.7525 9.51913L70.3066 12.6254C78.9236 13.5311 85.9775 19.8824 87.7789 28.3576L93.9574 57.425C95.7589 65.9002 91.8982 74.5715 84.3945 78.9038L58.6589 93.7622C51.1552 98.0945 41.7153 97.1023 35.2763 91.3046L13.1924 71.4201C6.75341 65.6224 4.77994 56.3379 8.30412 48.4225L20.391 21.2748Z" fill="#079992"/>
<path d="M51 40.875H54.375M51 47.625H54.375M37.5 54.375H54.375M37.5 61.125H54.375M61.125 40.875H68.7188C70.116 40.875 71.25 42.009 71.25 43.4062V64.5C71.25 65.8427 70.7166 67.1303 69.7672 68.0797C68.8178 69.0291 67.5302 69.5625 66.1875 69.5625M61.125 40.875V64.5C61.125 65.8427 61.6584 67.1303 62.6078 68.0797C63.5572 69.0291 64.8448 69.5625 66.1875 69.5625M61.125 40.875V34.9688C61.125 33.5715 59.991 32.4375 58.5938 32.4375H33.2812C31.884 32.4375 30.75 33.5715 30.75 34.9688V64.5C30.75 65.8427 31.2834 67.1303 32.2328 68.0797C33.1822 69.0291 34.4698 69.5625 35.8125 69.5625H66.1875M37.5 40.875H44.25V47.625H37.5V40.875Z" stroke="#E6EBE0" stroke-width="3" stroke-linecap="round" stroke-linejoin="round"/>
</g>
<defs>
<clipPath id="clip0_151_484">
<rect width="100" height="100" fill="white" transform="translate(0.69873 0.69873)"/>
</clipPath>
</defs>
</svg>
