<svg width="101" height="101" viewBox="0 0 101 101" fill="none" xmlns="http://www.w3.org/2000/svg">
<g clip-path="url(#clip0_151_494)">
<path d="M50.6765 8.21255C58.7655 5.10746 67.934 7.56415 73.3868 14.2978L92.0882 37.3921C97.5409 44.1257 98.0377 53.6046 93.3187 60.8712L77.1337 85.7939C72.4147 93.0606 63.5532 96.4622 55.1839 94.2196L26.4797 86.5283C18.1104 84.2858 12.1369 76.9092 11.6835 68.2565L10.1282 38.5804C9.67475 29.9278 14.8444 21.9672 22.9335 18.8621L50.6765 8.21255Z" fill="#B71540"/>
<path d="M61.9395 34.0958L65.7352 30.2978C66.5265 29.5065 67.5997 29.062 68.7188 29.062C69.8378 29.062 70.911 29.5065 71.7023 30.2978C72.4935 31.0891 72.9381 32.1623 72.9381 33.2813C72.9381 34.4003 72.4935 35.4735 71.7023 36.2648L47.8095 60.1576C46.62 61.3464 45.1531 62.2202 43.5413 62.7001L37.5 64.5001L39.3 58.4588C39.7799 56.847 40.6537 55.3801 41.8425 54.1906L61.9395 34.0958ZM61.9395 34.0958L67.875 40.0313M64.5 55.5001V66.1876C64.5 67.5302 63.9666 68.8179 63.0172 69.7673C62.0678 70.7167 60.7802 71.2501 59.4375 71.2501H35.8125C34.4698 71.2501 33.1822 70.7167 32.2328 69.7673C31.2834 68.8179 30.75 67.5302 30.75 66.1876V42.5626C30.75 41.2199 31.2834 39.9322 32.2328 38.9828C33.1822 38.0334 34.4698 37.5001 35.8125 37.5001H46.5" stroke="#E6EBE0" stroke-width="3" stroke-linecap="round" stroke-linejoin="round"/>
</g>
<defs>
<clipPath id="clip0_151_494">
<rect width="100" height="100" fill="white" transform="translate(0.69873 0.69873)"/>
</clipPath>
</defs>
</svg>
