<svg width="123" height="123" viewBox="0 0 123 123" fill="none" xmlns="http://www.w3.org/2000/svg">
<mask id="mask0_368_19" style="mask-type:alpha" maskUnits="userSpaceOnUse" x="15" y="16" width="88" height="89">
<path d="M39.1517 24.2335C44.6045 17.4999 53.773 15.0433 61.862 18.1483L89.6051 28.7979C97.6941 31.903 102.864 39.8636 102.41 48.5162L100.855 78.1923C100.402 86.845 94.4281 94.2216 86.0588 96.4641L57.3546 104.155C48.9853 106.398 40.1238 102.996 35.4048 95.7297L19.2198 70.807C14.5008 63.5404 14.9976 54.0615 20.4503 47.3279L39.1517 24.2335Z" fill="#079992"/>
</mask>
<g mask="url(#mask0_368_19)">
<path d="M39.1517 24.2335C44.6045 17.4999 53.773 15.0433 61.862 18.1483L89.6051 28.7979C97.6941 31.903 102.864 39.8636 102.41 48.5162L100.855 78.1923C100.402 86.845 94.4281 94.2216 86.0588 96.4641L57.3546 104.155C48.9853 106.398 40.1238 102.996 35.4048 95.7297L19.2198 70.807C14.5008 63.5404 14.9976 54.0615 20.4503 47.3279L39.1517 24.2335Z" fill="#079992"/>
<path d="M45.8157 74.8155C47.899 72.8363 49.9563 70.8832 51.9875 68.9561C54.0188 66.977 55.9198 64.8415 57.6907 62.5499C56.024 60.5707 54.3834 58.5655 52.7688 56.5342C51.2063 54.503 49.6438 52.4717 48.0813 50.4405C47.5084 49.7113 47.1959 48.9561 47.1438 48.1749C47.0917 47.3936 47.4042 46.6645 48.0813 45.9874C48.6542 45.4145 49.3834 45.102 50.2688 45.0499C51.2063 44.9978 51.9355 45.3103 52.4563 45.9874C53.9146 47.8624 55.373 49.7374 56.8313 51.6124C58.2896 53.4874 59.774 55.3363 61.2844 57.1592C62.3261 55.3363 63.3157 53.4874 64.2532 51.6124C65.1907 49.7374 66.1542 47.8624 67.1438 45.9874C67.6125 45.102 68.2375 44.6072 69.0188 44.503C69.8521 44.3988 70.5813 44.5551 71.2063 44.9717C71.8834 45.3363 72.3782 45.9092 72.6907 46.6905C73.0553 47.4717 73.0032 48.3051 72.5344 49.1905C71.3365 51.4301 70.1907 53.6436 69.0969 55.8311C68.0032 58.0186 66.7792 60.1801 65.425 62.3155C67.4042 64.8155 69.4094 67.3155 71.4407 69.8155C73.4719 72.3155 75.5032 74.8155 77.5344 77.3155C78.1073 77.9926 78.4198 78.7478 78.4719 79.5811C78.524 80.3624 78.2115 81.0915 77.5344 81.7686C76.9615 82.3415 76.2323 82.654 75.3469 82.7061C74.4615 82.7582 73.7323 82.4457 73.1594 81.7686C71.2323 79.3728 69.3053 77.003 67.3782 74.6592C65.4511 72.2634 63.524 69.8676 61.5969 67.4717C59.8782 69.6072 58.0553 71.6384 56.1282 73.5655C54.2011 75.4405 52.2219 77.3155 50.1907 79.1905C49.4615 79.8676 48.6803 80.154 47.8469 80.0499C47.0136 79.9457 46.3105 79.6332 45.7375 79.1124C45.2167 78.5395 44.9042 77.8624 44.8 77.0811C44.748 76.2478 45.0865 75.4926 45.8157 74.8155Z" fill="#E6EBE0"/>
</g>
</svg>
