<svg width="101" height="101" viewBox="0 0 101 101" fill="none" xmlns="http://www.w3.org/2000/svg">
<g clip-path="url(#clip0_151_458)">
<path d="M61.85 9.51889C70.4671 8.6132 78.6873 13.3592 82.2115 21.2746L94.2984 48.4223C97.8226 56.3377 95.8491 65.6222 89.4101 71.4199L67.3262 91.3043C60.8872 97.102 51.4473 98.0942 43.9436 93.7619L18.2081 78.9035C10.7044 74.5713 6.84367 65.9 8.64513 57.4248L14.8236 28.3573C16.6251 19.8821 23.6789 13.5308 32.296 12.6251L61.85 9.51889Z" fill="#E58E26"/>
<path d="M51 45.9374V61.1249M51 61.1249L44.25 54.3749M51 61.1249L57.75 54.3749M39.1875 67.8749C36.7787 67.8776 34.4479 67.0213 32.6137 65.46C30.7794 63.8987 29.5619 61.7345 29.1797 59.3563C28.7976 56.978 29.2759 54.5414 30.5286 52.484C31.7814 50.4267 33.7267 48.8833 36.015 48.1312C35.4271 45.1188 36.0347 41.9959 37.7092 39.4237C39.3837 36.8516 41.9936 35.0321 44.9862 34.3507C47.9788 33.6693 51.1192 34.1795 53.7422 35.7731C56.3652 37.3667 58.265 39.9187 59.0392 42.8887C60.2363 42.4994 61.5183 42.4526 62.7405 42.7535C63.9628 43.0544 65.0765 43.6911 65.956 44.5916C66.8355 45.4921 67.4456 46.6206 67.7175 47.8496C67.9894 49.0787 67.9123 50.3592 67.4947 51.5467C69.3367 52.2503 70.8743 53.5764 71.8408 55.2951C72.8072 57.0137 73.1416 59.0165 72.7859 60.9559C72.4302 62.8953 71.4068 64.649 69.8934 65.9129C68.3799 67.1767 66.4718 67.8708 64.5 67.8749H39.1875Z" stroke="#E6EBE0" stroke-width="3" stroke-linecap="round" stroke-linejoin="round"/>
</g>
<defs>
<clipPath id="clip0_151_458">
<rect width="100" height="100" fill="white" transform="translate(0.69873 0.69873)"/>
</clipPath>
</defs>
</svg>
