<svg width="48" height="17" viewBox="0 0 48 17" fill="none" xmlns="http://www.w3.org/2000/svg">
<path d="M28.9357 5.15893C29.7272 5.51135 30.2018 6.33337 30.1112 7.19508L29.7392 10.735C29.6486 11.5968 29.0135 12.3021 28.166 12.4823L24.6843 13.2223C23.8368 13.4025 22.9696 13.0164 22.5364 12.266L20.7567 9.18346C20.3234 8.43309 20.4227 7.4891 21.0024 6.8452L23.3842 4.2C23.964 3.5561 24.8924 3.35875 25.6839 3.71117L28.9357 5.15893Z" fill="#E58E26"/>
<path d="M47.1459 7.32443C47.6552 8.0254 47.6552 8.9746 47.1459 9.67557L45.0537 12.5552C44.5444 13.2562 43.6417 13.5495 42.8176 13.2818L39.4324 12.1818C38.6083 11.9141 38.0504 11.1462 38.0504 10.2797V6.72027C38.0504 5.85381 38.6083 5.0859 39.4324 4.81815L42.8176 3.71822C43.6417 3.45047 44.5444 3.74378 45.0537 4.44476L47.1459 7.32443Z" fill="#079992"/>
<path d="M9.66036 3.90389C10.6082 3.80427 11.5125 4.32632 11.9001 5.19702L13.2297 8.18326C13.6173 9.05396 13.4003 10.0753 12.692 10.713L10.2627 12.9003C9.55446 13.538 8.51607 13.6472 7.69066 13.1706L4.85975 11.5362C4.03434 11.0597 3.60967 10.1058 3.80783 9.17354L4.48746 5.97612C4.68562 5.04385 5.46154 4.34521 6.40942 4.24558L9.66036 3.90389Z" fill="#B71540"/>
</svg>
