<svg width="101" height="101" viewBox="0 0 101 101" fill="none" xmlns="http://www.w3.org/2000/svg">
<g clip-path="url(#clip0_151_466)">
<path d="M50.6765 8.21255C58.7656 5.10746 67.934 7.56415 73.3868 14.2978L92.0882 37.3921C97.541 44.1257 98.0377 53.6046 93.3187 60.8712L77.1338 85.7939C72.4147 93.0606 63.5533 96.4622 55.184 94.2196L26.4797 86.5283C18.1104 84.2858 12.137 76.9092 11.6835 68.2565L10.1282 38.5804C9.67478 29.9278 14.8445 21.9672 22.9335 18.8621L50.6765 8.21255Z" fill="#079992"/>
<path d="M53.6775 43.5481C55.1396 44.2461 56.4128 45.2849 57.3902 46.5771C58.3676 47.8693 59.0207 49.3772 59.2945 50.9741C59.5683 52.571 59.4548 54.2103 58.9637 55.7543C58.4726 57.2982 57.6181 58.7018 56.472 59.8471L46.347 69.9721C44.4482 71.8709 41.8728 72.9376 39.1875 72.9376C36.5022 72.9376 33.9268 71.8709 32.028 69.9721C30.1292 68.0732 29.0624 65.4979 29.0624 62.8126C29.0624 60.1272 30.1292 57.5519 32.028 55.6531L35.9813 51.6998M66.0187 50.3003L69.972 46.3471C71.8708 44.4482 72.9376 41.8729 72.9376 39.1876C72.9376 36.5022 71.8708 33.9269 69.972 32.0281C68.0732 30.1292 65.4978 29.0625 62.8125 29.0625C60.1272 29.0625 57.5518 30.1292 55.653 32.0281L45.528 42.1531C44.3819 43.2983 43.5274 44.7019 43.0363 46.2459C42.5452 47.7898 42.4317 49.4291 42.7055 51.026C42.9793 52.6229 43.6324 54.1308 44.6098 55.423C45.5872 56.7152 46.8604 57.754 48.3225 58.4521" stroke="#E6EBE0" stroke-width="3" stroke-linecap="round" stroke-linejoin="round"/>
</g>
<defs>
<clipPath id="clip0_151_466">
<rect width="100" height="100" fill="white" transform="translate(0.69873 0.69873)"/>
</clipPath>
</defs>
</svg>
