<svg width="158" height="93" viewBox="0 0 158 93" fill="none" xmlns="http://www.w3.org/2000/svg">
<path d="M59.0789 28.25L52.5989 32V38L49.9889 39.5V17.3L59.0789 12.05C59.7589 11.65 60.3589 11.6 60.8789 11.9C61.4189 12.2 61.6889 12.75 61.6889 13.55V20.75C61.6889 21.27 61.5589 21.83 61.2989 22.43C61.0589 23.03 60.7389 23.59 60.3389 24.11C59.9589 24.61 59.5389 24.99 59.0789 25.25C59.7589 24.85 60.3589 24.8 60.8789 25.1C61.4189 25.4 61.6889 25.95 61.6889 26.75V32.75L59.0789 34.25V28.25ZM59.0789 25.25V15.05L52.5989 18.8V29L59.0789 25.25ZM59.0789 28.25V34.25L54.3989 31.55V25.55L59.0789 28.25ZM60.9089 25.1C60.3689 24.8 59.7589 24.85 59.0789 25.25L54.3989 22.55C55.0789 22.15 55.6789 22.1 56.1989 22.4L60.9089 25.1ZM59.0789 15.05V25.25L54.3989 22.55V12.35L59.0789 15.05ZM59.0789 25.25L52.5989 29L47.8889 26.3L54.3989 22.55L59.0789 25.25ZM60.9089 11.9C60.3689 11.6 59.7589 11.65 59.0789 12.05L49.9889 17.3L45.3089 14.6L54.3989 9.35C55.0789 8.95 55.6789 8.9 56.1989 9.2L60.9089 11.9ZM49.9889 17.3V39.5L45.3089 36.8V14.6L49.9889 17.3ZM69.5032 21.8L74.6932 18.8C75.3732 18.4 75.9732 18.35 76.4932 18.65C77.0132 18.95 77.2732 19.5 77.2732 20.3V24.8C77.2732 25.32 77.1532 25.88 76.9132 26.48C76.6732 27.08 76.3532 27.64 75.9532 28.16C75.5732 28.66 75.1532 29.04 74.6932 29.3L72.0832 30.8C71.4032 31.2 70.8032 31.25 70.2832 30.95C69.7632 30.65 69.5032 30.1 69.5032 29.3V36.2L77.2732 31.7V34.7L69.5032 39.2C68.8032 39.6 68.1932 39.65 67.6732 39.35C67.1532 39.05 66.8932 38.5 66.8932 37.7V26.3C66.8932 25.76 67.0132 25.2 67.2532 24.62C67.4932 24.02 67.8132 23.47 68.2132 22.97C68.6132 22.45 69.0432 22.06 69.5032 21.8ZM74.6932 21.8L69.5032 24.8V29.3L74.6932 26.3V21.8ZM68.0332 16.73L74.2432 9.17L75.6232 10.97L69.4132 18.53L68.0332 16.73ZM77.2732 31.7L69.5032 36.2L64.7932 33.5L72.5932 29L77.2732 31.7ZM74.6932 21.8V26.3L70.0132 23.6V19.1L74.6932 21.8ZM69.5032 29.3C69.5032 30.1 69.7632 30.65 70.2832 30.95L65.5732 28.25C65.0532 27.95 64.7932 27.4 64.7932 26.6L69.5032 29.3ZM74.6932 26.3L69.5032 29.3L64.7932 26.6L70.0132 23.6L74.6932 26.3ZM76.4932 18.65C75.9732 18.35 75.3732 18.4 74.6932 18.8L69.5032 21.8C69.0432 22.06 68.6132 22.45 68.2132 22.97C67.8132 23.47 67.4932 24.02 67.2532 24.62C67.0132 25.2 66.8932 25.76 66.8932 26.3V37.7C66.8932 38.5 67.1532 39.05 67.6732 39.35L62.9932 36.65C62.4732 36.35 62.2132 35.8 62.2132 35V23.6C62.2132 23.06 62.3332 22.5 62.5732 21.92C62.8132 21.32 63.1232 20.77 63.5032 20.27C63.9032 19.75 64.3332 19.36 64.7932 19.1L70.0132 16.1C70.6932 15.7 71.2932 15.65 71.8132 15.95L76.4932 18.65ZM74.2432 9.17L68.0332 16.73L63.3532 14.03L69.5632 6.47L74.2432 9.17ZM68.0332 16.73L69.4132 18.53L64.7332 15.83L63.3532 14.03L68.0332 16.73ZM82.4791 23.3L85.0891 21.8V24.8C85.0891 24.26 85.2091 23.7 85.4491 23.12C85.6891 22.52 85.9991 21.97 86.3791 21.47C86.7791 20.95 87.2091 20.56 87.6691 20.3L88.4491 19.85C89.1491 19.45 89.7591 19.4 90.2791 19.7C90.7991 20 91.0591 20.55 91.0591 21.35C91.0591 20.81 91.1791 20.25 91.4191 19.67C91.6591 19.07 91.9691 18.52 92.3491 18.02C92.7491 17.5 93.1791 17.11 93.6391 16.85L94.4191 16.4C95.1191 16 95.7291 15.95 96.2491 16.25C96.7691 16.55 97.0291 17.1 97.0291 17.9V31.1L94.4191 32.6V19.4L91.0591 21.35V34.55L88.4491 36.05V22.85L85.0891 24.8V38L82.4791 39.5V23.3ZM94.4191 19.4V32.6L89.7391 29.9V16.7L94.4191 19.4ZM88.4491 22.85V36.05L83.7691 33.35V20.15L88.4491 22.85ZM96.2491 16.25C95.7291 15.95 95.1191 16 94.4191 16.4L93.6391 16.85C93.1791 17.11 92.7491 17.5 92.3491 18.02C91.9691 18.52 91.6591 19.07 91.4191 19.67C91.1791 20.25 91.0591 20.81 91.0591 21.35L86.3491 18.65C86.3491 18.11 86.4691 17.55 86.7091 16.97C86.9691 16.37 87.2891 15.82 87.6691 15.32C88.0691 14.8 88.4991 14.41 88.9591 14.15L89.7391 13.7C90.4191 13.3 91.0291 13.25 91.5691 13.55L96.2491 16.25ZM82.4791 23.3V39.5L77.7991 36.8V20.6L82.4791 23.3ZM90.2791 19.7C89.7591 19.4 89.1491 19.45 88.4491 19.85L87.6691 20.3C87.2091 20.56 86.7791 20.95 86.3791 21.47C85.9991 21.97 85.6891 22.52 85.4491 23.12C85.2091 23.7 85.0891 24.26 85.0891 24.8L80.3791 22.1C80.3791 21.56 80.4991 21 80.7391 20.42C80.9791 19.82 81.2991 19.27 81.6991 18.77C82.0991 18.25 82.5291 17.86 82.9891 17.6L83.7691 17.15C84.4491 16.75 85.0491 16.7 85.5691 17L90.2791 19.7ZM85.0891 21.8L82.4791 23.3L77.7991 20.6L80.3791 19.1L85.0891 21.8ZM106.125 34.25V25.25L102.225 27.5V24.5L112.605 18.5V21.5L108.705 23.75V32.75L112.605 30.5V33.5L102.225 39.5V36.5L106.125 34.25ZM107.415 18.8C106.895 19.1 106.455 19.15 106.095 18.95C105.755 18.75 105.585 18.35 105.585 17.75C105.585 17.15 105.755 16.55 106.095 15.95C106.455 15.35 106.895 14.9 107.415 14.6C107.935 14.3 108.365 14.25 108.705 14.45C109.065 14.65 109.245 15.05 109.245 15.65C109.245 16.25 109.065 16.85 108.705 17.45C108.365 18.05 107.935 18.5 107.415 18.8ZM106.125 34.25L102.225 36.5L97.5452 33.8L101.445 31.55L106.125 34.25ZM102.225 36.5V39.5L97.5452 36.8V33.8L102.225 36.5ZM112.605 30.5L108.705 32.75L104.025 30.05L107.925 27.8L112.605 30.5ZM106.125 25.25V34.25L101.445 31.55V22.55L106.125 25.25ZM112.605 18.5L102.225 24.5L97.5452 21.8L107.925 15.8L112.605 18.5ZM102.225 24.5V27.5L97.5452 24.8V21.8L102.225 24.5ZM108.735 14.45C108.375 14.25 107.935 14.3 107.415 14.6C106.895 14.9 106.455 15.35 106.095 15.95C105.755 16.55 105.585 17.15 105.585 17.75C105.585 18.35 105.765 18.75 106.125 18.95L101.415 16.25C101.075 16.05 100.905 15.65 100.905 15.05C100.905 14.45 101.075 13.85 101.415 13.25C101.775 12.65 102.215 12.2 102.735 11.9C103.255 11.6 103.685 11.55 104.025 11.75L108.735 14.45ZM12.4863 52.48L29.0943 42.88C30.1823 42.24 31.1423 42.16 31.9743 42.64C32.8383 43.12 33.2703 44 33.2703 45.28V76L29.0943 78.4V47.68L22.8543 51.28V82L18.6783 84.4V53.68L12.4863 57.28V88L8.31031 90.4V59.68C8.31031 58.816 8.50231 57.92 8.88631 56.992C9.27031 56.032 9.78231 55.152 10.4223 54.352C11.0623 53.52 11.7503 52.896 12.4863 52.48ZM29.0943 47.68V78.4L21.6063 74.08V43.36L29.0943 47.68ZM18.6783 53.68V84.4L11.1903 80.08V49.36L18.6783 53.68ZM31.9743 42.64C31.1423 42.16 30.1823 42.24 29.0943 42.88L12.4863 52.48C11.7503 52.896 11.0623 53.52 10.4223 54.352C9.78231 55.152 9.27031 56.032 8.88631 56.992C8.50231 57.92 8.31031 58.816 8.31031 59.68V90.4L0.822312 86.08V55.36C0.822312 54.496 1.01431 53.6 1.39831 52.672C1.78231 51.712 2.27831 50.832 2.88631 50.032C3.52631 49.2 4.21431 48.576 4.95031 48.16L21.6063 38.56C22.6943 37.92 23.6543 37.84 24.4863 38.32L31.9743 42.64ZM45.7676 62.08L54.0716 57.28C55.1596 56.64 56.1196 56.56 56.9516 57.04C57.7836 57.52 58.1996 58.4 58.1996 59.68V77.92C58.1996 78.752 58.0076 79.648 57.6236 80.608C57.2396 81.568 56.7276 82.464 56.0876 83.296C55.4796 84.096 54.8076 84.704 54.0716 85.12L45.7676 89.92C44.6476 90.56 43.6716 90.64 42.8396 90.16C42.0076 89.68 41.5916 88.8 41.5916 87.52V69.28C41.5916 68.416 41.7836 67.52 42.1676 66.592C42.5516 65.632 43.0636 64.752 43.7036 63.952C44.3436 63.12 45.0316 62.496 45.7676 62.08ZM45.7676 85.12L54.0716 80.32V62.08L45.7676 66.88V85.12ZM54.0716 62.08V80.32L46.5836 76V57.76L54.0716 62.08ZM54.0716 80.32L45.7676 85.12L38.2316 80.8L46.5836 76L54.0716 80.32ZM56.9516 57.04C56.1196 56.56 55.1596 56.64 54.0716 57.28L45.7676 62.08C45.0316 62.496 44.3436 63.12 43.7036 63.952C43.0636 64.752 42.5516 65.632 42.1676 66.592C41.7836 67.52 41.5916 68.416 41.5916 69.28V87.52C41.5916 88.8 42.0076 89.68 42.8396 90.16L35.3516 85.84C34.5196 85.36 34.1036 84.48 34.1036 83.2V64.96C34.1036 64.096 34.2956 63.2 34.6796 62.272C35.0636 61.312 35.5596 60.432 36.1676 59.632C36.8076 58.8 37.4956 58.176 38.2316 57.76L46.5836 52.96C47.6716 52.32 48.6316 52.24 49.4636 52.72L56.9516 57.04ZM66.5291 66.4L70.7051 64V68.8L74.8331 66.4C74.8331 65.536 75.0251 64.64 75.4091 63.712C75.7931 62.752 76.3051 61.872 76.9451 61.072C77.5851 60.24 78.2731 59.616 79.0091 59.2L83.1371 56.8V61.6L79.0091 64C79.0091 64.832 78.8171 65.728 78.4331 66.688C78.0491 67.648 77.5371 68.544 76.8971 69.376C76.2571 70.176 75.5691 70.784 74.8331 71.2L70.7051 73.6V88L66.5291 90.4V66.4ZM66.5291 66.4V90.4L59.0411 86.08V62.08L66.5291 66.4ZM83.1371 56.8L79.0091 59.2C78.2731 59.616 77.5851 60.24 76.9451 61.072C76.3051 61.872 75.7931 62.752 75.4091 63.712C75.0251 64.64 74.8331 65.536 74.8331 66.4L67.3451 62.08C67.3451 61.216 67.5371 60.32 67.9211 59.392C68.3051 58.432 68.8171 57.552 69.4571 56.752C70.0971 55.92 70.7851 55.296 71.5211 54.88L75.6491 52.48L83.1371 56.8ZM74.8331 66.4L70.7051 68.8L63.1691 64.48L67.3451 62.08L74.8331 66.4ZM70.7051 64L66.5291 66.4L59.0411 62.08L63.1691 59.68L70.7051 64ZM97.6612 89.92C96.5732 90.56 95.6132 90.64 94.7812 90.16C93.9492 89.68 93.5332 88.8 93.5332 87.52L101.837 82.72V59.2L105.965 56.8V75.52C105.965 76.352 105.773 77.248 105.389 78.208C105.005 79.168 104.493 80.064 103.853 80.896C103.245 81.696 102.573 82.304 101.837 82.72C101.837 83.552 101.645 84.448 101.261 85.408C100.877 86.368 100.365 87.248 99.7252 88.048C99.0852 88.88 98.3972 89.504 97.6612 89.92ZM89.3572 66.4L93.5332 64V87.52C92.4132 88.16 91.4372 88.24 90.6052 87.76C89.7732 87.28 89.3572 86.4 89.3572 85.12V66.4ZM105.965 56.8L101.837 59.2L94.3492 54.88L98.4772 52.48L105.965 56.8ZM101.837 59.2V82.72L94.3492 78.4V54.88L101.837 59.2ZM101.837 82.72L93.5332 87.52L85.9972 83.2L94.3492 78.4L101.837 82.72ZM93.5332 87.52C93.5332 88.8 93.9492 89.68 94.7812 90.16L87.2452 85.84C86.4132 85.36 85.9972 84.48 85.9972 83.2L93.5332 87.52ZM93.5332 64L89.3572 66.4L81.8692 62.08L85.9972 59.68L93.5332 64ZM89.3572 66.4V85.12C89.3572 86.4 89.7732 87.28 90.6052 87.76L83.1172 83.44C82.2852 82.96 81.8692 82.08 81.8692 80.8V62.08L89.3572 66.4ZM114.295 64.48L126.775 57.28C127.863 56.64 128.823 56.56 129.655 57.04C130.487 57.52 130.903 58.4 130.903 59.68V82.72L126.775 85.12V80.32C126.775 81.152 126.583 82.048 126.199 83.008C125.815 83.968 125.303 84.864 124.663 85.696C124.023 86.496 123.335 87.104 122.599 87.52L118.471 89.92C117.351 90.56 116.375 90.64 115.543 90.16C114.711 89.68 114.295 88.8 114.295 87.52V80.8C114.295 79.936 114.487 79.04 114.871 78.112C115.255 77.152 115.767 76.272 116.407 75.472C117.047 74.64 117.735 74.016 118.471 73.6L126.775 68.8V62.08L114.295 69.28V64.48ZM118.471 85.12L126.775 80.32V73.6L118.471 78.4V85.12ZM126.775 62.08V68.8L119.287 64.48V57.76L126.775 62.08ZM126.775 80.32V85.12L119.287 80.8V76L126.775 80.32ZM126.775 73.6V80.32L119.287 76V69.28L126.775 73.6ZM126.775 80.32L118.471 85.12L110.935 80.8L119.287 76L126.775 80.32ZM126.775 68.8L118.471 73.6C117.735 74.016 117.047 74.64 116.407 75.472C115.767 76.272 115.255 77.152 114.871 78.112C114.487 79.04 114.295 79.936 114.295 80.8V87.52C114.295 88.8 114.711 89.68 115.543 90.16L108.055 85.84C107.223 85.36 106.807 84.48 106.807 83.2V76.48C106.807 75.616 106.999 74.72 107.383 73.792C107.767 72.832 108.263 71.952 108.871 71.152C109.511 70.32 110.199 69.696 110.935 69.28L119.287 64.48L126.775 68.8ZM129.655 57.04C128.823 56.56 127.863 56.64 126.775 57.28L114.295 64.48L106.807 60.16L119.287 52.96C120.375 52.32 121.335 52.24 122.167 52.72L129.655 57.04ZM114.295 64.48V69.28L106.807 64.96V60.16L114.295 64.48ZM139.232 64.48L143.408 62.08V66.88C143.408 66.016 143.6 65.12 143.984 64.192C144.368 63.232 144.864 62.352 145.472 61.552C146.112 60.72 146.8 60.096 147.536 59.68L151.712 57.28C152.8 56.64 153.76 56.56 154.592 57.04C155.424 57.52 155.84 58.4 155.84 59.68V80.8L151.712 83.2V62.08L143.408 66.88V88L139.232 90.4V64.48ZM151.712 62.08V83.2L144.224 78.88V57.76L151.712 62.08ZM139.232 64.48V90.4L131.744 86.08V60.16L139.232 64.48ZM154.592 57.04C153.76 56.56 152.8 56.64 151.712 57.28L147.536 59.68C146.8 60.096 146.112 60.72 145.472 61.552C144.864 62.352 144.368 63.232 143.984 64.192C143.6 65.12 143.408 66.016 143.408 66.88L135.872 62.56C135.872 61.696 136.064 60.8 136.448 59.872C136.832 58.912 137.344 58.032 137.984 57.232C138.624 56.4 139.312 55.776 140.048 55.36L144.224 52.96C145.312 52.32 146.272 52.24 147.104 52.72L154.592 57.04ZM143.408 62.08L139.232 64.48L131.744 60.16L135.872 57.76L143.408 62.08Z" fill="#079992"/>
<path d="M59.0789 28.25L52.5989 32V38L49.9889 39.5V17.3L59.0789 12.05C59.7589 11.65 60.3589 11.6 60.8789 11.9C61.4189 12.2 61.6889 12.75 61.6889 13.55V20.75C61.6889 21.27 61.5589 21.83 61.2989 22.43C61.0589 23.03 60.7389 23.59 60.3389 24.11C59.9589 24.61 59.5389 24.99 59.0789 25.25C59.7589 24.85 60.3589 24.8 60.8789 25.1C61.4189 25.4 61.6889 25.95 61.6889 26.75V32.75L59.0789 34.25V28.25ZM59.0789 25.25V15.05L52.5989 18.8V29L59.0789 25.25ZM59.0789 28.25V34.25L56.4689 32.75V26.75L59.0789 28.25ZM60.9089 25.1C60.3689 24.8 59.7589 24.85 59.0789 25.25L56.4689 23.75C57.1689 23.35 57.7789 23.3 58.2989 23.6L60.9089 25.1ZM59.0789 15.05V25.25L56.4689 23.75V13.55L59.0789 15.05ZM59.0789 25.25L52.5989 29L49.9889 27.5L56.4689 23.75L59.0789 25.25ZM60.9089 11.9C60.3689 11.6 59.7589 11.65 59.0789 12.05L49.9889 17.3L47.3789 15.8L56.4689 10.55C57.1689 10.15 57.7789 10.1 58.2989 10.4L60.9089 11.9ZM49.9889 17.3V39.5L47.3789 38V15.8L49.9889 17.3ZM69.5032 21.8L74.6932 18.8C75.3732 18.4 75.9732 18.35 76.4932 18.65C77.0132 18.95 77.2732 19.5 77.2732 20.3V24.8C77.2732 25.32 77.1532 25.88 76.9132 26.48C76.6732 27.08 76.3532 27.64 75.9532 28.16C75.5732 28.66 75.1532 29.04 74.6932 29.3L72.0832 30.8C71.4032 31.2 70.8032 31.25 70.2832 30.95C69.7632 30.65 69.5032 30.1 69.5032 29.3V36.2L77.2732 31.7V34.7L69.5032 39.2C68.8032 39.6 68.1932 39.65 67.6732 39.35C67.1532 39.05 66.8932 38.5 66.8932 37.7V26.3C66.8932 25.76 67.0132 25.2 67.2532 24.62C67.4932 24.02 67.8132 23.47 68.2132 22.97C68.6132 22.45 69.0432 22.06 69.5032 21.8ZM74.6932 21.8L69.5032 24.8V29.3L74.6932 26.3V21.8ZM68.0332 16.73L74.2432 9.17L75.6232 10.97L69.4132 18.53L68.0332 16.73ZM77.2732 31.7L69.5032 36.2L66.8932 34.7L74.6932 30.2L77.2732 31.7ZM74.6932 21.8V26.3L72.0832 24.8V20.3L74.6932 21.8ZM69.5032 29.3C69.5032 30.1 69.7632 30.65 70.2832 30.95L67.6732 29.45C67.1532 29.15 66.8932 28.6 66.8932 27.8L69.5032 29.3ZM74.6932 26.3L69.5032 29.3L66.8932 27.8L72.0832 24.8L74.6932 26.3ZM76.4932 18.65C75.9732 18.35 75.3732 18.4 74.6932 18.8L69.5032 21.8C69.0432 22.06 68.6132 22.45 68.2132 22.97C67.8132 23.47 67.4932 24.02 67.2532 24.62C67.0132 25.2 66.8932 25.76 66.8932 26.3V37.7C66.8932 38.5 67.1532 39.05 67.6732 39.35L65.0632 37.85C64.5432 37.55 64.2832 37 64.2832 36.2V24.8C64.2832 24.26 64.4032 23.7 64.6432 23.12C64.8832 22.52 65.2032 21.97 65.6032 21.47C66.0032 20.95 66.4332 20.56 66.8932 20.3L72.0832 17.3C72.7832 16.9 73.3932 16.85 73.9132 17.15L76.4932 18.65ZM74.2432 9.17L68.0332 16.73L65.4232 15.23L71.6332 7.67L74.2432 9.17ZM68.0332 16.73L69.4132 18.53L66.8032 17.03L65.4232 15.23L68.0332 16.73ZM82.4791 23.3L85.0891 21.8V24.8C85.0891 24.26 85.2091 23.7 85.4491 23.12C85.6891 22.52 85.9991 21.97 86.3791 21.47C86.7791 20.95 87.2091 20.56 87.6691 20.3L88.4491 19.85C89.1491 19.45 89.7591 19.4 90.2791 19.7C90.7991 20 91.0591 20.55 91.0591 21.35C91.0591 20.81 91.1791 20.25 91.4191 19.67C91.6591 19.07 91.9691 18.52 92.3491 18.02C92.7491 17.5 93.1791 17.11 93.6391 16.85L94.4191 16.4C95.1191 16 95.7291 15.95 96.2491 16.25C96.7691 16.55 97.0291 17.1 97.0291 17.9V31.1L94.4191 32.6V19.4L91.0591 21.35V34.55L88.4491 36.05V22.85L85.0891 24.8V38L82.4791 39.5V23.3ZM94.4191 19.4V32.6L91.8391 31.1V17.9L94.4191 19.4ZM88.4491 22.85V36.05L85.8391 34.55V21.35L88.4491 22.85ZM96.2491 16.25C95.7291 15.95 95.1191 16 94.4191 16.4L93.6391 16.85C93.1791 17.11 92.7491 17.5 92.3491 18.02C91.9691 18.52 91.6591 19.07 91.4191 19.67C91.1791 20.25 91.0591 20.81 91.0591 21.35L88.4491 19.85C88.4491 19.31 88.5691 18.75 88.8091 18.17C89.0491 17.57 89.3691 17.02 89.7691 16.52C90.1691 16 90.5991 15.61 91.0591 15.35L91.8391 14.9C92.5191 14.5 93.1191 14.45 93.6391 14.75L96.2491 16.25ZM82.4791 23.3V39.5L79.8691 38V21.8L82.4791 23.3ZM90.2791 19.7C89.7591 19.4 89.1491 19.45 88.4491 19.85L87.6691 20.3C87.2091 20.56 86.7791 20.95 86.3791 21.47C85.9991 21.97 85.6891 22.52 85.4491 23.12C85.2091 23.7 85.0891 24.26 85.0891 24.8L82.4791 23.3C82.4791 22.76 82.5991 22.2 82.8391 21.62C83.0791 21.02 83.3991 20.47 83.7991 19.97C84.1991 19.45 84.6291 19.06 85.0891 18.8L85.8391 18.35C86.5391 17.95 87.1491 17.9 87.6691 18.2L90.2791 19.7ZM85.0891 21.8L82.4791 23.3L79.8691 21.8L82.4791 20.3L85.0891 21.8ZM106.125 34.25V25.25L102.225 27.5V24.5L112.605 18.5V21.5L108.705 23.75V32.75L112.605 30.5V33.5L102.225 39.5V36.5L106.125 34.25ZM107.415 18.8C106.895 19.1 106.455 19.15 106.095 18.95C105.755 18.75 105.585 18.35 105.585 17.75C105.585 17.15 105.755 16.55 106.095 15.95C106.455 15.35 106.895 14.9 107.415 14.6C107.935 14.3 108.365 14.25 108.705 14.45C109.065 14.65 109.245 15.05 109.245 15.65C109.245 16.25 109.065 16.85 108.705 17.45C108.365 18.05 107.935 18.5 107.415 18.8ZM106.125 34.25L102.225 36.5L99.6152 35L103.515 32.75L106.125 34.25ZM102.225 36.5V39.5L99.6152 38V35L102.225 36.5ZM112.605 30.5L108.705 32.75L106.125 31.25L110.025 29L112.605 30.5ZM106.125 25.25V34.25L103.515 32.75V23.75L106.125 25.25ZM112.605 18.5L102.225 24.5L99.6152 23L110.025 17L112.605 18.5ZM102.225 24.5V27.5L99.6152 26V23L102.225 24.5ZM108.735 14.45C108.375 14.25 107.935 14.3 107.415 14.6C106.895 14.9 106.455 15.35 106.095 15.95C105.755 16.55 105.585 17.15 105.585 17.75C105.585 18.35 105.765 18.75 106.125 18.95L103.515 17.45C103.175 17.25 103.005 16.85 103.005 16.25C103.005 15.65 103.175 15.05 103.515 14.45C103.855 13.85 104.295 13.4 104.835 13.1C105.355 12.8 105.785 12.75 106.125 12.95L108.735 14.45ZM12.4863 52.48L29.0943 42.88C30.1823 42.24 31.1423 42.16 31.9743 42.64C32.8383 43.12 33.2703 44 33.2703 45.28V76L29.0943 78.4V47.68L22.8543 51.28V82L18.6783 84.4V53.68L12.4863 57.28V88L8.31031 90.4V59.68C8.31031 58.816 8.50231 57.92 8.88631 56.992C9.27031 56.032 9.78231 55.152 10.4223 54.352C11.0623 53.52 11.7503 52.896 12.4863 52.48ZM29.0943 47.68V78.4L24.9183 76V45.28L29.0943 47.68ZM18.6783 53.68V84.4L14.5503 82V51.28L18.6783 53.68ZM31.9743 42.64C31.1423 42.16 30.1823 42.24 29.0943 42.88L12.4863 52.48C11.7503 52.896 11.0623 53.52 10.4223 54.352C9.78231 55.152 9.27031 56.032 8.88631 56.992C8.50231 57.92 8.31031 58.816 8.31031 59.68V90.4L4.13431 88V57.28C4.13431 56.416 4.32631 55.52 4.71031 54.592C5.09431 53.632 5.60631 52.752 6.24631 51.952C6.88631 51.12 7.57431 50.496 8.31031 50.08L24.9183 40.48C26.0383 39.84 27.0143 39.76 27.8463 40.24L31.9743 42.64ZM45.7676 62.08L54.0716 57.28C55.1596 56.64 56.1196 56.56 56.9516 57.04C57.7836 57.52 58.1996 58.4 58.1996 59.68V77.92C58.1996 78.752 58.0076 79.648 57.6236 80.608C57.2396 81.568 56.7276 82.464 56.0876 83.296C55.4796 84.096 54.8076 84.704 54.0716 85.12L45.7676 89.92C44.6476 90.56 43.6716 90.64 42.8396 90.16C42.0076 89.68 41.5916 88.8 41.5916 87.52V69.28C41.5916 68.416 41.7836 67.52 42.1676 66.592C42.5516 65.632 43.0636 64.752 43.7036 63.952C44.3436 63.12 45.0316 62.496 45.7676 62.08ZM45.7676 85.12L54.0716 80.32V62.08L45.7676 66.88V85.12ZM54.0716 62.08V80.32L49.8956 77.92V59.68L54.0716 62.08ZM54.0716 80.32L45.7676 85.12L41.5916 82.72L49.8956 77.92L54.0716 80.32ZM56.9516 57.04C56.1196 56.56 55.1596 56.64 54.0716 57.28L45.7676 62.08C45.0316 62.496 44.3436 63.12 43.7036 63.952C43.0636 64.752 42.5516 65.632 42.1676 66.592C41.7836 67.52 41.5916 68.416 41.5916 69.28V87.52C41.5916 88.8 42.0076 89.68 42.8396 90.16L38.6636 87.76C37.8316 87.28 37.4156 86.4 37.4156 85.12V66.88C37.4156 66.016 37.6076 65.12 37.9916 64.192C38.3756 63.232 38.8876 62.352 39.5276 61.552C40.1676 60.72 40.8556 60.096 41.5916 59.68L49.8956 54.88C51.0156 54.24 51.9916 54.16 52.8236 54.64L56.9516 57.04ZM66.5291 66.4L70.7051 64V68.8L74.8331 66.4C74.8331 65.536 75.0251 64.64 75.4091 63.712C75.7931 62.752 76.3051 61.872 76.9451 61.072C77.5851 60.24 78.2731 59.616 79.0091 59.2L83.1371 56.8V61.6L79.0091 64C79.0091 64.832 78.8171 65.728 78.4331 66.688C78.0491 67.648 77.5371 68.544 76.8971 69.376C76.2571 70.176 75.5691 70.784 74.8331 71.2L70.7051 73.6V88L66.5291 90.4V66.4ZM66.5291 66.4V90.4L62.3531 88V64L66.5291 66.4ZM83.1371 56.8L79.0091 59.2C78.2731 59.616 77.5851 60.24 76.9451 61.072C76.3051 61.872 75.7931 62.752 75.4091 63.712C75.0251 64.64 74.8331 65.536 74.8331 66.4L70.7051 64C70.7051 63.136 70.8971 62.24 71.2811 61.312C71.6651 60.352 72.1611 59.472 72.7691 58.672C73.4091 57.84 74.0971 57.216 74.8331 56.8L79.0091 54.4L83.1371 56.8ZM74.8331 66.4L70.7051 68.8L66.5291 66.4L70.7051 64L74.8331 66.4ZM70.7051 64L66.5291 66.4L62.3531 64L66.5291 61.6L70.7051 64ZM97.6612 89.92C96.5732 90.56 95.6132 90.64 94.7812 90.16C93.9492 89.68 93.5332 88.8 93.5332 87.52L101.837 82.72V59.2L105.965 56.8V75.52C105.965 76.352 105.773 77.248 105.389 78.208C105.005 79.168 104.493 80.064 103.853 80.896C103.245 81.696 102.573 82.304 101.837 82.72C101.837 83.552 101.645 84.448 101.261 85.408C100.877 86.368 100.365 87.248 99.7252 88.048C99.0852 88.88 98.3972 89.504 97.6612 89.92ZM89.3572 66.4L93.5332 64V87.52C92.4132 88.16 91.4372 88.24 90.6052 87.76C89.7732 87.28 89.3572 86.4 89.3572 85.12V66.4ZM105.965 56.8L101.837 59.2L97.6612 56.8L101.837 54.4L105.965 56.8ZM101.837 59.2V82.72L97.6612 80.32V56.8L101.837 59.2ZM101.837 82.72L93.5332 87.52L89.3572 85.12L97.6612 80.32L101.837 82.72ZM93.5332 87.52C93.5332 88.8 93.9492 89.68 94.7812 90.16L90.6052 87.76C89.7732 87.28 89.3572 86.4 89.3572 85.12L93.5332 87.52ZM93.5332 64L89.3572 66.4L85.1812 64L89.3572 61.6L93.5332 64ZM89.3572 66.4V85.12C89.3572 86.4 89.7732 87.28 90.6052 87.76L86.4292 85.36C85.5972 84.88 85.1812 84 85.1812 82.72V64L89.3572 66.4ZM114.295 64.48L126.775 57.28C127.863 56.64 128.823 56.56 129.655 57.04C130.487 57.52 130.903 58.4 130.903 59.68V82.72L126.775 85.12V80.32C126.775 81.152 126.583 82.048 126.199 83.008C125.815 83.968 125.303 84.864 124.663 85.696C124.023 86.496 123.335 87.104 122.599 87.52L118.471 89.92C117.351 90.56 116.375 90.64 115.543 90.16C114.711 89.68 114.295 88.8 114.295 87.52V80.8C114.295 79.936 114.487 79.04 114.871 78.112C115.255 77.152 115.767 76.272 116.407 75.472C117.047 74.64 117.735 74.016 118.471 73.6L126.775 68.8V62.08L114.295 69.28V64.48ZM118.471 85.12L126.775 80.32V73.6L118.471 78.4V85.12ZM126.775 62.08V68.8L122.599 66.4V59.68L126.775 62.08ZM126.775 80.32V85.12L122.599 82.72V77.92L126.775 80.32ZM126.775 73.6V80.32L122.599 77.92V71.2L126.775 73.6ZM126.775 80.32L118.471 85.12L114.295 82.72L122.599 77.92L126.775 80.32ZM126.775 68.8L118.471 73.6C117.735 74.016 117.047 74.64 116.407 75.472C115.767 76.272 115.255 77.152 114.871 78.112C114.487 79.04 114.295 79.936 114.295 80.8V87.52C114.295 88.8 114.711 89.68 115.543 90.16L111.367 87.76C110.535 87.28 110.119 86.4 110.119 85.12V78.4C110.119 77.536 110.311 76.64 110.695 75.712C111.079 74.752 111.591 73.872 112.231 73.072C112.871 72.24 113.559 71.616 114.295 71.2L122.599 66.4L126.775 68.8ZM129.655 57.04C128.823 56.56 127.863 56.64 126.775 57.28L114.295 64.48L110.119 62.08L122.599 54.88C123.719 54.24 124.695 54.16 125.527 54.64L129.655 57.04ZM114.295 64.48V69.28L110.119 66.88V62.08L114.295 64.48ZM139.232 64.48L143.408 62.08V66.88C143.408 66.016 143.6 65.12 143.984 64.192C144.368 63.232 144.864 62.352 145.472 61.552C146.112 60.72 146.8 60.096 147.536 59.68L151.712 57.28C152.8 56.64 153.76 56.56 154.592 57.04C155.424 57.52 155.84 58.4 155.84 59.68V80.8L151.712 83.2V62.08L143.408 66.88V88L139.232 90.4V64.48ZM151.712 62.08V83.2L147.536 80.8V59.68L151.712 62.08ZM139.232 64.48V90.4L135.056 88V62.08L139.232 64.48ZM154.592 57.04C153.76 56.56 152.8 56.64 151.712 57.28L147.536 59.68C146.8 60.096 146.112 60.72 145.472 61.552C144.864 62.352 144.368 63.232 143.984 64.192C143.6 65.12 143.408 66.016 143.408 66.88L139.232 64.48C139.232 63.616 139.424 62.72 139.808 61.792C140.192 60.832 140.704 59.952 141.344 59.152C141.984 58.32 142.672 57.696 143.408 57.28L147.536 54.88C148.656 54.24 149.632 54.16 150.464 54.64L154.592 57.04ZM143.408 62.08L139.232 64.48L135.056 62.08L139.232 59.68L143.408 62.08Z" fill="#E6EBE0"/>
</svg>
