<svg width="184" height="113" viewBox="0 0 184 113" fill="none" xmlns="http://www.w3.org/2000/svg">
<path d="M19.32 35L10.68 40V48L7.2 50V20.4L19.32 13.4C20.2267 12.8667 21.0267 12.8 21.72 13.2C22.44 13.6 22.8 14.3333 22.8 15.4V25C22.8 25.6933 22.6267 26.44 22.28 27.24C21.96 28.04 21.5333 28.7867 21 29.48C20.4933 30.1467 19.9333 30.6533 19.32 31C20.2267 30.4667 21.0267 30.4 21.72 30.8C22.44 31.2 22.8 31.9333 22.8 33V41L19.32 43V35ZM19.32 31V17.4L10.68 22.4V36L19.32 31ZM19.32 35V43L13.08 39.4V31.4L19.32 35ZM21.76 30.8C21.04 30.4 20.2267 30.4667 19.32 31L13.08 27.4C13.9867 26.8667 14.7867 26.8 15.48 27.2L21.76 30.8ZM19.32 17.4V31L13.08 27.4V13.8L19.32 17.4ZM19.32 31L10.68 36L4.4 32.4L13.08 27.4L19.32 31ZM21.76 13.2C21.04 12.8 20.2267 12.8667 19.32 13.4L7.2 20.4L0.96 16.8L13.08 9.8C13.9867 9.26667 14.7867 9.2 15.48 9.6L21.76 13.2ZM7.2 20.4V50L0.96 46.4V16.8L7.2 20.4ZM33.2191 26.4L40.1391 22.4C41.0457 21.8667 41.8457 21.8 42.5391 22.2C43.2324 22.6 43.5791 23.3333 43.5791 24.4V30.4C43.5791 31.0933 43.4191 31.84 43.0991 32.64C42.7791 33.44 42.3524 34.1867 41.8191 34.88C41.3124 35.5467 40.7524 36.0533 40.1391 36.4L36.6591 38.4C35.7524 38.9333 34.9524 39 34.2591 38.6C33.5657 38.2 33.2191 37.4667 33.2191 36.4V45.6L43.5791 39.6V43.6L33.2191 49.6C32.2857 50.1333 31.4724 50.2 30.7791 49.8C30.0857 49.4 29.7391 48.6667 29.7391 47.6V32.4C29.7391 31.68 29.8991 30.9333 30.2191 30.16C30.5391 29.36 30.9657 28.6267 31.4991 27.96C32.0324 27.2667 32.6057 26.7467 33.2191 26.4ZM40.1391 26.4L33.2191 30.4V36.4L40.1391 32.4V26.4ZM31.2591 19.64L39.5391 9.56L41.3791 11.96L33.0991 22.04L31.2591 19.64ZM43.5791 39.6L33.2191 45.6L26.9391 42L37.3391 36L43.5791 39.6ZM40.1391 26.4V32.4L33.8991 28.8V22.8L40.1391 26.4ZM33.2191 36.4C33.2191 37.4667 33.5657 38.2 34.2591 38.6L27.9791 35C27.2857 34.6 26.9391 33.8667 26.9391 32.8L33.2191 36.4ZM40.1391 32.4L33.2191 36.4L26.9391 32.8L33.8991 28.8L40.1391 32.4ZM42.5391 22.2C41.8457 21.8 41.0457 21.8667 40.1391 22.4L33.2191 26.4C32.6057 26.7467 32.0324 27.2667 31.4991 27.96C30.9657 28.6267 30.5391 29.36 30.2191 30.16C29.8991 30.9333 29.7391 31.68 29.7391 32.4V47.6C29.7391 48.6667 30.0857 49.4 30.7791 49.8L24.5391 46.2C23.8457 45.8 23.4991 45.0667 23.4991 44V28.8C23.4991 28.08 23.6591 27.3333 23.9791 26.56C24.2991 25.76 24.7124 25.0267 25.2191 24.36C25.7524 23.6667 26.3257 23.1467 26.9391 22.8L33.8991 18.8C34.8057 18.2667 35.6057 18.2 36.2991 18.6L42.5391 22.2ZM39.5391 9.56L31.2591 19.64L25.0191 16.04L33.2991 5.96L39.5391 9.56ZM31.2591 19.64L33.0991 22.04L26.8591 18.44L25.0191 16.04L31.2591 19.64ZM50.5203 28.4L54.0003 26.4V30.4C54.0003 29.68 54.1603 28.9333 54.4803 28.16C54.8003 27.36 55.2136 26.6267 55.7203 25.96C56.2536 25.2667 56.827 24.7467 57.4403 24.4L58.4803 23.8C59.4136 23.2667 60.227 23.2 60.9203 23.6C61.6136 24 61.9603 24.7333 61.9603 25.8C61.9603 25.08 62.1203 24.3333 62.4403 23.56C62.7603 22.76 63.1736 22.0267 63.6803 21.36C64.2136 20.6667 64.787 20.1467 65.4003 19.8L66.4403 19.2C67.3736 18.6667 68.187 18.6 68.8803 19C69.5736 19.4 69.9203 20.1333 69.9203 21.2V38.8L66.4403 40.8V23.2L61.9603 25.8V43.4L58.4803 45.4V27.8L54.0003 30.4V48L50.5203 50V28.4ZM66.4403 23.2V40.8L60.2003 37.2V19.6L66.4403 23.2ZM58.4803 27.8V45.4L52.2403 41.8V24.2L58.4803 27.8ZM68.8803 19C68.187 18.6 67.3736 18.6667 66.4403 19.2L65.4003 19.8C64.787 20.1467 64.2136 20.6667 63.6803 21.36C63.1736 22.0267 62.7603 22.76 62.4403 23.56C62.1203 24.3333 61.9603 25.08 61.9603 25.8L55.6803 22.2C55.6803 21.48 55.8403 20.7333 56.1603 19.96C56.507 19.16 56.9336 18.4267 57.4403 17.76C57.9736 17.0667 58.547 16.5467 59.1603 16.2L60.2003 15.6C61.107 15.0667 61.9203 15 62.6403 15.4L68.8803 19ZM50.5203 28.4V50L44.2803 46.4V24.8L50.5203 28.4ZM60.9203 23.6C60.227 23.2 59.4136 23.2667 58.4803 23.8L57.4403 24.4C56.827 24.7467 56.2536 25.2667 55.7203 25.96C55.2136 26.6267 54.8003 27.36 54.4803 28.16C54.1603 28.9333 54.0003 29.68 54.0003 30.4L47.7203 26.8C47.7203 26.08 47.8803 25.3333 48.2003 24.56C48.5203 23.76 48.947 23.0267 49.4803 22.36C50.0136 21.6667 50.587 21.1467 51.2003 20.8L52.2403 20.2C53.147 19.6667 53.947 19.6 54.6403 20L60.9203 23.6ZM54.0003 26.4L50.5203 28.4L44.2803 24.8L47.7203 22.8L54.0003 26.4ZM82.0484 43V31L76.8484 34V30L90.6884 22V26L85.4884 29V41L90.6884 38V42L76.8484 50V46L82.0484 43ZM83.7684 22.4C83.0751 22.8 82.4884 22.8667 82.0084 22.6C81.5551 22.3333 81.3284 21.8 81.3284 21C81.3284 20.2 81.5551 19.4 82.0084 18.6C82.4884 17.8 83.0751 17.2 83.7684 16.8C84.4618 16.4 85.0351 16.3333 85.4884 16.6C85.9684 16.8667 86.2084 17.4 86.2084 18.2C86.2084 19 85.9684 19.8 85.4884 20.6C85.0351 21.4 84.4618 22 83.7684 22.4ZM82.0484 43L76.8484 46L70.6084 42.4L75.8084 39.4L82.0484 43ZM76.8484 46V50L70.6084 46.4V42.4L76.8484 46ZM90.6884 38L85.4884 41L79.2484 37.4L84.4484 34.4L90.6884 38ZM82.0484 31V43L75.8084 39.4V27.4L82.0484 31ZM90.6884 22L76.8484 30L70.6084 26.4L84.4484 18.4L90.6884 22ZM76.8484 30V34L70.6084 30.4V26.4L76.8484 30ZM85.5284 16.6C85.0484 16.3333 84.4618 16.4 83.7684 16.8C83.0751 17.2 82.4884 17.8 82.0084 18.6C81.5551 19.4 81.3284 20.2 81.3284 21C81.3284 21.8 81.5684 22.3333 82.0484 22.6L75.7684 19C75.3151 18.7333 75.0884 18.2 75.0884 17.4C75.0884 16.6 75.3151 15.8 75.7684 15C76.2484 14.2 76.8351 13.6 77.5284 13.2C78.2218 12.8 78.7951 12.7333 79.2484 13L85.5284 16.6ZM14.152 66.56L33.528 55.36C34.7973 54.6133 35.9173 54.52 36.888 55.08C37.896 55.64 38.4 56.6667 38.4 58.16V94L33.528 96.8V60.96L26.248 65.16V101L21.376 103.8V67.96L14.152 72.16V108L9.28 110.8V74.96C9.28 73.952 9.504 72.9067 9.952 71.824C10.4 70.704 10.9973 69.6773 11.744 68.744C12.4907 67.7733 13.2933 67.0453 14.152 66.56ZM33.528 60.96V96.8L24.792 91.76V55.92L33.528 60.96ZM21.376 67.96V103.8L12.64 98.76V62.92L21.376 67.96ZM36.888 55.08C35.9173 54.52 34.7973 54.6133 33.528 55.36L14.152 66.56C13.2933 67.0453 12.4907 67.7733 11.744 68.744C10.9973 69.6773 10.4 70.704 9.952 71.824C9.504 72.9067 9.28 73.952 9.28 74.96V110.8L0.544 105.76V69.92C0.544 68.912 0.768 67.8667 1.216 66.784C1.664 65.664 2.24267 64.6373 2.952 63.704C3.69867 62.7333 4.50133 62.0053 5.36 61.52L24.792 50.32C26.0613 49.5733 27.1813 49.48 28.152 50.04L36.888 55.08ZM52.9801 77.76L62.6681 72.16C63.9375 71.4133 65.0575 71.32 66.0281 71.88C66.9988 72.44 67.4841 73.4667 67.4841 74.96V96.24C67.4841 97.2107 67.2601 98.256 66.8121 99.376C66.3641 100.496 65.7668 101.541 65.0201 102.512C64.3108 103.445 63.5268 104.155 62.6681 104.64L52.9801 110.24C51.6735 110.987 50.5348 111.08 49.5641 110.52C48.5935 109.96 48.1081 108.933 48.1081 107.44V86.16C48.1081 85.152 48.3321 84.1067 48.7801 83.024C49.2281 81.904 49.8255 80.8773 50.5721 79.944C51.3188 78.9733 52.1215 78.2453 52.9801 77.76ZM52.9801 104.64L62.6681 99.04V77.76L52.9801 83.36V104.64ZM62.6681 77.76V99.04L53.9321 94V72.72L62.6681 77.76ZM62.6681 99.04L52.9801 104.64L44.1881 99.6L53.9321 94L62.6681 99.04ZM66.0281 71.88C65.0575 71.32 63.9375 71.4133 62.6681 72.16L52.9801 77.76C52.1215 78.2453 51.3188 78.9733 50.5721 79.944C49.8255 80.8773 49.2281 81.904 48.7801 83.024C48.3321 84.1067 48.1081 85.152 48.1081 86.16V107.44C48.1081 108.933 48.5935 109.96 49.5641 110.52L40.8281 105.48C39.8575 104.92 39.3721 103.893 39.3721 102.4V81.12C39.3721 80.112 39.5961 79.0667 40.0441 77.984C40.4921 76.864 41.0708 75.8373 41.7801 74.904C42.5268 73.9333 43.3295 73.2053 44.1881 72.72L53.9321 67.12C55.2015 66.3733 56.3215 66.28 57.2921 66.84L66.0281 71.88ZM77.2019 82.8L82.0739 80V85.6L86.8899 82.8C86.8899 81.792 87.1139 80.7467 87.5619 79.664C88.0099 78.544 88.6072 77.5173 89.3539 76.584C90.1005 75.6133 90.9032 74.8853 91.7619 74.4L96.5779 71.6V77.2L91.7619 80C91.7619 80.9707 91.5379 82.016 91.0899 83.136C90.6419 84.256 90.0445 85.3013 89.2979 86.272C88.5512 87.2053 87.7485 87.9147 86.8899 88.4L82.0739 91.2V108L77.2019 110.8V82.8ZM77.2019 82.8V110.8L68.4659 105.76V77.76L77.2019 82.8ZM96.5779 71.6L91.7619 74.4C90.9032 74.8853 90.1005 75.6133 89.3539 76.584C88.6072 77.5173 88.0099 78.544 87.5619 79.664C87.1139 80.7467 86.8899 81.792 86.8899 82.8L78.1539 77.76C78.1539 76.752 78.3779 75.7067 78.8259 74.624C79.2739 73.504 79.8712 72.4773 80.6179 71.544C81.3645 70.5733 82.1672 69.8453 83.0259 69.36L87.8419 66.56L96.5779 71.6ZM86.8899 82.8L82.0739 85.6L73.2819 80.56L78.1539 77.76L86.8899 82.8ZM82.0739 80L77.2019 82.8L68.4659 77.76L73.2819 74.96L82.0739 80ZM113.523 110.24C112.253 110.987 111.133 111.08 110.163 110.52C109.192 109.96 108.707 108.933 108.707 107.44L118.395 101.84V74.4L123.211 71.6V93.44C123.211 94.4107 122.987 95.456 122.539 96.576C122.091 97.696 121.493 98.7413 120.747 99.712C120.037 100.645 119.253 101.355 118.395 101.84C118.395 102.811 118.171 103.856 117.723 104.976C117.275 106.096 116.677 107.123 115.931 108.056C115.184 109.027 114.381 109.755 113.523 110.24ZM103.835 82.8L108.707 80V107.44C107.4 108.187 106.261 108.28 105.291 107.72C104.32 107.16 103.835 106.133 103.835 104.64V82.8ZM123.211 71.6L118.395 74.4L109.659 69.36L114.475 66.56L123.211 71.6ZM118.395 74.4V101.84L109.659 96.8V69.36L118.395 74.4ZM118.395 101.84L108.707 107.44L99.9147 102.4L109.659 96.8L118.395 101.84ZM108.707 107.44C108.707 108.933 109.192 109.96 110.163 110.52L101.371 105.48C100.4 104.92 99.9147 103.893 99.9147 102.4L108.707 107.44ZM108.707 80L103.835 82.8L95.0987 77.76L99.9147 74.96L108.707 80ZM103.835 82.8V104.64C103.835 106.133 104.32 107.16 105.291 107.72L96.5547 102.68C95.584 102.12 95.0987 101.093 95.0987 99.6V77.76L103.835 82.8ZM132.928 80.56L147.488 72.16C148.758 71.4133 149.878 71.32 150.848 71.88C151.819 72.44 152.304 73.4667 152.304 74.96V101.84L147.488 104.64V99.04C147.488 100.011 147.264 101.056 146.816 102.176C146.368 103.296 145.771 104.341 145.024 105.312C144.278 106.245 143.475 106.955 142.616 107.44L137.8 110.24C136.494 110.987 135.355 111.08 134.384 110.52C133.414 109.96 132.928 108.933 132.928 107.44V99.6C132.928 98.592 133.152 97.5467 133.6 96.464C134.048 95.344 134.646 94.3173 135.392 93.384C136.139 92.4133 136.942 91.6853 137.8 91.2L147.488 85.6V77.76L132.928 86.16V80.56ZM137.8 104.64L147.488 99.04V91.2L137.8 96.8V104.64ZM147.488 77.76V85.6L138.752 80.56V72.72L147.488 77.76ZM147.488 99.04V104.64L138.752 99.6V94L147.488 99.04ZM147.488 91.2V99.04L138.752 94V86.16L147.488 91.2ZM147.488 99.04L137.8 104.64L129.008 99.6L138.752 94L147.488 99.04ZM147.488 85.6L137.8 91.2C136.942 91.6853 136.139 92.4133 135.392 93.384C134.646 94.3173 134.048 95.344 133.6 96.464C133.152 97.5467 132.928 98.592 132.928 99.6V107.44C132.928 108.933 133.414 109.96 134.384 110.52L125.648 105.48C124.678 104.92 124.192 103.893 124.192 102.4V94.56C124.192 93.552 124.416 92.5067 124.864 91.424C125.312 90.304 125.891 89.2773 126.6 88.344C127.347 87.3733 128.15 86.6453 129.008 86.16L138.752 80.56L147.488 85.6ZM150.848 71.88C149.878 71.32 148.758 71.4133 147.488 72.16L132.928 80.56L124.192 75.52L138.752 67.12C140.022 66.3733 141.142 66.28 142.112 66.84L150.848 71.88ZM132.928 80.56V86.16L124.192 81.12V75.52L132.928 80.56ZM162.022 80.56L166.894 77.76V83.36C166.894 82.352 167.118 81.3067 167.566 80.224C168.014 79.104 168.593 78.0773 169.302 77.144C170.049 76.1733 170.852 75.4453 171.71 74.96L176.582 72.16C177.852 71.4133 178.972 71.32 179.942 71.88C180.913 72.44 181.398 73.4667 181.398 74.96V99.6L176.582 102.4V77.76L166.894 83.36V108L162.022 110.8V80.56ZM176.582 77.76V102.4L167.846 97.36V72.72L176.582 77.76ZM162.022 80.56V110.8L153.286 105.76V75.52L162.022 80.56ZM179.942 71.88C178.972 71.32 177.852 71.4133 176.582 72.16L171.71 74.96C170.852 75.4453 170.049 76.1733 169.302 77.144C168.593 78.0773 168.014 79.104 167.566 80.224C167.118 81.3067 166.894 82.352 166.894 83.36L158.102 78.32C158.102 77.312 158.326 76.2667 158.774 75.184C159.222 74.064 159.82 73.0373 160.566 72.104C161.313 71.1333 162.116 70.4053 162.974 69.92L167.846 67.12C169.116 66.3733 170.236 66.28 171.206 66.84L179.942 71.88ZM166.894 77.76L162.022 80.56L153.286 75.52L158.102 72.72L166.894 77.76Z" fill="#079992"/>
<path d="M19.32 35L10.68 40V48L7.2 50V20.4L19.32 13.4C20.2267 12.8667 21.0267 12.8 21.72 13.2C22.44 13.6 22.8 14.3333 22.8 15.4V25C22.8 25.6933 22.6267 26.44 22.28 27.24C21.96 28.04 21.5333 28.7867 21 29.48C20.4933 30.1467 19.9333 30.6533 19.32 31C20.2267 30.4667 21.0267 30.4 21.72 30.8C22.44 31.2 22.8 31.9333 22.8 33V41L19.32 43V35ZM19.32 31V17.4L10.68 22.4V36L19.32 31ZM19.32 35V43L15.84 41V33L19.32 35ZM21.76 30.8C21.04 30.4 20.2267 30.4667 19.32 31L15.84 29C16.7733 28.4667 17.5867 28.4 18.28 28.8L21.76 30.8ZM19.32 17.4V31L15.84 29V15.4L19.32 17.4ZM19.32 31L10.68 36L7.2 34L15.84 29L19.32 31ZM21.76 13.2C21.04 12.8 20.2267 12.8667 19.32 13.4L7.2 20.4L3.72 18.4L15.84 11.4C16.7733 10.8667 17.5867 10.8 18.28 11.2L21.76 13.2ZM7.2 20.4V50L3.72 48V18.4L7.2 20.4ZM33.2191 26.4L40.1391 22.4C41.0457 21.8667 41.8457 21.8 42.5391 22.2C43.2324 22.6 43.5791 23.3333 43.5791 24.4V30.4C43.5791 31.0933 43.4191 31.84 43.0991 32.64C42.7791 33.44 42.3524 34.1867 41.8191 34.88C41.3124 35.5467 40.7524 36.0533 40.1391 36.4L36.6591 38.4C35.7524 38.9333 34.9524 39 34.2591 38.6C33.5657 38.2 33.2191 37.4667 33.2191 36.4V45.6L43.5791 39.6V43.6L33.2191 49.6C32.2857 50.1333 31.4724 50.2 30.7791 49.8C30.0857 49.4 29.7391 48.6667 29.7391 47.6V32.4C29.7391 31.68 29.8991 30.9333 30.2191 30.16C30.5391 29.36 30.9657 28.6267 31.4991 27.96C32.0324 27.2667 32.6057 26.7467 33.2191 26.4ZM40.1391 26.4L33.2191 30.4V36.4L40.1391 32.4V26.4ZM31.2591 19.64L39.5391 9.56L41.3791 11.96L33.0991 22.04L31.2591 19.64ZM43.5791 39.6L33.2191 45.6L29.7391 43.6L40.1391 37.6L43.5791 39.6ZM40.1391 26.4V32.4L36.6591 30.4V24.4L40.1391 26.4ZM33.2191 36.4C33.2191 37.4667 33.5657 38.2 34.2591 38.6L30.7791 36.6C30.0857 36.2 29.7391 35.4667 29.7391 34.4L33.2191 36.4ZM40.1391 32.4L33.2191 36.4L29.7391 34.4L36.6591 30.4L40.1391 32.4ZM42.5391 22.2C41.8457 21.8 41.0457 21.8667 40.1391 22.4L33.2191 26.4C32.6057 26.7467 32.0324 27.2667 31.4991 27.96C30.9657 28.6267 30.5391 29.36 30.2191 30.16C29.8991 30.9333 29.7391 31.68 29.7391 32.4V47.6C29.7391 48.6667 30.0857 49.4 30.7791 49.8L27.2991 47.8C26.6057 47.4 26.2591 46.6667 26.2591 45.6V30.4C26.2591 29.68 26.4191 28.9333 26.7391 28.16C27.0591 27.36 27.4857 26.6267 28.0191 25.96C28.5524 25.2667 29.1257 24.7467 29.7391 24.4L36.6591 20.4C37.5924 19.8667 38.4057 19.8 39.0991 20.2L42.5391 22.2ZM39.5391 9.56L31.2591 19.64L27.7791 17.64L36.0591 7.56L39.5391 9.56ZM31.2591 19.64L33.0991 22.04L29.6191 20.04L27.7791 17.64L31.2591 19.64ZM50.5203 28.4L54.0003 26.4V30.4C54.0003 29.68 54.1603 28.9333 54.4803 28.16C54.8003 27.36 55.2136 26.6267 55.7203 25.96C56.2536 25.2667 56.827 24.7467 57.4403 24.4L58.4803 23.8C59.4136 23.2667 60.227 23.2 60.9203 23.6C61.6136 24 61.9603 24.7333 61.9603 25.8C61.9603 25.08 62.1203 24.3333 62.4403 23.56C62.7603 22.76 63.1736 22.0267 63.6803 21.36C64.2136 20.6667 64.787 20.1467 65.4003 19.8L66.4403 19.2C67.3736 18.6667 68.187 18.6 68.8803 19C69.5736 19.4 69.9203 20.1333 69.9203 21.2V38.8L66.4403 40.8V23.2L61.9603 25.8V43.4L58.4803 45.4V27.8L54.0003 30.4V48L50.5203 50V28.4ZM66.4403 23.2V40.8L63.0003 38.8V21.2L66.4403 23.2ZM58.4803 27.8V45.4L55.0003 43.4V25.8L58.4803 27.8ZM68.8803 19C68.187 18.6 67.3736 18.6667 66.4403 19.2L65.4003 19.8C64.787 20.1467 64.2136 20.6667 63.6803 21.36C63.1736 22.0267 62.7603 22.76 62.4403 23.56C62.1203 24.3333 61.9603 25.08 61.9603 25.8L58.4803 23.8C58.4803 23.08 58.6403 22.3333 58.9603 21.56C59.2803 20.76 59.707 20.0267 60.2403 19.36C60.7736 18.6667 61.347 18.1467 61.9603 17.8L63.0003 17.2C63.907 16.6667 64.707 16.6 65.4003 17L68.8803 19ZM50.5203 28.4V50L47.0403 48V26.4L50.5203 28.4ZM60.9203 23.6C60.227 23.2 59.4136 23.2667 58.4803 23.8L57.4403 24.4C56.827 24.7467 56.2536 25.2667 55.7203 25.96C55.2136 26.6267 54.8003 27.36 54.4803 28.16C54.1603 28.9333 54.0003 29.68 54.0003 30.4L50.5203 28.4C50.5203 27.68 50.6803 26.9333 51.0003 26.16C51.3203 25.36 51.747 24.6267 52.2803 23.96C52.8136 23.2667 53.387 22.7467 54.0003 22.4L55.0003 21.8C55.9336 21.2667 56.747 21.2 57.4403 21.6L60.9203 23.6ZM54.0003 26.4L50.5203 28.4L47.0403 26.4L50.5203 24.4L54.0003 26.4ZM82.0484 43V31L76.8484 34V30L90.6884 22V26L85.4884 29V41L90.6884 38V42L76.8484 50V46L82.0484 43ZM83.7684 22.4C83.0751 22.8 82.4884 22.8667 82.0084 22.6C81.5551 22.3333 81.3284 21.8 81.3284 21C81.3284 20.2 81.5551 19.4 82.0084 18.6C82.4884 17.8 83.0751 17.2 83.7684 16.8C84.4618 16.4 85.0351 16.3333 85.4884 16.6C85.9684 16.8667 86.2084 17.4 86.2084 18.2C86.2084 19 85.9684 19.8 85.4884 20.6C85.0351 21.4 84.4618 22 83.7684 22.4ZM82.0484 43L76.8484 46L73.3684 44L78.5684 41L82.0484 43ZM76.8484 46V50L73.3684 48V44L76.8484 46ZM90.6884 38L85.4884 41L82.0484 39L87.2484 36L90.6884 38ZM82.0484 31V43L78.5684 41V29L82.0484 31ZM90.6884 22L76.8484 30L73.3684 28L87.2484 20L90.6884 22ZM76.8484 30V34L73.3684 32V28L76.8484 30ZM85.5284 16.6C85.0484 16.3333 84.4618 16.4 83.7684 16.8C83.0751 17.2 82.4884 17.8 82.0084 18.6C81.5551 19.4 81.3284 20.2 81.3284 21C81.3284 21.8 81.5684 22.3333 82.0484 22.6L78.5684 20.6C78.1151 20.3333 77.8884 19.8 77.8884 19C77.8884 18.2 78.1151 17.4 78.5684 16.6C79.0218 15.8 79.6084 15.2 80.3284 14.8C81.0218 14.4 81.5951 14.3333 82.0484 14.6L85.5284 16.6ZM14.152 66.56L33.528 55.36C34.7973 54.6133 35.9173 54.52 36.888 55.08C37.896 55.64 38.4 56.6667 38.4 58.16V94L33.528 96.8V60.96L26.248 65.16V101L21.376 103.8V67.96L14.152 72.16V108L9.28 110.8V74.96C9.28 73.952 9.504 72.9067 9.952 71.824C10.4 70.704 10.9973 69.6773 11.744 68.744C12.4907 67.7733 13.2933 67.0453 14.152 66.56ZM33.528 60.96V96.8L28.656 94V58.16L33.528 60.96ZM21.376 67.96V103.8L16.56 101V65.16L21.376 67.96ZM36.888 55.08C35.9173 54.52 34.7973 54.6133 33.528 55.36L14.152 66.56C13.2933 67.0453 12.4907 67.7733 11.744 68.744C10.9973 69.6773 10.4 70.704 9.952 71.824C9.504 72.9067 9.28 73.952 9.28 74.96V110.8L4.408 108V72.16C4.408 71.152 4.632 70.1067 5.08 69.024C5.528 67.904 6.12533 66.8773 6.872 65.944C7.61867 64.9733 8.42133 64.2453 9.28 63.76L28.656 52.56C29.9627 51.8133 31.1013 51.72 32.072 52.28L36.888 55.08ZM52.9801 77.76L62.6681 72.16C63.9375 71.4133 65.0575 71.32 66.0281 71.88C66.9988 72.44 67.4841 73.4667 67.4841 74.96V96.24C67.4841 97.2107 67.2601 98.256 66.8121 99.376C66.3641 100.496 65.7668 101.541 65.0201 102.512C64.3108 103.445 63.5268 104.155 62.6681 104.64L52.9801 110.24C51.6735 110.987 50.5348 111.08 49.5641 110.52C48.5935 109.96 48.1081 108.933 48.1081 107.44V86.16C48.1081 85.152 48.3321 84.1067 48.7801 83.024C49.2281 81.904 49.8255 80.8773 50.5721 79.944C51.3188 78.9733 52.1215 78.2453 52.9801 77.76ZM52.9801 104.64L62.6681 99.04V77.76L52.9801 83.36V104.64ZM62.6681 77.76V99.04L57.7961 96.24V74.96L62.6681 77.76ZM62.6681 99.04L52.9801 104.64L48.1081 101.84L57.7961 96.24L62.6681 99.04ZM66.0281 71.88C65.0575 71.32 63.9375 71.4133 62.6681 72.16L52.9801 77.76C52.1215 78.2453 51.3188 78.9733 50.5721 79.944C49.8255 80.8773 49.2281 81.904 48.7801 83.024C48.3321 84.1067 48.1081 85.152 48.1081 86.16V107.44C48.1081 108.933 48.5935 109.96 49.5641 110.52L44.6921 107.72C43.7215 107.16 43.2361 106.133 43.2361 104.64V83.36C43.2361 82.352 43.4601 81.3067 43.9081 80.224C44.3561 79.104 44.9535 78.0773 45.7001 77.144C46.4468 76.1733 47.2495 75.4453 48.1081 74.96L57.7961 69.36C59.1028 68.6133 60.2415 68.52 61.2121 69.08L66.0281 71.88ZM77.2019 82.8L82.0739 80V85.6L86.8899 82.8C86.8899 81.792 87.1139 80.7467 87.5619 79.664C88.0099 78.544 88.6072 77.5173 89.3539 76.584C90.1005 75.6133 90.9032 74.8853 91.7619 74.4L96.5779 71.6V77.2L91.7619 80C91.7619 80.9707 91.5379 82.016 91.0899 83.136C90.6419 84.256 90.0445 85.3013 89.2979 86.272C88.5512 87.2053 87.7485 87.9147 86.8899 88.4L82.0739 91.2V108L77.2019 110.8V82.8ZM77.2019 82.8V110.8L72.3299 108V80L77.2019 82.8ZM96.5779 71.6L91.7619 74.4C90.9032 74.8853 90.1005 75.6133 89.3539 76.584C88.6072 77.5173 88.0099 78.544 87.5619 79.664C87.1139 80.7467 86.8899 81.792 86.8899 82.8L82.0739 80C82.0739 78.992 82.2979 77.9467 82.7459 76.864C83.1939 75.744 83.7725 74.7173 84.4819 73.784C85.2285 72.8133 86.0312 72.0853 86.8899 71.6L91.7619 68.8L96.5779 71.6ZM86.8899 82.8L82.0739 85.6L77.2019 82.8L82.0739 80L86.8899 82.8ZM82.0739 80L77.2019 82.8L72.3299 80L77.2019 77.2L82.0739 80ZM113.523 110.24C112.253 110.987 111.133 111.08 110.163 110.52C109.192 109.96 108.707 108.933 108.707 107.44L118.395 101.84V74.4L123.211 71.6V93.44C123.211 94.4107 122.987 95.456 122.539 96.576C122.091 97.696 121.493 98.7413 120.747 99.712C120.037 100.645 119.253 101.355 118.395 101.84C118.395 102.811 118.171 103.856 117.723 104.976C117.275 106.096 116.677 107.123 115.931 108.056C115.184 109.027 114.381 109.755 113.523 110.24ZM103.835 82.8L108.707 80V107.44C107.4 108.187 106.261 108.28 105.291 107.72C104.32 107.16 103.835 106.133 103.835 104.64V82.8ZM123.211 71.6L118.395 74.4L113.523 71.6L118.395 68.8L123.211 71.6ZM118.395 74.4V101.84L113.523 99.04V71.6L118.395 74.4ZM118.395 101.84L108.707 107.44L103.835 104.64L113.523 99.04L118.395 101.84ZM108.707 107.44C108.707 108.933 109.192 109.96 110.163 110.52L105.291 107.72C104.32 107.16 103.835 106.133 103.835 104.64L108.707 107.44ZM108.707 80L103.835 82.8L98.9627 80L103.835 77.2L108.707 80ZM103.835 82.8V104.64C103.835 106.133 104.32 107.16 105.291 107.72L100.419 104.92C99.448 104.36 98.9627 103.333 98.9627 101.84V80L103.835 82.8ZM132.928 80.56L147.488 72.16C148.758 71.4133 149.878 71.32 150.848 71.88C151.819 72.44 152.304 73.4667 152.304 74.96V101.84L147.488 104.64V99.04C147.488 100.011 147.264 101.056 146.816 102.176C146.368 103.296 145.771 104.341 145.024 105.312C144.278 106.245 143.475 106.955 142.616 107.44L137.8 110.24C136.494 110.987 135.355 111.08 134.384 110.52C133.414 109.96 132.928 108.933 132.928 107.44V99.6C132.928 98.592 133.152 97.5467 133.6 96.464C134.048 95.344 134.646 94.3173 135.392 93.384C136.139 92.4133 136.942 91.6853 137.8 91.2L147.488 85.6V77.76L132.928 86.16V80.56ZM137.8 104.64L147.488 99.04V91.2L137.8 96.8V104.64ZM147.488 77.76V85.6L142.616 82.8V74.96L147.488 77.76ZM147.488 99.04V104.64L142.616 101.84V96.24L147.488 99.04ZM147.488 91.2V99.04L142.616 96.24V88.4L147.488 91.2ZM147.488 99.04L137.8 104.64L132.928 101.84L142.616 96.24L147.488 99.04ZM147.488 85.6L137.8 91.2C136.942 91.6853 136.139 92.4133 135.392 93.384C134.646 94.3173 134.048 95.344 133.6 96.464C133.152 97.5467 132.928 98.592 132.928 99.6V107.44C132.928 108.933 133.414 109.96 134.384 110.52L129.512 107.72C128.542 107.16 128.056 106.133 128.056 104.64V96.8C128.056 95.792 128.28 94.7467 128.728 93.664C129.176 92.544 129.774 91.5173 130.52 90.584C131.267 89.6133 132.07 88.8853 132.928 88.4L142.616 82.8L147.488 85.6ZM150.848 71.88C149.878 71.32 148.758 71.4133 147.488 72.16L132.928 80.56L128.056 77.76L142.616 69.36C143.923 68.6133 145.062 68.52 146.032 69.08L150.848 71.88ZM132.928 80.56V86.16L128.056 83.36V77.76L132.928 80.56ZM162.022 80.56L166.894 77.76V83.36C166.894 82.352 167.118 81.3067 167.566 80.224C168.014 79.104 168.593 78.0773 169.302 77.144C170.049 76.1733 170.852 75.4453 171.71 74.96L176.582 72.16C177.852 71.4133 178.972 71.32 179.942 71.88C180.913 72.44 181.398 73.4667 181.398 74.96V99.6L176.582 102.4V77.76L166.894 83.36V108L162.022 110.8V80.56ZM176.582 77.76V102.4L171.71 99.6V74.96L176.582 77.76ZM162.022 80.56V110.8L157.15 108V77.76L162.022 80.56ZM179.942 71.88C178.972 71.32 177.852 71.4133 176.582 72.16L171.71 74.96C170.852 75.4453 170.049 76.1733 169.302 77.144C168.593 78.0773 168.014 79.104 167.566 80.224C167.118 81.3067 166.894 82.352 166.894 83.36L162.022 80.56C162.022 79.552 162.246 78.5067 162.694 77.424C163.142 76.304 163.74 75.2773 164.486 74.344C165.233 73.3733 166.036 72.6453 166.894 72.16L171.71 69.36C173.017 68.6133 174.156 68.52 175.126 69.08L179.942 71.88ZM166.894 77.76L162.022 80.56L157.15 77.76L162.022 74.96L166.894 77.76Z" fill="#E6EBE0"/>
</svg>
