<svg width="100" height="100" viewBox="0 0 100 100" fill="none" xmlns="http://www.w3.org/2000/svg">
<path d="M38.2443 8.54101C45.2541 3.44813 54.746 3.44814 61.7557 8.54102L85.7971 26.0081C92.8069 31.101 95.74 40.1284 93.0625 48.3688L83.8795 76.6312C81.2021 84.8717 73.5229 90.4509 64.8584 90.4509H35.1416C26.4771 90.4509 18.7979 84.8716 16.1205 76.6312L6.93745 48.3688C4.25997 40.1283 7.19313 31.101 14.2029 26.0081L38.2443 8.54101Z" fill="#E58E26"/>
<path d="M50 45.5001V59.0001M50 59.0001L44 53.0001M50 59.0001L56 53.0001M39.5 65.0001C37.3589 65.0024 35.287 64.2413 33.6566 62.8535C32.0261 61.4656 30.9439 59.542 30.6042 57.4279C30.2645 55.3139 30.6896 53.148 31.8032 51.3193C32.9168 49.4905 34.6459 48.1187 36.68 47.4501C36.1574 44.7724 36.6975 41.9965 38.186 39.7101C39.6744 37.4238 41.9943 35.8065 44.6544 35.2008C47.3145 34.5951 50.1059 35.0486 52.4375 36.4651C54.7691 37.8817 56.4578 40.1501 57.146 42.7901C58.21 42.444 59.3496 42.4024 60.436 42.6699C61.5225 42.9374 62.5125 43.5033 63.2942 44.3038C64.076 45.1042 64.6183 46.1074 64.86 47.1998C65.1017 48.2923 65.0331 49.4306 64.662 50.4861C66.2993 51.1115 67.666 52.2903 68.5251 53.818C69.3842 55.3457 69.6814 57.1259 69.3652 58.8498C69.0491 60.5738 68.1394 62.1326 66.7941 63.256C65.4488 64.3794 63.7527 64.9964 62 65.0001H39.5Z" stroke="#E6EBE0" stroke-width="2.5" stroke-linecap="round" stroke-linejoin="round"/>
</svg>
