<svg width="200" height="200" viewBox="0 0 200 200" fill="none" xmlns="http://www.w3.org/2000/svg">
<path d="M100 0C155.228 0 200 44.7715 200 100C200 155.228 155.228 200 100 200C44.7715 200 0 155.228 0 100C0 44.7715 44.7715 0 100 0ZM109.065 27.4199C91.9055 20.1697 72.0281 24.7934 59.8301 38.873L33.7734 68.9502C21.5757 83.0298 19.8311 103.363 29.4521 119.314L50.0039 153.391C59.6251 169.342 78.4242 177.284 96.5684 173.063L135.327 164.047C153.471 159.826 166.834 144.402 168.427 125.842L171.83 86.1934C173.423 67.633 162.882 50.1575 145.723 42.9072L109.065 27.4199ZM95.0967 170.317C94.8784 170.364 94.6599 170.406 94.4414 170.448L95.0967 170.317ZM135.437 160.934L134.647 161.125C134.959 161.053 135.268 160.976 135.576 160.896C135.53 160.909 135.483 160.922 135.437 160.934ZM136.47 160.653C136.224 160.723 135.978 160.79 135.73 160.854C135.978 160.79 136.224 160.723 136.47 160.653ZM137.34 160.396C137.13 160.461 136.919 160.524 136.707 160.585C136.919 160.524 137.13 160.461 137.34 160.396ZM138.476 160.031C138.192 160.128 137.907 160.219 137.621 160.31C137.907 160.219 138.192 160.128 138.476 160.031ZM168.901 85.1309C168.884 85.3995 168.864 85.6684 168.841 85.9375L166.041 118.563L168.841 85.9365C168.864 85.6674 168.884 85.3985 168.901 85.1299V85.1309ZM67.9033 35.3506C68.0871 35.2088 68.272 35.0688 68.458 34.9307L67.9033 35.3506ZM77.4238 29.9102C77.2031 29.9991 76.9831 30.09 76.7637 30.1826C76.9641 30.098 77.1646 30.0139 77.3662 29.9326L77.4238 29.9102ZM80.96 28.6807C81.0256 28.6612 81.0915 28.6422 81.1572 28.623C81.0915 28.6422 81.0256 28.6612 80.96 28.6807ZM81.9736 28.3945C82.0338 28.3784 82.0941 28.3626 82.1543 28.3467C82.0941 28.3625 82.0338 28.3784 81.9736 28.3945ZM83.1299 28.1025C83.0788 28.1146 83.0276 28.1264 82.9766 28.1387C83.0276 28.1264 83.0788 28.1146 83.1299 28.1025ZM83.916 27.9248C83.9512 27.9172 83.9863 27.9088 84.0215 27.9014L84.0898 27.8867C84.0318 27.899 83.974 27.9123 83.916 27.9248ZM86.3057 27.4854L85.541 27.6094C85.7951 27.5656 86.0497 27.5242 86.3047 27.4854L87.0713 27.376C86.8157 27.4099 86.5605 27.4465 86.3057 27.4854ZM90.1572 27.0869C89.6409 27.1152 89.1255 27.154 88.6113 27.2021L87.8398 27.2812C88.3529 27.2232 88.8673 27.175 89.3828 27.1367L90.1572 27.0869Z" fill="#141519"/>
<path d="M61.5213 39.2249C73.3353 26.13 92.1787 21.9133 108.481 28.801L145.138 44.2888L145.91 44.6246C161.759 51.6999 171.534 67.9064 170.399 85.2257L170.335 86.0646L166.932 125.713C165.395 143.626 152.499 158.513 134.987 162.586L96.2282 171.603C78.9906 175.613 61.1407 168.248 51.7301 153.332L51.2887 152.615L30.7364 118.539C21.4509 103.144 23.1342 83.5202 34.9067 69.9317L60.9639 39.8549L61.5213 39.2249Z" stroke="#090909" stroke-width="3"/>
</svg>
