<svg width="101" height="101" viewBox="0 0 101 101" fill="none" xmlns="http://www.w3.org/2000/svg">
<g clip-path="url(#clip0_151_489)">
<path d="M39.5456 9.84253C46.5553 4.74965 56.0472 4.74965 63.057 9.84253L87.0984 27.3096C94.1081 32.4025 97.0413 41.4299 94.3638 49.6703L85.1808 77.9327C82.5033 86.1732 74.8242 91.7524 66.1597 91.7524H36.4428C27.7783 91.7524 20.0992 86.1732 17.4217 77.9327L8.23872 49.6703C5.56123 41.4299 8.4944 32.4025 15.5041 27.3096L39.5456 9.84253Z" fill="#079992"/>
<path d="M56.0625 45.9375L61.125 51L56.0625 56.0625M45.9375 56.0625L40.875 51L45.9375 45.9375M37.5 69.5625H64.5C65.8427 69.5625 67.1303 69.0291 68.0797 68.0797C69.0291 67.1303 69.5625 65.8427 69.5625 64.5V37.5C69.5625 36.1573 69.0291 34.8697 68.0797 33.9203C67.1303 32.9709 65.8427 32.4375 64.5 32.4375H37.5C36.1573 32.4375 34.8697 32.9709 33.9203 33.9203C32.9709 34.8697 32.4375 36.1573 32.4375 37.5V64.5C32.4375 65.8427 32.9709 67.1303 33.9203 68.0797C34.8697 69.0291 36.1573 69.5625 37.5 69.5625Z" stroke="#E6EBE0" stroke-width="3" stroke-linecap="round" stroke-linejoin="round"/>
</g>
<defs>
<clipPath id="clip0_151_489">
<rect width="100" height="100" fill="white" transform="translate(0.69873 0.69873)"/>
</clipPath>
</defs>
</svg>
